<svg id="Layer_1" data-name="Layer 1" xmlns="http://www.w3.org/2000/svg" viewBox="0 0 158.36 81.07"><defs><style>.cls-1{fill:#444;}</style></defs><title>greylogo</title><path class="cls-1" d="M0,63.94H2.59L7,76.48l-.39-.13,3.25-8.43,1,3L6.54,81.07Zm7.92,0h2.19L15,76.28l-.48-.09L18.69,63.9h2.37L14.6,81Z" transform="translate(0 0)"/><path class="cls-1" d="M28.9,63.87H39.58V66H31.1v5h7.57v2.14H31.1v5.07h8.79V80.3h-11Z" transform="translate(0 0)"/><path class="cls-1" d="M52.48,63.87a6.61,6.61,0,0,1,3.9,1A3.6,3.6,0,0,1,57.8,68a4.21,4.21,0,0,1-.59,2.27,4.12,4.12,0,0,1-1.65,1.5,6.36,6.36,0,0,1-2.49.63l-.32-1.12a8.3,8.3,0,0,1,3,.59,5,5,0,0,1,2.09,1.52,3.61,3.61,0,0,1,.77,2.32,4.64,4.64,0,0,1-.44,2.1,4,4,0,0,1-1.23,1.43,5.61,5.61,0,0,1-1.75.82,7.89,7.89,0,0,1-2,.26H48.25V63.87Zm.46,7.18a2.38,2.38,0,0,0,2-.75,2.74,2.74,0,0,0,.62-1.82,2.22,2.22,0,0,0-.8-1.9,3.47,3.47,0,0,0-2.14-.6H50.46v5.07Zm.09,7.2A4.79,4.79,0,0,0,54.71,78a2.48,2.48,0,0,0,1.19-.85,2.26,2.26,0,0,0,.44-1.42,2.1,2.1,0,0,0-.51-1.5,2.84,2.84,0,0,0-1.3-.78,5.66,5.66,0,0,0-1.64-.24H50.46V78.3Z" transform="translate(0 0)"/><path class="cls-1" d="M79.75,63.87l5.4,13.59-1.25-.25L89,63.87h2.61l-7.29,17.2-7.27-17.2Z" transform="translate(0 0)"/><path class="cls-1" d="M99.45,63.87h2.2V80.28h-2.2Z" transform="translate(0 0)"/><path class="cls-1" d="M115.15,63.87a6.58,6.58,0,0,1,3.89,1A3.57,3.57,0,0,1,120.46,68a4,4,0,0,1-2.23,3.77,6.36,6.36,0,0,1-2.49.63l-.32-1.15a8.3,8.3,0,0,1,3,.59,5.16,5.16,0,0,1,2.09,1.52,3.61,3.61,0,0,1,.77,2.32,4.64,4.64,0,0,1-.44,2.1,4,4,0,0,1-1.23,1.43,5.61,5.61,0,0,1-1.75.82,8,8,0,0,1-2,.26H111V63.87Zm.45,7.18a2.38,2.38,0,0,0,2-.75,2.8,2.8,0,0,0,.61-1.82,2.19,2.19,0,0,0-.79-1.9,3.47,3.47,0,0,0-2.14-.6h-2.14v5.07Zm.09,7.2a4.81,4.81,0,0,0,1.68-.27,2.63,2.63,0,0,0,1.2-.85,2.32,2.32,0,0,0,.44-1.42,2.1,2.1,0,0,0-.51-1.5,2.93,2.93,0,0,0-1.31-.78,5.64,5.64,0,0,0-1.63-.24h-2.44v5.09Z" transform="translate(0 0)"/><path class="cls-1" d="M129.51,63.87h10.68V66h-8.48v5h7.57v2.14h-7.57v5.07h8.79V80.3h-11Z" transform="translate(0 0)"/><path class="cls-1" d="M157.34,66.8a12.24,12.24,0,0,0-1.84-.75,6.49,6.49,0,0,0-2-.32,3.29,3.29,0,0,0-2.1.62,2,2,0,0,0-.79,1.63,1.82,1.82,0,0,0,.51,1.31,4.48,4.48,0,0,0,1.32.92c.54.26,1.11.5,1.72.73a14.15,14.15,0,0,1,1.5.65,5.66,5.66,0,0,1,1.35.92,3.86,3.86,0,0,1,1,1.34,4.72,4.72,0,0,1,.35,2,4.4,4.4,0,0,1-2.49,4.07,6.27,6.27,0,0,1-2.89.61,9,9,0,0,1-2.06-.24,8.48,8.48,0,0,1-1.83-.65,13.72,13.72,0,0,1-1.5-.84l1-1.72a10.52,10.52,0,0,0,1.25.74,7.67,7.67,0,0,0,1.55.46,5.43,5.43,0,0,0,1.5.21,4.23,4.23,0,0,0,1.5-.21,2.79,2.79,0,0,0,1.25-.86,2.33,2.33,0,0,0,.5-1.57,2.21,2.21,0,0,0-.44-1.38,3.83,3.83,0,0,0-1.16-1,12.21,12.21,0,0,0-1.56-.71c-.53-.19-1-.4-1.58-.64a7.38,7.38,0,0,1-1.45-.88A4.1,4.1,0,0,1,148.81,70a3.68,3.68,0,0,1-.42-1.81,4.1,4.1,0,0,1,.62-2.26,4.23,4.23,0,0,1,1.72-1.53,5.86,5.86,0,0,1,2.5-.6,9.22,9.22,0,0,1,2.81.39,10.42,10.42,0,0,1,2.14.93Z" transform="translate(0 0)"/><path class="cls-1" d="M60.24,32.14A6.26,6.26,0,1,0,58,36.88,6.25,6.25,0,0,0,60.24,32.14Z" transform="translate(0 0)"/><path class="cls-1" d="M60.25,24.47V13.85L48,13.69a13,13,0,0,1,.75,4.46,12.65,12.65,0,0,1-.6,3.86,8.37,8.37,0,0,0-.38,2.27v.09Z" transform="translate(0 0)"/><polygon class="cls-1" points="60.24 24.94 60.28 16.09 57.53 21.63 60.24 24.94"/><rect class="cls-1" x="47.75" y="16.37" width="12.49" height="15.88"/><path class="cls-1" d="M82.48,8.28" transform="translate(0 0)"/><path class="cls-1" d="M47.74,10.83V.21A16,16,0,0,1,53.6.39,8.71,8.71,0,0,1,60.34,9v3.14Z" transform="translate(0 0)"/><path class="cls-1" d="M115.34,23.82l.22,10.71-12.35.26a13.16,13.16,0,0,0,0-8.32,15.27,15.27,0,0,1-.21-3.31v9.19Z" transform="translate(0 0)"/><path class="cls-1" d="M115.58,34.39v.8c-.16,7-4.6,11.07-11.62,11.21-3.72.08-7.83-.81-10.66-3a13,13,0,0,0,10-8.63,11.16,11.16,0,0,0,.48-4.14,14.9,14.9,0,0,0-.43-4.1,3.56,3.56,0,0,1-.27-1.61l.26-1a5.54,5.54,0,0,1,.21-2.74A13,13,0,0,1,114,27.88,14.88,14.88,0,0,1,115.58,34.39Z" transform="translate(0 0)"/><path class="cls-1" d="M103.05,23.35s2,14.47-5.14,18.26C97.91,41.61,111.89,36,103.05,23.35Z" transform="translate(0 0)"/><polygon class="cls-1" points="115.38 23.35 115.56 32.2 112.72 26.7 115.38 23.35"/><path class="cls-1" d="M97,32.28A6.27,6.27,0,0,0,84.46,32a6.08,6.08,0,0,0,.63,2.87A6.25,6.25,0,0,0,97,32.28Z" transform="translate(0 0)"/><path class="cls-1" d="M97.08,22.59l.21-10L85,11.59a13.25,13.25,0,0,1,0,8.26A6.61,6.61,0,0,0,84.59,22v.53s0-.19.06-.19Z" transform="translate(0 0)"/><path class="cls-1" d="M97.34,12.44V11.22C97.19,4.22,92.75.15,85.73,0,82-.07,77.9.82,75.07,3a13.08,13.08,0,0,1,10,8.64,11.37,11.37,0,0,1,.48,4.14,15.29,15.29,0,0,1-.43,4.1,6.89,6.89,0,0,0-.24,2.21l-.11.66a4.62,4.62,0,0,0,.55,2.47A13,13,0,0,0,97.34,12.44Z" transform="translate(0 0)"/><path class="cls-1" d="M84.66,21.68s2-13.09-5.06-16.88C79.6,4.8,93.05,9.19,84.66,21.68Z" transform="translate(0 0)"/><polygon class="cls-1" points="97.06 23.06 97.24 14.21 94.4 19.71 97.06 23.06"/><rect class="cls-1" x="81.39" y="16.28" width="18.91" height="12.49" transform="translate(66.93 113.02) rotate(-89.12)"/><path class="cls-1" d="M100.25,38" transform="translate(0 0)"/><rect class="cls-1" x="47.75" y="8.65" width="12.54" height="9.99"/><path class="cls-1" d="M115.54,32.42a6.25,6.25,0,1,0-12.49-.57v.5a6.25,6.25,0,0,0,12.49.07Z" transform="translate(0 0)"/><path class="cls-1" d="M115.56,24.47V13.85l-12.28-.16a13.09,13.09,0,0,1,.16,8.32,7.59,7.59,0,0,0-.37,2.31v.09Z" transform="translate(0 0)"/><polygon class="cls-1" points="115.54 24.94 115.59 16.09 112.83 21.63 115.54 24.94"/><polygon class="cls-1" points="115.57 34.99 103.05 32.25 103.05 16.38 115.57 16.52 115.57 34.99"/><path class="cls-1" d="M103.05,10.83V.21a16,16,0,0,1,5.85.18A8.71,8.71,0,0,1,115.61,9v3.14Z" transform="translate(0 0)"/><rect class="cls-1" x="103.05" y="8.65" width="12.54" height="9.99"/><path class="cls-1" d="M78.54,15.28a5.88,5.88,0,0,1-1.41,3.93,6.36,6.36,0,0,1-4.71,2.2,6.13,6.13,0,0,1-6.37-5.88h0a5.72,5.72,0,0,1,.63-2.75A6.29,6.29,0,0,1,72.17,9.4,6.15,6.15,0,0,1,78.54,15.28Z" transform="translate(0 0)"/><path class="cls-1" d="M78.68,24.5l.21,9.6L66.55,35a12.14,12.14,0,0,0,0-7.94,6,6,0,0,1-.37-2v-.5s0,.18.06.18Z" transform="translate(0 0)"/><path class="cls-1" d="M78.89,34.28v1.17c-.15,6.68-4.6,10.64-11.61,10.77-3.73.08-7.84-.78-10.67-2.86a12.91,12.91,0,0,0,10-8.29,10.43,10.43,0,0,0,.48-4,13.78,13.78,0,0,0-.43-3.94A6.37,6.37,0,0,1,66.43,25l-.11-.64A4.32,4.32,0,0,1,66.86,22a13.39,13.39,0,0,1,7,2.61,12.51,12.51,0,0,1,3.41,3.83A12.24,12.24,0,0,1,78.89,34.28Z" transform="translate(0 0)"/><path class="cls-1" d="M66.25,25.38s2,12.57-5.06,16.21C61.19,41.59,75.1,37.54,66.25,25.38Z" transform="translate(0 0)"/><polygon class="cls-1" points="78.66 24.05 78.84 32.55 76 27.27 78.66 24.05"/><polygon class="cls-1" points="78.55 15.4 66.06 15.58 66.35 33.74 78.84 33.56 78.55 15.4"/></svg>