<svg id="Layer_1" data-name="Layer 1" xmlns="http://www.w3.org/2000/svg" viewBox="0 0 839.51 763.92"><defs><style>.cls-1{fill:#e8e8ef;}.cls-2{fill:#2b444e;}.cls-3{fill:#e1e1e1;}.cls-4{fill:#9fc9ff;}.cls-5{fill:#16282d;}.cls-6{fill:#dcdcdc;}.cls-7{fill:#e23359;}.cls-8{fill:#ff4e6c;}.cls-9{fill:#b4b4ef;}.cls-10,.cls-22,.cls-23,.cls-39{fill:none;}.cls-10,.cls-23,.cls-24,.cls-39{stroke:#fff;}.cls-10,.cls-22,.cls-23,.cls-24,.cls-39{stroke-miterlimit:10;}.cls-11{fill:#fff;}.cls-12{fill:#1a2e36;}.cls-13{fill:#5252ba;}.cls-14{fill:#f4f8fc;}.cls-15{fill:#c26358;}.cls-16{fill:#1a2e35;}.cls-17{fill:#ffbf9d;}.cls-18{fill:#ffaba1;}.cls-19{fill:#00448e;}.cls-19,.cls-37{isolation:isolate;}.cls-20{fill:#203391;}.cls-21{fill:#fa7166;}.cls-22{stroke:#1a2e36;}.cls-23{stroke-width:0.75px;}.cls-24{fill:#223c44;}.cls-25{fill:#385b64;}.cls-26{fill:#333;}.cls-27{fill:#d1945d;}.cls-28{fill:#c18859;}.cls-29{fill:#2d2d2d;}.cls-30{fill:#260e08;}.cls-31{fill:#ea476a;}.cls-32{fill:#dd9373;}.cls-33{fill:#89705d;}.cls-34{fill:#c17e67;}.cls-35{fill:#385962;}.cls-36,.cls-37{fill:#152428;}.cls-37{opacity:0.74;}.cls-38{fill:#91b3fa;}.cls-39{stroke-width:3px;}.cls-40{fill:#ffb93e;}.cls-41{fill:#375a64;}.cls-42{fill:#3d6a75;}.cls-43{fill:#ff8772;}</style></defs><title>illusztraciologouj2</title><path class="cls-1" d="M662.32,642.56c16.5-10.88,46.5-31.23,50.61-62.16,4-30.5-21.23-40-23.93-74.07-3.62-45.94,40-57.24,51.53-110.69,11.61-54-20.15-102-30.36-117.5-32-48.44-64.12-47.6-131.57-98.76C491.72,113.45,570.05,68.7,506,30.74S280.32-11.81,209.71,27c-43.51,23.89-25.45,44.29-104,135.38C48.65,228.58,22.32,237.26,8.22,284.1c-3.64,12.1-21.64,71.83,11,117.5,28.77,40.21,69.9,31.89,84.64,67.26,15.46,36.92-22.88,61.59-15.6,103.88,8.08,47,65.33,74.93,104.89,93.66C376.45,753.17,581.77,695.68,662.32,642.56Z" transform="translate(0.01 0.01)"/><rect class="cls-2" x="354.15" y="590.97" width="86" height="6.33"/><rect class="cls-3" x="436.65" y="117.92" width="47" height="180" rx="11.49"/><path class="cls-4" d="M820.13,88.9h-301a20.46,20.46,0,0,0-20.47,20.47V398.2a24.7,24.7,0,0,0,24.7,24.7H814a24.7,24.7,0,0,0,24.7-24.7h0V107.45A18.51,18.51,0,0,0,820.19,88.9Z" transform="translate(0.01 0.01)"/><path class="cls-5" d="M176.38,390.34s2.51,10.23,4.63,20.94S192.38,444,193.26,444.2s-3.89-23.7-7.23-33.93-7.39-20.37-7.39-20.37Z" transform="translate(0.01 0.01)"/><polygon class="cls-6" points="176.22 390.15 177.62 397.28 181.38 396.15 178.79 389.48 176.22 390.15"/><path class="cls-5" d="M176.21,390.14c-2.71-4.83-1.53-11-1.53-11s5.07,4.43,4.11,10.33Z" transform="translate(0.01 0.01)"/><path class="cls-7" d="M17.47,523.56A10.62,10.62,0,0,0,19,524.84l4.43,3.43c1.95,1.47,4.31,3.27,7,5.46s5.81,4.57,9.1,7.42c6.69,5.54,14.41,12.44,22.71,20.38s17,17.1,25.75,27.08,16.47,20,23.26,29.25,12.48,17.93,17,25.33c2.37,3.65,4.31,7.07,6.09,10s3.26,5.54,4.44,7.67l2.79,4.86a9.86,9.86,0,0,0,1.06,1.65,11.54,11.54,0,0,0-.81-1.79l-2.55-5c-1.06-2.07-2.5-4.81-4.23-7.8s-3.6-6.47-5.92-10.17c-4.46-7.48-10.16-16.17-16.83-25.56S97.7,597.69,89,587.62s-17.6-19.1-25.92-27.09-16.19-14.75-23-20.21c-3.33-2.8-6.5-5.15-9.24-7.27s-5.14-3.87-7.14-5.27l-4.6-3.22A11.2,11.2,0,0,0,17.47,523.56Z" transform="translate(0.01 0.01)"/><path class="cls-7" d="M158.91,480.08a9.54,9.54,0,0,0,.07,2c.12,1.42.28,3.27.48,5.58s.51,5.39.71,8.84.58,7.36.72,11.71c.46,8.68.62,19,.41,30.52s-1,24.1-2.45,37.28-3.53,25.66-5.74,36.93-4.72,21.33-7.06,29.7c-1.08,4.21-2.28,8-3.25,11.27s-1.87,6.16-2.63,8.47-1.26,4-1.68,5.34a9.67,9.67,0,0,0-.5,1.9,10.6,10.6,0,0,0,.77-1.8l1.94-5.26c.85-2.29,1.84-5.1,2.87-8.41s2.31-7,3.46-11.23c2.47-8.36,5-18.43,7.38-29.71s4.37-23.81,5.87-37,2.12-25.89,2.35-37.42-.13-21.9-.73-30.6c-.2-4.35-.62-8.27-.92-11.72s-.64-6.41-1-8.83-.56-4.14-.75-5.56A9.59,9.59,0,0,0,158.91,480.08Z" transform="translate(0.01 0.01)"/><path class="cls-8" d="M63.87,564.67a32.56,32.56,0,0,0-21.07-6.16c-2.55.16-5.41.85-6.64,3.08-1.64,3,.64,6.63,3.28,8.77a23.92,23.92,0,0,0,15.91,5.3c5.7-.23,10.18-1.6,14.31-5.54" transform="translate(0.01 0.01)"/><path class="cls-8" d="M93.17,595.33c-6.79-5.67-19.39-11.65-28.24-11.88a10.53,10.53,0,0,0-4.13.53,4.3,4.3,0,0,0-2.72,3c-.38,2,1.09,3.79,2.57,5.14a34.49,34.49,0,0,0,35.75,6.22" transform="translate(0.01 0.01)"/><path class="cls-8" d="M116.64,626.16a50,50,0,0,0-25.19-7.31c-2.07,0-4.37.15-5.82,1.63-2.2,2.25-1.16,6.15.88,8.55,4.19,4.94,11.2,6.31,17.67,6.64,7,.36,16.81-2.4,16.81-2.4" transform="translate(0.01 0.01)"/><path class="cls-8" d="M131.13,648c-6.45-2.9-13.4-5-20.47-4.87a10,10,0,0,0-4.48.89,4.25,4.25,0,0,0-2.44,3.63c.05,2.47,2.73,4,5.09,4.71,8.15,2.58,16.43,3,24.57.4" transform="translate(0.01 0.01)"/><path class="cls-8" d="M125.19,635a155.18,155.18,0,0,1,4.5-28c.37-1.43,1-3.07,2.37-3.51a3,3,0,0,1,3,1.13,7.69,7.69,0,0,1,1.3,3.14c2.52,11.07-1.07,23.68-8.43,32.33" transform="translate(0.01 0.01)"/><path class="cls-8" d="M104.94,607.45q.86-12.26,1.73-24.53a18.7,18.7,0,0,1,1.35-6.85c1-2.11,3-3.9,5.39-3.91s4.38,1.77,5.37,3.89a16.57,16.57,0,0,1,1.13,6.86c0,5.56-.38,11.21-2.3,16.42s-4.12,9.3-9.08,11.82" transform="translate(0.01 0.01)"/><path class="cls-8" d="M81,577.38a54.39,54.39,0,0,1-.82-28.31,9,9,0,0,1,2-4.31c2.2-2.3,6.17-1.92,8.74,0A12.88,12.88,0,0,1,95.68,554a27.32,27.32,0,0,1-1.5,10.57,62.81,62.81,0,0,1-8.74,17.67" transform="translate(0.01 0.01)"/><path class="cls-8" d="M56.14,554c-5.14-9.87-5.77-20.67-5.5-31.8.06-2.34.5-5.1,2.6-6.15a4.45,4.45,0,0,1,4.27.39,10.72,10.72,0,0,1,3.05,3.24,34.06,34.06,0,0,1-.44,37.6" transform="translate(0.01 0.01)"/><path class="cls-8" d="M42.54,543.26c-2.83-4.94-5.68-9.91-9.39-14.23s-8.35-8-13.79-9.69a13.22,13.22,0,0,0-7.24-.41A7.18,7.18,0,0,0,7,523.7a7.56,7.56,0,0,0,1.59,6.37,19,19,0,0,0,5.21,4.31C23,540.14,35,545.16,42.54,543.26" transform="translate(0.01 0.01)"/><path class="cls-8" d="M160.14,542.06a32.47,32.47,0,0,0-9.75-19.61c-1.84-1.77-4.29-3.41-6.77-2.8-3.3.81-4.44,5-4.23,8.36a24,24,0,0,0,6.93,15.24c4,4,8.08,6.4,13.78,6.76" transform="translate(0.01 0.01)"/><path class="cls-8" d="M157.47,584.39c-.43-8.84-4.58-22.16-10.41-28.81a10.46,10.46,0,0,0-3.2-2.68,4.23,4.23,0,0,0-4,0c-1.7,1.06-2,3.37-2,5.37a34.48,34.48,0,0,0,19.66,30.5" transform="translate(0.01 0.01)"/><path class="cls-8" d="M150.71,622.54A50,50,0,0,0,139,599.07c-1.38-1.55-3.07-3.11-5.15-3.17-3.14-.1-5.3,3.31-5.69,6.43-.79,6.43,3,12.52,7.1,17.5,4.47,5.36,13.16,10.73,13.16,10.73" transform="translate(0.01 0.01)"/><path class="cls-8" d="M144.45,648c-2.23-6.71-5.4-13.24-10.29-18.35a10,10,0,0,0-3.69-2.69,4.22,4.22,0,0,0-4.32.67c-1.79,1.71-1.07,4.69,0,6.93,3.63,7.74,8.92,14.14,16.36,18.33" transform="translate(0.01 0.01)"/><path class="cls-8" d="M150,634.79a153.63,153.63,0,0,1,23.63-15.66c1.3-.7,2.9-1.38,4.18-.64a3,3,0,0,1,1.23,3,7.7,7.7,0,0,1-1.43,3.08c-6.43,9.36-18.14,15.27-29.48,15.73" transform="translate(0.01 0.01)"/><path class="cls-8" d="M156.51,601.27l19.22-15.36a18.92,18.92,0,0,1,6-3.65c2.23-.69,4.93-.41,6.52,1.31s1.67,4.43.79,6.59a16.46,16.46,0,0,1-4.28,5.48c-4.05,3.8-8.5,7.31-13.63,9.44s-9.63,3.27-14.84,1.34" transform="translate(0.01 0.01)"/><path class="cls-8" d="M162.38,563.23a54.29,54.29,0,0,1,20.25-19.78,9.15,9.15,0,0,1,4.5-1.48c3.19.06,5.59,3.24,6,6.4a12.88,12.88,0,0,1-3.54,9.8,27.23,27.23,0,0,1-8.79,6.06,62.56,62.56,0,0,1-18.92,5.56" transform="translate(0.01 0.01)"/><path class="cls-8" d="M162.73,529.16c3.77-10.47,11.29-18.25,19.65-25.6,1.76-1.55,4.09-3.09,6.28-2.27a4.53,4.53,0,0,1,2.61,3.42,10.41,10.41,0,0,1-.31,4.44,34.06,34.06,0,0,1-28,25.16" transform="translate(0.01 0.01)"/><path class="cls-8" d="M161.42,511.87c1.72-5.43,3.44-10.9,4.1-16.55s.23-11.57-2.23-16.71a13.15,13.15,0,0,0-4.6-5.6,7.2,7.2,0,0,0-7-.54,7.53,7.53,0,0,0-3.6,5.49,19.21,19.21,0,0,0,.36,6.76c2,10.64,6.47,22.91,13,27.15" transform="translate(0.01 0.01)"/><path class="cls-8" d="M727.74,540c8.78-.2,17.27,3.35,24.43,8.43,3.85,2.73,7.6,6.11,8.92,10.63s-.84,10.33-5.43,11.44c-2.73.66-5.56-.42-8.07-1.68-6.06-3-12.3-7.41-19-6.11-3.8.74-7.34,3.32-11.16,2.73s-6.48-4.28-6.77-8.06,1.43-7.47,3.84-10.38A16.8,16.8,0,0,1,727.74,540Z" transform="translate(0.01 0.01)"/><path class="cls-8" d="M726.78,501.17c1.31,8.21,10.63,10.25,16.32,8.39s10-6.48,14-10.93c9.15-10.15,18.61-20.87,21.94-34.12,1-4,1.4-8.21.17-12.11s-4.34-7.37-8.35-8.16c-4.74-.94-9.36,1.9-13.16,4.9A96,96,0,0,0,731.13,482c-2.93,6-5.28,12.56-4.31,19.13" transform="translate(0.01 0.01)"/><path class="cls-8" d="M710.72,504.22c7.35-3.26,12.16-10.89,13.46-18.82s-.51-16.11-3.57-23.54a73.06,73.06,0,0,0-15.5-23.41c-2.61-2.64-5.5-5.13-9-6.43s-7.64-1.23-10.63,1c-4.41,3.26-4.8,9.62-4.53,15.1a185,185,0,0,0,3.69,28.72c1.6,7.61,3.85,15.44,9.16,21.12s12.24,8.68,17.9,5.84" transform="translate(0.01 0.01)"/><path class="cls-7" d="M681.48,593.45a14.54,14.54,0,0,0,1.75-2.59l4.44-7.24a121.87,121.87,0,0,1,7.13-10.31,95.36,95.36,0,0,1,10.46-11.18,53.75,53.75,0,0,1,12.51-8.68,27.8,27.8,0,0,1,11.93-2.92,26.42,26.42,0,0,1,8.23,1.25,15.1,15.1,0,0,0,3,1,14.74,14.74,0,0,0-2.8-1.42,24.19,24.19,0,0,0-8.4-1.69,27.9,27.9,0,0,0-12.41,2.78,52.92,52.92,0,0,0-12.87,8.75,89.58,89.58,0,0,0-10.53,11.41,103.26,103.26,0,0,0-7,10.56c-1.81,3.11-3.17,5.68-4.1,7.46A15.49,15.49,0,0,0,681.48,593.45Z" transform="translate(0.01 0.01)"/><path class="cls-7" d="M684.85,587.85a6.71,6.71,0,0,0,.71-1.25l1.79-3.7c1.55-3.21,3.81-7.85,6.77-13.5,5.86-11.31,12.86-23.16,23.23-39.62,9.76-15.47,21.45-33.31,30-44.43,1.92-2.55,3.7-4.81,5.3-6.78s2.93-3.69,4.1-5l2.61-3.17a5.62,5.62,0,0,0,.84-1.16,5.91,5.91,0,0,0-1,1l-2.8,3c-1.22,1.3-2.64,3-4.27,4.91s-3.5,4.15-5.46,6.67A462.85,462.85,0,0,0,718,525.64c-10.39,16.49-19,31.93-24.64,43.38-2.87,5.71-5,10.42-6.43,13.7l-1.57,3.73A6.41,6.41,0,0,0,684.85,587.85Z" transform="translate(0.01 0.01)"/><path class="cls-7" d="M699.83,557.3a28.75,28.75,0,0,0,1.85-3.88,115.91,115.91,0,0,0,3.91-11,155.19,155.19,0,0,0,4-16.89A140.22,140.22,0,0,0,712,504.4c.82-15.1-1.37-28.84-4.52-38.23a53.45,53.45,0,0,0-2.41-6.23c-.4-.9-.72-1.76-1.11-2.51l-1.13-2a25.43,25.43,0,0,0-2.24-3.66c-.3.16,3.11,5.31,6,14.68s4.91,22.93,4.1,37.91a159.2,159.2,0,0,1-2.29,21c-1.06,6.41-2.46,12.1-3.73,16.85s-2.58,8.5-3.5,11.09A26.84,26.84,0,0,0,699.83,557.3Z" transform="translate(0.01 0.01)"/><rect class="cls-9" x="491.65" y="83.92" width="340" height="334" rx="24.7"/><line class="cls-10" x1="499.42" y1="282.81" x2="581.03" y2="402.09"/><rect class="cls-11" x="497.7" y="281.05" width="4.68" height="4.5" transform="matrix(0.83, -0.56, 0.56, 0.83, -72.62, 331.86)"/><rect class="cls-11" x="579.66" y="400.99" width="4.68" height="4.5" transform="matrix(0.83, -0.56, 0.56, 0.83, -126.03, 399.1)"/><rect class="cls-11" x="538.47" y="339.93" width="9.65" height="9.28" transform="matrix(0.83, -0.56, 0.56, 0.83, -99.66, 366.99)"/><path class="cls-12" d="M512.11,83.91h301a18.51,18.51,0,0,1,18.51,18.51h0v11.49h-340v-9.53a20.46,20.46,0,0,1,20.47-20.47Z" transform="translate(0.01 0.01)"/><circle class="cls-13" cx="520.15" cy="98.42" r="8.5"/><circle class="cls-3" cx="546.34" cy="98.74" r="6.18"/><circle class="cls-14" cx="591.67" cy="99.07" r="6.18"/><circle class="cls-13" cx="569.67" cy="99.07" r="6.18"/><path class="cls-15" d="M475.56,340.63s17-3.59,17.94-3.47.78,1.39.72,2.39a8.55,8.55,0,0,1-.66,1.7c-1.15,2.62-3.09,7.3.43,8.15,4.63,1.11,9-9.39,9.43-11.14a5.6,5.6,0,0,0-.27-2.37c-.77-2.77-2.93-6.75-6.3-7.63-4.62-1.21-9.77-.3-14.3.18Z" transform="translate(0.01 0.01)"/><path class="cls-16" d="M475.56,340.63s17-3.59,17.94-3.47.78,1.39.72,2.39a8.55,8.55,0,0,1-.66,1.7c3.42-1.89,7.19-4,9.59-5.36-.77-2.77-2.93-6.75-6.3-7.63-4.62-1.21-9.77-.3-14.3.18Z" transform="translate(0.01 0.01)"/><path class="cls-17" d="M472.56,364.5c.87-.53,9-3.85,15.14-6.35,1.42-4.92,5.39-14.38,6.43-16.89.68-3,3.84-9,4.12-8.88.52.22,2.36,1,4.66,1.75,3,1,6.9,2,9.61,1.66a3.45,3.45,0,0,0,3.07-1.87c.87-2.05-3.54-4.13-8.54-7.06-6.81-4-15.4-8.53-19.4-7.11-5.92,2.09-11.46,9.77-13.37,11.86s-11.34,9.2-11.34,9.2C461,356,471.39,365.2,472.56,364.5Z" transform="translate(0.01 0.01)"/><path class="cls-18" d="M393.72,363.87c8.17,7.06,40.56,27.9,50.23,24.4,15.18-5.48,29.45-17.49,37.44-23.84,2.54-2-17.74-26.05-22.17-21.61C453.5,348.55,441,358,437.14,359.67c-2.66,1.16-23.8-4.47-38.52-8.28C386.32,348.21,383.32,354.93,393.72,363.87Z" transform="translate(0.01 0.01)"/><path class="cls-8" d="M433.25,357.54s3.7,4.33,12.07-3.17l14.73-12.55,22.7,21.2L446,372.94Z" transform="translate(0.01 0.01)"/><path class="cls-8" d="M416.72,382.08s24.06,24.7,66.22-19.46l-8.08-7Z" transform="translate(0.01 0.01)"/><polygon class="cls-13" points="540.8 346.34 526.52 351.18 521.5 346.09 523.42 337.97 530.22 335.68 540.8 346.34"/><rect class="cls-19" x="517.2" y="340.64" width="8.34" height="2.28" transform="translate(68.3 769.99) rotate(-76.63)"/><rect class="cls-19" x="527.61" y="342.4" width="2.28" height="2.28" transform="translate(72.26 778.53) rotate(-76.63)"/><path class="cls-13" d="M521.32,337.45l-44.09-8.35s-4.26,1.12-1.08,3.83,43.26,12.76,43.26,12.76" transform="translate(0.01 0.01)"/><path class="cls-17" d="M487.7,358.15c2.1-.85,4-1.58,5.26-2a16.12,16.12,0,0,0,9.21-7.61c1.89-3.13,12.22-6.93,6.94-9.83s-14,5.37-15,4.08a2.1,2.1,0,0,1,0-1.48C493.09,343.77,489.12,353.23,487.7,358.15Z" transform="translate(0.01 0.01)"/><path class="cls-17" d="M494.71,339.39c.07-.12.14-.07.1.09-.15.48-.78,2.64-.31,2.84.83.36,5.5-2.49,7.67-3.35.12,0,.19.11.08.15a34.46,34.46,0,0,0-3.16,1.72c-1,.56-3.87,2.48-4.91,2C493.49,342.57,494.45,339.88,494.71,339.39Z" transform="translate(0.01 0.01)"/><line class="cls-10" x1="529.87" y1="343.73" x2="541.38" y2="346.47"/><ellipse class="cls-9" cx="413.15" cy="714.92" rx="309.5" ry="49"/><path class="cls-20" d="M615.93,508.2" transform="translate(0.01 0.01)"/><polygon class="cls-21" points="485.64 638.92 485.64 641.85 485.63 638.92 485.64 638.92"/><rect class="cls-12" x="432.65" y="114.92" width="47" height="180" rx="11.49"/><polygon class="cls-11" points="453.18 159.92 452.64 174.92 457.43 171.07 463.36 170.63 453.18 159.92"/><polygon class="cls-10" points="453.19 134.68 452.69 148.68 457.15 145.09 462.69 144.68 453.19 134.68"/><polygon class="cls-11" points="452.54 198.29 462.63 194.67 463.19 189.61 458.51 185.94 453.73 187.67 452.54 198.29"/><rect class="cls-12" x="457.24" y="190.54" width="1.62" height="1.62" transform="translate(24.54 433.22) rotate(-51.83)"/><line class="cls-22" x1="457.49" y1="192" x2="452.28" y2="198.62"/><rect class="cls-11" x="461.5" y="182.91" width="2.42" height="5.65" transform="translate(30.74 434.73) rotate(-51.83)"/><polygon class="cls-11" points="452.36 222.13 462.44 218.51 463 213.44 458.32 209.78 453.54 211.5 452.36 222.13"/><rect class="cls-12" x="457.05" y="214.37" width="1.62" height="1.62" transform="translate(5.74 442.17) rotate(-51.83)"/><line class="cls-22" x1="457.3" y1="215.83" x2="452.1" y2="222.45"/><rect class="cls-11" x="461.31" y="206.74" width="2.42" height="5.65" transform="translate(11.93 443.69) rotate(-51.83)"/><path class="cls-23" d="M443.64,208.9s5-1,5,3-2,6,3,10" transform="translate(0.01 0.01)"/><rect class="cls-24" x="450.15" y="234.42" width="16" height="13"/><path class="cls-11" d="M452.64,268.9l7.4-9.25a2.27,2.27,0,0,1,2.1-.87,1.64,1.64,0,0,1,1.19.76,1.81,1.81,0,0,1-.22,2l-7.47,9.33-3-2" transform="translate(0.01 0.01)"/><path class="cls-11" d="M451.64,270.9s-2,0-3,3a3.1,3.1,0,0,1-3.88,2l-.12,0s4.33,1.45,8.08-.57a2.36,2.36,0,0,0-1-4.43Z" transform="translate(0.01 0.01)"/><polygon class="cls-25" points="376.44 538.22 373.14 558.78 341.42 727.78 332.14 727.78 357.14 559.78 359.8 538.22 376.44 538.22"/><path class="cls-25" d="M464.14,727.76h-9.28L423.13,562.19c-.44-2.3-.69-5.1-1-7.43l-2.3-16.55h16.64l2.66,20.55Z" transform="translate(0.01 0.01)"/><polygon class="cls-2" points="356.14 566.78 371.14 568.78 376.56 538.22 360.14 537.78 356.14 566.78"/><polygon class="cls-2" points="440.14 566.78 424.14 566.78 419.75 538.22 436.14 537.78 440.14 566.78"/><rect class="cls-25" x="349.24" y="517.3" width="101.84" height="21.1"/><path class="cls-17" d="M619.94,681.37c-3.19,1.38-97.13,9.56-100.91,7.61-1.44-.73-3.43-14.35-5.37-30.86-.41-3.57-.82-7.26-1.22-11-2.6-24.31-4.79-50.17-4.79-50.17l62.83-5.65,3.06,50.32.68,11s37.37,13,41.28,15.54S623.12,680,619.94,681.37Z" transform="translate(0.01 0.01)"/><path class="cls-11" d="M619.94,681.37c-3.19,1.38-97.13,9.56-100.91,7.61-1.75-.9-4.32-20.81-6.59-41.86l61.1-5.5.68,11s37.37,13,41.28,15.54S623.12,680,619.94,681.37Z" transform="translate(0.01 0.01)"/><path class="cls-26" d="M619.94,681.37c-3.19,1.38-98,8.34-101.8,6.39-1.44-.73-2.54-13.13-4.48-29.64l60.56-5.45s37.37,13,41.28,15.54S623.12,680,619.94,681.37Z" transform="translate(0.01 0.01)"/><path class="cls-16" d="M618.26,677.73c-15.78,1-79.34,6.44-94.86,8.61-.13,0-.12.11,0,.1,15.66-.63,79.17-6.61,94.88-8.45C618.62,678,618.6,677.71,618.26,677.73Z" transform="translate(0.01 0.01)"/><path class="cls-11" d="M609.17,665.36a12.67,12.67,0,0,0-9.09,4.66,12.36,12.36,0,0,0-2.79,8.72c0,.09.19.08.19,0a14.71,14.71,0,0,1,11.7-13.17.11.11,0,0,0,0-.21Z" transform="translate(0.01 0.01)"/><path class="cls-11" d="M580.46,653.7c-6.31.46-13.42,3.32-16.89,8.82-.13.21.17.4.35.29a88,88,0,0,1,16.72-8.36.41.41,0,0,0,.16-.54A.39.39,0,0,0,580.46,653.7Z" transform="translate(0.01 0.01)"/><path class="cls-11" d="M585.49,655.18c-6.31.46-13.42,3.32-16.89,8.81-.13.22.17.41.35.29a87.86,87.86,0,0,1,16.72-8.34.39.39,0,0,0-.18-.76Z" transform="translate(0.01 0.01)"/><path class="cls-11" d="M590.52,656.65c-6.31.46-13.42,3.32-16.89,8.82-.13.21.17.4.35.29a86.87,86.87,0,0,1,16.72-8.31.41.41,0,1,0-.18-.8Z" transform="translate(0.01 0.01)"/><path class="cls-11" d="M595.56,658.12c-6.32.46-13.43,3.32-16.9,8.82-.13.21.17.4.35.29a87.86,87.86,0,0,1,16.72-8.34.41.41,0,0,0,.22-.52A.39.39,0,0,0,595.56,658.12Z" transform="translate(0.01 0.01)"/><path class="cls-17" d="M504.88,724.83c-3.47.21-94.53-24.28-97.42-27.4-1.1-1.18,1.7-14.66,5.53-30.84.83-3.49,1.71-7.09,2.62-10.75,5.88-23.73,12.68-48.78,12.68-48.78l61,16.2-14.36,48.33-3.14,10.62s30.68,25,33.47,28.74S508.32,724.62,504.88,724.83Z" transform="translate(0.01 0.01)"/><path class="cls-11" d="M504.88,724.83c-3.47.21-94.53-24.28-97.42-27.4-1.33-1.45,3.07-21,8.15-41.59l59.28,15.75-3.14,10.62s30.68,25,33.47,28.74S508.32,724.62,504.88,724.83Z" transform="translate(0.01 0.01)"/><path class="cls-27" d="M368.08,249.9s-20-3.81-24.74,15.22-26.65,57.1-26.65,57.1l23.79-19" transform="translate(0.01 0.01)"/><path class="cls-27" d="M365.23,250.85s12.37-3.81,19,1.9,12.66,19.48,9.18,43.05" transform="translate(0.01 0.01)"/><path class="cls-27" d="M387,264.72s4.83,30.85,20.06,48.94,8.68,35.8,8.68,35.8l-1.15-1.16s5.79-16.56-8.48-33.69-18.32-44.3-18.32-44.3" transform="translate(0.01 0.01)"/><path class="cls-28" d="M384.26,359.33s9.51,4.76,24.74-9.51-35.06-13-35.06-13Z" transform="translate(0.01 0.01)"/><polygon class="cls-27" points="348.11 270.85 334.77 314.62 394.74 326.99 395.69 304.15 392.82 285.12 388.06 261.33 377.61 255.62 370.94 252.76 349.06 265.14 348.11 270.85"/><path class="cls-29" d="M317.92,435.36c-10.8,23.42-6.18,51.19,12.52,69,.54.52,1.1,1,1.67,1.57,34.26,31.4,110.39,21.89,110.39,21.89s-2.81,20.93-4.71,37.11-29.47,82.75-29.47,82.75L483.5,661s39-79.94,22.84-121.82-102.77-65.66-102.77-65.66,3.8-20.93-4.76-37.11c0,0-29.5,9.51-78-9.52A35.1,35.1,0,0,1,317.92,435.36Z" transform="translate(0.01 0.01)"/><path class="cls-29" d="M398.77,436.45,503,461.4a44.26,44.26,0,0,1,21,11.5,31.66,31.66,0,0,1,8.9,14.94c3.81,16.17,53.29,148.45,53.29,148.45L510.1,643s-23.79-77.08-20.94-119l-85.64-50.44S387.32,451.64,398.77,436.45Z" transform="translate(0.01 0.01)"/><path class="cls-30" d="M510.11,642.92s-29.5-98-23.79-124.66c0,0-106.62,32.35-151.35-9.52,0,0,48.53,39,155.16,1.91,0,0-5.8,35.12,31.36,131.28Z" transform="translate(0.01 0.01)"/><path class="cls-16" d="M519.63,668.62" transform="translate(0.01 0.01)"/><path class="cls-16" d="M521.53,627.7s20.94,4.76,51.39-1.91c0,0-20,10.47-48.54,7.62Z" transform="translate(0.01 0.01)"/><path class="cls-16" d="M540.56,663.86" transform="translate(0.01 0.01)"/><path class="cls-16" d="M442.5,527.78s-18.08,79-34.25,119.9l10.54,1.86s28.37-72.68,29.37-122.92Z" transform="translate(0.01 0.01)"/><path class="cls-30" d="M481.68,519.56s4.6,86.25-29.66,133.83l-1,1.87,32.4,5.75s15.73-35.85,18.33-47.9c0,0-18.33-62.5-15.48-94.85Z" transform="translate(0.01 0.01)"/><path class="cls-16" d="M419.77,629.83s18.24,11.33,49.2,15c0,0-22.31,3.38-48.37-8.63Z" transform="translate(0.01 0.01)"/><path class="cls-18" d="M380.48,317.06c29,22.37,55.35,48,58.45,63,2,9.46-5.3,24.68-10.6,33.66-2.58,4.38-43.5-21.83-39.13-25.05,10.81-8,13-11.57,12.33-13.69-.39-1.35-29.9-38-37.25-53.48C354,300,367.8,307.27,380.48,317.06Z" transform="translate(0.01 0.01)"/><path class="cls-8" d="M314.79,407.87c5.71-1.91,75.82,13.34,76.76,12.45,1.31-1.24-7.27-88.43-20.69-110-3.35-5.39-19.14-9.4-26.22-2.07C317.32,336.59,313.67,408.24,314.79,407.87Z" transform="translate(0.01 0.01)"/><path class="cls-18" d="M364.69,429c3.75,3.09,10.6-6.81,10.6-6.81a9,9,0,0,0,1.48,5.93c2.2,3,7.82.81,7.82.81a11,11,0,0,0,2.56,6c2.39,2.63,8.38,1.27,8.38,1.27a9.65,9.65,0,0,0,5.56,3.85c6.1,1.3,12.71-5.55,17-9.86s12.26-20.51,14.1-23.44l-27.47-27.52S380.18,393.18,375.9,399C372.32,403.83,359,424.31,364.69,429Z" transform="translate(0.01 0.01)"/><path class="cls-16" d="M375.24,422.07c2.59-6.09,6.63-11.56,10.59-16.78a.11.11,0,1,1,.18.13c-4,5.16-6.71,11.5-10.49,16.81a.16.16,0,1,1-.28-.16Z" transform="translate(0.01 0.01)"/><path class="cls-16" d="M384.32,428.52a17.07,17.07,0,0,1,2.66-3.65q1.53-1.83,3.14-3.62,3.21-3.58,6.59-7c.1-.1.28,0,.18.14-2.13,2.38-4.22,4.79-6.24,7.26l-3,3.72a19.87,19.87,0,0,1-3,3.41.22.22,0,0,1-.31-.1A.22.22,0,0,1,384.32,428.52Z" transform="translate(0.01 0.01)"/><path class="cls-16" d="M395.61,436.12a12,12,0,0,1,2.57-3.15l3-3.22c2-2.15,3.93-4.31,5.83-6.53a.11.11,0,1,1,.18.14c-1.91,2.27-3.79,4.56-5.73,6.81-.94,1.1-1.9,2.2-2.86,3.3a11.33,11.33,0,0,1-2.85,2.76C395.65,436.26,395.59,436.18,395.61,436.12Z" transform="translate(0.01 0.01)"/><path class="cls-18" d="M338.94,310.59c-44.72,22.51-86.18,57.44-85.25,71,1,14.37,29.66,29.3,53.13,36.77,4.81,1.53,22.32-26.47,17.58-29-3.7-2-20.65-10.3-22.34-13.13-1.18-2,33.57-36,46.27-54.73C361.61,301.89,350.91,304.57,338.94,310.59Z" transform="translate(0.01 0.01)"/><path class="cls-17" d="M314.45,386.45s14.76,4.21,24.28,7.43c5.31,1.79,14.14,5.68,17.44,8.78,4.93,4.64,22.61,27.19,17.24,31.6-4.87,4-9.59-4.57-9.59-4.57s6,8.86,0,11.33-11.16-9.24-11.16-9.24,7.06,9,.36,11c-5.82,1.76-13.12-11.12-13.12-11.12s8.45,8.59,2.66,11c-4.39,1.81-12.09-6.1-16.47-11.22a33.94,33.94,0,0,0-8.44-7.08c-10.23-6.08-18.14-11.61-23.68-17.15C292.72,405.91,314.45,386.45,314.45,386.45Z" transform="translate(0.01 0.01)"/><path class="cls-8" d="M329.32,389.47s-5.6,22.26-21.28,28.81c-12.21,5.1-41.39-16.4-53.2-25.64-7.26-5.68-7.82-14.95-2.38-22.39.4-.55.84-1.11,1.32-1.67,2.3-2.68,8.07-7.57,15.75-13.5,4.38-3.38,9.38-7.09,14.71-10.93,24.45-17.57,55.85-37.64,66.24-39.21,0,0,2.85-1.08,2.85,8.57,0,13.82-48.12,58.28-48.12,58.28S298,377.79,329.32,389.47Z" transform="translate(0.01 0.01)"/><path class="cls-8" d="M437.53,375.72,401.64,375l-19.49-23.93s-4.62-24.25-11-40.32c.39.26,11.55,7.78,24.69,18.35,4.83,3.9,9.93,8.2,14.87,12.71C422.82,352.89,433.94,365.24,437.53,375.72Z" transform="translate(0.01 0.01)"/><path class="cls-31" d="M308.83,368.45s-10.69,6-17.36,4.08a13.31,13.31,0,0,0,14.85,4.73S302.39,372.92,308.83,368.45Z" transform="translate(0.01 0.01)"/><path class="cls-31" d="M314.74,362.77s17.69-10.69,23.4-24Z" transform="translate(0.01 0.01)"/><path class="cls-31" d="M351.43,304s5.61,8.9-2.91,21.11-9.87,12.35-8.71,11.35,12-18.37,7.81-30.53l3.81-1.9" transform="translate(0.01 0.01)"/><path class="cls-31" d="M338.14,338.76s-21.92,30.89-8.6,50.88c0,0-8.85-2.46-12.85-5.56L314.32,363Z" transform="translate(0.01 0.01)"/><path class="cls-31" d="M258.05,393.81c3.2,2.3,12.7,6.4,33.42-3.22,0,0-9.14,13.33-25.22,10.62l-13.32-10.47.78.39A30.7,30.7,0,0,1,258.05,393.81Z" transform="translate(0.01 0.01)"/><path class="cls-31" d="M401.39,367.9s7.14,9.37,20.46.8l-7.27,6.58-12.72.08Z" transform="translate(0.01 0.01)"/><path class="cls-31" d="M371.16,311.45c7.37,12.24,12.16,41,12.16,41s13.79,17.13,14.74,18.08,6.26,2,6.26,2c-5.16-9.45-22.85-29.33-22.85-29.33" transform="translate(0.01 0.01)"/><path class="cls-5" d="M380.63,333.45" transform="translate(0.01 0.01)"/><path class="cls-31" d="M331.92,353.62s9.51,11.42,22.84,2.86c0,0-6.57,13.06-26.65-1l-1.9-.95,4.67-7.1S330,351.72,331.92,353.62Z" transform="translate(0.01 0.01)"/><path class="cls-31" d="M326.87,358.65s18.37,12.1,27.89-2.17c0,0-9.62,12.28-26.65-1.9Z" transform="translate(0.01 0.01)"/><path class="cls-17" d="M363.18,321.78c-3.93-.5-10.78-9.21-12.88-15.91-.14-.46,1.37-4.7,3-9.94.95-3.18,1.94-6.74,2.6-10.06l19.8,9.22a54.1,54.1,0,0,0-4.6,12.36,7.19,7.19,0,0,0-.13,1.39v.23C370.85,311.72,369.32,322.57,363.18,321.78Z" transform="translate(0.01 0.01)"/><path class="cls-32" d="M371,308.82a1,1,0,0,0,0,.24,14.69,14.69,0,0,1-2.18-.32c-12-2.69-12-18.13-11.8-22.33l18.68,8.68a54.49,54.49,0,0,0-4.57,12.36A10.42,10.42,0,0,0,371,308.82Z" transform="translate(0.01 0.01)"/><path class="cls-17" d="M354.11,263.54c-2.5,7.46.88,29.29,6.1,34.28,7.56,7.24,20.24,8.25,26.46-.91,6-8.87,1.12-37.25-4.74-41.82C373.32,248.37,357.8,252.52,354.11,263.54Z" transform="translate(0.01 0.01)"/><path class="cls-16" d="M373.66,277.21s-.1.1-.09.15c.33,1.46.47,3.17-.76,3.92m0,.08c1.6-.54,1.39-2.82.85-4.15Z" transform="translate(0.01 0.01)"/><path class="cls-16" d="M372.06,275.94c-2.39.28-1.65,5,.55,4.77S374.05,275.71,372.06,275.94Z" transform="translate(0.01 0.01)"/><path class="cls-16" d="M381.88,275.67c0-.06.13,0,.13.11.18,1.48.64,3.14,2,3.42,0,0,.06.09,0,.09C382.4,279.31,381.81,277.1,381.88,275.67Z" transform="translate(0.01 0.01)"/><path class="cls-16" d="M383,273.93c2.33-.55,3.25,4.17,1.09,4.67S381,274.39,383,273.93Z" transform="translate(0.01 0.01)"/><path class="cls-17" d="M358.32,281.37c.15-.05-4.4-7.22-8.07-5.33-3.23,1.67.43,11.94,4.16,13.36a3.82,3.82,0,0,0,5.06-1.86l.06-.14Z" transform="translate(0.01 0.01)"/><path class="cls-32" d="M351.32,278a.05.05,0,0,0,0,.1c2.61,1.08,4,3.53,4.93,6.06a2.1,2.1,0,0,0-2.86-.79l-.28.19a.08.08,0,0,0,0,.11.07.07,0,0,0,.08,0,2.34,2.34,0,0,1,2.57.84,11.19,11.19,0,0,1,1.22,2.09c.12.24.54.11.46-.16v-.06C357.48,283.06,354.91,278.35,351.32,278Z" transform="translate(0.01 0.01)"/><path class="cls-17" d="M385.39,294.26a2,2,0,0,0-1.83-2.15h-4.38c-3,0-8.68.84-8.81,1.47-.32,1.58-.32,7.67,11.86,4.62A4.5,4.5,0,0,0,385.39,294.26Z" transform="translate(0.01 0.01)"/><path class="cls-16" d="M381.14,292.23s-3.91,2.51-8,.56C373.12,292.79,377.5,297.77,381.14,292.23Z" transform="translate(0.01 0.01)"/><path class="cls-27" d="M354.14,276.76l4.42,4.54S356,262.17,369,258a9.71,9.71,0,0,0,3.82-2.38h0a22.42,22.42,0,0,0,6.52,4.6,17.38,17.38,0,0,1,9.36,11.24c3,12,6.82,33.73.71,52.57l16.25,13.69,7,5.93s-2.76-21.46-11.32-34.78c-4.33-6.74-9.07-30.21-10.08-40.39a21.83,21.83,0,0,0-6.66-13.84,18.66,18.66,0,0,0-16.57-4.77s-23.79,0-23.79,23.79-27.87,48.8-27.87,48.8,19.64-12.45,30-16.31c0,0,3.3-.63,4.42-2.24s4-14,4-14A14.64,14.64,0,0,1,349,278.37s.19-3.4,3.17-2.57A4.64,4.64,0,0,1,354.14,276.76Z" transform="translate(0.01 0.01)"/><path class="cls-20" d="M425,276.51" transform="translate(0.01 0.01)"/><path class="cls-20" d="M386.16,262.27" transform="translate(0.01 0.01)"/><path class="cls-28" d="M372.13,303.52a29.76,29.76,0,0,0-1.27,6.81S391,325.26,395.26,329c0,0-11.19-18.16-6.81-36.25C388.45,292.72,386.65,303.85,372.13,303.52Z" transform="translate(0.01 0.01)"/><path class="cls-33" d="M373.55,271.9a2,2,0,0,1,1,2.64,1,1,0,0,1-.07.15s-5.57-1.86-8.35.92l-1.86.93a10.48,10.48,0,0,1,4.64-3.71A16.35,16.35,0,0,1,373.55,271.9Z" transform="translate(0.01 0.01)"/><path class="cls-33" d="M380,271a1.61,1.61,0,0,0,0,2.29l.05,0s3.64-2.95,6.51-1.65l1.65.17a8.3,8.3,0,0,0-4.52-1.47A13.12,13.12,0,0,0,380,271Z" transform="translate(0.01 0.01)"/><path class="cls-33" d="M378.55,279.45s2.85,3.8,2.85,6.66-4.75,1.9-4.75,1.9,4.75,0,3.8-2.85Z" transform="translate(0.01 0.01)"/><path class="cls-27" d="M372.84,255.61a57,57,0,0,1-10.47,9.51c-5.71,3.81-3.87,15.6-3.87,15.6l-1.57-20Z" transform="translate(0.01 0.01)"/><path class="cls-28" d="M349,279.45s1.66,20.58-15.58,33c0,0,10.9-4.81,16.75-6.61L355,289.69S350.14,287.76,349,279.45Z" transform="translate(0.01 0.01)"/><path class="cls-34" d="M344.45,438.06s-4.31-11.3-10.31-16.3c0,0,8.63,13.81,10.31,17.41Z" transform="translate(0.01 0.01)"/><path class="cls-34" d="M356.14,437.32S351.83,426,345.83,421c0,0,8.62,13.81,10.31,17.4Z" transform="translate(0.01 0.01)"/><path class="cls-34" d="M363.14,429.32S358.83,418,352.83,413c0,0,8.62,13.81,10.31,17.4Z" transform="translate(0.01 0.01)"/><rect class="cls-35" x="319.73" y="440.66" width="107.98" height="4.84"/><polygon class="cls-35" points="362.67 445.5 467.89 445.5 476.65 374.03 371.43 374.03 362.67 445.5"/><path class="cls-36" d="M371.14,373.76a3.66,3.66,0,0,1,3.5,2.84c1,3-8.17,69-8.17,69l-6.64-.15" transform="translate(0.01 0.01)"/><path class="cls-31" d="M329.32,389.45s-4.5-24.37,12.16-26c0,0-6.34-.67-14.34-5.67C327.14,357.76,320.5,375.18,329.32,389.45Z" transform="translate(0.01 0.01)"/><path class="cls-8" d="M424.66,355.89s2.47,5.12,12.48,0l17.43-8.44,16.57,26.28-38.08.25Z" transform="translate(0.01 0.01)"/><path class="cls-31" d="M425.6,357s6.54,3.8,6.54,9.8c0,0,3.08-3.45,1-9.23C433.18,357.53,428.05,359.17,425.6,357Z" transform="translate(0.01 0.01)"/><polygon class="cls-31" points="400.89 374.03 397.04 369.43 400.14 369.78 403.67 372.45 404.67 374.03 400.89 374.03"/><path class="cls-16" d="M371,276.36c-.34.23-.67.62-1.09.67s-.84-.36-1.16-.75c0,0-.06,0-.06.05,0,.75.29,1.52,1.1,1.62s1.26-.58,1.44-1.33C371.32,276.45,371.16,276.27,371,276.36Z" transform="translate(0.01 0.01)"/><path class="cls-16" d="M383.94,274.36c.34.23.67.62,1.08.67s.85-.36,1.17-.75c0,0,.06,0,.06.05,0,.75-.29,1.52-1.1,1.62s-1.26-.58-1.44-1.33C383.68,274.45,383.8,274.27,383.94,274.36Z" transform="translate(0.01 0.01)"/><polygon class="cls-37" points="468.14 445.78 476.5 375.38 439.26 445.5 468.14 445.78"/><polygon class="cls-36" points="468.14 440.78 468.14 445.5 354.31 445.5 360.05 440.66 468.14 440.78"/><path class="cls-8" d="M658.07,616.67c-4.64-2.39-10.1-2.7-15.24-1.85-2.77.46-5.65,1.29-7.53,3.36s-2.24,5.73-.08,7.52a7.28,7.28,0,0,0,4.75,1.2c4,0,8.5-.75,11.71,1.67,1.84,1.38,3.06,3.68,5.26,4.36a5.17,5.17,0,0,0,5.71-2.54,8.92,8.92,0,0,0,.64-6.55A10,10,0,0,0,658.07,616.67Z" transform="translate(0.01 0.01)"/><path class="cls-8" d="M668.69,596.17c-2.84,4-8.35,2.71-10.9.24s-3.64-6-4.62-9.47c-2.24-7.8-4.51-16-2.84-23.93a13.27,13.27,0,0,1,3.06-6.51,7,7,0,0,1,6.58-2.19c2.78.73,4.51,3.45,5.75,6a57.08,57.08,0,0,1,5.6,24.53c0,3.94-.45,8.08-2.67,11.33" transform="translate(0.01 0.01)"/><path class="cls-8" d="M676.47,602c-3.08-3.65-3.66-9-2.29-13.55s4.46-8.47,8-11.65a42.92,42.92,0,0,1,14.37-8.48,15.39,15.39,0,0,1,6.47-1.1,6.78,6.78,0,0,1,5.42,3.28c1.52,2.89.07,6.39-1.5,9.24a110.33,110.33,0,0,1-9.45,14.38c-2.83,3.65-6.07,7.25-10.38,8.9s-8.79,1.45-11.05-1.55" transform="translate(0.01 0.01)"/><path class="cls-7" d="M668.88,657.24a8.17,8.17,0,0,1-.26-1.84c-.13-1.34-.29-3-.49-5A70.31,70.31,0,0,0,667,643a57.38,57.38,0,0,0-2.67-8.69,32.15,32.15,0,0,0-4.44-7.87,16.63,16.63,0,0,0-5.61-4.66,15.4,15.4,0,0,0-4.73-1.47,9.4,9.4,0,0,1-1.83-.27,9.74,9.74,0,0,1,1.87,0,14.27,14.27,0,0,1,4.92,1.28,16.46,16.46,0,0,1,5.92,4.71,31.22,31.22,0,0,1,4.6,8,53.43,53.43,0,0,1,2.66,8.83,62.45,62.45,0,0,1,1,7.46c.16,2.13.22,3.86.25,5A9.83,9.83,0,0,1,668.88,657.24Z" transform="translate(0.01 0.01)"/><path class="cls-7" d="M668.53,653.38a4.91,4.91,0,0,1,0-.86v-2.44c0-2.12,0-5.18-.11-9-.19-7.57-.84-15.72-2.1-27.2-1.19-10.8-2.79-23.37-4.48-31.55-.36-1.86-.73-3.53-1.07-5s-.61-2.74-.88-3.76l-.57-2.37a4.09,4.09,0,0,1-.15-.85,3.66,3.66,0,0,1,.3.8l.71,2.34c.31,1,.64,2.28,1,3.74s.79,3.13,1.19,5A278.63,278.63,0,0,1,667,611.5c1.26,11.51,1.83,22,1.88,29.58,0,3.8,0,6.87-.14,9-.06,1-.11,1.8-.15,2.44A3.11,3.11,0,0,1,668.53,653.38Z" transform="translate(0.01 0.01)"/><path class="cls-7" d="M668.48,633.16a18.08,18.08,0,0,1,0-2.55c.09-1.64.32-4,.78-6.91a91.3,91.3,0,0,1,2.25-10.06,82.53,82.53,0,0,1,4.2-11.91,63.79,63.79,0,0,1,12.38-19.28,32.3,32.3,0,0,1,2.91-2.7c.45-.38.84-.75,1.24-1l1.13-.78a14.74,14.74,0,0,1,2.15-1.37c.12.16-3,2-7,6.28a66.7,66.7,0,0,0-12,19.17,94.71,94.71,0,0,0-4.23,11.8q-1.44,4.94-2.39,10c-.53,2.87-.83,5.21-1,6.84A17.91,17.91,0,0,1,668.48,633.16Z" transform="translate(0.01 0.01)"/><polygon class="cls-8" points="688.02 668.84 686 696.59 650.35 696.59 648.33 668.84 688.02 668.84"/><rect class="cls-7" x="644.07" y="657.9" width="47.4" height="10.94"/><polygon class="cls-7" points="691.47 693.52 691.47 696.56 689.25 696.56 644.86 696.56 644.86 693.52 691.47 693.52"/><polygon class="cls-7" points="687.05 703.89 689.25 698.56 646.54 698.56 649.1 703.89 687.05 703.89"/><path class="cls-38" d="M646,698.84c0,.12,9.71.22,21.68.22s21.69-.1,21.69-.22-9.71-.22-21.69-.22S646,698.72,646,698.84Z" transform="translate(0.01 0.01)"/><path class="cls-11" d="M518.14,688.76s-3-4-3-14c0,0,69,5,106,1,0,0,1.06,3,0,5S540.32,688.76,518.14,688.76Z" transform="translate(0.01 0.01)"/><path class="cls-11" d="M609.14,665.76s-10,3-9,12h-2.56S598.14,665.76,609.14,665.76Z" transform="translate(0.01 0.01)"/><path class="cls-26" d="M505,724.83c-3.47.2-94.48-24.49-97.35-27.62-1.1-1.19,1.72-14.65,5.6-30.82L472,682.14s30.61,25,33.4,28.81S508.46,724.63,505,724.83Z" transform="translate(0.01 0.01)"/><path class="cls-11" d="M500.39,706.09a12.67,12.67,0,0,0-10.13,1.25,12.27,12.27,0,0,0-5.62,7.22c0,.09.14.14.18,0a14.66,14.66,0,0,1,15.5-8.28.1.1,0,1,0,.07-.19Z" transform="translate(0.01 0.01)"/><path class="cls-11" d="M477.46,685.26c-6.08-1.74-13.74-1.51-18.89,2.46-.2.15,0,.43.23.39A87.2,87.2,0,0,1,477.37,686a.41.41,0,0,0,.37-.43A.4.4,0,0,0,477.46,685.26Z" transform="translate(0.01 0.01)"/><path class="cls-11" d="M481.68,688.38c-6.08-1.75-13.75-1.51-18.9,2.45-.2.16,0,.44.23.39a87.19,87.19,0,0,1,18.57-2.06.4.4,0,0,0,.38-.42A.4.4,0,0,0,481.68,688.38Z" transform="translate(0.01 0.01)"/><path class="cls-11" d="M485.89,691.45c-6.08-1.74-13.74-1.51-18.89,2.46-.2.15,0,.43.23.39a87.85,87.85,0,0,1,18.57-2.07.41.41,0,0,0,.37-.43A.4.4,0,0,0,485.89,691.45Z" transform="translate(0.01 0.01)"/><path class="cls-11" d="M490.11,694.61c-6.08-1.74-13.75-1.51-18.9,2.46-.2.15,0,.43.23.39A87.2,87.2,0,0,1,490,695.39a.4.4,0,0,0,.38-.42A.4.4,0,0,0,490.11,694.61Z" transform="translate(0.01 0.01)"/><path class="cls-11" d="M407.14,697.76s-.76-5.51,2.68-14.89c0,0,62.19,27.89,98.32,36.89,0,0-.32,3.49-2,5S428,705.45,407.14,697.76Z" transform="translate(0.01 0.01)"/><path class="cls-11" d="M500.23,706.45s-10.42-.63-12.58,8.16l-2.41-.88S489.9,702.67,500.23,706.45Z" transform="translate(0.01 0.01)"/><rect class="cls-2" x="150.65" y="445.92" width="470" height="10"/><rect class="cls-25" x="162.65" y="455.92" width="446" height="10"/><polygon class="cls-25" points="232.46 466.1 227.84 494.92 183.34 731.92 170.34 731.92 205.41 496.32 209.12 466.1 232.46 466.1"/><polygon class="cls-2" points="204 506.14 225.03 508.94 232.65 466.1 209.6 465.47 204 506.14"/><polygon class="cls-25" points="543.53 465.87 548.14 494.7 592.64 731.92 605.64 731.69 570.59 496.1 566.88 465.87 543.53 465.87"/><polygon class="cls-2" points="571.99 505.92 550.96 508.72 543.35 465.87 566.38 465.25 571.99 505.92"/><path class="cls-11" d="M710.43,253.22H684.76a2.43,2.43,0,0,0-.88.18h0a2.67,2.67,0,0,0-.81.52h0a2.75,2.75,0,0,0-.54.84h0a2.36,2.36,0,0,0-.19.94V283a2.56,2.56,0,0,0,2.42,2.56h25.67a2.15,2.15,0,0,0,.87-.18h0a2.09,2.09,0,0,0,.79-.52h0a3.06,3.06,0,0,0,.56-.82h0a2.9,2.9,0,0,0,.19-.92h0V255.8A2.54,2.54,0,0,0,710.43,253.22Zm-22.71,26.92V261.89l17.75,18.25Zm21.54-3.27L691.53,258.6h17.73Z" transform="translate(0.01 0.01)"/><path class="cls-11" d="M640.21,247.84h-27a2.6,2.6,0,0,0-2.63,2.56h0v27.16a2.6,2.6,0,0,0,2.61,2.58h27.13a2.59,2.59,0,0,0,2.58-2.59v-27.1a2.61,2.61,0,0,0-2.61-2.61Zm-2.73,26.91H615.94V253.22h21.54Z" transform="translate(0.01 0.01)"/><path class="cls-11" d="M712,289.11H685a2.61,2.61,0,0,0-2.65,2.56v27.18a2.61,2.61,0,0,0,2.65,2.56h27a2.6,2.6,0,0,0,2.64-2.56h0V291.67a2.6,2.6,0,0,0-2.64-2.56ZM709.26,316H687.72v-9h21.54Zm0-12.56H687.72v-9h21.54Z" transform="translate(0.01 0.01)"/><path class="cls-11" d="M640.21,287.32h-27a2.61,2.61,0,0,0-2.63,2.58v27.15a2.57,2.57,0,0,0,2.57,2.57h27.08a2.62,2.62,0,0,0,2.65-2.57V289.9A2.63,2.63,0,0,0,640.21,287.32Zm-2.73,26.91H615.94V292.7h21.54Z" transform="translate(0.01 0.01)"/><path class="cls-11" d="M663.32,287.81A17.2,17.2,0,0,0,646.16,305c0,.14,0,.28,0,.42a17.39,17.39,0,0,0,16.7,16.7,17.18,17.18,0,0,0,17.66-16.7c0-.17,0-.33,0-.49h0A17.2,17.2,0,0,0,663.32,287.81ZM663.11,317a12,12,0,1,1,12-12h0a12.07,12.07,0,0,1-12,12Z" transform="translate(0.01 0.01)"/><path class="cls-11" d="M649.08,240.66h27a2.6,2.6,0,0,0,2.65-2.55h0V210.92a2.55,2.55,0,0,0-2.54-2.56H649.06a2.6,2.6,0,0,0-2.63,2.56h0V238.1a2.6,2.6,0,0,0,2.63,2.56Zm17.11-26.92h9v21.54h-9Zm-12.56,0h7.18v21.54h-7.18Z" transform="translate(0.01 0.01)"/><path class="cls-11" d="M712,208.36H685.08a2.63,2.63,0,0,0-2.76,2.49v27.24a2.61,2.61,0,0,0,2.65,2.57h27a2.59,2.59,0,0,0,2.63-2.57h0V210.92a2.6,2.6,0,0,0-2.63-2.56Zm-2.75,26.92H687.72v-9h21.54Zm0-12.56H687.72v-9h21.54Z" transform="translate(0.01 0.01)"/><path class="cls-11" d="M625.69,207.33a17.19,17.19,0,0,0-17.21,17.15c0,.17,0,.34,0,.51a17.37,17.37,0,0,0,16.67,16.72A17.19,17.19,0,0,0,642.85,225c0-.16,0-.32,0-.48h0A17.21,17.21,0,0,0,625.69,207.33Zm.64,29.23a12,12,0,1,1,12-12,12,12,0,0,1-12,12h0Z" transform="translate(0.01 0.01)"/><path class="cls-11" d="M663.14,248.6a17.2,17.2,0,1,0,17.18,17.22v0A17.2,17.2,0,0,0,663.14,248.6Zm-.54,29.67a12,12,0,0,1-12-12v-.21a12.2,12.2,0,0,1,11.87-11.87A12,12,0,0,1,674.68,266v.21h0a12.07,12.07,0,0,1-12,12.07h-.08Z" transform="translate(0.01 0.01)"/><path class="cls-39" d="M831.64,232.67q3.33-6.4,6.5-13.27" transform="translate(0.01 0.01)"/><path class="cls-39" d="M494.14,418.45s10.5-86.5,87.5-77.5c74.42,8.7,185.75,15,250-108.23" transform="translate(0.01 0.01)"/><path class="cls-39" d="M484.14,129.45" transform="translate(0.01 0.01)"/><path class="cls-39" d="M489,108s10.5,86.5,87.5,77.5S770,170.1,833,307" transform="translate(0.01 0.01)"/><path class="cls-13" d="M201.24,383.45s-3.55,9.91-7.68,20S185,437,185.63,437.67s9.82-21.87,12.69-32.22,5-21.1,5-21.1Z" transform="translate(0.01 0.01)"/><polygon class="cls-6" points="201.21 383.23 198.44 389.95 202.22 391.08 203.74 384.09 201.21 383.23"/><path class="cls-5" d="M201.2,383.22c.4-5.53,4.79-10,4.79-10s1.79,6.5-2.26,10.89Z" transform="translate(0.01 0.01)"/><path class="cls-40" d="M190.32,370.45s1.4,10.44,3.33,21.18,1.36,34.63.61,35.13-5-23.49-5.64-34.23-.56-21.67-.56-21.67Z" transform="translate(0.01 0.01)"/><polygon class="cls-6" points="190.41 370.24 191.71 377.39 187.78 377.7 187.75 370.55 190.41 370.24"/><path class="cls-5" d="M187.75,370.53s2.51-.25,2.65-.31a59.65,59.65,0,0,0,1.86-7.45c-.15-.2-8.44,1-8.4,1.75S187.75,370.53,187.75,370.53Z" transform="translate(0.01 0.01)"/><rect class="cls-41" x="173.91" y="410.03" width="29.22" height="36.79" rx="4.38"/><rect class="cls-41" x="177.6" y="404.22" width="21.85" height="5.81"/><polygon class="cls-8" points="123.38 708.92 161.57 708.92 165.69 671.55 119.25 671.55 123.38 708.92"/><rect class="cls-7" x="117.22" y="666.93" width="50.52" height="9.23"/><polygon class="cls-7" points="161.68 716.5 163.85 711.16 121.17 711.16 123.72 716.5 161.68 716.5"/><polygon class="cls-7" points="165.82 705.93 165.82 708.97 163.59 708.97 119.2 708.97 119.2 705.93 165.82 705.93"/><path class="cls-16" d="M177.64,409.9s11,4,22,0C199.64,409.9,189.64,417.9,177.64,409.9Z" transform="translate(0.01 0.01)"/><path class="cls-42" d="M178.64,417.91h0a2,2,0,0,1,2,2v15a2,2,0,0,1-2,2h0a2,2,0,0,1-2-2v-15A2,2,0,0,1,178.64,417.91Z" transform="translate(0.01 0.01)"/><path class="cls-42" d="M178.64,438.91h0a2,2,0,0,1,2,2v1a2,2,0,0,1-2,2h0a2,2,0,0,1-2-2v-1A2,2,0,0,1,178.64,438.91Z" transform="translate(0.01 0.01)"/><path class="cls-2" d="M176.1,410.61a27.21,27.21,0,0,0,25,.08,4.86,4.86,0,0,0-1.65-.67s-6.8,2.88-21.8-.12Z" transform="translate(0.01 0.01)"/><rect class="cls-4" x="832.15" y="210.42" width="6.5" height="102"/><path class="cls-13" d="M208.53,251.94l1.2,1.77a12.52,12.52,0,0,0,5.46,4.46l2,.84-1.76,1.21a12.61,12.61,0,0,0-4.47,5.46l-.83,2-1.21-1.77a12.61,12.61,0,0,0-5.46-4.47l-2-.83,1.76-1.21a12.61,12.61,0,0,0,4.47-5.46Z" transform="translate(0.01 0.01)"/><path class="cls-13" d="M233.15,123.45l2.21,3.24a22.94,22.94,0,0,0,10,8.17l3.61,1.53-3.23,2.21a22.9,22.9,0,0,0-8.18,10L236,152.2,233.82,149a23.15,23.15,0,0,0-10-8.18l-3.61-1.52,3.23-2.22a22.9,22.9,0,0,0,8.18-10Z" transform="translate(0.01 0.01)"/><path class="cls-13" d="M262.66,168.14l3,4.36a31,31,0,0,0,13.48,11l4.86,2.06-4.36,3a31,31,0,0,0-11,13.47l-2,4.86-3-4.35a31,31,0,0,0-13.48-11l-4.94-2.09,4.36-3a31,31,0,0,0,11-13.48Z" transform="translate(0.01 0.01)"/><path class="cls-43" d="M324.43,328.22c.15,0,2.73.57,3.38,2.42.8,2.3-2.46,3.56-3.09,8-.34,2.48.43,3.71-.69,5.18-.8,1.05-2.34,1.91-3.3,1.46-1.39-.66-.13-3.37-1.83-5.19-1.55-1.64-3.54-.43-5.24-2.21a4.37,4.37,0,0,1-1.05-4.45c.49-1.09,1.4-1.18,4.56-2.55C322,328.84,322.61,327.85,324.43,328.22Z" transform="translate(0.01 0.01)"/><path class="cls-43" d="M270.23,386.7c-4.25-.31-6.07-1.85-6.63-2.38s-2.41-2.25-2.22-4.25,1.9-2.12,4.77-5.45c2.34-2.73,1.86-3.33,3.4-4.43,2.56-1.81,6.8-2.23,8.68-.34,1.44,1.45.24,3,1.54,6.64,1.39,4,3.55,4.38,3.23,6.13C282.43,385.69,275.21,387.07,270.23,386.7Z" transform="translate(0.01 0.01)"/><path class="cls-43" d="M347,378.24a5.93,5.93,0,0,1,4.08-3.23c1.7-.32,3.34.64,6.64,2.55,3.46,2,3.55,2.75,5.79,3.41,1.46.43,2.28.37,3.23,1.19s2,2.55,1.53,3.91c-.6,1.73-2.94,1.05-5.44,3.41a23.69,23.69,0,0,0-2.73,3.91c-1.79,2.86-1.81,3.38-2.72,3.92a5,5,0,0,1-5.45-.34c-1.42-1.2-.58-2.49-2-4.26s-2.5-1-4.94-2.89c-.55-.42-3.73-2.83-3.23-4.6.45-1.58,3.36-1,4.6-3.23C347.06,380.61,346.22,379.92,347,378.24Z" transform="translate(0.01 0.01)"/><path class="cls-43" d="M291.35,350.39c-.6,1.73-2.94,1.05-5.45,3.41a24.54,24.54,0,0,0-2.72,3.91c-1.8,2.86-1.82,3.38-2.72,3.92a5,5,0,0,1-5.45-.34c-1.42-1.2-.58-2.49-2-4.26-1.05-1.27-2-1.21-3.44-1.95,4.38-3.38,9.38-7.09,14.71-10.93a7.09,7.09,0,0,0,2.34,1.14c1.47.43,2.29.37,3.24,1.19S291.82,349,291.35,350.39Z" transform="translate(0.01 0.01)"/><path class="cls-43" d="M352,336.13c0-.18.47-3.36,2.66-4.3,2.73-1.17,4.54,2.69,10,3.08,3,.21,4.47-.83,6.35.41,1.34.88,2.52,2.68,2.05,3.89-.69,1.74-4.09.44-6.15,2.66-1.87,2-.24,4.33-2.25,6.55a5.33,5.33,0,0,1-5.33,1.64c-1.36-.49-1.55-1.59-3.48-5.32C353,339.1,351.72,338.38,352,336.13Z" transform="translate(0.01 0.01)"/><path class="cls-43" d="M410.68,341.79l-.24.21a23.23,23.23,0,0,0-2.72,3.91c-1.8,2.86-1.82,3.38-2.73,3.92a5,5,0,0,1-5.44-.34c-1.42-1.2-.59-2.49-2-4.26s-2.51-1.05-4.94-2.89c-.55-.42-3.73-2.83-3.23-4.6.44-1.58,3.36-1,4.59-3.23.76-1.38-.08-2.07.68-3.75a5.53,5.53,0,0,1,1.2-1.68C400.64,333,405.74,337.28,410.68,341.79Z" transform="translate(0.01 0.01)"/><path class="cls-43" d="M454.17,366.79c-4.25-.31-6.07-1.85-6.63-2.38s-2.41-2.25-2.22-4.25,1.9-2.12,4.77-5.45c2.34-2.73,1.86-3.33,3.4-4.43,2.56-1.81,6.8-2.23,8.68-.34,1.44,1.45.24,3,1.54,6.64,1.39,4,3.55,4.38,3.23,6.13C466.37,365.78,459.15,367.16,454.17,366.79Z" transform="translate(0.01 0.01)"/></svg>