<svg id="Layer_1" data-name="Layer 1" xmlns="http://www.w3.org/2000/svg" viewBox="0 0 1025.6 775.21"><defs><style>.cls-1{fill:#ff4e6c;}.cls-2{fill:#e23359;}.cls-3{fill:#f2f2f2;}.cls-4{fill:#c0e5c0;}.cls-5{fill:#8ab887;}.cls-6{fill:#e8e8ef;}.cls-7{fill:#b4b4ef;}.cls-8{fill:#2b444e;}.cls-9{fill:#666;}.cls-10,.cls-30{opacity:0.1;}.cls-10,.cls-26{isolation:isolate;}.cls-11{fill:#385b64;}.cls-12{fill:#ffbf9d;}.cls-13{fill:#fff;}.cls-14{fill:#333;}.cls-15{fill:#1a2e35;}.cls-16{fill:#d1945d;}.cls-17{fill:#dd9373;}.cls-18{fill:#203391;}.cls-19{fill:#c18859;}.cls-20{fill:#89705d;}.cls-21{fill:#cc1b05;}.cls-22{fill:#2d2d2d;}.cls-23{fill:#260e08;}.cls-24{fill:#ea476a;}.cls-25{fill:#482e77;}.cls-26{fill:#00448e;}.cls-27{fill:#5252ba;}.cls-28{fill:#4d4d4d;}.cls-29{fill:#ffaba1;}.cls-31{fill:#6666c9;}.cls-32{fill:#c17e67;}.cls-33{fill:#16282d;}.cls-34{fill:none;stroke:#fff;stroke-miterlimit:10;stroke-width:2px;}.cls-35{fill:#ff8772;}.cls-36{fill:#8f8fcc;}</style></defs><title>kapcsolat22</title><path class="cls-1" d="M106.35,186.46c.07-8.5,3.75-16.6,8.87-23.37,2.76-3.64,6.13-7.17,10.55-8.31s10,1.11,10.89,5.58c.56,2.66-.57,5.36-1.86,7.75-3.11,5.77-7.52,11.68-6.46,18.16.6,3.69,3,7.19,2.3,10.87s-4.33,6.14-8,6.31-7.18-1.61-9.93-4A16.27,16.27,0,0,1,106.35,186.46Z" transform="translate(-0.04 0.05)"/><path class="cls-2" d="M156.64,232.76a14.22,14.22,0,0,0-2.45-1.76l-6.87-4.51a116.26,116.26,0,0,1-9.76-7.2,91.61,91.61,0,0,1-10.5-10.44,52.51,52.51,0,0,1-8-12.35,26.92,26.92,0,0,1-2.47-11.62A25.55,25.55,0,0,1,118,177a14.3,14.3,0,0,0,1-2.84,13.52,13.52,0,0,0-1.45,2.67,23.67,23.67,0,0,0-1.89,8.07,27,27,0,0,0,2.3,12.09,51.41,51.41,0,0,0,8.08,12.71,87.4,87.4,0,0,0,10.73,10.52,102.39,102.39,0,0,0,10,7.06c3,1.84,5.4,3.23,7.1,4.18A14.75,14.75,0,0,0,156.64,232.76Z" transform="translate(-0.04 0.05)"/><path class="cls-1" d="M68.76,186.24c8-1,10.22-10,8.59-15.53s-6-9.82-10.15-13.82c-9.55-9.15-19.63-18.61-32.35-22.22-3.8-1.08-7.89-1.59-11.7-.52s-7.26,4-8.14,7.83c-1,4.56,1.57,9.11,4.36,12.86a92.65,92.65,0,0,0,31,26.67c5.68,3,12,5.47,18.37,4.73" transform="translate(-0.04 0.05)"/><path class="cls-1" d="M71.24,201.86c-2.94-7.2-10.17-12.08-17.81-13.57s-15.58,0-22.86,2.75A70.31,70.31,0,0,0,7.45,205.35,24.92,24.92,0,0,0,1,213.83c-1.36,3.32-1.41,7.36.63,10.31,3,4.37,9.15,4.93,14.46,4.83A178.62,178.62,0,0,0,44,226.24c7.4-1.31,15-3.26,20.69-8.23s8.75-11.57,6.17-17.14" transform="translate(-0.04 0.05)"/><path class="cls-2" d="M151.34,229.34a5.62,5.62,0,0,0-1.2-.72l-3.52-1.84c-3.06-1.6-7.48-3.92-12.85-6.95-10.77-6-22-13.11-37.62-23.62-14.67-9.9-31.58-21.73-42.08-30.35-2.41-1.93-4.54-3.72-6.39-5.33s-3.48-2.94-4.76-4.11l-3-2.62a6.53,6.53,0,0,0-1.11-.85,7.35,7.35,0,0,0,.93,1c.75.73,1.69,1.65,2.84,2.79s2.79,2.64,4.62,4.27,3.91,3.5,6.29,5.48a451.83,451.83,0,0,0,38.62,29c15.64,10.53,30.32,19.29,41.22,25.11,5.44,2.94,9.93,5.15,13.06,6.61,1.47.67,2.67,1.21,3.63,1.63A5.7,5.7,0,0,0,151.34,229.34Z" transform="translate(-0.04 0.05)"/><path class="cls-2" d="M122.24,214a26.84,26.84,0,0,0-3.69-1.91c-2.44-1.1-6-2.57-10.55-4.1a149.2,149.2,0,0,0-16.21-4.39,134.46,134.46,0,0,0-20.36-2.95c-14.58-1.24-27.93.47-37.1,3.24a52.53,52.53,0,0,0-6.1,2.15c-.88.36-1.72.64-2.45,1l-2,1a25.11,25.11,0,0,0-3.6,2.05c.14.3,5.22-2.85,14.37-5.39s22.31-4.07,36.77-2.85a151.44,151.44,0,0,1,20.21,2.84c6.17,1.21,11.63,2.73,16.18,4.1s8.15,2.75,10.63,3.71A27.06,27.06,0,0,0,122.24,214Z" transform="translate(-0.04 0.05)"/><path class="cls-1" d="M893.48,562.43c-3.45,3.3-8.43,1-10.38-1.84s-2.3-6.43-2.58-9.86c-.65-7.83-1.25-16,1.84-23.24a13.09,13.09,0,0,1,4.14-5.6,6.73,6.73,0,0,1,6.66-.83c2.49,1.23,3.61,4.14,4.31,6.83a55.18,55.18,0,0,1,.7,24.29c-.73,3.75-2,7.58-4.69,10.25" transform="translate(-0.04 0.05)"/><path class="cls-1" d="M899.76,569.41c-2.22-4-1.77-9.21.4-13.29s5.84-7.18,9.83-9.52a41.82,41.82,0,0,1,15.24-5.32,14.9,14.9,0,0,1,6.34.18,6.57,6.57,0,0,1,4.53,4.15c.89,3-1.15,6.07-3.18,8.48a106.35,106.35,0,0,1-11.69,11.85c-3.38,2.92-7.13,5.72-11.54,6.47s-8.62-.29-10.22-3.56" transform="translate(-0.04 0.05)"/><path class="cls-3" d="M750.08,658.66c16-10.52,45-30.21,48.95-60.13,3.91-29.5-20.54-38.68-23.14-71.65-3.51-44.43,38.71-55.37,49.84-107.07,11.23-52.25-19.49-98.72-29.37-113.67-31-46.86-62-46-127.27-95.54-84.08-63.78-8.31-107.06-70.3-143.78S380.51,25.66,312.2,63.17c-42.09,23.12-24.61,42.84-100.57,131-55.22,64.07-80.69,72.47-94.34,117.78-3.52,11.71-20.93,69.48,10.68,113.66,27.84,38.9,67.62,30.85,81.88,65.07,14.89,35.71-22.17,59.56-15.13,100.48,7.82,45.42,63.19,72.48,101.46,90.6C473.5,765.66,672.11,710.05,750.08,658.66Z" transform="translate(-0.04 0.05)"/><path class="cls-4" d="M178.41,256.09c-2.44,4.41-2.91,9.68-2.24,14.68.36,2.68,1.08,5.5,3,7.38s5.48,2.33,7.27.29a7,7,0,0,0,1.3-4.55c.07-3.9-.48-8.24,2-11.28,1.39-1.74,3.65-2.85,4.37-4.95a5,5,0,0,0-2.29-5.6,8.57,8.57,0,0,0-6.31-.82A9.68,9.68,0,0,0,178.41,256.09Z" transform="translate(-0.04 0.05)"/><path class="cls-4" d="M218,246.83a9,9,0,0,1-1.79.19l-4.87.33a71.54,71.54,0,0,0-7.15.87,55.44,55.44,0,0,0-8.48,2.33,31.1,31.1,0,0,0-7.74,4.06,16.13,16.13,0,0,0-4.67,5.29,15.24,15.24,0,0,0-1.57,4.53,7.47,7.47,0,0,1-.31,1.76,9,9,0,0,1,0-1.8,14,14,0,0,1,1.39-4.73,16,16,0,0,1,4.72-5.58,30.45,30.45,0,0,1,7.89-4.22,51.45,51.45,0,0,1,8.62-2.3,60.59,60.59,0,0,1,7.24-.73c2.07-.09,3.74-.1,4.89-.09A8,8,0,0,1,218,246.83Z" transform="translate(-0.04 0.05)"/><path class="cls-5" d="M214.21,247.05a3.84,3.84,0,0,1-.83,0L211,247c-2-.06-5-.15-8.67-.16-7.33,0-15.22.35-26.37,1.23-10.48.84-22.68,2-30.63,3.4-1.81.3-3.44.6-4.86.89s-2.66.51-3.66.74l-2.31.48a3.78,3.78,0,0,1-.82.12,4.2,4.2,0,0,1,.78-.26l2.28-.62c1-.27,2.22-.55,3.64-.86s3.05-.67,4.86-1a272.05,272.05,0,0,1,28.44-3.69c11.16-.88,21.32-1.12,28.66-.94,3.67.06,6.63.23,8.68.39l2.35.21A2.92,2.92,0,0,1,214.21,247.05Z" transform="translate(-0.04 0.05)"/><path class="cls-5" d="M192.79,244.51a14.58,14.58,0,0,1-2.47-.09,60.29,60.29,0,0,1-6.65-1A86.89,86.89,0,0,1,174,241a80.33,80.33,0,0,1-11.39-4.42,61.33,61.33,0,0,1-18.24-12.52,30.25,30.25,0,0,1-2.53-2.89c-.35-.44-.7-.84-1-1.23l-.72-1.12a14.52,14.52,0,0,1-1.26-2.11c.16-.12,1.87,3,5.86,7a64.8,64.8,0,0,0,18.18,12.21,91.2,91.2,0,0,0,11.29,4.44,98.54,98.54,0,0,0,9.56,2.61c2.76.59,5,1,6.59,1.18A16.69,16.69,0,0,1,192.79,244.51Z" transform="translate(-0.04 0.05)"/><path class="cls-2" d="M916.91,336.75a9.15,9.15,0,0,0-.37,1.86q-.3,2-.79,5.36c-.31,2.34-.71,5.19-1.28,8.48s-1.09,7.06-1.93,11.18c-1.49,8.28-3.64,18.06-6.38,28.83s-6.32,22.47-10.58,34.56-9,23.38-13.6,33.5-9.17,19-13.23,26.4c-2,3.73-3.92,7-5.56,9.89s-3.12,5.38-4.35,7.39l-2.78,4.66a9.87,9.87,0,0,0-.88,1.67A9.76,9.76,0,0,0,856.3,509l3-4.52c1.3-2,2.86-4.39,4.56-7.28s3.74-6.11,5.75-9.81c4.18-7.32,8.8-16.25,13.54-26.34s9.4-21.45,13.74-33.57,7.74-23.91,10.51-34.71,4.74-20.65,6.11-29c.78-4.15,1.25-7.93,1.73-11.25s.82-6.17,1-8.52.39-4,.53-5.4A10.52,10.52,0,0,0,916.91,336.75Z" transform="translate(-0.04 0.05)"/><path class="cls-2" d="M906.14,562.27a15.39,15.39,0,0,0,2.14-2.13l5.59-6a115.47,115.47,0,0,1,8.72-8.42,92.55,92.55,0,0,1,12-8.63,52.5,52.5,0,0,1,13.51-5.81,27,27,0,0,1,11.87-.51,25.57,25.57,0,0,1,7.57,2.75,14.73,14.73,0,0,0,2.63,1.47,13.49,13.49,0,0,0-2.38-1.88,23.65,23.65,0,0,0-7.65-3.2,27.09,27.09,0,0,0-12.31.26A51.45,51.45,0,0,0,934,536a85.61,85.61,0,0,0-12.15,8.83,101.1,101.1,0,0,0-8.63,8.69c-2.31,2.61-4.09,4.78-5.3,6.3A13.38,13.38,0,0,0,906.14,562.27Z" transform="translate(-0.04 0.05)"/><path class="cls-4" d="M879.52,579.86c-3.94-3.15-9.06-4.48-14.11-4.65-2.7-.09-5.6.15-7.77,1.76s-3.21,5-1.5,7.12a7,7,0,0,0,4.27,2c3.83.72,8.21.9,10.8,3.8,1.48,1.66,2.2,4.08,4.16,5.14a5,5,0,0,0,5.89-1.33,8.56,8.56,0,0,0,1.86-6.08A9.68,9.68,0,0,0,879.52,579.86Z" transform="translate(-0.04 0.05)"/><path class="cls-4" d="M882.08,620.39a8.25,8.25,0,0,1,.11-1.79q.19-2,.48-4.86a66.6,66.6,0,0,0,.33-7.2,54.64,54.64,0,0,0-.89-8.75,30.73,30.73,0,0,0-2.72-8.3A16,16,0,0,0,875,584a15.31,15.31,0,0,0-4.2-2.29,9.18,9.18,0,0,1-1.69-.6,9,9,0,0,1,1.78.33,13.9,13.9,0,0,1,4.43,2.15,16,16,0,0,1,4.72,5.58,30.34,30.34,0,0,1,2.84,8.49,50.87,50.87,0,0,1,.85,8.88,58.76,58.76,0,0,1-.49,7.26c-.25,2.05-.52,3.7-.72,4.84A8.69,8.69,0,0,1,882.08,620.39Z" transform="translate(-0.04 0.05)"/><path class="cls-2" d="M882.48,616.66a3.78,3.78,0,0,1,.12-.82c.12-.61.28-1.37.47-2.31.41-2,1-4.92,1.6-8.53,1.26-7.22,2.18-15.07,3.17-26.2.92-10.48,1.78-22.7,1.73-30.78,0-1.83,0-3.48-.07-4.94s0-2.71-.12-3.73-.06-1.74-.09-2.36a3.84,3.84,0,0,1,0-.83,3.26,3.26,0,0,1,.13.82c.06.62.14,1.4.23,2.35s.17,2.28.24,3.74.16,3.11.18,4.95A271.44,271.44,0,0,1,889,576.68c-1,11.15-2.44,21.2-3.83,28.41-.68,3.61-1.34,6.51-1.83,8.5l-.61,2.29A2.76,2.76,0,0,1,882.48,616.66Z" transform="translate(-0.04 0.05)"/><path class="cls-2" d="M888.55,596a15.29,15.29,0,0,1,.5-2.42c.4-1.53,1.06-3.74,2.05-6.4a86.89,86.89,0,0,1,4-9.12,80.06,80.06,0,0,1,6.25-10.5,61.4,61.4,0,0,1,15.38-15.91,28,28,0,0,1,3.27-2c.49-.28.94-.56,1.37-.77l1.22-.52a18.9,18.9,0,0,1,2.3-.9c.08.18-3.27,1.35-7.87,4.62a65,65,0,0,0-15,15.86,91.1,91.1,0,0,0-6.25,10.39,96.4,96.4,0,0,0-4.16,9c-1,2.62-1.77,4.79-2.26,6.29A15.44,15.44,0,0,1,888.55,596Z" transform="translate(-0.04 0.05)"/><path class="cls-2" d="M101.88,106.91a8.85,8.85,0,0,0,1.83.5l5.3,1.15c2.3.46,5.12,1.06,8.37,1.85s7,1.57,11,2.69c8.16,2,17.78,4.85,28.33,8.32s22,7.83,33.77,12.9,22.7,10.59,32.49,15.85,18.37,10.44,25.44,15c3.59,2.19,6.7,4.37,9.49,6.21s5.16,3.48,7.08,4.85l4.45,3.08a9.68,9.68,0,0,0,1.62,1,9.37,9.37,0,0,0-1.45-1.22l-4.31-3.3c-1.87-1.44-4.18-3.15-6.94-5s-5.84-4.14-9.4-6.4c-7-4.67-15.61-9.88-25.36-15.3s-20.76-10.84-32.56-16-23.33-9.35-33.91-12.85-20.29-6.13-28.5-8.06c-4.08-1.06-7.82-1.78-11.1-2.49s-6.1-1.24-8.43-1.63l-5.35-.89A9,9,0,0,0,101.88,106.91Z" transform="translate(-0.04 0.05)"/><path class="cls-4" d="M253,168.19c-6.84.15-13.78,1.21-19.9,4.28a9.71,9.71,0,0,0-3.54,2.64,4.09,4.09,0,0,0-.61,4.18c1.07,2.14,4,2.32,6.4,2,8.19-1.14,15.61-4.2,21.62-9.89" transform="translate(-0.04 0.05)"/><path class="cls-2" d="M210.12,6.13A9.59,9.59,0,0,0,211,7.81l2.75,4.67c1.21,2,2.69,4.49,4.31,7.41s3.57,6.19,5.5,9.93c4,7.38,8.48,16.36,13.08,26.47s9.15,21.47,13.4,33.57,7.62,23.86,10.39,34.63,4.77,20.58,6.21,28.86c.82,4.13,1.33,7.9,1.87,11.2s.94,6.15,1.23,8.48.57,4,.76,5.37a9.86,9.86,0,0,0,.36,1.86,10.87,10.87,0,0,0-.08-1.89c-.13-1.37-.29-3.17-.5-5.4s-.52-5.22-1-8.53-.91-7.11-1.66-11.25c-1.33-8.33-3.32-18.18-5.95-29s-6.1-22.6-10.31-34.77-9-23.49-13.55-33.64-9.24-19.07-13.39-26.41c-2-3.72-4-7-5.69-9.85s-3.23-5.33-4.52-7.3l-3-4.54A9.83,9.83,0,0,0,210.12,6.13Z" transform="translate(-0.04 0.05)"/><path class="cls-4" d="M267.51,158.75c-4.75-4.93-10.24-9.31-16.64-11.73a9.67,9.67,0,0,0-4.34-.81A4.11,4.11,0,0,0,243,148.6c-.85,2.23,1,4.53,2.88,6.05,6.39,5.25,13.67,8.63,21.92,9.19" transform="translate(-0.04 0.05)"/><path class="cls-4" d="M266.87,144.87A149.53,149.53,0,0,1,281,121.35c.84-1.15,2-2.41,3.38-2.3a2.87,2.87,0,0,1,2.32,2.1,7.31,7.31,0,0,1,0,3.29c-1.71,10.85-9.47,20.89-19.18,26" transform="translate(-0.04 0.05)"/><path class="cls-1" d="M158.91,245.21c3.83,2.86,2.37,8.15-.1,10.55s-6,3.33-9.29,4.18c-7.61,1.94-15.59,3.89-23.22,2a12.88,12.88,0,0,1-6.21-3.15,6.73,6.73,0,0,1-1.92-6.43c.79-2.66,3.47-4.25,6-5.38A55.36,55.36,0,0,1,148,242.29c3.82.11,7.8.68,10.89,2.92" transform="translate(-0.04 0.05)"/><path class="cls-1" d="M164.75,237.86c-3.62,2.87-8.79,3.27-13.17,1.82s-8.06-4.57-11-8.11a42,42,0,0,1-7.78-14.15,15,15,0,0,1-.87-6.29,6.61,6.61,0,0,1,3.34-5.15c2.83-1.37,6.17.13,8.89,1.73a105.46,105.46,0,0,1,13.62,9.56c3.45,2.84,6.83,6.08,8.3,10.3s1.15,8.55-1.81,10.67" transform="translate(-0.04 0.05)"/><path class="cls-1" d="M904.32,395.38a31.43,31.43,0,0,0-4.82-20.68c-1.34-2.07-3.29-4.15-5.76-4.13-3.28,0-5.27,3.69-5.83,6.93a23.25,23.25,0,0,0,3.1,15.92c2.91,4.71,6.19,7.82,11.48,9.43" transform="translate(-0.04 0.05)"/><path class="cls-1" d="M892.42,434.64c1.55-8.41.6-21.87-3.42-29.43a10.24,10.24,0,0,0-2.41-3.24,4.17,4.17,0,0,0-3.79-.88c-1.84.62-2.68,2.72-3.11,4.61a33.36,33.36,0,0,0,11.74,33.08" transform="translate(-0.04 0.05)"/><path class="cls-1" d="M877.59,469.06a48.4,48.4,0,0,0-5.81-24.69c-1-1.76-2.2-3.61-4.14-4.13-2.94-.78-5.73,1.95-6.79,4.8-2.17,5.88,0,12.44,2.8,18,3,6,10,13,10,13" transform="translate(-0.04 0.05)"/><path class="cls-1" d="M866,491.67c-.61-6.81-2.15-13.67-5.62-19.56a9.79,9.79,0,0,0-2.87-3.36,4.11,4.11,0,0,0-4.22-.32c-2.06,1.21-2,4.18-1.55,6.52,1.69,8.09,5.25,15.29,11.33,20.89" transform="translate(-0.04 0.05)"/><path class="cls-1" d="M874.24,480.45A150.36,150.36,0,0,1,900,471c1.38-.37,3-.66,4.08.32a2.87,2.87,0,0,1,.49,3.09,7.35,7.35,0,0,1-2,2.59c-8.13,7.38-20.46,10.35-31.24,8.26" transform="translate(-0.04 0.05)"/><path class="cls-1" d="M887.77,450.33l21.5-10.2a18.22,18.22,0,0,1,6.41-2.12c2.26-.15,4.74.71,5.85,2.68a6.1,6.1,0,0,1-.72,6.38,16.09,16.09,0,0,1-5.24,4.21c-4.66,2.68-9.62,5-14.93,5.87s-9.8.94-14.27-2" transform="translate(-0.04 0.05)"/><path class="cls-1" d="M901.73,415.81a52.68,52.68,0,0,1,23.46-14.14,8.89,8.89,0,0,1,4.57-.4c3,.76,4.54,4.29,4.18,7.35a12.46,12.46,0,0,1-5.5,8.45,26.56,26.56,0,0,1-9.62,3.76,60.92,60.92,0,0,1-19,1" transform="translate(-0.04 0.05)"/><path class="cls-1" d="M909.62,383.81c5.87-9,14.68-14.68,24.18-19.74,2-1.07,4.54-2,6.42-.74a4.36,4.36,0,0,1,1.7,3.79,10.24,10.24,0,0,1-1.28,4.11,32.94,32.94,0,0,1-31.89,17.49" transform="translate(-0.04 0.05)"/><path class="cls-1" d="M912.22,367.24c2.82-4.73,5.66-9.5,7.54-14.68s2.78-10.84,1.6-16.22a12.66,12.66,0,0,0-3.09-6.29,6.91,6.91,0,0,0-6.46-2.05,7.33,7.33,0,0,0-4.61,4.37A18.83,18.83,0,0,0,906,338.8c-.49,10.46,1,23,6.18,28.44" transform="translate(-0.04 0.05)"/><path class="cls-1" d="M960.15,520.37c8.37,1.47,15.75,6.45,21.57,12.63,3.14,3.32,6,7.23,6.44,11.78s-2.75,9.63-7.31,9.81c-2.71.11-5.19-1.45-7.34-3.12-5.17-4-10.26-9.36-16.82-9.39-3.74,0-7.59,1.75-11.11.47s-5.33-5.29-4.89-8.93,2.77-6.81,5.62-9.12A16.26,16.26,0,0,1,960.15,520.37Z" transform="translate(-0.04 0.05)"/><path class="cls-1" d="M966.61,483.33c-.32,8,8.14,11.74,13.89,11.06s10.67-4.26,15.31-7.72c10.61-7.89,21.62-16.27,27.29-28.21,1.69-3.57,2.88-7.52,2.45-11.45s-2.71-7.82-6.36-9.33c-4.33-1.79-9.25,0-13.42,2.16A92.92,92.92,0,0,0,974.32,466c-3.91,5.1-7.38,10.92-7.71,17.33" transform="translate(-0.04 0.05)"/><path class="cls-1" d="M950.8,483.18c7.59-1.7,13.6-8,16.33-15.3s2.57-15.38,1.09-23A70.37,70.37,0,0,0,958,419.71a24.81,24.81,0,0,0-7.29-7.8c-3-1.89-7-2.62-10.27-1.1-4.8,2.25-6.38,8.22-7.16,13.46a179.13,179.13,0,0,0-2,28c.07,7.52.72,15.38,4.69,21.77s10,10.56,15.87,8.94" transform="translate(-0.04 0.05)"/><path class="cls-1" d="M159.52,123.45a31.56,31.56,0,0,0-21,3.4c-2.15,1.21-4.37,3-4.51,5.47-.19,3.28,3.32,5.52,6.52,6.29a23.2,23.2,0,0,0,16.09-2c4.89-2.58,8.22-5.64,10.19-10.81" transform="translate(-0.04 0.05)"/><path class="cls-1" d="M197.88,138c-8.29-2.12-21.78-2.09-29.6,1.41a10.06,10.06,0,0,0-3.39,2.18,4.13,4.13,0,0,0-1.13,3.72c.49,1.88,2.53,2.86,4.38,3.42a33.37,33.37,0,0,0,33.8-9.47" transform="translate(-0.04 0.05)"/><path class="cls-1" d="M231.21,155.13a48.4,48.4,0,0,0-25,4.12c-1.82.83-3.75,1.95-4.39,3.85-1,2.88,1.54,5.85,4.32,7.1,5.72,2.56,12.41.84,18.2-1.57,6.23-2.6,13.67-9.1,13.67-9.1" transform="translate(-0.04 0.05)"/><path class="cls-1" d="M242.35,159.25a148.67,148.67,0,0,1-7.73-26.31c-.28-1.4-.45-3.08.6-4.05a2.86,2.86,0,0,1,3.11-.28,7.25,7.25,0,0,1,2.44,2.2c6.82,8.61,8.94,21.12,6.13,31.74" transform="translate(-0.04 0.05)"/><path class="cls-1" d="M213.21,143.7l-8.71-22.14a18.37,18.37,0,0,1-1.68-6.54c0-2.26,1-4.68,3.07-5.66a6.1,6.1,0,0,1,6.31,1.15A16,16,0,0,1,216,116c2.36,4.83,4.34,9.94,4.85,15.3s.27,9.83-3,14.09" transform="translate(-0.04 0.05)"/><path class="cls-1" d="M179.73,127.42a52.63,52.63,0,0,1-12.52-24.36,8.78,8.78,0,0,1-.08-4.58c1-2.93,4.59-4.25,7.61-3.68a12.47,12.47,0,0,1,8.06,6.07,26.37,26.37,0,0,1,3.09,9.85,60.69,60.69,0,0,1-.26,19.07" transform="translate(-0.04 0.05)"/><path class="cls-1" d="M148.33,117.38c-8.6-6.47-13.65-15.64-18-25.47-.93-2.07-1.69-4.66-.3-6.45a4.36,4.36,0,0,1,3.9-1.44,10.17,10.17,0,0,1,4,1.56,33,33,0,0,1,15.29,33" transform="translate(-0.04 0.05)"/><path class="cls-1" d="M132,113.66a87.37,87.37,0,0,0-14.13-8.52c-5-2.23-10.63-3.51-16.08-2.7a12.65,12.65,0,0,0-6.48,2.66,6.92,6.92,0,0,0-2.5,6.3,7.31,7.31,0,0,0,4,4.9,18.55,18.55,0,0,0,6.34,1.59c10.41,1.2,23,.56,28.8-4.23" transform="translate(-0.04 0.05)"/><path class="cls-1" d="M237,59.72A31.51,31.51,0,0,0,220.3,46.61c-2.35-.77-5.17-1.17-7.08.39-2.54,2.08-1.8,6.19-.2,9.06a23.29,23.29,0,0,0,12.39,10.47c5.2,1.84,9.72,2.22,14.85.16" transform="translate(-0.04 0.05)"/><path class="cls-1" d="M252.35,97.78c-4.06-7.54-13.24-17.43-21.1-20.81a10.18,10.18,0,0,0-3.9-1,4.13,4.13,0,0,0-3.51,1.69c-1.05,1.63-.39,3.79.46,5.54a33.34,33.34,0,0,0,29.87,18.42" transform="translate(-0.04 0.05)"/><path class="cls-1" d="M262.35,133.89a48.64,48.64,0,0,0-20-15.61c-1.85-.77-4-1.43-5.82-.62-2.78,1.23-3.25,5.11-2.28,8,2,6,7.8,9.7,13.49,12.32,6.13,2.82,15.95,3.88,15.95,3.88" transform="translate(-0.04 0.05)"/><path class="cls-1" d="M258.55,112.91l10.37-21.42a18.57,18.57,0,0,1,3.67-5.66c1.67-1.53,4.14-2.41,6.24-1.58a6.09,6.09,0,0,1,3.43,5.43,16,16,0,0,1-1.44,6.56c-1.95,5-4.37,9.93-8,13.93s-7.05,6.87-12.4,7.35" transform="translate(-0.04 0.05)"/><path class="cls-1" d="M247.82,77.26a52.52,52.52,0,0,1,9.43-25.72,8.81,8.81,0,0,1,3.3-3.17c2.81-1.27,6.24.5,7.87,3.11a12.45,12.45,0,0,1,1,10,26.38,26.38,0,0,1-5.14,9,61.34,61.34,0,0,1-14.2,12.74" transform="translate(-0.04 0.05)"/><path class="cls-1" d="M233.92,47.37c-1.08-10.71,2.25-20.64,6.48-30.53.89-2.09,2.28-4.41,4.54-4.6a4.36,4.36,0,0,1,3.7,1.89,10.36,10.36,0,0,1,1.58,4,33,33,0,0,1-13.9,33.61" transform="translate(-0.04 0.05)"/><path class="cls-1" d="M225.57,32.83a88.14,88.14,0,0,0-3.32-16.16c-1.77-5.22-4.63-10.19-8.92-13.65A12.63,12.63,0,0,0,207,0a6.92,6.92,0,0,0-6.33,2.44,7.29,7.29,0,0,0-.85,6.29,18.28,18.28,0,0,0,3.13,5.75c6.17,8.46,15.19,17.31,22.63,18.3" transform="translate(-0.04 0.05)"/><path class="cls-6" d="M750.08,658.66c16-10.52,45-30.21,48.95-60.13,3.91-29.5-20.54-38.68-23.14-71.65-3.51-44.43,38.71-55.37,49.84-107.07,11.23-52.25-19.49-98.72-29.37-113.67-31-46.86-62-46-127.27-95.54-84.08-63.78-8.31-107.06-70.3-143.78S380.51,25.66,312.2,63.17c-42.09,23.12-24.61,42.84-100.57,131-55.22,64.07-80.69,72.47-94.34,117.78-3.52,11.71-20.93,69.48,10.68,113.66,27.84,38.9,67.62,30.85,81.88,65.07,14.89,35.71-22.17,59.56-15.13,100.48,7.82,45.42,63.19,72.48,101.46,90.6C473.5,765.66,672.11,710.05,750.08,658.66Z" transform="translate(-0.04 0.05)"/><ellipse class="cls-7" cx="498.66" cy="705.08" rx="451.27" ry="70.13"/><polygon class="cls-8" points="246.08 506.13 302.82 705.73 295.42 705.73 238.72 506.58 246.08 506.13"/><polygon class="cls-8" points="160.42 506.13 217.16 705.73 209.76 705.73 153.06 506.58 160.42 506.13"/><polygon class="cls-9" points="161.87 537.5 168.91 535.98 159.73 503.9 157.22 521.2 161.87 537.5"/><polygon class="cls-10" points="247.24 536.12 254.28 534.6 245.11 502.52 242.6 519.82 247.24 536.12"/><polygon class="cls-11" points="159.96 506.41 155.91 529.33 114.1 718 105.33 717.78 136.17 530.44 139.43 506.41 159.96 506.41"/><path class="cls-11" d="M210.35,719.06h-8.64l19.23-190.92c.26-2.6.92-5.69,1.36-8.27l2.89-18.45,19.74,5.11-3.84,22.85Z" transform="translate(-0.04 0.05)"/><polygon class="cls-10" points="135.06 539.58 153.44 540.48 160.13 506.41 139.87 505.91 135.06 539.58"/><polygon class="cls-10" points="239.52 538.31 220.17 537.35 225.04 501.44 244.63 506 239.52 538.31"/><rect class="cls-11" x="126.42" y="483.08" width="125.62" height="23.52"/><rect class="cls-11" x="119.15" y="657.55" width="98.55" height="7.06"/><rect class="cls-11" x="125.31" y="605.14" width="98.55" height="7.06"/><rect class="cls-11" x="136.41" y="550.5" width="98.55" height="7.06"/><path class="cls-12" d="M201.87,590.55c-3.29.5-92.31-15.26-95.32-18-1.15-1,.41-14.26,2.75-30.18.5-3.43,1-7,1.62-10.58,3.67-23.36,24.54-42,24.54-42l43.15,4.27-9.76,47.79-2.13,10.49s31.36,21.41,34.33,24.8S205.17,590.05,201.87,590.55Z" transform="translate(-0.04 0.05)"/><path class="cls-13" d="M201.87,590.55c-3.29.5-92.31-15.26-95.32-18-1.39-1.28,1.2-20.52,4.37-40.76l57.93,10.09-2.13,10.49s31.36,21.41,34.33,24.8S205.17,590.05,201.87,590.55Z" transform="translate(-0.04 0.05)"/><path class="cls-14" d="M201.87,590.55c-3.29.5-92.83-16.62-95.84-19.38-1.15-1,.93-12.9,3.27-28.82l57.42,10s31.36,21.41,34.33,24.8S205.17,590.05,201.87,590.55Z" transform="translate(-0.04 0.05)"/><path class="cls-15" d="M201.23,586.74c-14.86-3-75.06-13.75-90-15.59-.12,0-.13.07,0,.1,14.66,3.31,75,13.55,90,15.73C201.5,587,201.54,586.8,201.23,586.74Z" transform="translate(-0.04 0.05)"/><path class="cls-13" d="M195.9,572.91a12.11,12.11,0,0,0-9.58,2.1,12,12,0,0,0-4.76,7.44.09.09,0,0,0,.18,0c1.9-5.75,8.13-10,14.13-9.39a.1.1,0,0,0,0-.14Z" transform="translate(-0.04 0.05)"/><path class="cls-13" d="M172.24,554.87c-6-1.14-13.26-.24-17.84,4-.18.17.06.42.25.36a82.79,82.79,0,0,1,17.56-3.63.38.38,0,0,0,0-.73Z" transform="translate(-0.04 0.05)"/><path class="cls-13" d="M176.53,557.5c-6-1.14-13.26-.24-17.84,4-.18.17.06.42.25.36a82.79,82.79,0,0,1,17.56-3.63.38.38,0,0,0,0-.73Z" transform="translate(-0.04 0.05)"/><path class="cls-13" d="M180.82,560.13c-6-1.14-13.26-.24-17.84,4-.18.17.06.42.25.36a82.79,82.79,0,0,1,17.56-3.63.38.38,0,0,0,0-.73Z" transform="translate(-0.04 0.05)"/><path class="cls-13" d="M185.11,562.76c-6-1.14-13.26-.24-17.84,4-.18.17,0,.42.25.36a82.79,82.79,0,0,1,17.56-3.63.38.38,0,0,0,0-.73Z" transform="translate(-0.04 0.05)"/><path class="cls-15" d="M112.19,553.65" transform="translate(-0.04 0.05)"/><path class="cls-15" d="M132.76,554.42" transform="translate(-0.04 0.05)"/><path class="cls-13" d="M105.78,572.1s-1.78-4.48.72-13.83c0,0,62.62,21.86,97.89,27.35,0,0,.22,3.06-1.25,4.67S126.34,577.64,105.78,572.1Z" transform="translate(-0.04 0.05)"/><path class="cls-13" d="M195.78,573.28s-10,.31-11.34,9l-2.37-.63S185.59,570.54,195.78,573.28Z" transform="translate(-0.04 0.05)"/><path class="cls-12" d="M260.81,655.14c-3.15,1.1-93.54,2.06-97-.1-1.32-.81-2.23-14.09-2.87-30.16-.14-3.47-.27-7.06-.37-10.7-.71-23.64-.91-48.74-.91-48.74l60.46-.82-.75,48.76-.16,10.71s34.78,15.25,38.33,18S264,654,260.81,655.14Z" transform="translate(-0.04 0.05)"/><path class="cls-13" d="M260.81,655.14c-3.15,1.1-93.54,2.06-97-.1-1.61-1-2.61-20.39-3.24-40.86l58.8-.8-.16,10.71s34.78,15.25,38.33,18S264,654,260.81,655.14Z" transform="translate(-0.04 0.05)"/><path class="cls-14" d="M260.81,655.14c-3.15,1.1-94.3.82-97.77-1.34-1.32-.81-1.47-12.85-2.11-28.92l58.27-.79s34.78,15.25,38.33,18S264,654,260.81,655.14Z" transform="translate(-0.04 0.05)"/><path class="cls-15" d="M259.48,651.5c-15.16-.21-76.31.37-91.31,1.32-.12,0-.12.1,0,.1,15,.54,76.16-.54,91.31-1.17C259.8,651.74,259.8,651.51,259.48,651.5Z" transform="translate(-0.04 0.05)"/><path class="cls-13" d="M251.68,638.9a12.16,12.16,0,0,0-12.3,12c0,.09.17.09.18,0,.8-6,6.14-11.31,12.15-11.84a.1.1,0,0,0,0-.13S251.71,638.9,251.68,638.9Z" transform="translate(-0.04 0.05)"/><path class="cls-13" d="M225.1,625.55c-6.07,0-13.08,2.21-16.79,7.26-.15.19.13.4.31.3a83.54,83.54,0,0,1,16.59-6.81.39.39,0,0,0,.29-.45A.38.38,0,0,0,225.1,625.55Z" transform="translate(-0.04 0.05)"/><path class="cls-13" d="M229.8,627.34c-6.07,0-13.08,2.21-16.79,7.26-.15.19.13.4.31.3a83.54,83.54,0,0,1,16.59-6.81.39.39,0,0,0,.29-.45A.38.38,0,0,0,229.8,627.34Z" transform="translate(-0.04 0.05)"/><path class="cls-13" d="M234.5,629.13c-6.07,0-13.07,2.21-16.79,7.26-.14.2.13.4.31.3a83.54,83.54,0,0,1,16.59-6.81.39.39,0,0,0,.29-.45A.38.38,0,0,0,234.5,629.13Z" transform="translate(-0.04 0.05)"/><path class="cls-13" d="M239.2,630.92c-6.06,0-13.07,2.22-16.79,7.26-.14.2.13.4.31.3a83.54,83.54,0,0,1,16.59-6.81.39.39,0,0,0,.29-.45A.38.38,0,0,0,239.2,630.92Z" transform="translate(-0.04 0.05)"/><path class="cls-15" d="M165.86,635.45" transform="translate(-0.04 0.05)"/><path class="cls-15" d="M186.22,632.4" transform="translate(-0.04 0.05)"/><path class="cls-13" d="M163,654.77s-2.58-4.08-1.85-13.73c0,0,65.57,9.91,101.25,8.78,0,0,.79,3-.37,4.82S184.2,656.41,163,654.77Z" transform="translate(-0.04 0.05)"/><path class="cls-13" d="M251.63,639.29s-9.78,2.16-9.48,10.91L239.7,650S241.12,638.48,251.63,639.29Z" transform="translate(-0.04 0.05)"/><path class="cls-16" d="M133.53,278s-13.77,14.23-9.79,26.46c0,0,65.89,13.2,83.31,5.46s-24.19-25.15-24.19-25.15l-29-21.28Z" transform="translate(-0.04 0.05)"/><path class="cls-16" d="M183.09,208.1s-19.33-3.68-23.93,14.73-25.78,55.24-25.78,55.24l23-18.42" transform="translate(-0.04 0.05)"/><path class="cls-16" d="M180.33,209s12-3.68,18.41,1.84,12.25,18.85,8.89,41.65" transform="translate(-0.04 0.05)"/><path class="cls-16" d="M201.44,222.45s4.67,29.84,19.4,47.33,8.39,34.63,8.39,34.63l-1.1-1.12s5.59-16-8.21-32.59-17.73-42.85-17.73-42.85" transform="translate(-0.04 0.05)"/><polygon class="cls-16" points="163.72 228.4 150.83 270.75 208.83 282.72 209.75 260.62 206.99 242.21 202.39 219.2 192.26 213.68 185.81 210.91 164.64 222.88 163.72 228.4"/><path class="cls-12" d="M178.35,277.64c-3.8-.49-10.43-8.91-12.45-15.39-.14-.45,1.32-4.55,2.86-9.61.92-3.08,1.87-6.53,2.51-9.74l19.15,8.92A52.56,52.56,0,0,0,186,263.76a6.69,6.69,0,0,0-.13,1.34v.22C185.78,267.91,184.31,278.41,178.35,277.64Z" transform="translate(-0.04 0.05)"/><path class="cls-17" d="M185.88,265.1a.89.89,0,0,0,0,.23,13.46,13.46,0,0,1-2.1-.31c-11.61-2.59-11.63-17.53-11.42-21.6l18.08,8.4A52.37,52.37,0,0,0,186,263.75,8.81,8.81,0,0,0,185.88,265.1Z" transform="translate(-0.04 0.05)"/><path class="cls-12" d="M169.58,221.3c-2.42,7.22.85,28.34,5.9,33.17,7.31,7,19.58,8,25.6-.88,5.83-8.59,1.08-36-4.58-40.46C188.15,206.63,173.15,210.64,169.58,221.3Z" transform="translate(-0.04 0.05)"/><path class="cls-15" d="M188.49,234.53s-.1.09-.09.15c.32,1.4.45,3.06-.73,3.78v.08C189.21,238,189,235.81,188.49,234.53Z" transform="translate(-0.04 0.05)"/><path class="cls-15" d="M186.94,233.3c-2.31.27-1.6,4.86.54,4.61S188.87,233.07,186.94,233.3Z" transform="translate(-0.04 0.05)"/><path class="cls-15" d="M196.44,233s.12.05.13.11c.18,1.43.62,3,2,3.31,0,0,.05.08,0,.08C196.94,236.56,196.38,234.42,196.44,233Z" transform="translate(-0.04 0.05)"/><path class="cls-15" d="M197.48,231.35c2.26-.53,3.15,4,1.06,4.52S195.59,231.79,197.48,231.35Z" transform="translate(-0.04 0.05)"/><path class="cls-12" d="M173.6,238.55c.15-.05-4.26-7-7.8-5.16-3.13,1.62.41,11.56,4,12.93a3.69,3.69,0,0,0,4.89-1.79l.06-.15Z" transform="translate(-0.04 0.05)"/><path class="cls-17" d="M166.88,235.28c-.06,0-.07.08,0,.1,2.53,1,3.85,3.41,4.77,5.86a2,2,0,0,0-2.72-.77l-.28.19c-.07,0,0,.15.07.13a2.28,2.28,0,0,1,2.49.81,11.49,11.49,0,0,1,1.17,2c.12.23.53.11.45-.15v-.06C172.84,240.18,170.35,235.63,166.88,235.28Z" transform="translate(-0.04 0.05)"/><path class="cls-12" d="M199.84,251a2,2,0,0,0-1.91-2.09h-4.12c-2.94,0-8.4.81-8.52,1.42-.32,1.53-.32,7.42,11.47,4.47A4.34,4.34,0,0,0,199.84,251Z" transform="translate(-0.04 0.05)"/><path class="cls-15" d="M195.73,249.05s-3.79,2.43-7.76.55C188,249.6,192.21,254.41,195.73,249.05Z" transform="translate(-0.04 0.05)"/><path class="cls-16" d="M169.61,234.09l4.28,4.39S171.36,220,184,215.93a9.22,9.22,0,0,0,3.7-2.3h0a21.58,21.58,0,0,0,6.3,4.45A16.76,16.76,0,0,1,203,229c2.94,11.57,6.61,32.63.69,50.86l15.73,13.24,6.79,5.73s-2.66-20.75-10.95-33.64c-4.18-6.52-8.77-29.22-9.75-39.07a21.08,21.08,0,0,0-6.43-13.39,18.1,18.1,0,0,0-16-4.62s-23,0-23,23-27,47.12-27,47.12,19-12.05,29-15.78c0,0,3.19-.61,4.28-2.17s3.86-13.52,3.86-13.52a14.17,14.17,0,0,1-5.6-11.16s.18-3.29,3.06-2.49A4.51,4.51,0,0,1,169.61,234.09Z" transform="translate(-0.04 0.05)"/><path class="cls-18" d="M200.58,220.07" transform="translate(-0.04 0.05)"/><path class="cls-19" d="M187,260a29.09,29.09,0,0,0-1.22,6.6s19.5,14.43,23.59,18c0,0-10.82-17.57-6.59-35.07C202.79,249.53,201.06,260.29,187,260Z" transform="translate(-0.04 0.05)"/><path class="cls-20" d="M188.39,229.39a2,2,0,0,1,.91,2.68h0s-5.39-1.79-8.08.9l-1.8.9a10.2,10.2,0,0,1,4.49-3.59A15.65,15.65,0,0,1,188.39,229.39Z" transform="translate(-0.04 0.05)"/><path class="cls-20" d="M194.64,228.52a1.57,1.57,0,0,0,0,2.22l0,0s3.52-2.86,6.3-1.61l1.59.17a8.06,8.06,0,0,0-4.37-1.42A12.63,12.63,0,0,0,194.64,228.52Z" transform="translate(-0.04 0.05)"/><path class="cls-20" d="M193.22,236.64s2.76,3.68,2.76,6.44-4.6,1.85-4.6,1.85,4.6,0,3.68-2.77Z" transform="translate(-0.04 0.05)"/><path class="cls-16" d="M187.7,213.63a55.68,55.68,0,0,1-10.13,9.2c-5.52,3.68-3.74,15.09-3.74,15.09l-1.53-19.4Z" transform="translate(-0.04 0.05)"/><path class="cls-19" d="M164.61,236.64s1.61,19.91-15.08,31.9c0,0,10.55-4.66,16.21-6.4l4.71-15.62S165.74,244.73,164.61,236.64Z" transform="translate(-0.04 0.05)"/><path class="cls-15" d="M185.94,233.7c-.33.22-.65.61-1.05.65s-.82-.34-1.13-.72h-.06c0,.73.28,1.48,1.07,1.57s1.21-.56,1.39-1.29C186.19,233.81,186.07,233.62,185.94,233.7Z" transform="translate(-0.04 0.05)"/><path class="cls-15" d="M198.43,231.77c.33.22.65.6,1,.65s.82-.35,1.13-.73c0,0,.06,0,.06.05,0,.73-.28,1.47-1.07,1.57s-1.21-.56-1.39-1.29C198.18,231.88,198.3,231.68,198.43,231.77Z" transform="translate(-0.04 0.05)"/><path class="cls-21" d="M385.14,450.49v.37l29.66-.25A25.29,25.29,0,0,0,439.75,425l-.32-36.89a36.51,36.51,0,1,0-.52-59.88l-.31-36.13a25.29,25.29,0,0,0-25.38-25.2h0l-131.67,1.15a25.3,25.3,0,0,0-25,25.62l1.16,132.89a25.3,25.3,0,0,0,25.38,25.19l29.67-.26v-.38a36.18,36.18,0,1,1,72.34-1.65c0,.34,0,.69,0,1Z" transform="translate(-0.04 0.05)"/><path class="cls-1" d="M385.81,442.92a2.41,2.41,0,0,1,0,.38l29.67-.26a25.29,25.29,0,0,0,24.94-25.62l-.32-36.89a36.51,36.51,0,1,0-.52-59.88l-.31-36.13a25.29,25.29,0,0,0-25.39-25.18l-131.67,1.14a25.3,25.3,0,0,0-24.95,25.62L258.42,419a25.29,25.29,0,0,0,25.38,25.18l29.67-.26v-.37a36.18,36.18,0,1,1,72.34-1.65c0,.34,0,.68,0,1Z" transform="translate(-0.04 0.05)"/><path class="cls-22" d="M109.5,524.39l61.08,7.05s64.82-99.62,58.3-134.06c-3.59-18.94-68-48.69-68-48.69l-6.52-13.1H108.93s-18.53,27.3-5.23,53c9,17.43,58.69,30.72,60.52,36.32C166.63,432.25,109.5,524.39,109.5,524.39Z" transform="translate(-0.04 0.05)"/><path class="cls-23" d="M165.33,515.45c5.4-8.25,34.44-60.72,38.78-69.55,2.17-4.41,4.27-8.87,6.16-13.4a119.15,119.15,0,0,0,5-13.81c1.29-4.66,2.49-9.57,1.5-14.2a20.18,20.18,0,0,0-2.76-6.56,30.88,30.88,0,0,0-2-2.93c-.78-.93-1.55-1.86-2.4-2.73-6.81-7-15.31-12.17-23.86-17s-17.57-8.87-26.51-13c-2.22-1.06-4.45-2.12-6.65-3.25-1.1-.57-2.19-1.16-3.25-1.8a7.38,7.38,0,0,1-2.79-2.5c-2.48-4.34-3.5-9.3-4-14.18.59,4.87,1.74,9.8,4.28,14a6.94,6.94,0,0,0,2.71,2.3c1.06.61,2.16,1.16,3.26,1.7,2.22,1.06,4.47,2.07,6.72,3.07,9,4,18,8,26.75,12.7a137.79,137.79,0,0,1,12.75,7.6,73.63,73.63,0,0,1,11.54,9.44c.88.89,1.68,1.85,2.5,2.81a30,30,0,0,1,2.18,3.08,20.08,20.08,0,0,1,3.13,14.59c-.23,1.23-.4,2.48-.69,3.69s-.57,2.43-.93,3.62a122.22,122.22,0,0,1-5.15,14c-1.93,4.55-4,9-6.26,13.44C200.9,455.34,170.93,507.34,165.33,515.45Z" transform="translate(-0.04 0.05)"/><path class="cls-22" d="M135.28,393.75s24.93,78.57,25.38,93c.38,12.31-1.19,120.93-1.19,120.93l63.1.37s-5.33-111.12-6.31-123.95c-1.85-24-22.86-89.85-37.89-148.52h-68s.59,30.73,14.56,53C124.9,388.54,131.23,391.47,135.28,393.75Z" transform="translate(-0.04 0.05)"/><path class="cls-23" d="M176.62,372.61c2.25,7.51,4.15,15.13,6.16,22.7s4,15.27,6.06,22.91c3.89,14.78,7.74,29.58,10.65,44.59a270.07,270.07,0,0,1,5,45.71c.33,15.64,0,31.3-.1,47s-.24,13.75-.51,29.47q0,2.94-.15,5.87a.15.15,0,0,1-.18.11.15.15,0,0,1-.11-.11c-.42-15.64-.2-13.61-.15-29.26s.26-31.3.13-47a282.35,282.35,0,0,0-4-46.35c-2.64-15.06-6.35-29.9-10.2-44.69-2.19-8.44-4.41-16.87-6.6-25.3s-4.56-17-6.49-25.53a.24.24,0,0,1,.14-.31.24.24,0,0,1,.3.14Z" transform="translate(-0.04 0.05)"/><path class="cls-23" d="M211.2,457.06c-2.34-8.16-4.56-16.34-6.77-24.53L197.91,408l-6.43-24.61q-1.57-6.15-3.28-12.28c-1.14-4.08-2.17-8.19-3.68-12.16,3.38,7.8,5.62,16,8.07,24.14s4.56,16.34,6.76,24.53,4.22,16.43,6.19,24.68S209.45,448.75,211.2,457.06Z" transform="translate(-0.04 0.05)"/><path class="cls-1" d="M180.57,322.43l-2.2,13.16H108.93s22.5-56.23,45-69.66c11.28-6.72,21.08-3.05,25.53,5.32,1.13,2.12,11.6,25.3,10.74,35.63C189.46,316,180.57,322.43,180.57,322.43Z" transform="translate(-0.04 0.05)"/><path class="cls-24" d="M179.17,330.81l-.32,1.89H110.11c.25-.56.53-1.19.82-1.89Z" transform="translate(-0.04 0.05)"/><path class="cls-24" d="M179.87,326.6l-.31,1.89H112c.27-.59.54-1.22.84-1.89Z" transform="translate(-0.04 0.05)"/><path class="cls-12" d="M168.69,281c7.33,10.67,38.53,44.69,50.81,43.58,19.25-1.73,39.46-11.3,50.66-16.24,3.55-1.57-12.63-35.58-19.12-31.79-8.38,4.89-25.69,12-30.73,12.8-3.44.54-26.23-12.42-42.14-21.33C164.9,260.57,159.41,267.45,168.69,281Z" transform="translate(-0.04 0.05)"/><path class="cls-12" d="M302.74,271.07c-5.37-1-9.38-2.1-11.94-2.4-.41,0-.77-.07-1.1-.07h0a5.42,5.42,0,0,0-.57,0l.17.2c.92,1.1,5.27,6.59,5.49,11.53v.45a7.3,7.3,0,0,1-.09,1.14V282a3.12,3.12,0,0,1-.09.44c-.38,1.58-1.21,4.76-2.3,8.21-.07.23-.15.48-.23.72a2.41,2.41,0,0,1-.08.25c-.1.33-.21.66-.32,1-.58,1.72-1.22,3.45-1.89,5a26.21,26.21,0,0,1-2.92-.65,11.55,11.55,0,0,1-1.27,2.68,12.77,12.77,0,0,1-9.29,5.94l-6.09,2.68-1.13.5-1.9.83L245.3,280.21l5.62-3.65.13-.08a23.33,23.33,0,0,0,4.84-4.52c5.7-6.38,23.72-18.29,46.28-9.87C310.81,265.35,312.33,272.82,302.74,271.07Z" transform="translate(-0.04 0.05)"/><path class="cls-12" d="M308.22,282.12c-.67,2.75-3.1,3.32-5,3.3a11.79,11.79,0,0,1-2.44-.29l-.22-.06h0c.11.06.48.33,1,.73h0c1.69,1.37,4.76,4.4,3.27,7.44a4.4,4.4,0,0,1-4.28,2.41,8.82,8.82,0,0,1-2.39-.37H298l.06.06a6.72,6.72,0,0,1,1.09,1.45h0a4.24,4.24,0,0,1-.24,4.88c-2.53,3.39-7.78-1.46-13.31-2a8.41,8.41,0,0,0-2.74.12c-1.44.32-20.55-33-20.55-33,4.46-.55,13.93-1.57,22,.3.7.16,1.44.35,2.22.56,1,.28,2.09.61,3.21,1h0c.62.2,1.25.41,1.88.64h0C300.08,272.21,309.44,277.12,308.22,282.12Z" transform="translate(-0.04 0.05)"/><path class="cls-12" d="M280.5,276.14c4.28.17,13.9,3.05,19.93,8.73.14.13.11.31,0,.21a89.59,89.59,0,0,0-19.91-8.85Z" transform="translate(-0.04 0.05)"/><path class="cls-12" d="M298.12,295.31a0,0,0,0,1-.07,0h0c-2.06-1.36-4.08-2.6-6-3.7l-.55-.31a87.61,87.61,0,0,0-12.79-6m0-.07a41.74,41.74,0,0,1,13.63,5.43c.54.34,1.08.69,1.61,1.06a28.07,28.07,0,0,1,4.13,3.4.22.22,0,0,1,.05.19Z" transform="translate(-0.04 0.05)"/><path class="cls-1" d="M211.13,285.32l-12.8,31.54s-7-7.15-14.92-16c-3.55-4-7.27-8.27-10.6-12.41-1.91-2.37-3.68-4.68-5.22-6.84-10.21-14.35-4.47-21.39,10.85-15S211.13,285.32,211.13,285.32Z" transform="translate(-0.04 0.05)"/><path class="cls-16" d="M291.58,269.24c-.14,0-1-.23-2.29-.42-2.77-.44-7.44-.86-10.66.42a14.75,14.75,0,0,1,7.85-1.6,17.2,17.2,0,0,1,3.76.64l.56.39c-.41,0-.77-.07-1.1-.07C290.32,268.8,291,269,291.58,269.24Z" transform="translate(-0.04 0.05)"/><path class="cls-16" d="M303.17,285.42a11.79,11.79,0,0,1-2.44-.29,1.39,1.39,0,0,0-.27-.21A18.71,18.71,0,0,0,295,282.1l-.33-.1a29.17,29.17,0,0,0-11.22-1.15,20.41,20.41,0,0,1,9.93-.8c.45.09.92.18,1.38.3A17.23,17.23,0,0,1,303.17,285.42Z" transform="translate(-0.04 0.05)"/><path class="cls-16" d="M298,295.34a6.72,6.72,0,0,1,1.09,1.45,17.38,17.38,0,0,0-7.46-4.18,15,15,0,0,0-7.21-.16,15.68,15.68,0,0,1,7-1.14l.63.06a13.59,13.59,0,0,1,8.45,4.3h0a8.82,8.82,0,0,1-2.39-.37.07.07,0,0,1,0,.08A.06.06,0,0,1,298,295.34Z" transform="translate(-0.04 0.05)"/><path class="cls-12" d="M671.24,340c2.3-.4,2.11-1.61-1.54-3.58s-19.76-6.7-17.64-12.18,24.76,1.5,30.59,5.26,13.93,11.87,13.93,11.87C691.9,340.88,680.44,340.81,671.24,340Z" transform="translate(-0.04 0.05)"/><path class="cls-21" d="M516.32,532.48v-.37l-29.87.1a25.47,25.47,0,0,0-25.25,25.67l.13,37.15a36.76,36.76,0,1,0,.22,60.3l.13,36.38a25.46,25.46,0,0,0,25.43,25.49h0l132.59-.48A25.46,25.46,0,0,0,645,691.1v-.05l-.48-133.83a25.44,25.44,0,0,0-25.42-25.48H619l-29.88.1v.38a36.43,36.43,0,0,1-72.86.26Z" transform="translate(-0.04 0.05)"/><rect class="cls-25" x="449.01" y="589.48" width="7.58" height="79.61"/><path class="cls-26" d="M456.3,590h.38V560.15a25.46,25.46,0,0,0-25.58-25.34H394a36.77,36.77,0,1,0-60.3,0H297.27a25.47,25.47,0,0,0-25.58,25.34v132.6a25.47,25.47,0,0,0,25.58,25.34H431.1a25.46,25.46,0,0,0,25.58-25.34h0V662.88h-.38a36.43,36.43,0,0,1-.05-72.86h.05Z" transform="translate(-0.04 0.05)"/><path class="cls-27" d="M448.69,589.28c.13,0,.23,3.94.36,3.94V559.41a25.47,25.47,0,0,0-25.58-25.34H386.34a36.77,36.77,0,1,0-60.3,0H289.66a25.46,25.46,0,0,0-25.58,25.34h0V692a25.46,25.46,0,0,0,25.58,25.34H423.49A25.47,25.47,0,0,0,449.07,692V662.13c-.13,0,.11-3,0-3-20.31,0-37.13-13.35-37.13-33.47A36.6,36.6,0,0,1,448.69,589.28Z" transform="translate(-0.04 0.05)"/><path class="cls-1" d="M511.38,531.87v-.38l-29.87.1a25.47,25.47,0,0,0-25.25,25.68l.13,37.14a36.77,36.77,0,1,0,.22,60.3l.13,36.38a25.46,25.46,0,0,0,25.43,25.49h0l132.59-.47A25.47,25.47,0,0,0,640,690.43l-.48-133.82a25.46,25.46,0,0,0-25.43-25.49h0l-29.87.1v.38a36.43,36.43,0,0,1-72.86.27h0Z" transform="translate(-0.04 0.05)"/><path class="cls-12" d="M673.22,709c3.2,1,94.49.24,97.95-2,1.32-.84,2-14.14,2.32-30.23.07-3.48.13-7.07.16-10.72.26-23.67,0-48.79,0-48.79l-61.06.36,1.7,48.78.36,10.71s-34.81,15.94-38.35,18.79S670,708,673.22,709Z" transform="translate(-0.04 0.05)"/><path class="cls-13" d="M673.22,709c3.2,1,94.49.24,97.95-2,1.6-1,2.25-20.45,2.48-41l-59.38.35.36,10.71s-34.81,15.94-38.35,18.79S670,708,673.22,709Z" transform="translate(-0.04 0.05)"/><path class="cls-28" d="M668.78,708.83c3.36,1.17,100,2.29,103.68,0,1.41-.86,2.39-14.92,3.1-31.94L713.28,676s-37.18,16.11-41,19.06S665.42,707.66,668.78,708.83Z" transform="translate(-0.04 0.05)"/><path class="cls-15" d="M678.92,690.8a13,13,0,0,1,9.64,4.07,12.57,12.57,0,0,1,3.52,8.69c0,.09-.18.09-.19,0a15,15,0,0,0-13-12.55.11.11,0,0,1,0-.21Z" transform="translate(-0.04 0.05)"/><path class="cls-15" d="M707.35,676.68c6.48,0,14,2.37,17.94,7.71.15.21-.15.43-.34.32a89.83,89.83,0,0,0-17.72-7.23A.41.41,0,0,1,707,677,.4.4,0,0,1,707.35,676.68Z" transform="translate(-0.04 0.05)"/><path class="cls-15" d="M702.32,678.58c6.49,0,14,2.36,17.94,7.71.15.2-.14.42-.33.32a89.34,89.34,0,0,0-17.73-7.24.39.39,0,0,1-.31-.47A.4.4,0,0,1,702.32,678.58Z" transform="translate(-0.04 0.05)"/><path class="cls-15" d="M697.3,680.47c6.48,0,14,2.36,17.93,7.71.16.21-.14.42-.33.32a89.22,89.22,0,0,0-17.72-7.23.41.41,0,0,1-.26-.52A.4.4,0,0,1,697.3,680.47Z" transform="translate(-0.04 0.05)"/><path class="cls-15" d="M692.27,682.36c6.48,0,14,2.36,17.94,7.71.15.21-.15.42-.34.32a89.22,89.22,0,0,0-17.72-7.23.41.41,0,0,1-.26-.52A.4.4,0,0,1,692.27,682.36Z" transform="translate(-0.04 0.05)"/><path class="cls-15" d="M772.29,708.9s3.16-5.44,2.39-15.65c0,0-69,10.16-107.1,8.92,0,0-.92,4.22.31,6.18S749.6,710.61,772.29,708.9Z" transform="translate(-0.04 0.05)"/><path class="cls-15" d="M679,691.21s10.45,2.3,10.12,11.57l2.61-.2S690.22,690.37,679,691.21Z" transform="translate(-0.04 0.05)"/><path class="cls-12" d="M837.18,708.75c3.34-.34,86.61-37.76,88.88-41.2.87-1.3-3.87-13.74-10-28.61-1.33-3.22-2.72-6.53-4.16-9.88-9.27-21.78-19.63-44.67-19.63-44.67L836.5,609.27l21.17,44,4.63,9.66s-25.47,28.59-27.56,32.62S833.83,709.08,837.18,708.75Z" transform="translate(-0.04 0.05)"/><path class="cls-13" d="M837.18,708.75c3.34-.34,86.61-37.76,88.88-41.2,1.05-1.58-6.17-19.62-14.19-38.49l-54.23,24.19,4.63,9.66s-25.47,28.59-27.56,32.62S833.83,709.08,837.18,708.75Z" transform="translate(-0.04 0.05)"/><path class="cls-28" d="M833,710.35c3.55-.28,92.46-38.08,94.94-41.67.95-1.35-3.8-14.62-10-30.49l-57.39,24.2s-27.55,29.7-29.85,33.92S829.48,710.63,833,710.35Z" transform="translate(-0.04 0.05)"/><path class="cls-15" d="M835.06,689.76a13.06,13.06,0,0,1,10.47-.15,12.66,12.66,0,0,1,6.71,6.54c0,.09-.13.16-.18.08A15,15,0,0,0,835.14,690a.13.13,0,1,1-.08-.24Z" transform="translate(-0.04 0.05)"/><path class="cls-15" d="M855.42,665.41c5.93-2.62,13.74-3.45,19.52-.15.23.13,0,.44-.18.43a89.32,89.32,0,0,0-19.13.5.41.41,0,0,1-.21-.78Z" transform="translate(-0.04 0.05)"/><path class="cls-15" d="M851.58,669.16c5.93-2.61,13.74-3.45,19.52-.15.22.13,0,.45-.18.43a89.32,89.32,0,0,0-19.13.5.41.41,0,0,1-.21-.78Z" transform="translate(-0.04 0.05)"/><path class="cls-15" d="M847.74,672.92c5.93-2.62,13.74-3.46,19.52-.15.22.12,0,.44-.18.42a90,90,0,0,0-19.13.51.41.41,0,0,1-.21-.78Z" transform="translate(-0.04 0.05)"/><path class="cls-15" d="M843.89,676.67c5.93-2.62,13.75-3.45,19.53-.15.22.13,0,.44-.18.43a89.41,89.41,0,0,0-19.14.5.41.41,0,0,1-.21-.78Z" transform="translate(-0.04 0.05)"/><path class="cls-15" d="M927.83,668.81s.71-6.25-4.1-15.3c0,0-59.07,37-94.48,51.23,0,0,.85,4.22,2.77,5.52S907.74,679.49,927.83,668.81Z" transform="translate(-0.04 0.05)"/><path class="cls-15" d="M835.28,690.12s10.49-2.1,13.92,6.52l2.31-1.23S845.23,684.82,835.28,690.12Z" transform="translate(-0.04 0.05)"/><path class="cls-29" d="M766.75,290c-10,4.77-45.15,13.83-59.75,4.08-13.09-8.74-14.2-71.46-8.74-91.56C700.18,195.49,728,209,731,215c2.53,5.09-1.6,52.44.42,53.48,3.41,1.74,14.46,3.06,32.07,5.52C780.06,276.27,773.82,286.66,766.75,290Z" transform="translate(-0.04 0.05)"/><path class="cls-15" d="M731.71,235.69l-37.26-17.63s-6.42,63.84,11.78,77.3c4.19,3.1,32.12,8.25,58.43-3,8.14-3.49,20.78-15.51-3.41-19.34s-28.6-5.18-29-5.78S731.71,235.69,731.71,235.69Z" transform="translate(-0.04 0.05)"/><g class="cls-30"><path class="cls-15" d="M713.77,249.56a3.2,3.2,0,0,0,4.42-.38c2.13-2.42,1.1-6.53,0-9.25s-3.05-5.7-6.24-6.19c-2-.32-3.19,1.46-2.81,3.27.44,2.1,1.54,4,2.09,6.14S711.71,248.05,713.77,249.56Z" transform="translate(-0.04 0.05)"/><path class="cls-15" d="M717.44,262.41c1.88-1,2.2-3.73,2.18-5.62a5.29,5.29,0,0,0-.84-2.89c-.77-1.13-2.44-1.88-3.67-1a3.46,3.46,0,0,0-1.34,2.27,8.11,8.11,0,0,0-.16,1.39v.26c-.24,1.39-.68,2.84-.23,4.22a2.74,2.74,0,0,0,3.51,1.64A2.81,2.81,0,0,0,717.44,262.41Z" transform="translate(-0.04 0.05)"/><path class="cls-15" d="M727.51,258.06c1.53-3.23,1.5-7,.84-10.46-.54-2.78-1.6-7.34-4.8-8.06a1.65,1.65,0,0,0-1.75.9c-1.29,2.09,0,5.7.22,8,.25,2.89,0,5.8.27,8.67a2.76,2.76,0,0,0,5.22.95Z" transform="translate(-0.04 0.05)"/><path class="cls-15" d="M709.82,272.44a3.82,3.82,0,0,0,1.47.69,3.36,3.36,0,0,0,2.37-.51,5.28,5.28,0,0,0,1.63-2,5,5,0,0,0,.48-2.38c-.06-.24-.11-.49-.16-.74l-.35-.7a2.83,2.83,0,0,0-1.53-1.1,2.92,2.92,0,0,0-3.13.88,14.46,14.46,0,0,0-1.61,2.06c-.08.26-.16.52-.25.78a2.26,2.26,0,0,0,0,1.21A3,3,0,0,0,709.82,272.44Z" transform="translate(-0.04 0.05)"/><path class="cls-15" d="M719.64,271.51a2.67,2.67,0,0,0,3.08-.68,6.47,6.47,0,0,0,1.33-3.1,5.72,5.72,0,0,0-.1-3.15,2.06,2.06,0,0,0-2.65-1.2,2,2,0,0,0-.82.56,10.13,10.13,0,0,0-1.18,2.26c-.16.34-.34.65-.52,1a7.08,7.08,0,0,0-.58,1.53A2.59,2.59,0,0,0,719.64,271.51Z" transform="translate(-0.04 0.05)"/></g><path class="cls-15" d="M695.48,227.61c3.09,1,6.07,2.41,9,3.69s5.87,2.55,8.79,3.85c5.89,2.63,11.89,5.13,17.61,8.14a.11.11,0,0,1,0,.16.11.11,0,0,1-.13.06c-6.18-2-12.17-4.76-18.12-7.37q-4.49-2-8.91-4a85.8,85.8,0,0,1-8.46-4.26C695.23,227.75,695.35,227.57,695.48,227.61Z" transform="translate(-0.04 0.05)"/><path class="cls-31" d="M764.66,292.36c-26.31,11.25-54.25,6.1-58.43,3-8.43-6.25-11.58-23.32-12.53-39.86l38.3,8.65a17.66,17.66,0,0,0,.21,3.08c.12.17.52.38,1.5.69,2,.61,6.29,1.57,15.4,3.12,3.34.57,7.34,1.23,12.1,2C785.37,276.79,772.8,288.86,764.66,292.36Z" transform="translate(-0.04 0.05)"/><path class="cls-22" d="M794.19,378.63s-15.86,157-16.24,158.93c-.05.27-.16,3.29-.31,8.21-.86,27-3,111.27-3,111.27H709.92s4.23-99.79,6.65-123.06c3.1-29.7,22.58-155.35,22.58-155.35Z" transform="translate(-0.04 0.05)"/><path class="cls-23" d="M794.19,378.63s-15.86,157-16.24,158.93c-.05.27-.16,3.29-.31,8.21L747.11,378.63Z" transform="translate(-0.04 0.05)"/><path class="cls-22" d="M739.15,378.63s4.27,22.67,20.08,34.2c0,0,34.88,116.71,39.41,130.09C806.45,566,848.42,644.1,848.42,644.1l64.79-27.81s-49.41-87-54.75-93.74c-3.55-4.45-29.78-99-29.83-101.49-.55-27.8-9.87-42.58-9.87-42.58Z" transform="translate(-0.04 0.05)"/><path class="cls-23" d="M791.57,386.84a21.61,21.61,0,0,0,7.92,11.38c4.19,3.19,9.22,4.52,14.39,4.93a.7.7,0,0,1,0,1.39c-10.55.06-21.22-6.68-22.77-17.63A.24.24,0,0,1,791.57,386.84Z" transform="translate(-0.04 0.05)"/><path class="cls-23" d="M749.1,405.65A59,59,0,0,1,760,411.43c3.62,2.25,7,4.87,10.47,7.3.13.09,0,.31-.13.22-3.66-2.11-7.49-3.94-11.12-6.12a69.75,69.75,0,0,1-10.29-6.9C748.82,405.83,748.94,405.59,749.1,405.65Z" transform="translate(-0.04 0.05)"/><path class="cls-23" d="M747.62,383.64c.56,2.42,1.26,4.8,1.9,7.21.6,2.25,1.07,4.55,1.77,6.77a11.56,11.56,0,0,0,3.45,5.59c.93.79,2,1.48,2.93,2.2.54.38,1.11.75,1.66,1.14-.08-.32-.16-.64-.23-1l-.6-2.76c-.44-2-.86-4.08-1.27-6.12-.8-4-1.56-8.08-2.59-12.05,0-.16.2-.24.25-.08,1.19,3.93,2.49,7.8,3.55,11.77.52,1.94,2.49,11.57,2.59,12.25s.2,1.41.26,2.12a8.84,8.84,0,0,1,.1,2.18.18.18,0,0,1-.24.09.2.2,0,0,1-.09-.09h0a8.12,8.12,0,0,1-.71-2.08c-.21-.68-.4-1.38-.56-2.07-.06-.26-.1-.51-.15-.77-1-.54-1.91-1.27-2.83-1.87s-2-1.29-2.95-2a11.09,11.09,0,0,1-3.73-5.28,41,41,0,0,1-1.46-6.92c-.43-2.74-.78-5.5-1.29-8.23C747.34,383.55,747.58,383.47,747.62,383.64Z" transform="translate(-0.04 0.05)"/><path class="cls-23" d="M814.56,381.29a53.69,53.69,0,0,1,9,28.86,45.82,45.82,0,0,1-.56,7.67c-.1.63-.18,1.27-.33,1.9l-.19.94a2.42,2.42,0,0,0-.11.8c.15,1.18.46,2.45.74,3.67,1.16,4.94,2.47,9.86,3.77,14.77,5.28,19.65,10.62,39.29,16.24,58.84l4.23,14.65c.73,2.44,1.45,4.87,2.23,7.28.39,1.2.78,2.43,1.23,3.54a30.81,30.81,0,0,0,1.69,3.34c4.79,8.94,10,17.72,15,26.57,0,0,25.53,42.89,30.79,52.78.24.46.12.76-.35.14-4.56-5.95-21.2-34.75-31.56-52.27-5.19-8.76-10.31-17.54-15.21-26.5-.63-1.1-1.19-2.29-1.77-3.45a27.93,27.93,0,0,1-1.3-3.66c-.79-2.43-1.53-4.87-2.27-7.31q-2.19-7.32-4.29-14.66c-5.48-19.6-10.88-39.23-15.84-59-1.23-4.94-2.46-9.87-3.56-14.86-.26-1.26-.55-2.46-.7-3.82a3.26,3.26,0,0,1,.15-1.07l.2-.93c.15-.61.24-1.23.35-1.85a50.06,50.06,0,0,0,.68-7.53A53.89,53.89,0,0,0,814.56,381.29Z" transform="translate(-0.04 0.05)"/><path class="cls-31" d="M824,387.5l-90.12.6c.23-1.7,5.12-71.65,27.67-113.34,1.58-2.91,15.72-6.12,22-.41,5.2,4.73,9.88,11.75,14.05,20,2.31,4.58,4.46,9.55,6.47,14.72C817.32,343.35,823.77,386.67,824,387.5Z" transform="translate(-0.04 0.05)"/><path class="cls-12" d="M770.25,288.63c3.71-.48,10.15-8.67,12.12-15,.14-.43-1.28-4.42-2.78-9.35-.9-3-1.82-6.34-2.45-9.47l-18.63,8.68a50.63,50.63,0,0,1,4.29,11.61,6.4,6.4,0,0,1,.13,1.31v.22C763,279.16,764.46,289.37,770.25,288.63Z" transform="translate(-0.04 0.05)"/><path class="cls-17" d="M762.93,276.43a.81.81,0,0,1,0,.22,13.6,13.6,0,0,0,2-.3c11.3-2.52,11.32-17.05,11.11-21l-17.58,8.17a50.66,50.66,0,0,1,4.3,11.61A11.27,11.27,0,0,1,762.93,276.43Z" transform="translate(-0.04 0.05)"/><path class="cls-12" d="M778.79,233.82c2.35,7-.83,27.57-5.74,32.26-7.12,6.81-19,7.77-24.9-.85-5.68-8.36-1.06-35.07,4.45-39.36C760.72,219.54,775.32,223.45,778.79,233.82Z" transform="translate(-0.04 0.05)"/><path class="cls-15" d="M760.39,246.69c0-.05.1.08.09.14-.32,1.36-.44,3,.71,3.68v.07C759.69,250.08,759.88,247.93,760.39,246.69Z" transform="translate(-0.04 0.05)"/><path class="cls-15" d="M761.9,245.49c2.24.26,1.55,4.73-.52,4.49S760,245.27,761.9,245.49Z" transform="translate(-0.04 0.05)"/><path class="cls-15" d="M752.66,245.23s-.12,0-.13.11c-.17,1.39-.6,3-1.92,3.22,0,0-.05.08,0,.08C752.17,248.66,752.72,246.58,752.66,245.23Z" transform="translate(-0.04 0.05)"/><path class="cls-15" d="M751.64,243.59c-2.2-.51-3.06,3.93-1,4.4S753.49,244,751.64,243.59Z" transform="translate(-0.04 0.05)"/><path class="cls-15" d="M759.68,259.82c-.38.27-.78.67-1.29.63a3.69,3.69,0,0,1-1.44-.57m-.07.06a1.89,1.89,0,0,0,1.64,1,1.49,1.49,0,0,0,1.28-1.06c0-.05-.07-.1-.12-.06Z" transform="translate(-0.04 0.05)"/><path class="cls-12" d="M774.87,250.6s4.58-6.65,7.6-5-.4,11.24-3.92,12.58a3.58,3.58,0,0,1-4.75-1.75l-.06-.14Z" transform="translate(-0.04 0.05)"/><path class="cls-32" d="M781.42,247.42c.06,0,.07.07,0,.09-2.46,1-3.75,3.32-4.64,5.7a2,2,0,0,1,2.73-.75l.27.19c.07,0,0,.15-.06.13a2.2,2.2,0,0,0-2.42.79,10.18,10.18,0,0,0-1.15,2c-.12.22-.51.11-.43-.15v-.06C775.62,252.18,778,247.76,781.42,247.42Z" transform="translate(-0.04 0.05)"/><path class="cls-20" d="M767.18,241.1a5.48,5.48,0,0,0-3.78-1.26,5.48,5.48,0,0,1-3.78-1.26s0,2.52,1.26,2.52S764.66,239.84,767.18,241.1Z" transform="translate(-0.04 0.05)"/><path class="cls-16" d="M775.23,253.26s-.14-.7-3.17,2.8c-1.38,1.58-3,4.09-5,3.48-2.25-.7-5.21-2.84-8.58-2-5.86,1.51-11.62-4.14-12.76-.72-.9,2.68,2.7,10.18,4.86,13.48a5.1,5.1,0,0,0,4.47,2.3c3.2-.11,8.28-.46,10.84-1.45,3.91-1.51,8.79-3,10.74-7.56S775.23,259.31,775.23,253.26Z" transform="translate(-0.04 0.05)"/><path class="cls-12" d="M749.35,262.73a1.88,1.88,0,0,1,1.76-2h4.14c2.87,0,8.18.78,8.3,1.38.3,1.48.3,7.22-11.16,4.35A4.24,4.24,0,0,1,749.35,262.73Z" transform="translate(-0.04 0.05)"/><path class="cls-15" d="M752.29,260.82a10.68,10.68,0,0,0,8.61.53S756.2,266,752.29,260.82Z" transform="translate(-0.04 0.05)"/><path class="cls-32" d="M754.32,249.44s-3.23,4.85-2.15,5.93,7,0,7,0,1.62-1.08-2.7-.54-3.77-.54-3.77-.54A12.71,12.71,0,0,1,754.32,249.44Z" transform="translate(-0.04 0.05)"/><path class="cls-19" d="M775.23,253.26s-1-1-5.43,5.34-2.63,7.2-5.32,10.78c-1.93,2.59-.88,1.85-7.6,3.17a29.2,29.2,0,0,0,17.56-5.86s3.7-3.66,2.69-6.31S775.23,256.85,775.23,253.26Z" transform="translate(-0.04 0.05)"/><path class="cls-20" d="M759.7,239.46s0,2,1.51,1.62a26.85,26.85,0,0,1,3.21-.53S761.18,240.89,759.7,239.46Z" transform="translate(-0.04 0.05)"/><path class="cls-20" d="M747.4,241.09a5.48,5.48,0,0,1,3.78-1.26,5.59,5.59,0,0,0,3.79-1.26s0,2.52-1.27,2.52S749.92,239.83,747.4,241.09Z" transform="translate(-0.04 0.05)"/><path class="cls-20" d="M754.88,239.45s0,2-1.51,1.61a31.39,31.39,0,0,0-3.2-.53S753.4,240.88,754.88,239.45Z" transform="translate(-0.04 0.05)"/><path class="cls-27" d="M725.19,292.31v7.07s22.44-1.42,26.73-2.83c0,0,4.29-8.47,8.58-11.3,0,0-22.44,5.65-35.31,1.41Z" transform="translate(-0.04 0.05)"/><path class="cls-33" d="M722,334s13.51-.12,15.6,8.09a18.38,18.38,0,0,0-9.22-13.67S725.63,332.67,722,334Z" transform="translate(-0.04 0.05)"/><polyline class="cls-23" points="773.17 515.52 766.26 657.08 774.58 656.74 778.2 535.14"/><path class="cls-12" d="M775.75,299.48c-2.82,13-17.92,63.37-34.55,69-20.15,6.83-47.45,8.14-60.15,5.14-7.13-1.68,3.08-32.53,9.67-31.82,10.39,1.11,28.92-5.79,32.71-6.36s25.41-26.22,37.48-40.33C771.79,282.39,777.42,291.83,775.75,299.48Z" transform="translate(-0.04 0.05)"/><path class="cls-31" d="M698,335.87l-5.28,42.05s39.7-3.11,53.16-11.94,25.08-39.56,30.47-58.52-4.35-27.57-22.07-7.91c-20.75,23-29.22,34-30.81,34.69S698,335.87,698,335.87Z" transform="translate(-0.04 0.05)"/><path class="cls-27" d="M697.78,335.51c3.73-.45,18.87-.87,22.6-1.34a7.7,7.7,0,0,0,4.46-2c1.38-1.24,23.5-25.38,25.91-28.22a.12.12,0,1,1,.19.14c-2.56,2.86-19.43,22.89-22.08,25.77a33.29,33.29,0,0,1-3.72,3.79,7.12,7.12,0,0,1-4.47,1.55c-3.59.1-17.62.58-22.53.78-.09,0-.39,1.89-.48,1.89h-.19A8.19,8.19,0,0,1,697.78,335.51Z" transform="translate(-0.04 0.05)"/><path class="cls-26" d="M545.46,260.75h-.37v28.93a24.67,24.67,0,0,0,24.77,24.55h36a35.61,35.61,0,1,0,58.39,0h35.24a24.67,24.67,0,0,0,24.77-24.55V161.26a24.66,24.66,0,0,0-24.77-24.54H569.86a24.66,24.66,0,0,0-24.77,24.54v28.93h.37a35.28,35.28,0,1,1,0,70.56Z" transform="translate(-0.04 0.05)"/><path class="cls-27" d="M552.83,261.47h-.37V290.4a24.7,24.7,0,0,0,24.83,24.54h36.08a35.67,35.67,0,1,0,58.52,0h35.32A24.69,24.69,0,0,0,732,290.4V162a24.69,24.69,0,0,0-24.83-24.54H577.29A24.7,24.7,0,0,0,552.46,162v28.93h.37A35.29,35.29,0,1,1,554,261.5h-1.19Z" transform="translate(-0.04 0.05)"/><path class="cls-12" d="M736.46,223.27c1-5.72,5.32-13.67,4.68-17.93a5,5,0,0,0-4-4.32s3.56-3.19,2.34-7c-.63-2-4.29-2.65-4.29-2.65s2.74-2.68,1.45-6c-1-2.63-4.54-2.94-4.54-2.94s1.43-3.8-.48-6.13c-3.86-4.74-27.18,1.68-28.42,11.26-.58,4.47,5,2.59,5,2.59s-7.41,4.65-6.21,9.49,8.34,2,8.34,2-7.15,4.57-5.4,9.47c1.82,5.09,8.48,1,8.48,1s-4.22,4.94-2,8.38c3.63,5.68,11.3-4.83,16.76-5l5.15,7.68Z" transform="translate(-0.04 0.05)"/><path class="cls-12" d="M739.11,214.63c-.48,5.5,7.39,10,7.68,15.28.4,7.2-9.08,2.65-13.5-6.75l-2.15-7.9Z" transform="translate(-0.04 0.05)"/><path class="cls-12" d="M731.54,182.22a.06.06,0,1,0,0-.12h0c-8.18.24-17.1,3-23.63,8-.21.17,0,.59.23.45A85.9,85.9,0,0,1,731.54,182.22Z" transform="translate(-0.04 0.05)"/><path class="cls-12" d="M735.25,191.33c.1,0,.07-.17,0-.17-8.44.3-18.4,3.7-25.23,10.38-.24.23-.22.67.07.43C714.94,197.87,727.57,192.75,735.25,191.33Z" transform="translate(-0.04 0.05)"/><path class="cls-12" d="M713,212.77c6.81-6.15,14.9-9.5,23.71-11.75.11,0,.06-.19,0-.19-4.61-.08-10.08,1.94-14.2,3.87a24.23,24.23,0,0,0-9.68,7.83C712.74,212.67,712.9,212.9,713,212.77Z" transform="translate(-0.04 0.05)"/><path class="cls-17" d="M733.47,182.81s-10.51,1-15.8,4.94c0,0,3-4.95,14.71-6.45" transform="translate(-0.04 0.05)"/><path class="cls-17" d="M736.63,191.83s-11,2.53-15,6.5c0,0,5.82-6.17,14.16-7.71" transform="translate(-0.04 0.05)"/><path class="cls-17" d="M738.46,201.48s-7.56.82-12.85,4.79c0,0,3.69-4.66,12.43-6.3" transform="translate(-0.04 0.05)"/><path class="cls-17" d="M739.94,212.21s-7.72,4.65-11.69,3.33l.66,1.09s6.23,1.78,10.07-1Z" transform="translate(-0.04 0.05)"/><path class="cls-12" d="M696.58,341.36l-6.66,33.74c-13.46-1.54-30.21-3.17-41.93-12.47a7.54,7.54,0,0,1-2.54-3.48c-.07-.17-.11-.32-.14-.41v-.13h0l-.7-.56h0a11.36,11.36,0,0,1-4.09-5.94,4.44,4.44,0,0,1-.15-1.26c-.15-.22-.31-.43-.44-.65a14.32,14.32,0,0,1-2.57-6.74,7.13,7.13,0,0,1,0-1.6v-.1a16.61,16.61,0,0,1-1.38-1.27c-1.69-1.72-4.09-4.91-2.52-7.81,2.58-4.76,10.79,3,17.9,4.47a174.92,174.92,0,0,0,20.52,2.74h0c7.11.6,13.84.92,18.62,1.15h3l1.26.08h.72l.62.05Z" transform="translate(-0.04 0.05)"/><path class="cls-12" d="M665.85,352.92a58.37,58.37,0,0,1-22.1-6.84,46.52,46.52,0,0,1-6.38-4.2.13.13,0,0,1-.06-.07v-.1a.11.11,0,0,1,.15,0l0,0c3.35,1.87,6.63,3.77,10.07,5.41,1.37.66,2.78,1.26,4.22,1.82a109.24,109.24,0,0,0,14.11,3.81C666.14,352.76,666.09,352.94,665.85,352.92Z" transform="translate(-0.04 0.05)"/><path class="cls-12" d="M665.26,362.85c-4.59-1.34-12.64-3.73-24.89-12.18,0,0-.1,0-.06.07a50.74,50.74,0,0,0,24.89,12.32C665.49,363.12,665.57,362.93,665.26,362.85Z" transform="translate(-0.04 0.05)"/><path class="cls-12" d="M664.82,368.29c-7.72-2.56-12.26-5.15-19.49-9.69,0,0-.1,0-.06.07,7.68,6,11.14,7.33,19.5,9.9C665,368.66,665.12,368.39,664.82,368.29Z" transform="translate(-0.04 0.05)"/><path class="cls-17" d="M661.82,347.09s-5.72,1.78-14.25,0a39,39,0,0,1-3.82-1,44.34,44.34,0,0,1-6.47-2.64h0a7.13,7.13,0,0,1,0-1.6v-.1a16.61,16.61,0,0,1-1.38-1.27S647.83,348.93,661.82,347.09Z" transform="translate(-0.04 0.05)"/><path class="cls-17" d="M659.76,353.06s-4.14,4.35-12.79,1.84h0a25,25,0,0,1-2.79-1,37.34,37.34,0,0,1-3.75-1.86,4.44,4.44,0,0,1-.15-1.26c-.15-.22-.31-.43-.44-.65C639.84,350.15,648.93,357.33,659.76,353.06Z" transform="translate(-0.04 0.05)"/><path class="cls-17" d="M660.67,360.07a14.52,14.52,0,0,1-1.36.83c-.24.14-.51.27-.81.41A12.87,12.87,0,0,1,652,362.6a8.55,8.55,0,0,1-1.8-.35,10.18,10.18,0,0,1-4.71-3.1c-.07-.17-.11-.32-.14-.41a11.31,11.31,0,0,0,1,.77l.11.08a13.15,13.15,0,0,0,2.23,1.09,15,15,0,0,0,9,.34c.37-.08.76-.19,1.15-.3Z" transform="translate(-0.04 0.05)"/><path class="cls-27" d="M756.88,299.14S771,289,782.28,289c0,0-11.44,2.42-31.85,14.63Z" transform="translate(-0.04 0.05)"/><path class="cls-27" d="M736,372.19a203.43,203.43,0,0,0,42.33-47.9s-.6,20.1-43.85,57.59Z" transform="translate(-0.04 0.05)"/><path class="cls-27" d="M727.33,329.85s9.34,1.84,10.06,10.76c0,0-3.75-7.09-18-6.34A70.75,70.75,0,0,0,727.33,329.85Z" transform="translate(-0.04 0.05)"/><path class="cls-23" d="M112.25,381.46s8.7,13.54,31.92,9.67C144.17,391.13,125.79,390.16,112.25,381.46Z" transform="translate(-0.04 0.05)"/><path class="cls-15" d="M47.43,363.08" transform="translate(-0.04 0.05)"/><path class="cls-23" d="M152.53,451.34l6.3,27.71a65.32,65.32,0,0,1,1.6,15.89l-.78,34.57H153.1s3.38-49.28-6.65-67.23Z" transform="translate(-0.04 0.05)"/><path class="cls-13" d="M529.86,649.94a8.27,8.27,0,1,1-8.27,8.27,8.27,8.27,0,0,1,8.27-8.27Zm16.54-24.66a1.88,1.88,0,1,1,2.66,2.66h0l-6.25,6.26,6.25,6.26a1.88,1.88,0,1,1-2.66,2.67h0l-7.59-7.6a1.87,1.87,0,0,1,0-2.64l0,0Zm-21.7-10.6h-1.36a1.26,1.26,0,0,0-1.24,1.24v26.69l2.29,2.24v-4.11a3.12,3.12,0,0,1,.31-1.12Zm-6.34,27.59V614.16a3.23,3.23,0,0,1,3.22-3.22h3.12v-3.23a3.24,3.24,0,0,1,3.23-3.22h3.22v-1.34a5,5,0,0,1,5-5h27.64a1.89,1.89,0,0,1,1.41.63l15.61,15.13a1.83,1.83,0,0,1,.57,1.34v37.31a5,5,0,0,1-5,5H575v1.37a5,5,0,0,1-5,5h-1.46v1.33a5,5,0,0,1-5,5H545.21l-4.2,4.15a1.89,1.89,0,0,1-2.66,0l-2.92-2.9v4.21a1.89,1.89,0,0,1-1.89,1.89h-7.25a1.89,1.89,0,0,1-1.89-1.89h0v-4.13l-2.91,2.92a1.87,1.87,0,0,1-2.64,0l0,0-5.14-5.15a1.9,1.9,0,0,1,0-2.67l2.92-2.92h-4.16a1.88,1.88,0,0,1-1.88-1.88h0v-7.36a1.89,1.89,0,0,1,1.88-1.89h4.13l-2.92-2.94a1.9,1.9,0,0,1,0-2.68l4.71-4.75Zm27.71,24.21h17.55a1.24,1.24,0,0,0,1.23-1.23v-1.37H543.47l2.6,2.6Zm3.08-6.45H570a1.25,1.25,0,0,0,1.25-1.23v-1.37H549.15V660Zm-.16-6.35H576.3a1.25,1.25,0,0,0,1.24-1.24V617.18H566.86a5,5,0,0,1-5-5V601.89H536a1.26,1.26,0,0,0-1.24,1.24v36.31a3.74,3.74,0,0,1,.63,1.3v4.13l2.88-2.92a1.9,1.9,0,0,1,2.67,0l5.14,5.15a1.88,1.88,0,0,1,0,2.66h0l-2.92,2.87h4.13c.71,0,1.71,1,1.71,1Zm-18-14.76V608.34h-1.36a1.25,1.25,0,0,0-1.24,1.24v29.34Zm10.84-30.4a2.36,2.36,0,1,0-2.37,2.35h0a2.35,2.35,0,0,0,2.39-2.31v0Zm15.71-2.35a2.35,2.35,0,1,0,2.35,2.35h0a2.35,2.35,0,0,0-2.31-2.35Zm-9,0a2.35,2.35,0,1,0,2.35,2.35h0A2.35,2.35,0,0,0,548.56,606.17Zm18.36,7.26h8l-9.2-9v7.73a1.23,1.23,0,0,0,1.22,1.24h0Zm-9.32,8.32a1.89,1.89,0,1,1,3.64,1h0l-6.41,23.94a1.89,1.89,0,0,1-3.64-1h0Zm5.78,6.19a1.88,1.88,0,0,1,2.66-2.66h0l7.6,7.59a1.89,1.89,0,0,1,0,2.66l-7.6,7.6a1.88,1.88,0,0,1-2.66-2.67l6.25-6.26Zm-31.72,18.11v-3.39h-3.53V646c0,1.78-4.27,3.57-5.5,2.32l-2.53-2.55-2.48,2.5,2.53,2.55c1.27,1.29-.49,5.55-2.28,5.55h-3.58v3.54h3.47c1.78,0,3.57,4.26,2.32,5.49l-2.54,2.6,2.5,2.48,2.55-2.53c1.29-1.27,5.55.49,5.55,2.28v3.58h3.53V670.3c0-1.78,4.24-3.57,5.46-2.33l2.51,2.55,2.46-2.5-2.51-2.55c-1.26-1.29.49-5.54,2.26-5.54h3.55v-3.54h-3.52c-1.75,0-3.51-4.3-2.29-5.55l2.51-2.55-2.46-2.5-2.51,2.55c-1.23,1.24-5.46-.54-5.46-2.29Zm-1.81,7.66a4.5,4.5,0,1,0,4.49,4.51h0a4.51,4.51,0,0,0-4.48-4.5Z" transform="translate(-0.04 0.05)"/><path class="cls-13" d="M630.3,189.09l.49-2.76a28,28,0,0,0-6-.4c-4.43.2-8,1.61-10.59,4.19a14.12,14.12,0,0,0-3.79,7.1h0a21.76,21.76,0,0,0-.38,6.49l2.82-.25a19.21,19.21,0,0,1,.33-5.66,11.42,11.42,0,0,1,3-5.72,12.83,12.83,0,0,1,8.71-3.37A26.53,26.53,0,0,1,630.3,189.09Z" transform="translate(-0.04 0.05)"/><path class="cls-13" d="M618.84,221.07c-.85-1.55-1.63-3.1-2.31-4.61l-2.59,1.15c.72,1.58,1.53,3.2,2.42,4.81Z" transform="translate(-0.04 0.05)"/><path class="cls-13" d="M610.86,208.71c.29,1.25.66,2.55,1.1,3.86l2.69-.88a31.81,31.81,0,0,1-1-3.62Z" transform="translate(-0.04 0.05)"/><path class="cls-13" d="M620.25,228.71c.88,1.29,1.83,2.6,2.82,3.88l.34.45,2.25-1.71-.33-.43c-1-1.25-1.88-2.52-2.74-3.77Z" transform="translate(-0.04 0.05)"/><path class="cls-13" d="M631.53,238.17c-.71-.75-1.4-1.52-2.08-2.27l-.49-.56-2.14,1.83.51.58c.69.78,1.41,1.56,2.13,2.33l1,1,2-2Z" transform="translate(-0.04 0.05)"/><path class="cls-13" d="M685.15,232.81l-2.59,1.13a42.91,42.91,0,0,1,3.21,10.32c1,6-.1,10.74-3.08,13.7a11.55,11.55,0,0,1-5.7,3,20.24,20.24,0,0,1-6.31.3c-.57-.06-1.16-.13-1.75-.23l-.44,2.78c.64.1,1.29.18,1.92.24.88.08,1.75.13,2.59.13a21.67,21.67,0,0,0,4.61-.48,14.26,14.26,0,0,0,7.08-3.74c3.65-3.61,5-9.19,3.87-16.12A45.35,45.35,0,0,0,685.15,232.81Z" transform="translate(-0.04 0.05)"/><path class="cls-13" d="M682,226.57,679.5,228c.66,1.14,1.28,2.28,1.84,3.4l2.54-1.24C683.29,229,682.65,227.75,682,226.57Z" transform="translate(-0.04 0.05)"/><path class="cls-13" d="M679,221.75c-1-1.42-2-2.84-3-4.21l-2.26,1.69c1,1.33,2,2.71,3,4.09Z" transform="translate(-0.04 0.05)"/><path class="cls-13" d="M668.92,209.4l-2,1.94c1.2,1.25,2.37,2.54,3.5,3.85l2.15-1.82C671.38,212,670.16,210.69,668.92,209.4Z" transform="translate(-0.04 0.05)"/><path class="cls-13" d="M665.31,255.12a1.43,1.43,0,0,0-1.75-1,1.41,1.41,0,0,0-1,1.72h0l1.13,3.89a54.69,54.69,0,0,1-9.28-3.89,80.27,80.27,0,0,1-11.81-7.65,96.53,96.53,0,0,1-7.88-6.82l-2,2a96.31,96.31,0,0,0,8.1,7,83.81,83.81,0,0,0,12.23,7.92,60.4,60.4,0,0,0,7.63,3.38l-2.31.66a1.4,1.4,0,0,0,.69,2.71h.05l7-2a1.4,1.4,0,0,0,1-1.7v0Z" transform="translate(-0.04 0.05)"/><path class="cls-13" d="M643.6,187a1.42,1.42,0,0,0-1.68-1.08h0l-7.07,1.5a1.41,1.41,0,0,0-1.09,1.67h0l1.38,6.38a1.42,1.42,0,0,0,2.77-.59l-.86-4a54.79,54.79,0,0,1,7.16,3.12,79.11,79.11,0,0,1,11.67,7.46c1.73,1.32,3.47,2.76,5.17,4.26.94.84,1.89,1.71,2.82,2.6l1.23,1.2,2-2-1.26-1.23c-1-.91-1.93-1.81-2.91-2.67-1.75-1.55-3.54-3-5.32-4.39s-3.47-2.56-5.28-3.74c1-.56,2-1.1,3-1.59l-1.26-2.51c-1.22.6-2.47,1.26-3.71,2l.83,1.44q-2.78-1.76-5.7-3.28a56.24,56.24,0,0,0-5.23-2.42l2.21-.47a1.41,1.41,0,0,0,1.09-1.67h0Z" transform="translate(-0.04 0.05)"/><path class="cls-13" d="M621.51,261.44a11.46,11.46,0,0,1-5.76-3,12.54,12.54,0,0,1-3.4-8.63,24.79,24.79,0,0,1,.36-5.3l-2.79-.48a27.76,27.76,0,0,0-.4,5.9,15.23,15.23,0,0,0,4.23,10.5,14.36,14.36,0,0,0,7.16,3.75h0a22.57,22.57,0,0,0,4.57.47c.67,0,1.33,0,2-.09l-.25-2.79A20.33,20.33,0,0,1,621.51,261.44Z" transform="translate(-0.04 0.05)"/><path class="cls-13" d="M631.86,261l.64,2.74c1.27-.29,2.58-.66,3.91-1.1l-.9-2.66A25.53,25.53,0,0,1,631.86,261Z" transform="translate(-0.04 0.05)"/><path class="cls-13" d="M640.33,258.16l1.15,2.56c1.6-.71,3.24-1.51,4.86-2.39L645,255.86Q642.63,257.14,640.33,258.16Z" transform="translate(-0.04 0.05)"/><path class="cls-13" d="M654.89,249.44c-1.21.91-2.43,1.79-3.65,2.61l1.6,2.32c1.25-.85,2.52-1.75,3.77-2.7l.44-.33-1.72-2.23Z" transform="translate(-0.04 0.05)"/><path class="cls-13" d="M661.81,247.46c.79-.69,1.58-1.4,2.36-2.12l1-1-2-2-1,1c-.75.7-1.52,1.39-2.29,2.06l-.56.48,1.85,2.13Z" transform="translate(-0.04 0.05)"/><path class="cls-13" d="M685.29,206.23l2.79.44c.1-.64.19-1.29.25-1.91a22.47,22.47,0,0,0-.36-7.13,14.09,14.09,0,0,0-3.77-7c-3.65-3.61-9.27-4.94-16.27-3.83a46.25,46.25,0,0,0-11.1,3.38l1.14,2.57a44.13,44.13,0,0,1,10.41-3.18c6.06-1,10.84.09,13.82,3.05a11.2,11.2,0,0,1,3,5.65,19.86,19.86,0,0,1,.3,6.25C685.45,205.06,685.38,205.64,685.29,206.23Z" transform="translate(-0.04 0.05)"/><path class="cls-13" d="M643.12,201.55c1.35-1,2.73-2,4.13-2.93l-1.58-2.33c-1.44,1-2.87,2-4.26,3Z" transform="translate(-0.04 0.05)"/><path class="cls-13" d="M635.16,208.26c1.26-1.19,2.57-2.35,3.89-3.47l-1.84-2.13c-1.36,1.14-2.71,2.35-4,3.57Z" transform="translate(-0.04 0.05)"/><path class="cls-13" d="M687.78,208.65a1.4,1.4,0,0,0-1.7-1H686l-6.51,2.14a1.41,1.41,0,0,0,.89,2.67l3.73-1.23a54.5,54.5,0,0,1-4,9.33,79.14,79.14,0,0,1-7.72,11.7,92.91,92.91,0,0,1-6.89,7.81l2,2a101.54,101.54,0,0,0,7.09-8,83.54,83.54,0,0,0,8-12.12,59.7,59.7,0,0,0,3.63-8.18l.79,2.89a1.43,1.43,0,0,0,1.75,1,1.4,1.4,0,0,0,1-1.71h0Z" transform="translate(-0.04 0.05)"/><path class="cls-13" d="M612.39,241.11h.3l6.44-1.36a1.41,1.41,0,0,0-.39-2.79l-.2,0-4,.85a53.48,53.48,0,0,1,3.15-7.09,79.4,79.4,0,0,1,7.53-11.57c1.34-1.71,2.78-3.43,4.3-5.12.84-.94,1.73-1.88,2.63-2.8l1.2-1.22-2-2c-.42.41-.84.84-1.24,1.25-.93,1-1.83,1.92-2.7,2.88-1.57,1.74-3.06,3.51-4.43,5.27a82.15,82.15,0,0,0-7.79,12,55.71,55.71,0,0,0-2.44,5.19l-.48-2.19a1.41,1.41,0,0,0-2.77.56h0l1.51,7A1.39,1.39,0,0,0,612.39,241.11Z" transform="translate(-0.04 0.05)"/><path class="cls-13" d="M661.72,228a11.18,11.18,0,0,0-3.63-8.2,12.31,12.31,0,0,0-9.12-3.23,12.14,12.14,0,0,0-7.93,3.57,11.18,11.18,0,0,0-3.33,7.86,11.43,11.43,0,0,0,6.16,10v6.55a1.34,1.34,0,0,0,1.33,1.33h8.87a1.47,1.47,0,0,0,1.48-1.46h0V238A11.58,11.58,0,0,0,661.72,228Zm-21.15,0a8.36,8.36,0,0,1,2.49-5.87,9.27,9.27,0,0,1,6.07-2.73,9.42,9.42,0,0,1,7,2.48,8.33,8.33,0,0,1,2.72,6.15,8.69,8.69,0,0,1-5.32,7.88,1.38,1.38,0,0,0-.81,1.28v.14h-6v-.18a1.38,1.38,0,0,0-.83-1.29A8.52,8.52,0,0,1,640.57,228Zm6.13,15.12v-3h6v3Z" transform="translate(-0.04 0.05)"/><path class="cls-13" d="M648.29,208.26v5.09a1.43,1.43,0,0,0,1.21,1.43,1.4,1.4,0,0,0,1.61-1.17,1.49,1.49,0,0,0,0-.21v-5.1a1.44,1.44,0,0,0-1.21-1.43,1.4,1.4,0,0,0-1.61,1.17A1.64,1.64,0,0,0,648.29,208.26Z" transform="translate(-0.04 0.05)"/><path class="cls-13" d="M629.48,226.08a1.44,1.44,0,0,0-1.4,1.61,1.44,1.44,0,0,0,1.44,1.2h5.31a1.45,1.45,0,0,0,1.45-1.2,1.41,1.41,0,0,0-1.2-1.6h-5.6Z" transform="translate(-0.04 0.05)"/><path class="cls-13" d="M669.81,226.08h-5.36a1.44,1.44,0,0,0-1.44,1.2,1.39,1.39,0,0,0,1.17,1.59.9.9,0,0,0,.23,0h5.4a1.42,1.42,0,0,0,1.41-1.4h0a1.41,1.41,0,0,0-1.41-1.41Z" transform="translate(-0.04 0.05)"/><path class="cls-13" d="M639.24,218.91a1.42,1.42,0,0,0,1.41-1.4,1.36,1.36,0,0,0-.44-1l-3.84-3.62a1.44,1.44,0,0,0-2,0,1.4,1.4,0,0,0,0,2l0,0h0l3.84,3.61A1.42,1.42,0,0,0,639.24,218.91Z" transform="translate(-0.04 0.05)"/><path class="cls-13" d="M662.92,212.87l-3.85,3.62a1.39,1.39,0,0,0,0,2l0,0a1.42,1.42,0,0,0,2,0l3.85-3.61a1.42,1.42,0,0,0,0-2h0a1.44,1.44,0,0,0-2,0Z" transform="translate(-0.04 0.05)"/><path class="cls-34" d="M356.3,364c0-10.25,10.54-15.07,10.54-15.07l-12-27.12h-3.44" transform="translate(-0.04 0.05)"/><path class="cls-34" d="M347.26,364c0-10.25-10.55-15.07-10.55-15.07l12.05-27.12h2.59" transform="translate(-0.04 0.05)"/><line class="cls-34" x1="351.31" y1="321.88" x2="351.31" y2="338.46"/><rect class="cls-34" x="334.73" y="364.07" width="33.15" height="10.55"/><circle class="cls-34" cx="351.74" cy="342.14" r="3.01"/><rect class="cls-34" x="370.9" y="330.92" width="6.03" height="6.03"/><rect class="cls-34" x="348.3" y="305.31" width="6.03" height="6.03"/><rect class="cls-34" x="325.69" y="330.92" width="6.03" height="6.03"/><path class="cls-34" d="M348.76,309.09a22.75,22.75,0,0,0-19.59,22.45" transform="translate(-0.04 0.05)"/><path class="cls-34" d="M374.38,331.54a22.75,22.75,0,0,0-19.59-22.45" transform="translate(-0.04 0.05)"/><line class="cls-34" x1="354.32" y1="308.32" x2="379.94" y2="308.32"/><rect class="cls-34" x="379.94" y="305.31" width="6.03" height="6.03"/><line class="cls-34" x1="348.3" y1="308.32" x2="322.68" y2="308.32"/><rect class="cls-34" x="316.65" y="305.31" width="6.03" height="6.03"/><path class="cls-13" d="M394.61,586.38l-9.45,22.56a1.08,1.08,0,0,1-1.36.56,1.06,1.06,0,0,1-.44-.4l-5.61-7.1L362.6,614.87a1,1,0,0,1-1.4-.12,1.59,1.59,0,0,0-.12-.16l-4-6.7-26.72,24a1,1,0,0,1-1.41,0s0,0,0,0a.69.69,0,0,1-.2-.28l-3.08-5.93-14.07,12.14a1,1,0,0,1-1.4,0l-2.68-2.68a1,1,0,0,1,0-1.41l0,0,19.19-16.55a1,1,0,0,1,1.41,0l0,0c0,.08.12.16.16.24l3.09,5.93,26.68-24a1,1,0,0,1,1.41.08.45.45,0,0,1,.16.2l4,6.69,10.5-8.93-5.37-6.77a1.1,1.1,0,0,1,.16-1.45,2.55,2.55,0,0,1,.48-.2l24.16-4a1,1,0,0,1,1.16.81v0A.89.89,0,0,1,394.61,586.38Z" transform="translate(-0.04 0.05)"/><path class="cls-13" d="M320.62,640.35h5.05a1,1,0,0,1,1,1v16.18a1,1,0,0,1-1,1h-5.05a1,1,0,0,1-1-1V641.36a1,1,0,0,1,1-1Z" transform="translate(-0.04 0.05)"/><path class="cls-13" d="M348.59,624.45h5a1,1,0,0,1,1.05.95v32.05a1,1,0,0,1-1,1h-5a1,1,0,0,1-1.05-1v-32A1,1,0,0,1,348.59,624.45Z" transform="translate(-0.04 0.05)"/><path class="cls-13" d="M377.19,621.28h5.05a1,1,0,0,1,1,1v35.26a1,1,0,0,1-1,1h-5.05a1,1,0,0,1-1-1V622.28A1,1,0,0,1,377.19,621.28Z" transform="translate(-0.04 0.05)"/><path class="cls-13" d="M335.08,635.31h5a1,1,0,0,1,1,1V657.5a1,1,0,0,1-1,1H335a1,1,0,0,1-1-1V636.35a1,1,0,0,1,1-1Z" transform="translate(-0.04 0.05)"/><path class="cls-13" d="M361.29,633.46h5a1,1,0,0,1,1,1v23.08a1,1,0,0,1-1,1h-5a1,1,0,0,1-1-1V634.46A1,1,0,0,1,361.29,633.46Z" transform="translate(-0.04 0.05)"/><path class="cls-27" d="M418.21,196l1.17,1.71a12.07,12.07,0,0,0,5.29,4.32l1.9.81L424.86,204a12.18,12.18,0,0,0-4.32,5.28l-.81,1.91-1.16-1.71a12.07,12.07,0,0,0-5.29-4.32l-1.9-.81,1.7-1.17a12.13,12.13,0,0,0,4.33-5.28Z" transform="translate(-0.04 0.05)"/><path class="cls-27" d="M442,71.77l2.14,3.13a22.3,22.3,0,0,0,9.67,7.91l3.49,1.48-3.13,2.13a22.23,22.23,0,0,0-7.91,9.67l-1.48,3.49-2.14-3.13A22.28,22.28,0,0,0,433,88.54l-3.49-1.48,3.12-2.13a22.26,22.26,0,0,0,7.92-9.67Z" transform="translate(-0.04 0.05)"/><path class="cls-27" d="M470.58,115l2.89,4.22a30,30,0,0,0,13,10.66l4.7,2L487,134.72a30,30,0,0,0-10.67,13l-2,4.7-2.88-4.21a30,30,0,0,0-13-10.67l-4.7-2,4.21-2.88a29.89,29.89,0,0,0,10.67-13Z" transform="translate(-0.04 0.05)"/><path class="cls-27" d="M501.67,471.79l1.17,1.71a12,12,0,0,0,5.28,4.32l1.91.81-1.71,1.17a12.18,12.18,0,0,0-4.32,5.28l-.81,1.91L502,485.28a12,12,0,0,0-5.28-4.32l-1.9-.81,1.7-1.17a12.13,12.13,0,0,0,4.33-5.28Z" transform="translate(-0.04 0.05)"/><path class="cls-27" d="M554,390.73,556.9,395a29.94,29.94,0,0,0,13,10.66l4.7,2-4.21,2.89a30,30,0,0,0-10.67,13l-2,4.7-2.81-4.2a30,30,0,0,0-13-10.67l-4.7-2,4.21-2.88a30,30,0,0,0,10.67-13Z" transform="translate(-0.04 0.05)"/><path class="cls-24" d="M190.07,308.19l-17.23-19.66s16.23,23.22,15.94,23.82A13.34,13.34,0,0,0,190.07,308.19Z" transform="translate(-0.04 0.05)"/><path class="cls-35" d="M138.15,286.38c0-.23.59-4.19,3.32-5.36,3.4-1.46,5.66,3.35,12.51,3.83,3.79.26,5.58-1,7.91.51,1.68,1.11,3.15,3.35,2.56,4.85-.85,2.17-5.09.55-7.66,3.32-2.33,2.51-.3,5.4-2.81,8.17-1.62,1.78-4.48,2.82-6.64,2-1.7-.61-1.93-2-4.34-6.64C139.36,290.08,137.79,289.18,138.15,286.38Z" transform="translate(-0.04 0.05)"/><path class="cls-35" d="M131.72,322.5c-4.25-.32-6.07-1.86-6.63-2.39s-2.41-2.25-2.22-4.25,1.9-2.12,4.77-5.45c2.34-2.72,1.86-3.33,3.4-4.43,2.56-1.81,6.8-2.23,8.68-.34,1.44,1.45.24,3,1.54,6.64,1.39,4,3.55,4.39,3.23,6.13C143.92,321.48,136.7,322.86,131.72,322.5Z" transform="translate(-0.04 0.05)"/><path class="cls-35" d="M161.8,304.66a6,6,0,0,1,4.09-3.23c1.69-.32,3.34.64,6.64,2.55,3.46,2,3.54,2.75,5.78,3.41,1.47.43,2.28.36,3.24,1.19s2,2.55,1.53,3.91c-.6,1.72-2.94,1.05-5.45,3.41a23.87,23.87,0,0,0-2.72,3.91c-1.8,2.85-1.82,3.37-2.72,3.92a5,5,0,0,1-5.45-.34c-1.42-1.21-.59-2.49-2-4.26s-2.51-1.05-4.94-2.89c-.55-.42-3.73-2.83-3.23-4.6.44-1.58,3.36-1,4.59-3.23C161.88,307,161,306.33,161.8,304.66Z" transform="translate(-0.04 0.05)"/><path class="cls-24" d="M183.41,300.9A65.36,65.36,0,0,1,173,289.14c-.08-.21-.15-.43-.21-.65C176.14,292.63,179.86,296.93,183.41,300.9Z" transform="translate(-0.04 0.05)"/><path class="cls-35" d="M196.56,297.9c-1.28,1.29-3.1-.32-6.39.72A25.45,25.45,0,0,0,186,301c-.55.35-1,.64-1.39.9-.41-.31-.82-.63-1.23-1-3.55-4-7.27-8.27-10.6-12.41a3.15,3.15,0,0,1,.17-2.82c1.08-1.24,3.46.55,5.54-.93,1.28-.92.82-1.91,2.23-3.09a5.93,5.93,0,0,1,5.08-1.15c1.67.44,2.74,2,4.89,5.17,2.25,3.31,2,4,3.74,5.57,1.14,1,1.91,1.31,2.41,2.47S197.57,296.88,196.56,297.9Z" transform="translate(-0.04 0.05)"/><circle class="cls-36" cx="705.8" cy="362.68" r="3.99"/><circle class="cls-36" cx="758.27" cy="306.53" r="4.29"/><circle class="cls-36" cx="724.76" cy="350.34" r="8.4"/><circle class="cls-36" cx="755.67" cy="377.97" r="5.66"/><circle class="cls-36" cx="782.34" cy="306.53" r="6.99"/><circle class="cls-36" cx="753.98" cy="331.21" r="5.11"/><path class="cls-36" d="M804.08,309.08a7.94,7.94,0,0,1-4.92-.24,8.13,8.13,0,0,1-1.55-14.48C799.92,298.94,802.07,303.91,804.08,309.08Z" transform="translate(-0.04 0.05)"/><path class="cls-36" d="M801,327.54a7.13,7.13,0,0,1,3.1-9.61,7.06,7.06,0,0,1,2.85-.77c1.45,4.28,2.9,8.69,4.3,13.11a6.67,6.67,0,0,1-.64.37A7.14,7.14,0,0,1,801,327.54Z" transform="translate(-0.04 0.05)"/><circle class="cls-36" cx="802.09" cy="349.11" r="5.1"/><circle class="cls-36" cx="775.15" cy="365.35" r="6.24"/><circle class="cls-36" cx="793.67" cy="375" r="5.19"/><path class="cls-36" d="M749.11,271a8.16,8.16,0,0,1-14.44.18,8,8,0,0,1-1-3.3C735.68,268.53,740,269.49,749.11,271Z" transform="translate(-0.04 0.05)"/><path class="cls-2" d="M910.4,557.6a6.08,6.08,0,0,0,.9-1.06l2.4-3.16c2.08-2.75,5.11-6.73,9-11.52,7.7-9.62,16.58-19.54,29.54-33.18,12.2-12.82,26.67-27.53,36.92-36.45,2.3-2.05,4.42-3.86,6.31-5.42s3.49-2.94,4.84-4l3.08-2.51a6.43,6.43,0,0,0,1-.95,5.61,5.61,0,0,0-1.18.75l-3.22,2.33c-1.41,1-3.07,2.31-5,3.85s-4.11,3.27-6.45,5.29a449,449,0,0,0-35,33.28c-13,13.67-24.06,26.69-31.61,36.47-3.8,4.87-6.73,8.93-8.69,11.77L911,556.4A5.5,5.5,0,0,0,910.4,557.6Z" transform="translate(-0.04 0.05)"/><path class="cls-2" d="M930.4,531.46a25.9,25.9,0,0,0,2.49-3.32c1.49-2.22,3.54-5.51,5.8-9.72a147,147,0,0,0,7-15.26A133,133,0,0,0,952,483.58c3.65-14.17,4.18-27.62,3-37.13a50.94,50.94,0,0,0-1.1-6.36c-.21-.93-.35-1.81-.57-2.59s-.48-1.47-.7-2.12a25.64,25.64,0,0,0-1.43-3.9c-.32.1,2,5.63,2.93,15.07a109.7,109.7,0,0,1-3.3,36.73,154.34,154.34,0,0,1-6.15,19.47A164.57,164.57,0,0,1,937.91,518c-2.15,4.24-4.06,7.57-5.43,9.86A28,28,0,0,0,930.4,531.46Z" transform="translate(-0.04 0.05)"/></svg>