<svg id="Layer_1" data-name="Layer 1" xmlns="http://www.w3.org/2000/svg" xmlns:xlink="http://www.w3.org/1999/xlink" viewBox="0 0 706.02 629.47"><defs><style>.cls-1{fill:#eef;}.cls-2{fill:#7676c4;}.cls-3{fill:#dcdcdc;}.cls-4{fill:#16282d;}.cls-5{fill:#ff4e6c;}.cls-6{fill:#e23359;}.cls-7{fill:#edb62b;}.cls-8{opacity:0.67;}.cls-9{fill:#a87d1d;}.cls-10{fill:#fff6e7;opacity:0.52;}.cls-10,.cls-18{isolation:isolate;}.cls-11,.cls-15{fill:none;stroke-miterlimit:10;}.cls-11{stroke:#151516;stroke-width:3px;}.cls-12{fill:#e1e1e1;}.cls-13{fill:#1a2e35;}.cls-14{fill:#5276ac;}.cls-15{stroke:#757575;}.cls-16{opacity:0.3;}.cls-17{fill:url(#linear-gradient);}.cls-18{fill:#ffa800;opacity:0.35;}.cls-19{fill:#fff;}.cls-20{fill:#e52b07;}.cls-21{fill:#ff5454;}.cls-22{fill:#1d3d59;}.cls-23{fill:#c6ddf7;}.cls-24{fill:#8a8adb;}.cls-25{fill:#7474af;}.cls-26{fill:#b4b4ef;}.cls-27{fill:#a7c9ea;}.cls-28{fill:#608dd0;}.cls-29{fill:#85b7e0;}.cls-30{fill:#dce9fa;}.cls-31{fill:#fcfcfc;}.cls-32{fill:#fe5d7a;}.cls-33{fill:#ffdd2a;}</style><linearGradient id="linear-gradient" x1="-2833.85" y1="1357.83" x2="-2763.31" y2="1460.77" gradientTransform="translate(-2452.98 -168.52) rotate(-146.78)" gradientUnits="userSpaceOnUse"><stop offset="0" stop-color="#444b8c"/><stop offset="1" stop-color="#26264f"/></linearGradient></defs><title>offer</title><path class="cls-1" d="M802.8,505.1c7.2-14,20.2-40,11.7-67.1-8.4-26.7-29.2-27.1-43.5-54.8-19.3-37.4,6.2-59.9-5.5-108-12-48.7-51.2-79.4-63.8-89.2-39.6-31-61.1-20.7-125.9-43.3C492.4,113.5,529.3,52.6,471.7,40S302.4,71.8,268.4,125.4c-20.8,33-1,44.7-21.1,144.4-14.6,72.5-29.4,87.6-21.8,131.1,1.9,11.2,11.6,66.6,50.6,95,34.4,25.1,59.3,5.8,82.4,30.9,24.1,26.3,7,58.4,27.5,91.6,22.8,36.9,72,43.1,105.8,47C648.6,683.1,767.4,573.7,802.8,505.1Z" transform="translate(-151.78 -37.84)"/><path class="cls-2" d="M319.3,170.5s13.2,19.9,27.9,40,37.3,69.5,36.2,71.3-33.7-43.1-45.6-64.5-22.7-43.8-22.7-43.8Z" transform="translate(-151.78 -37.84)"/><polygon class="cls-3" points="167.42 132.06 177.22 145.36 169.52 149.96 162.32 135.36 167.42 132.06"/><path class="cls-4" d="M314.1,173.2s4.9-3,5.1-3.3a162.12,162.12,0,0,0-3.6-17.1c-.5-.2-16.3,10.4-15.5,11.9S314.1,173.2,314.1,173.2Z" transform="translate(-151.78 -37.84)"/><path class="cls-5" d="M235.2,502.7c-5-5.2-7.7-12.2-8.7-19.5-.6-3.9-.6-8,1.4-11.3s6.7-5.3,10-3.1c1.9,1.3,2.9,3.6,3.5,5.9,1.5,5.3,2.5,11.5,7,14.8,2.5,1.8,6.1,2.6,7.9,5.2s1,6.3-1,8.6a12.51,12.51,0,0,1-8.4,3.5A13.8,13.8,0,0,1,235.2,502.7Z" transform="translate(-151.78 -37.84)"/><path class="cls-5" d="M212.3,525.1c4.2-5.3.2-12.2-4.2-14.5s-9.5-2.4-14.5-2.3c-11.3.2-23.1.5-33,6a18.2,18.2,0,0,0-7.4,6.6c-1.7,2.9-2,6.8-.2,9.6,2.1,3.4,6.4,4.6,10.4,5.2a80.39,80.39,0,0,0,34.8-2.5c5.3-1.4,10.7-3.7,14.1-8.1" transform="translate(-151.78 -37.84)"/><path class="cls-5" d="M223.2,533c-6.1-2.6-13.3-1.2-18.9,2.5s-9.4,9.4-12.2,15.3a59,59,0,0,0-5.4,22.5,21.35,21.35,0,0,0,1.2,9c1.1,2.8,3.5,5.3,6.5,5.8,4.5.8,8.5-2.5,11.7-5.7A141.51,141.51,0,0,0,221.3,564c3.7-5.3,7.1-11,7.5-17.4s-1.6-12.2-6.5-14.1" transform="translate(-151.78 -37.84)"/><path class="cls-6" d="M293.4,500.6a10.05,10.05,0,0,0-2.5.4l-6.8,1.4c-3.4.6-6.8,1.2-10.3,1.5a75.73,75.73,0,0,1-12.6,0,42.32,42.32,0,0,1-12.2-2.7,22.68,22.68,0,0,1-8.5-5.5,21.83,21.83,0,0,1-3.8-5.7,12.81,12.81,0,0,0-1.1-2.4,9.51,9.51,0,0,0,.7,2.4,22.13,22.13,0,0,0,3.7,6,23.48,23.48,0,0,0,8.6,6,44.61,44.61,0,0,0,12.5,2.9,69.49,69.49,0,0,0,12.9-.1,92.12,92.12,0,0,0,10.3-1.7c2.9-.6,5.2-1.2,6.8-1.7C291.8,501.2,292.6,500.9,293.4,500.6Z" transform="translate(-151.78 -37.84)"/><path class="cls-6" d="M289.8,505.1a5.16,5.16,0,0,1-1.1.2l-3.2,1c-2.8.9-6.9,2.1-11.9,3.5-10.2,2.8-21.2,5.2-37,8.3-14.8,2.8-32.2,5.8-43.6,6.9-2.6.2-5,.4-7,.6s-3.9.3-5.3.4l-3.4.2a5,5,0,0,0-1.2.2c.4,0,.7.1,1.2.1l3.4-.1c1.5,0,3.2-.1,5.3-.2s4.5-.2,7.1-.4a368.76,368.76,0,0,0,40.7-5.6c15.8-3,29.9-6.5,40-9.5,5.1-1.5,9.1-2.8,11.9-3.8l3.2-1.2A2.36,2.36,0,0,0,289.8,505.1Z" transform="translate(-151.78 -37.84)"/><path class="cls-6" d="M263.1,513.2a15,15,0,0,0-3.4,1.1,83,83,0,0,0-8.8,3.8c-4.3,2.1-8.4,4.5-12.5,7a109.74,109.74,0,0,0-14.1,10.5,90,90,0,0,0-20.5,24.1,38.47,38.47,0,0,0-2.4,5c-.3.7-.6,1.4-.9,2l-.5,1.8a21.36,21.36,0,0,0-.9,3.4c.3.1,1.4-4.9,5.5-11.8a95.41,95.41,0,0,1,20.5-23.8,126.81,126.81,0,0,1,14-10.4c4.4-3,8.6-5.3,12.2-7.3s6.6-3.2,8.7-4.2A7.1,7.1,0,0,0,263.1,513.2Z" transform="translate(-151.78 -37.84)"/><path class="cls-5" d="M302.2,506.8c4-.5,6.3,3.5,6.3,6.4s-1.6,5.6-3.1,8.1c-3.4,5.7-7.1,11.7-12.9,15.1a10.34,10.34,0,0,1-5.6,1.8,5.83,5.83,0,0,1-5-2.7c-1.1-2.1-.4-4.6.4-6.8a46.77,46.77,0,0,1,11.6-17.2c2.4-2.3,5.1-4.3,8.3-4.7" transform="translate(-151.78 -37.84)"/><path class="cls-5" d="M301.3,498.8c-.4,3.9-3.3,7.3-6.9,9a20.71,20.71,0,0,1-11.5,1.7,34.16,34.16,0,0,1-13.2-3.9,12.41,12.41,0,0,1-4.3-3.3,5.52,5.52,0,0,1-1.1-5.1c.9-2.5,3.8-3.7,6.5-4.3a93.06,93.06,0,0,1,14-2.4c3.8-.4,7.8-.4,11.2,1.3s5.8,4.5,5.3,7.5" transform="translate(-151.78 -37.84)"/><path class="cls-6" d="M338.5,478.2a1.21,1.21,0,0,1-.5.5l-1.5,1.3c-1.3,1.2-3.1,3-5.3,5.1-4.5,4.4-9,9.4-15.2,16.6-5.8,6.8-12.5,14.8-16.5,20.4-.9,1.3-1.7,2.4-2.4,3.5s-1.3,1.9-1.8,2.6l-1.1,1.7a2.18,2.18,0,0,1-.4.5,1.63,1.63,0,0,1,.3-.6,18,18,0,0,1,1-1.8c.4-.7,1-1.7,1.7-2.7a37.23,37.23,0,0,1,2.4-3.5,212.39,212.39,0,0,1,15-19.3c6.3-7.2,12.3-13.5,16.8-17.7,2.2-2.2,4.1-3.8,5.5-5l1.6-1.3C338.2,478.5,338.4,478.3,338.5,478.2Z" transform="translate(-151.78 -37.84)"/><path class="cls-6" d="M324.1,489.5a19.2,19.2,0,0,1-1.5,1.4,50.37,50.37,0,0,1-4.6,3.4,49.26,49.26,0,0,1-7.4,4.3,75.29,75.29,0,0,1-9.6,4.2,51,51,0,0,1-18.5,3.4c-1.1,0-2.2-.1-3.3-.2-.5-.1-.9-.1-1.3-.2l-1.1-.2a16,16,0,0,1-2.1-.5,68.82,68.82,0,0,0,7.7.7,54.06,54.06,0,0,0,18.3-3.5c3.2-1.1,6.4-2.6,9.5-4a73.61,73.61,0,0,0,7.3-4.1c1.9-1.2,3.6-2.4,4.7-3.2A11.22,11.22,0,0,1,324.1,489.5Z" transform="translate(-151.78 -37.84)"/><path class="cls-5" d="M184.8,457.3a10,10,0,0,0,1.4-.8l3.9-2.5c1.7-1.1,3.7-2.4,6.2-3.9s5.2-3.3,8.3-5c6.1-3.6,13.7-7.8,22.1-11.9s18-8.5,28.1-12.5,20.1-7.1,29.1-9.9a240.54,240.54,0,0,1,24.4-6.1c3.5-.8,6.7-1.4,9.5-2s5.2-1,7.2-1.4l4.6-.8a12.44,12.44,0,0,0,1.6-.4,4.14,4.14,0,0,0-1.6.2l-4.6.6c-2,.3-4.4.6-7.2,1s-6,1-9.5,1.8c-7,1.4-15.4,3.4-24.5,6s-19.1,6-29.3,9.8a276.44,276.44,0,0,0-28.2,12.6c-8.5,4.3-16,8.5-22,12.2-3.1,1.8-5.8,3.6-8.2,5.2s-4.4,3-6.1,4.1l-3.8,2.7A5,5,0,0,0,184.8,457.3Z" transform="translate(-151.78 -37.84)"/><path class="cls-5" d="M228.1,432.5a26.26,26.26,0,0,0-10.6,14.7c-.6,2-.9,4.4.5,6,1.9,2.1,5.3,1.3,7.7-.1a20.3,20.3,0,0,0,8.6-10.9c1.4-4.4,1.6-8.4-.4-12.7" transform="translate(-151.78 -37.84)"/><path class="cls-5" d="M264.7,417.4c-6.3,3.7-14.5,11.8-17.1,18.6a7.64,7.64,0,0,0-.8,3.3,3.07,3.07,0,0,0,1.5,2.9c1.4.8,3.3.2,4.7-.5a28.36,28.36,0,0,0,14.8-26" transform="translate(-151.78 -37.84)"/><path class="cls-5" d="M294.8,406.8a42,42,0,0,0-12.7,17.5c-.6,1.6-1.2,3.4-.3,5,1.1,2.4,4.4,2.7,6.9,1.7,5-1.9,8-7,10.1-11.9,2.2-5.3,2.8-13.7,2.8-13.7" transform="translate(-151.78 -37.84)"/><path class="cls-5" d="M274.1,412.8c-6.2-2.8-12.4-5.4-18.6-8.2a13.81,13.81,0,0,1-4.9-3,5,5,0,0,1-1.5-5.3,5.17,5.17,0,0,1,4.5-3.1,13.26,13.26,0,0,1,5.6,1,36.81,36.81,0,0,1,12.1,6.3c3.5,2.9,6,5.8,6.6,10.3" transform="translate(-151.78 -37.84)"/><path class="cls-5" d="M244.2,423a45.6,45.6,0,0,1-22.1-7.2,8.06,8.06,0,0,1-2.8-2.7c-1.2-2.3.2-5.3,2.4-6.8a10.61,10.61,0,0,1,8.5-1.2,24.36,24.36,0,0,1,7.8,4.1,54.5,54.5,0,0,1,11.3,11.7" transform="translate(-151.78 -37.84)"/><path class="cls-5" d="M219.2,435.8c-9.1,1.2-17.7-1.3-26.1-4.6-1.8-.7-3.9-1.8-4.1-3.7a3.67,3.67,0,0,1,1.5-3.2,8.47,8.47,0,0,1,3.4-1.4A28.28,28.28,0,0,1,223,433.7" transform="translate(-151.78 -37.84)"/><path class="cls-5" d="M207,443.3a71,71,0,0,0-13.6,3.3,25.31,25.31,0,0,0-11.4,8,10.35,10.35,0,0,0-2.3,5.5,5.78,5.78,0,0,0,2.3,5.3,6.41,6.41,0,0,0,5.4.6,17.76,17.76,0,0,0,4.8-2.8c7-5.5,14.2-13.5,14.8-19.9" transform="translate(-151.78 -37.84)"/><path class="cls-6" d="M800.9,240.6a6.38,6.38,0,0,0-.8,1.4l-2.1,4.1c-.9,1.8-2,4-3.4,6.5s-2.9,5.4-4.7,8.5c-3.5,6.2-8,13.5-13.2,21.4s-11.4,16.3-18.2,24.8-13.8,16.3-20.3,23.1-12.7,12.7-18,17.5c-2.6,2.5-5.1,4.5-7.3,6.4s-4,3.5-5.6,4.7l-3.5,3a12,12,0,0,0-1.2,1.1,14.63,14.63,0,0,0,1.3-.9l3.7-2.8c1.6-1.2,3.5-2.7,5.7-4.6s4.7-3.9,7.4-6.3c5.4-4.7,11.6-10.6,18.3-17.4s13.6-14.6,20.5-23.1,12.9-17.1,18.2-25,9.6-15.3,13-21.6c1.8-3.1,3.2-6,4.5-8.5s2.4-4.7,3.2-6.6l1.9-4.2A9.38,9.38,0,0,0,800.9,240.6Z" transform="translate(-151.78 -37.84)"/><path class="cls-5" d="M774.4,284.2a26.68,26.68,0,0,0,1.9-18c-.5-2-1.5-4.3-3.5-4.9-2.7-.9-5.3,1.5-6.6,3.9a19.77,19.77,0,0,0-2,13.7c1,4.6,2.8,8,6.6,10.8" transform="translate(-151.78 -37.84)"/><path class="cls-5" d="M753.8,312.5c3.6-6.3,6.6-17.4,5.5-24.6a7.9,7.9,0,0,0-1-3.3,3.62,3.62,0,0,0-2.8-1.8c-1.7,0-2.9,1.4-3.8,2.8a28.49,28.49,0,0,0,.2,29.9" transform="translate(-151.78 -37.84)"/><path class="cls-5" d="M732.2,336a42.57,42.57,0,0,0,2.3-21.5c-.3-1.7-.8-3.5-2.2-4.5-2.1-1.5-5.2,0-6.8,2-3.4,4.1-3.5,10-2.8,15.3.7,5.7,4.4,13.3,4.4,13.3" transform="translate(-151.78 -37.84)"/><path class="cls-5" d="M716.6,350.9c1.4-5.6,2.1-11.6,1-17.3a8.33,8.33,0,0,0-1.4-3.5,3.52,3.52,0,0,0-3.3-1.5c-2,.4-2.8,2.8-3.1,4.8a32.37,32.37,0,0,0,3.3,20" transform="translate(-151.78 -37.84)"/><path class="cls-5" d="M726.3,344.2a121.11,121.11,0,0,1,23.3-.4c1.2.1,2.6.3,3.2,1.4a2.3,2.3,0,0,1-.5,2.6,6.08,6.08,0,0,1-2.4,1.5c-8.6,3.7-19.4,2.6-27.5-2.1" transform="translate(-151.78 -37.84)"/><path class="cls-5" d="M745.7,323.8l20.2-2.2a15.61,15.61,0,0,1,5.7.1,5.33,5.33,0,0,1,4,3.8,5,5,0,0,1-2.4,4.9,13,13,0,0,1-5.4,1.9,37.12,37.12,0,0,1-13.7.5c-4.5-.8-8.1-2-10.9-5.6" transform="translate(-151.78 -37.84)"/><path class="cls-5" d="M766.5,299.9a45.13,45.13,0,0,1,22.8-4.8,7.46,7.46,0,0,1,3.8,1c2.2,1.5,2.5,4.7,1.3,7.1a11,11,0,0,1-6.8,5.3,21.77,21.77,0,0,1-8.8.3,50.09,50.09,0,0,1-15.6-4.6" transform="translate(-151.78 -37.84)"/><path class="cls-5" d="M781.9,276.4c7.3-5.6,15.9-7.7,25-9.1,1.9-.3,4.2-.3,5.4,1.2a3.66,3.66,0,0,1,.3,3.5,8.93,8.93,0,0,1-2.2,2.9,28,28,0,0,1-30.6,5.1" transform="translate(-151.78 -37.84)"/><path class="cls-5" d="M788.7,263.8a78,78,0,0,0,10.2-9.7,24.79,24.79,0,0,0,5.8-12.6,10.75,10.75,0,0,0-.7-5.9,5.94,5.94,0,0,0-4.6-3.5,6.44,6.44,0,0,0-4.9,2.2,14.65,14.65,0,0,0-2.7,4.9c-3.5,8.3-5.8,18.8-3.1,24.6" transform="translate(-151.78 -37.84)"/><path class="cls-5" d="M784.2,400.4c6.3,3.5,10.8,9.6,13.8,16.2,1.6,3.5,2.8,7.5,1.9,11.3s-4.9,7-8.6,5.8c-2.2-.7-3.8-2.6-5-4.6-3-4.7-5.6-10.4-10.9-12.3-3-1.1-6.6-.7-9.1-2.7s-2.8-5.8-1.4-8.5a12.4,12.4,0,0,1,7.1-5.8A13.8,13.8,0,0,1,784.2,400.4Z" transform="translate(-151.78 -37.84)"/><path class="cls-5" d="M799.8,372.5c-2.5,6.4,3.3,11.7,8.1,12.8s9.8-.4,14.5-1.9c10.7-3.4,21.9-7,29.9-15a17.9,17.9,0,0,0,5.2-8.5,9.62,9.62,0,0,0-2.5-9.3c-3-2.7-7.4-2.6-11.4-2A79.21,79.21,0,0,0,811,360.8c-4.7,3-9.2,6.7-11.2,11.7" transform="translate(-151.78 -37.84)"/><path class="cls-5" d="M787.1,367.9c6.6.8,13.2-2.6,17.4-7.7s6.4-11.6,7.3-18.2a59.89,59.89,0,0,0-1.2-23.1,21.42,21.42,0,0,0-3.7-8.3,9.41,9.41,0,0,0-8-3.8c-4.5.5-7.4,4.8-9.5,8.8a150.43,150.43,0,0,0-9.4,21.9c-2,6.1-3.7,12.6-2.3,18.8s5,11.3,10.3,11.6" transform="translate(-151.78 -37.84)"/><path class="cls-6" d="M729,419a16.27,16.27,0,0,0,2.3-1.1l6.2-3.3a79.77,79.77,0,0,1,9.4-4.3,84.16,84.16,0,0,1,12.1-3.6,43.71,43.71,0,0,1,12.5-.9,21.82,21.82,0,0,1,15,7.2,15.37,15.37,0,0,0,1.7,1.9,16.44,16.44,0,0,0-1.4-2.2,18.32,18.32,0,0,0-5.3-4.7,23.67,23.67,0,0,0-10-3.3,42.3,42.3,0,0,0-12.8.8,75.68,75.68,0,0,0-12.3,3.7,81.72,81.72,0,0,0-9.4,4.6q-3.9,2.25-6,3.6A15.58,15.58,0,0,0,729,419Z" transform="translate(-151.78 -37.84)"/><path class="cls-6" d="M733.7,420.3a8.79,8.79,0,0,0,1-.6l2.8-1.9c2.4-1.6,6-4,10.5-6.7,8.9-5.6,18.8-11.1,33.1-18.4,13.4-6.9,29.2-14.6,39.9-19,2.4-1,4.6-1.9,6.6-2.6s3.6-1.4,5-1.9l3.2-1.2a5.36,5.36,0,0,0,1.1-.5,2.66,2.66,0,0,0-1.2.3l-3.2,1c-1.4.4-3.1,1-5.1,1.7s-4.2,1.5-6.7,2.5a371.36,371.36,0,0,0-37.5,17c-14.3,7.4-26.8,14.7-35.7,20.5-4.4,2.8-7.9,5.3-10.3,7-1.1.8-2,1.5-2.7,2Z" transform="translate(-151.78 -37.84)"/><path class="cls-6" d="M757.1,404.9a29.77,29.77,0,0,0,2.9-2,86.75,86.75,0,0,0,7.4-6.2,135.55,135.55,0,0,0,20.5-24.3c6.9-10.4,11.1-21,12.8-29a50.67,50.67,0,0,0,.9-5.4c.1-.8.2-1.5.3-2.2a12,12,0,0,0,0-1.9,20.44,20.44,0,0,0,0-3.5c-.3,0,0,5.1-1.9,12.9a93.76,93.76,0,0,1-13,28.6,117,117,0,0,1-10.4,13.9,128.89,128.89,0,0,1-9.7,10.4c-2.9,2.8-5.4,5-7.1,6.4A27.55,27.55,0,0,0,757.1,404.9Z" transform="translate(-151.78 -37.84)"/><path class="cls-5" d="M718.8,415.6c-3.7,1.7-7.1-1.6-7.8-4.4s0-5.8.7-8.7c1.7-6.5,3.5-13.2,8-18.2a11,11,0,0,1,4.9-3.3,5.74,5.74,0,0,1,5.6,1.2c1.7,1.7,1.8,4.3,1.5,6.7a45.69,45.69,0,0,1-6.3,19.7c-1.6,2.8-3.7,5.6-6.6,7" transform="translate(-151.78 -37.84)"/><path class="cls-5" d="M721.9,422.9c-.7-3.9,1.2-7.9,4-10.6a21.14,21.14,0,0,1,10.6-4.9,35.6,35.6,0,0,1,13.8,0,12.68,12.68,0,0,1,5,1.9,5.69,5.69,0,0,1,2.5,4.6c-.1,2.7-2.6,4.6-4.9,5.9a100,100,0,0,1-12.7,6.3c-3.5,1.4-7.3,2.6-11.1,2s-6.8-2.7-7.2-5.7" transform="translate(-151.78 -37.84)"/><path class="cls-6" d="M694.7,459.9l.3-.6,1-1.7c.9-1.5,2.2-3.7,3.7-6.4,3-5.5,6-11.5,9.9-20.2,3.7-8.2,7.8-17.8,10-24.3.5-1.5,1-2.8,1.3-4a26.16,26.16,0,0,1,1-3c.3-.8.4-1.4.6-1.9a3.63,3.63,0,0,1,.3-.7c0,.2-.1.5-.1.7-.1.5-.3,1.2-.5,2s-.5,1.9-.8,3.1-.8,2.5-1.3,4a244.27,244.27,0,0,1-8.9,22.8c-3.9,8.7-7.9,16.4-11,21.8-1.6,2.7-2.9,4.9-3.9,6.3l-1.1,1.7C695,459.6,694.9,459.8,694.7,459.9Z" transform="translate(-151.78 -37.84)"/><path class="cls-6" d="M705.4,445a17.39,17.39,0,0,1,1.1-1.8c.8-1.1,1.9-2.7,3.5-4.6,1.8-2.2,3.8-4.2,5.8-6.2a72.79,72.79,0,0,1,8-6.7,54.34,54.34,0,0,1,16.8-8.5,30.05,30.05,0,0,1,3.2-.7,6.88,6.88,0,0,1,1.3-.2l1.1-.1a14.77,14.77,0,0,1,2.1-.1,63.83,63.83,0,0,0-7.6,1.5,54.67,54.67,0,0,0-16.6,8.6,71.88,71.88,0,0,0-8,6.6c-2.3,2.2-4.3,4.3-5.9,6.1s-2.8,3.3-3.6,4.4A6.57,6.57,0,0,1,705.4,445Z" transform="translate(-151.78 -37.84)"/><circle class="cls-7" cx="467.3" cy="168.88" r="52.7" transform="translate(-134.33 342.05) rotate(-45)"/><g class="cls-8"><path class="cls-9" d="M470.9,221.5a52.64,52.64,0,0,0,43.5-29,51.54,51.54,0,0,1-26.2,9.1A52.71,52.71,0,0,1,432,152.7a51.84,51.84,0,0,1,5.5-27.2,52.7,52.7,0,0,0,33.4,96Z" transform="translate(-151.78 -37.84)"/></g><path class="cls-10" d="M463.6,116.3a53.23,53.23,0,0,0-8,1.2,59.68,59.68,0,0,0,3.2,15.3,57.65,57.65,0,0,0,61.1,37.9,48.66,48.66,0,0,0-.1-5.4A52.6,52.6,0,0,0,463.6,116.3Z" transform="translate(-151.78 -37.84)"/><path class="cls-11" d="M416.3,182.4c-21.9-.7-36.3-3.2-36.6-7.2-.5-6.6,38.3-14.7,86.6-18s87.8-.7,88.3,5.9c.3,4-13.5,8.4-35.1,12.1" transform="translate(-151.78 -37.84)"/><path class="cls-5" d="M400.2,333.9h0a3.1,3.1,0,0,1-3.7-2l-48.1-161,9.1-2.5,44.8,161.8A3,3,0,0,1,400.2,333.9Z" transform="translate(-151.78 -37.84)"/><path class="cls-12" d="M347.5,171.1c-.3-1.1-2.8-26.1-2.8-26.1l2.8-.8,11.1,24.3Z" transform="translate(-151.78 -37.84)"/><polyline class="cls-4" points="195.72 106.26 193.92 85.76 186.82 87.46 190.02 99.16 185.62 87.86 184.22 88.16 192.82 107.06 194.62 106.56"/><path class="cls-13" d="M712.9,319.9,687.7,503.3a28.78,28.78,0,0,1-32.5,24.6L343.7,485.1a28.78,28.78,0,0,1-24.6-32.5l25.2-183.4a27.58,27.58,0,0,1,3.3-9.9,28.75,28.75,0,0,1,29.2-14.7l311.5,42.8a29,29,0,0,1,24.2,22A30.72,30.72,0,0,1,712.9,319.9Z" transform="translate(-151.78 -37.84)"/><rect class="cls-14" x="422.89" y="232.2" width="205.4" height="311" transform="translate(-81.81 817.79) rotate(-82.18)"/><path class="cls-14" d="M385.6,264.3l-.5-.1-28,203.9-.1.5.8.1L493,487.3,665.6,511l.5.1,28-203.9.1-.5ZM358.5,467.8h-.3L386,265.3l307.1,42.2L665.3,510,492.8,486.3Z" transform="translate(-151.78 -37.84)"/><path class="cls-15" d="M365.1,361.8a20.6,20.6,0,0,0-.1-3.3,13.22,13.22,0,0,0-3.9-7.9,13.51,13.51,0,0,0-5.2-3.2,13.71,13.71,0,0,0-7-.4,13,13,0,0,0-3.6,1.3,14.09,14.09,0,0,0-3.2,2.4,13.17,13.17,0,0,0-2.1,15.5,10.76,10.76,0,0,0,2.4,3.2,11,11,0,0,0,3.1,2.2,13,13,0,0,0,6.8,1.5,14,14,0,0,0,5.9-1.7,13.66,13.66,0,0,0,5.9-6.6c.8-1.8.9-3.1,1-3a6.17,6.17,0,0,1-.1.9,4.4,4.4,0,0,1-.2,1,10.26,10.26,0,0,1-.4,1.4,13,13,0,0,1-5.9,6.8,13.23,13.23,0,0,1-6.1,1.8,14,14,0,0,1-7.1-1.5,14.43,14.43,0,0,1-3.2-2.3,12,12,0,0,1-2.5-3.3,14.3,14.3,0,0,1-1.6-8.4,13.44,13.44,0,0,1,3.8-7.7,13.08,13.08,0,0,1,3.3-2.5,12.81,12.81,0,0,1,3.7-1.4,13.36,13.36,0,0,1,7.2.4,12.47,12.47,0,0,1,5.3,3.4,13.66,13.66,0,0,1,3.8,8.2,7.08,7.08,0,0,1,.1,1.4,2.79,2.79,0,0,1-.1,1A1.69,1.69,0,0,1,365.1,361.8Z" transform="translate(-151.78 -37.84)"/><g class="cls-16"><path class="cls-17" d="M651.3,175c14.5-17.5,29.8-19.3,44.6-26.1,9.2,11.9,10.9,27.7,3,39.9-10.3,15.8-32.8,19.3-50.3,7.9a41.23,41.23,0,0,1-6.9-5.6A58.26,58.26,0,0,1,651.3,175Z" transform="translate(-151.78 -37.84)"/></g><path class="cls-18" d="M651.3,175c17.1-20.6,35.2-19.4,52.3-30.3,11.1,14.8,13,34.3,3.2,49.3-12.9,19.7-41.1,24.1-63,9.9a48.23,48.23,0,0,1-5.1-3.8A60.81,60.81,0,0,1,651.3,175Z" transform="translate(-151.78 -37.84)"/><path class="cls-19" d="M607.2,111.4l8.6-13.8L611.6,95a4,4,0,0,1-1.8-3.6,19.27,19.27,0,0,0,.1-2.4,3.84,3.84,0,0,1,2-3.5l4.4-2.4-7.7-14.3-4.4,2.4a3.65,3.65,0,0,1-4-.3,23.92,23.92,0,0,0-2.1-1.3,3.84,3.84,0,0,1-2-3.5l.2-5L580,60.6l-.2,5a3.69,3.69,0,0,1-2.3,3.4c-.4.2-.7.3-1.1.5s-.7.4-1,.6a4.07,4.07,0,0,1-4,0l-4.3-2.6-8.6,13.8,4.2,2.6a4,4,0,0,1,1.8,3.6,19.27,19.27,0,0,0-.1,2.4,3.84,3.84,0,0,1-2,3.5L558,95.8l7.7,14.3,4.4-2.4a3.65,3.65,0,0,1,4,.3,23.92,23.92,0,0,0,2.1,1.3,4.16,4.16,0,0,1,2,3.5l-.2,5,16.2.5.2-5a5,5,0,0,1,3.4-3.9,2.07,2.07,0,0,0,1-.6,3.8,3.8,0,0,1,4.1,0Zm-13.7-10.3a13.29,13.29,0,1,1,5.4-18h0A13.23,13.23,0,0,1,593.5,101.1Z" transform="translate(-151.78 -37.84)"/><path class="cls-19" d="M458.7,580.6l7.1-11.4-3.5-2.2a3.23,3.23,0,0,1-1.5-3,13.4,13.4,0,0,0,.1-2,3.24,3.24,0,0,1,1.7-2.9l3.6-1.9-6.3-11.8-3.6,1.9a3.05,3.05,0,0,1-3.3-.2c-.5-.4-1.1-.7-1.7-1.1a3.24,3.24,0,0,1-1.7-2.9l.1-4.1-13.4-.4-.1,4.1a3.36,3.36,0,0,1-1.9,2.8l-.9.4c-.3.2-.6.3-.9.5a3.25,3.25,0,0,1-3.3,0l-3.5-2.2-7.1,11.4,3.5,2.2a3.23,3.23,0,0,1,1.5,3,13.4,13.4,0,0,0-.1,2,3.24,3.24,0,0,1-1.7,2.9l-3.6,1.9,6.3,11.8,3.6-1.9a3.05,3.05,0,0,1,3.3.2,9.5,9.5,0,0,0,1.7,1,3.24,3.24,0,0,1,1.7,2.9l-.1,4.1,13.4.4.1-4.1a3.36,3.36,0,0,1,1.9-2.8l.9-.4c.3-.2.6-.3.9-.5a3.25,3.25,0,0,1,3.3,0Zm-11.3-8.4a11,11,0,1,1,4.4-14.9h0v.1a10.68,10.68,0,0,1-4.1,14.6A1.24,1.24,0,0,1,447.4,572.2Z" transform="translate(-151.78 -37.84)"/><path class="cls-20" d="M466.7,72.7a23.4,23.4,0,0,1-.3,3.8,19.64,19.64,0,0,1-1.3,4.9,24.8,24.8,0,0,1-4.5,7.3,23.92,23.92,0,0,1-39.1-5.2,22.1,22.1,0,0,1-2-5.8,21,21,0,0,1-.6-5.1c0-1,.1-2,.2-3a25,25,0,0,1,.5-2.9,21.17,21.17,0,0,1,2.5-6,23.09,23.09,0,0,1,5.3-6.3,23.8,23.8,0,0,1,34.8,4.5,25.5,25.5,0,0,1,3.3,6.6,26.61,26.61,0,0,1,1,4.9A9,9,0,0,1,466.7,72.7Z" transform="translate(-151.78 -37.84)"/><path class="cls-21" d="M465.6,65.5c-1.3.2-3.2.3-6.4.7-4.9.6-5.5,1.1-9.5,1.3a32.3,32.3,0,0,1-5.4,0,31,31,0,0,1-9.8-2.5c-5.5-2.2-9.5-3.3-12.3-4.2a23.09,23.09,0,0,1,5.3-6.3c4.5,1.5,6.5,6.5,11.2,6,2.7-.3,4.3-2.2,6.5-1.2,1.5.7,1.5,1.9,2.5,2.8,2.8,2.6,9.5-1,14.6-3A22.8,22.8,0,0,1,465.6,65.5Z" transform="translate(-151.78 -37.84)"/><path class="cls-21" d="M466.7,72.7a23.4,23.4,0,0,1-.3,3.8c-.8.4-2,.8-8.6,1.7-4.8.6-5.5,1-9.5,1.2a32.3,32.3,0,0,1-5.4,0,29.71,29.71,0,0,1-9.8-2.5,93,93,0,0,1-13.9-7.2,25,25,0,0,1,.5-2.9h.3a21,21,0,0,0,4.1-.8c5.3-.7,7.7,7,13.2,6.4,2.7-.3,4.3-2.2,6.5-1.2,1.5.7,1.8,1.9,2.5,2.8,3.1,3.5,13.6-1.1,20.3-3.5A15.48,15.48,0,0,1,466.7,72.7Z" transform="translate(-151.78 -37.84)"/><path class="cls-21" d="M465,81.5a24.8,24.8,0,0,1-4.5,7.3c-1.2.2-2.7.4-4.9.7-4.8.6-5.5,1.1-9.5,1.3a31.16,31.16,0,0,1-15.2-2.5c-3.4-1.4-6.6-3-9.5-4.5a22.1,22.1,0,0,1-2-5.8c1-.2,1.6-.5,2.5-.6,5.3-.7,7.7,7,13.2,6.4,2.7-.3,4.3-2.2,6.5-1.2,1.5.7,1.8,1.9,2.5,2.7C447.3,88.8,458.3,83.8,465,81.5Z" transform="translate(-151.78 -37.84)"/><circle class="cls-14" cx="431.18" cy="550.43" r="52.7"/><path class="cls-22" d="M597.1,639.1a52.65,52.65,0,0,1-50.7-12.8,51.5,51.5,0,0,0,27.8-.2,52.69,52.69,0,0,0,22.4-88.7,52.69,52.69,0,0,1,.5,101.7Z" transform="translate(-151.78 -37.84)"/><path class="cls-10" d="M568.8,537.6a55.31,55.31,0,0,1,7.9-1.6,56.33,56.33,0,0,1,2.1,15.5,57.49,57.49,0,0,1-44.9,56.1c-.6-1.7-1.2-3.4-1.7-5.1A52.65,52.65,0,0,1,568.8,537.6Z" transform="translate(-151.78 -37.84)"/><path class="cls-11" d="M635.5,584c20.4-8,33.2-15.2,32.1-19-1.8-6.4-41-1-87.7,12s-83,28.7-81.2,35.1c1.1,3.8,15.6,3.4,37.1-.3" transform="translate(-151.78 -37.84)"/><path class="cls-15" d="M359.9,319.3l-2.9-.4a5.73,5.73,0,0,1-4.9-6.4l.4-2.9a5.73,5.73,0,0,1,6.4-4.9l2.9.4a5.73,5.73,0,0,1,4.9,6.4l-.4,2.9A5.73,5.73,0,0,1,359.9,319.3Z" transform="translate(-151.78 -37.84)"/><path class="cls-15" d="M357.4,338.1l-2.9-.4a5.73,5.73,0,0,1-4.9-6.4l.4-2.9a5.73,5.73,0,0,1,6.4-4.9l2.9.4a5.73,5.73,0,0,1,4.9,6.4l-.4,2.9A5.71,5.71,0,0,1,357.4,338.1Z" transform="translate(-151.78 -37.84)"/><path class="cls-15" d="M347.3,396.5l-2.9-.4a5.73,5.73,0,0,1-4.9-6.4l.4-2.9a5.73,5.73,0,0,1,6.4-4.9l2.9.4a5.73,5.73,0,0,1,4.9,6.4l-.4,2.9A5.67,5.67,0,0,1,347.3,396.5Z" transform="translate(-151.78 -37.84)"/><path class="cls-15" d="M344.8,415.3l-2.9-.4a5.73,5.73,0,0,1-4.9-6.4l.4-2.9a5.73,5.73,0,0,1,6.4-4.9l2.9.4a5.73,5.73,0,0,1,4.9,6.4l-.4,2.9A5.59,5.59,0,0,1,344.8,415.3Z" transform="translate(-151.78 -37.84)"/><path class="cls-23" d="M569.6,331.8s27.9-28.2,23.9,5.4-40.7,145.9-40.7,145.9L434.9,454.5C434.9,454.4,511.2,340.2,569.6,331.8Z" transform="translate(-151.78 -37.84)"/><path class="cls-23" d="M587.1,321.9,443.4,439.8c0-.2-.1-.4-.1-.6a1.27,1.27,0,0,0-.1-.6c-.5-12.2,16.6-24.5,16.6-24.5s-15.6.2-13-18.4,21.8-29.9,37-22.6c-6.2-8.8,9.7-26.8,19.9-22.4-5.4-7.6-6.7-18.4,6.2-29.7.9-.7,1.8-1.5,2.8-2.2,15.8-12,29.6-4.8,34.5,14.4,11.8-18.5,32.1-13.8,38.8-11.6.2.1.4.1.6.2A.75.75,0,0,1,587.1,321.9Z" transform="translate(-151.78 -37.84)"/><path class="cls-23" d="M594.5,332.8,556.7,464a4858907079510.79,4858907079510.79,0,0,1,1-.2c10.7-1.9,13.7-17.2,13.7-17.2s6.7,11.9,21.4,6.4,16-22.2,3.2-32.3c10.3,3.1,18.6-12.4,10.5-19.3,8.8,2.6,18.7,1.7,22.7-10.2a18.24,18.24,0,0,0,.7-2.5c3.3-14.3-8.9-23.3-27.5-23.5,10.7-12.4-2.3-27-7.1-31.6l-.4-.4C594.8,333.1,594.7,332.9,594.5,332.8Z" transform="translate(-151.78 -37.84)"/><path class="cls-2" d="M661.8,286.4s32.4,30.3,12.3,85.5a7,7,0,0,1-9.1,4.2,7.11,7.11,0,0,1-3-2.1l-22.2-27a19.66,19.66,0,0,1-4.3-15.5l4.2-28.4Z" transform="translate(-151.78 -37.84)"/><path class="cls-2" d="M591.5,240.5s-40.8-17.4-83.2,23.3a7.05,7.05,0,0,0,3,11.9l33.6,9.4a19.75,19.75,0,0,0,15.9-2.3l24.3-15.3Z" transform="translate(-151.78 -37.84)"/><path class="cls-24" d="M664.3,282.5s32.4,30.3,12.3,85.6a7,7,0,0,1-9.1,4.2,7.39,7.39,0,0,1-3.1-2.2l-22.2-27a19.77,19.77,0,0,1-4.3-15.5l4.2-28.4Z" transform="translate(-151.78 -37.84)"/><path class="cls-24" d="M594,236.6s-40.8-17.4-83.2,23.3a7.05,7.05,0,0,0,3,11.9l33.6,9.4a19.75,19.75,0,0,0,15.9-2.3l24.3-15.3Z" transform="translate(-151.78 -37.84)"/><path class="cls-5" d="M617,150.8c37.3-45.4,107.5-36.6,107-36.6.1,0,36.1,60.2,9.7,112.6-24,47.6-83.6,86-95,93.1-1.2.8-3.3,1.8-4.1.7-17.2-22.4-38.6-35.6-63.4-41.3-1.4-.3-1.2-2.6-1-4C571.9,262.2,583.1,192,617,150.8Z" transform="translate(-151.78 -37.84)"/><path class="cls-6" d="M649.3,211.2c20.9-25.2,43.4-17.7,63.8-39.9,7.5-8.1,15.2-20.8,18.3-41.8,8.9,21.2,20.4,61.1,2.2,97.3-24,47.6-83.6,86-95,93.1-1.2.8-3.3,1.8-4.1.7a110.88,110.88,0,0,0-29.2-27.1,74.1,74.1,0,0,0,18-18.2C639.7,251.4,630.3,234.2,649.3,211.2Z" transform="translate(-151.78 -37.84)"/><ellipse class="cls-24" cx="602.47" cy="300.07" rx="11.6" ry="39.4" transform="translate(-129.7 603.06) rotate(-56.9)"/><path class="cls-2" d="M598.7,290.7l14.2,9.2a22.14,22.14,0,0,1,9.6,22.7l-1.6,8.4a4.54,4.54,0,0,1-6.8,2.9l-47-30.6a4.48,4.48,0,0,1-1.3-6.1A3.45,3.45,0,0,1,567,296l7-4.9A22,22,0,0,1,598.7,290.7Z" transform="translate(-151.78 -37.84)"/><ellipse class="cls-24" cx="591.83" cy="316.81" rx="11" ry="32.5" transform="translate(-148.59 601.66) rotate(-56.89)"/><path class="cls-25" d="M571.2,303.3c-2.5,3.9,4.7,13,16.1,20.5s22.8,10.4,25.3,6.5-4.7-13-16.1-20.5S573.7,299.4,571.2,303.3Z" transform="translate(-151.78 -37.84)"/><path class="cls-2" d="M635.8,133.7S722.1,153.5,741,206c0,0,11.5-43.1-17.4-91.7C723.7,114.2,674.2,107.6,635.8,133.7Z" transform="translate(-151.78 -37.84)"/><path class="cls-25" d="M625.4,178.4c12.9-19.7,41.1-24.2,63-9.9s29.3,41.9,16.4,61.6-41.1,24.2-63,9.9S612.6,198.2,625.4,178.4Z" transform="translate(-151.78 -37.84)"/><ellipse class="cls-2" cx="665.18" cy="204.07" rx="39.7" ry="44.1" transform="translate(-20.88 611.94) rotate(-56.89)"/><path class="cls-26" d="M696.9,225.1c-10.3,15.8-32.8,19.3-50.3,7.9a37.9,37.9,0,0,1-4.5-3.4c-13.9-12-17.9-31.5-8.5-45.8,10.3-15.8,32.8-19.3,50.3-7.9a41,41,0,0,1,10.1,9.3C703.1,197,704.8,212.9,696.9,225.1Z" transform="translate(-151.78 -37.84)"/><path class="cls-24" d="M696.9,225.1c-10.3,15.8-32.8,19.3-50.3,7.9a37.9,37.9,0,0,1-4.5-3.4l-2.3-2.3a40.19,40.19,0,0,1,29.6-32.1s19.3-7.3,24.6-10.1C703.1,197,704.8,212.9,696.9,225.1Z" transform="translate(-151.78 -37.84)"/><path class="cls-23" d="M571.2,303.3s.4,6.1-31.6,17.8c-34.7,12.6,29.3,42,29.3,42l41.8,2.8s-8.3-21.4,1.9-35.7C612.6,330.3,599.1,308.4,571.2,303.3Z" transform="translate(-151.78 -37.84)"/><path class="cls-27" d="M567.3,341s24.1-24.3,20.7,4.6-34.9,132.6-34.9,132.6L446.4,453.1C446.3,453.1,516.9,348.3,567.3,341Z" transform="translate(-151.78 -37.84)"/><path class="cls-27" d="M582.4,332.4l-124,101.7c0-.2-.1-.3-.1-.5v-.5c-.5-10.5,14.3-21.2,14.3-21.2s-13.5.1-11.2-15.8,18.8-25.8,31.9-19.5c-5.4-7.6,8.4-23.1,17.2-19.3-4.6-6.5-5.8-15.9,5.3-25.6a25.15,25.15,0,0,1,2.4-1.9c13.7-10.4,25.5-4.1,29.8,12.4,10.2-15.9,27.7-11.9,33.5-10,.2.1.3.1.5.2C582.1,332.3,582.3,332.4,582.4,332.4Z" transform="translate(-151.78 -37.84)"/><path class="cls-27" d="M588.8,341.9,556.1,455h.5a.9.9,0,0,0,.5-.1c9.2-1.6,11.8-14.8,11.8-14.8s5.8,10.3,18.5,5.5,13.8-19.1,2.7-27.9c8.9,2.7,16.1-10.7,9-16.7,7.6,2.3,16.2,1.4,19.6-8.8.2-.7.4-1.4.6-2.2,2.9-12.3-7.7-20.1-23.7-20.3,9.2-10.7-2-23.3-6.1-27.3a1.38,1.38,0,0,0-.4-.3C589,342.1,588.9,342,588.8,341.9Z" transform="translate(-151.78 -37.84)"/><path class="cls-27" d="M575.3,304.2s-6.2,17.5-33.8,27.5c-29.9,10.9,25.2,36.3,25.2,36.3l36.1,2.5s-2.8-35.8,5.8-45.4C608.6,325,599.2,309.4,575.3,304.2Z" transform="translate(-151.78 -37.84)"/><circle class="cls-19" cx="263.52" cy="253.46" r="1.4"/><path class="cls-19" d="M410.3,297.1a1,1,0,1,1-1-1A1.08,1.08,0,0,1,410.3,297.1Z" transform="translate(-151.78 -37.84)"/><path class="cls-19" d="M399.8,303.7a.6.6,0,1,1-.6-.6C399.5,303,399.8,303.3,399.8,303.7Z" transform="translate(-151.78 -37.84)"/><path class="cls-19" d="M408.7,279a1.7,1.7,0,1,1-1.7-1.7A1.69,1.69,0,0,1,408.7,279Z" transform="translate(-151.78 -37.84)"/><path class="cls-19" d="M393.1,353.5a.9.9,0,1,1-.9-.9A.9.9,0,0,1,393.1,353.5Z" transform="translate(-151.78 -37.84)"/><path class="cls-19" d="M389.2,356.2a.79.79,0,0,1-.8.8.8.8,0,0,1,0-1.6A.79.79,0,0,1,389.2,356.2Z" transform="translate(-151.78 -37.84)"/><path class="cls-19" d="M384.5,361.8a.8.8,0,1,1-.8-.8A.79.79,0,0,1,384.5,361.8Z" transform="translate(-151.78 -37.84)"/><path class="cls-19" d="M384.1,352.3a1.2,1.2,0,1,1-1.2-1.2A1.22,1.22,0,0,1,384.1,352.3Z" transform="translate(-151.78 -37.84)"/><path class="cls-19" d="M390.3,360.8a1,1,0,1,1-1-1A1,1,0,0,1,390.3,360.8Z" transform="translate(-151.78 -37.84)"/><path class="cls-19" d="M432.6,326.4a1,1,0,0,1-1,1,1.08,1.08,0,0,1-1-1,1,1,0,0,1,2,0Z" transform="translate(-151.78 -37.84)"/><path class="cls-19" d="M424.6,328.4a.6.6,0,1,1-.6-.6A.58.58,0,0,1,424.6,328.4Z" transform="translate(-151.78 -37.84)"/><path class="cls-19" d="M431.5,321.2a1.1,1.1,0,1,1-1.1-1.1A1.18,1.18,0,0,1,431.5,321.2Z" transform="translate(-151.78 -37.84)"/><path class="cls-19" d="M427.5,324a.6.6,0,1,1-.6-.6C427.2,323.3,427.5,323.6,427.5,324Z" transform="translate(-151.78 -37.84)"/><path class="cls-19" d="M433.4,312.2a.7.7,0,1,1-.7-.7A.68.68,0,0,1,433.4,312.2Z" transform="translate(-151.78 -37.84)"/><circle class="cls-19" cx="275.82" cy="335.26" r="0.8"/><circle class="cls-19" cx="269.42" cy="333.86" r="0.5"/><circle class="cls-19" cx="260.82" cy="335.46" r="1"/><circle class="cls-19" cx="275.42" cy="327.46" r="0.4"/><circle class="cls-19" cx="282.02" cy="354.96" r="1.2"/><path class="cls-19" d="M423.8,395a.4.4,0,1,1-.4-.4A.43.43,0,0,1,423.8,395Z" transform="translate(-151.78 -37.84)"/><path class="cls-19" d="M417.6,402.2a.9.9,0,1,1-.9-.9A.9.9,0,0,1,417.6,402.2Z" transform="translate(-151.78 -37.84)"/><path class="cls-19" d="M411.2,424.7a.4.4,0,1,1-.4-.4A.43.43,0,0,1,411.2,424.7Z" transform="translate(-151.78 -37.84)"/><path class="cls-19" d="M419.4,430a.4.4,0,1,1-.4-.4A.43.43,0,0,1,419.4,430Z" transform="translate(-151.78 -37.84)"/><path class="cls-19" d="M416.1,421.5a.5.5,0,1,1-.5-.5A.47.47,0,0,1,416.1,421.5Z" transform="translate(-151.78 -37.84)"/><circle class="cls-19" cx="276.22" cy="392.96" r="0.8"/><path class="cls-19" d="M474.9,339.9c-.1.1-.3.2-.4.1s-.2-.3-.1-.4.3-.2.4-.1S475,339.8,474.9,339.9Z" transform="translate(-151.78 -37.84)"/><path class="cls-19" d="M473.3,340.2a.71.71,0,1,1-.1-1A.76.76,0,0,1,473.3,340.2Z" transform="translate(-151.78 -37.84)"/><circle class="cls-19" cx="314.92" cy="294.36" r="0.2"/><path class="cls-19" d="M464.7,338.8a.53.53,0,0,1-.8.1.62.62,0,0,1-.1-.8.57.57,0,1,1,.9.7Z" transform="translate(-151.78 -37.84)"/><path class="cls-19" d="M468.8,337.6a.5.5,0,1,1-.1-.7A.49.49,0,0,1,468.8,337.6Z" transform="translate(-151.78 -37.84)"/><path class="cls-19" d="M462.9,334.5a.44.44,0,0,1-.5.1c-.2-.1-.2-.3-.1-.5a.44.44,0,0,1,.5-.1C463,334.2,463,334.4,462.9,334.5Z" transform="translate(-151.78 -37.84)"/><circle class="cls-19" cx="306.92" cy="296.36" r="0.8"/><path class="cls-19" d="M470.3,332.2a.36.36,0,1,1-.1-.5C470.4,331.9,470.4,332.1,470.3,332.2Z" transform="translate(-151.78 -37.84)"/><circle class="cls-19" cx="312.72" cy="288.66" r="1.5"/><path class="cls-19" d="M458.7,326.7a.93.93,0,1,1-.2-1.3C459,325.8,459.1,326.3,458.7,326.7Z" transform="translate(-151.78 -37.84)"/><path class="cls-19" d="M448.4,325.5a.85.85,0,1,1-.1-1.2A.92.92,0,0,1,448.4,325.5Z" transform="translate(-151.78 -37.84)"/><path class="cls-19" d="M468.4,350.5a.71.71,0,1,1-.1-1A.67.67,0,0,1,468.4,350.5Z" transform="translate(-151.78 -37.84)"/><path class="cls-19" d="M461.9,348.3a1.73,1.73,0,0,0-.3.4,4,4,0,0,1,.3-.4,1.73,1.73,0,0,0,.3-.4A1.73,1.73,0,0,1,461.9,348.3Z" transform="translate(-151.78 -37.84)"/><path class="cls-19" d="M457.2,297.5a.57.57,0,1,1-.1-.8C457.3,297,457.4,297.3,457.2,297.5Z" transform="translate(-151.78 -37.84)"/><path class="cls-19" d="M453.5,300.1a1,1,0,1,1-.2-1.4A1,1,0,0,1,453.5,300.1Z" transform="translate(-151.78 -37.84)"/><path class="cls-19" d="M466.2,303.4a1,1,0,1,1-.2-1.4A1,1,0,0,1,466.2,303.4Z" transform="translate(-151.78 -37.84)"/><path class="cls-19" d="M462.7,306.2a.57.57,0,1,1-.1-.8A.53.53,0,0,1,462.7,306.2Z" transform="translate(-151.78 -37.84)"/><path class="cls-19" d="M459.3,303.4a.5.5,0,1,1-.1-.7A.49.49,0,0,1,459.3,303.4Z" transform="translate(-151.78 -37.84)"/><circle class="cls-19" cx="301.82" cy="275.16" r="1.4"/><path class="cls-19" d="M647.6,387a.8.8,0,1,1-.8-.8C647.3,386.3,647.6,386.6,647.6,387Z" transform="translate(-151.78 -37.84)"/><path class="cls-19" d="M643.7,387.4a.4.4,0,1,1-.4-.4A.43.43,0,0,1,643.7,387.4Z" transform="translate(-151.78 -37.84)"/><path class="cls-19" d="M638.4,388.3a.5.5,0,1,1-.5-.5A.47.47,0,0,1,638.4,388.3Z" transform="translate(-151.78 -37.84)"/><path class="cls-19" d="M645.9,383.8a.4.4,0,1,1-.4-.4A.37.37,0,0,1,645.9,383.8Z" transform="translate(-151.78 -37.84)"/><path class="cls-19" d="M643.5,385a.7.7,0,1,1-.7-.7A.75.75,0,0,1,643.5,385Z" transform="translate(-151.78 -37.84)"/><circle class="cls-19" cx="504.62" cy="355.46" r="0.3"/><path class="cls-19" d="M651.4,393.6a.3.3,0,1,1-.3-.3A.32.32,0,0,1,651.4,393.6Z" transform="translate(-151.78 -37.84)"/><path class="cls-19" d="M644.5,394.1a.2.2,0,1,1-.2-.2C644.4,393.9,644.5,393.9,644.5,394.1Z" transform="translate(-151.78 -37.84)"/><circle class="cls-19" cx="484.32" cy="353.26" r="0.4"/><path class="cls-19" d="M643.2,391.1a.4.4,0,1,1-.4-.4A.43.43,0,0,1,643.2,391.1Z" transform="translate(-151.78 -37.84)"/><path class="cls-19" d="M651.4,389.2a.4.4,0,1,1-.4-.4A.43.43,0,0,1,651.4,389.2Z" transform="translate(-151.78 -37.84)"/><path class="cls-19" d="M655.1,384.2a.8.8,0,1,1-.8-.8A.86.86,0,0,1,655.1,384.2Z" transform="translate(-151.78 -37.84)"/><path class="cls-19" d="M655.6,427a1,1,0,1,1-1-1A1.07,1.07,0,0,1,655.6,427Z" transform="translate(-151.78 -37.84)"/><path class="cls-19" d="M650.4,430a1.1,1.1,0,1,1-1.1-1.1A1,1,0,0,1,650.4,430Z" transform="translate(-151.78 -37.84)"/><path class="cls-19" d="M659.2,438.2a1,1,0,1,1-1-1A1,1,0,0,1,659.2,438.2Z" transform="translate(-151.78 -37.84)"/><path class="cls-19" d="M646.2,438.7a.5.5,0,1,1-.5-.5A.54.54,0,0,1,646.2,438.7Z" transform="translate(-151.78 -37.84)"/><path class="cls-19" d="M632.7,439.4a.7.7,0,1,1-.7-.7A.68.68,0,0,1,632.7,439.4Z" transform="translate(-151.78 -37.84)"/><path class="cls-19" d="M661.2,406.2a1,1,0,1,1-1-1C660.8,405.1,661.2,405.6,661.2,406.2Z" transform="translate(-151.78 -37.84)"/><path class="cls-19" d="M656.3,408.9a1.7,1.7,0,1,1-1.7-1.7A1.69,1.69,0,0,1,656.3,408.9Z" transform="translate(-151.78 -37.84)"/><path class="cls-19" d="M480.6,303.1l1,1.4a10.34,10.34,0,0,0,4.4,3.6l1.6.7-1.4,1a10.34,10.34,0,0,0-3.6,4.4l-.7,1.6-1-1.4a10.34,10.34,0,0,0-4.4-3.6l-1.6-.7,1.4-1a10.34,10.34,0,0,0,3.6-4.4Z" transform="translate(-151.78 -37.84)"/><path class="cls-19" d="M412.1,343.5l.3,1.1a6.72,6.72,0,0,0,1.9,3.1l.8.7-1.1.3a6.72,6.72,0,0,0-3.1,1.9l-.7.8-.3-1.1a6.72,6.72,0,0,0-1.9-3.1l-.8-.7,1.1-.3a6.72,6.72,0,0,0,3.1-1.9Z" transform="translate(-151.78 -37.84)"/><path class="cls-19" d="M629.8,416.6l.3,1.1a6.72,6.72,0,0,0,1.9,3.1l.8.7-1.1.3a6.72,6.72,0,0,0-3.1,1.9l-.7.8-.3-1.1a6.72,6.72,0,0,0-1.9-3.1l-.8-.7,1.1-.3a6.72,6.72,0,0,0,3.1-1.9Z" transform="translate(-151.78 -37.84)"/><path class="cls-19" d="M655.5,456l.3,1.1a6.72,6.72,0,0,0,1.9,3.1l.8.7-1.1.3a6.72,6.72,0,0,0-3.1,1.9l-.7.8-.3-1.1a6.72,6.72,0,0,0-1.9-3.1l-.8-.7,1.1-.3a6.72,6.72,0,0,0,3.1-1.9Z" transform="translate(-151.78 -37.84)"/><path class="cls-19" d="M388.7,396.8l1,1.4a10.34,10.34,0,0,0,4.4,3.6l1.6.7-1.4,1a10.34,10.34,0,0,0-3.6,4.4l-.7,1.6-1-1.4a10.34,10.34,0,0,0-4.4-3.6l-1.6-.7,1.4-1a10.34,10.34,0,0,0,3.6-4.4Z" transform="translate(-151.78 -37.84)"/><path class="cls-28" d="M562.4,351.9s19-19.2,16.3,3.7-27.6,104.8-27.6,104.8l-84.3-19.8C466.8,440.5,522.6,357.7,562.4,351.9Z" transform="translate(-151.78 -37.84)"/><path class="cls-28" d="M574.3,345.2l-98,80.4v-.8c-.4-8.3,11.3-16.7,11.3-16.7s-10.7.1-8.8-12.5,14.9-20.4,25.2-15.4c-4.2-6,6.6-18.2,13.6-15.3-3.6-5.2-4.6-12.6,4.2-20.2.6-.5,1.2-1,1.9-1.5,10.8-8.2,20.1-3.2,23.5,9.8,8-12.6,21.9-9.4,26.5-7.9a.6.6,0,0,0,.4.1C574.1,345.1,574.2,345.1,574.3,345.2Z" transform="translate(-151.78 -37.84)"/><path class="cls-28" d="M579.4,352.6,553.6,442h.4a.6.6,0,0,0,.4-.1c7.3-1.3,9.3-11.7,9.3-11.7s4.6,8.1,14.6,4.4,10.9-15.1,2.2-22c7,2.1,12.7-8.4,7.1-13.2,6,1.8,12.8,1.1,15.5-7,.2-.5.3-1.1.5-1.7,2.3-9.7-6-15.9-18.7-16,7.3-8.4-1.5-18.4-4.8-21.6l-.3-.3C579.5,352.8,579.5,352.7,579.4,352.6Z" transform="translate(-151.78 -37.84)"/><path class="cls-28" d="M580.5,305.4s-16.7,31.3-38.5,39.2c-23.6,8.6,20,28.6,20,28.6l28.5,1.9s8.6-44.1,15.5-53.8C606,321.4,598,310.3,580.5,305.4Z" transform="translate(-151.78 -37.84)"/><polyline class="cls-28" points="326.72 379.66 291.52 428.66 406.22 454.96 399.52 418.16"/><path class="cls-29" d="M583.1,499.8,446.6,480.9c.1-.2.2-.3.3-.5s.2-.3.3-.5c6.1-9.1,21.4-5.7,21.4-5.7s-8.2-11.1,2.8-22.5,27-5.7,31.1,10.4c1.4-10.8,19-12.2,22.1-1.7,1.2-9.3,6.1-18.1,18.7-16.9.8.1,1.7.2,2.6.4,14.5,2.8,17.9,17.9,10.4,35.2,15.8-4.8,23.9,13.2,26.3,19.6.1.2.1.4.2.5A.86.86,0,0,1,583.1,499.8Z" transform="translate(-151.78 -37.84)"/><path class="cls-30" d="M665.1,510.8,529.9,492.2c.1-.2.2-.3.3-.5s.2-.3.3-.5c6-9,21.3-5.6,21.3-5.6s-8.1-10.9,2.8-22.2,26.7-5.6,30.8,10.2c1.3-10.6,18.9-12,21.9-1.7,1.2-9.1,6.1-17.8,18.6-16.6.8.1,1.7.2,2.6.4,14.4,2.7,17.7,17.6,10.3,34.6,15.7-4.7,23.7,13,26.1,19.3.1.2.1.4.2.5A.85.85,0,0,0,665.1,510.8Z" transform="translate(-151.78 -37.84)"/><rect class="cls-27" x="456.86" y="430.63" width="9.5" height="7" transform="translate(-212.92 754.46) rotate(-77.66)"/><path class="cls-30" d="M492.7,487,357.5,468.4c.1-.2.2-.3.3-.5s.2-.3.3-.5c6-9,21.3-5.6,21.3-5.6s-8.1-10.9,2.8-22.2,26.7-5.6,30.8,10.2c1.3-10.6,18.9-12,21.9-1.7,1.2-9.1,6.1-17.8,18.6-16.6.8.1,1.7.2,2.6.4,14.4,2.7,17.7,17.6,10.3,34.6,15.7-4.7,23.7,13,26.1,19.3.1.2.1.4.2.5C492.6,486.7,492.6,486.9,492.7,487Z" transform="translate(-151.78 -37.84)"/><path class="cls-5" d="M541,425.4l-44.8-6a11.72,11.72,0,0,1-10-13.2l.3-2.6a11.72,11.72,0,0,1,13.2-10l44.8,6a11.72,11.72,0,0,1,10,13.2l-.3,2.6A11.79,11.79,0,0,1,541,425.4Z" transform="translate(-151.78 -37.84)"/><path class="cls-31" d="M508.4,405.9a4.05,4.05,0,0,0-.9-.5,1.93,1.93,0,0,0-1-.3,1.31,1.31,0,0,0-1.1.2.89.89,0,0,0-.5.8.84.84,0,0,0,.2.7l.6.6c.3.2.5.3.8.5s.5.3.7.4.5.4.6.6a2,2,0,0,1,.4.8,1.7,1.7,0,0,1,0,1,2.2,2.2,0,0,1-.5,1.2,3.13,3.13,0,0,1-1.1.8,2.79,2.79,0,0,1-1.6.1,4.51,4.51,0,0,1-1.1-.3,4.05,4.05,0,0,1-.9-.5c-.3-.2-.5-.4-.7-.5l.6-.8c.2.2.4.3.6.5a2.51,2.51,0,0,0,.7.4,2.35,2.35,0,0,0,.8.2h.8a1.27,1.27,0,0,0,.7-.4,1.51,1.51,0,0,0,.4-.8,2.2,2.2,0,0,0-.1-.8,2.65,2.65,0,0,0-.5-.6,5.58,5.58,0,0,0-.8-.5c-.3-.1-.5-.3-.8-.4a2,2,0,0,1-.7-.6,3,3,0,0,1-.5-.7,2.79,2.79,0,0,1-.1-1,1.88,1.88,0,0,1,.5-1.1,3.59,3.59,0,0,1,1-.7,3.21,3.21,0,0,1,1.4-.1,4.67,4.67,0,0,1,1.4.4,10.91,10.91,0,0,1,1.1.6Z" transform="translate(-151.78 -37.84)"/><path class="cls-31" d="M510.3,404.6l5.7.8-.1,1.1-2.3-.3-1,7.5-1.2-.2,1-7.5-2.3-.3Z" transform="translate(-151.78 -37.84)"/><path class="cls-31" d="M515.3,414.1l5-8.5h.1l2.6,9.5-1.3-.2-1.8-7.5.9-.4-4.2,7.3Zm2.6-3,3.2.4.2,1-3.9-.5Z" transform="translate(-151.78 -37.84)"/><path class="cls-31" d="M527.9,407l1.2.3a3.49,3.49,0,0,1,.9.6,2.62,2.62,0,0,1,.5.9,4.48,4.48,0,0,1,.1,1.2,1.93,1.93,0,0,1-.3,1,1.56,1.56,0,0,1-.6.8,3.13,3.13,0,0,1-1,.5,6.15,6.15,0,0,1-1.4.1l-1.3-.2-.4,3.2-1.2-.2,1.2-8.6Zm-.5,4.3h.9l.6-.3a.85.85,0,0,0,.3-.5c.1-.2.1-.3.2-.5v-.5a1.42,1.42,0,0,0-.2-.6c-.1-.2-.3-.3-.5-.5a4.88,4.88,0,0,0-.7-.3l-1.3-.2-.4,3.2Zm1.4.9,1.8,3.9-1.3-.2-1.8-3.9Z" transform="translate(-151.78 -37.84)"/><path class="cls-31" d="M531.7,407.5l5.7.8-.1,1.1-2.3-.3-1,7.5-1.2-.2,1-7.5-2.3-.3Z" transform="translate(-151.78 -37.84)"/><polyline class="cls-1" points="162.02 114.96 165.42 127.86 161.22 115.26"/><path class="cls-19" d="M765.1,546.1l11.8-19-5.8-3.7a5.35,5.35,0,0,1-2.5-5c.1-1.1.2-2.2.2-3.3a5.47,5.47,0,0,1,2.8-4.8l6-3.2-10.5-19.7-6,3.2a5,5,0,0,1-5.5-.3,19.23,19.23,0,0,0-2.8-1.8,5.2,5.2,0,0,1-2.8-4.8l.2-6.8-22.3-.7-.1,6.9a5.51,5.51,0,0,1-3.2,4.7l-1.5.7c-.5.3-1,.5-1.5.8a5.42,5.42,0,0,1-5.5,0l-5.8-3.7-11.8,19,5.8,3.7a5.35,5.35,0,0,1,2.5,5c-.1,1.1-.2,2.2-.2,3.3a5.47,5.47,0,0,1-2.8,4.8l-6,3.2,10.5,19.7,6-3.2a5,5,0,0,1,5.5.3,16.09,16.09,0,0,0,2.8,1.7,5.2,5.2,0,0,1,2.8,4.8l-.2,6.8,22.3.7.2-6.8a5.51,5.51,0,0,1,3.2-4.7l1.5-.7c.5-.3,1-.5,1.5-.8a5.42,5.42,0,0,1,5.5,0Zm-18.8-14a18.35,18.35,0,1,1,7.3-24.9h0v.2a17.9,17.9,0,0,1-6.8,24.4A2.19,2.19,0,0,1,746.3,532.1Z" transform="translate(-151.78 -37.84)"/><path class="cls-32" d="M290,281.3l1.2-5.7a25.57,25.57,0,0,0-18.7,4.6l2.8,5.2A20.11,20.11,0,0,1,290,281.3Z" transform="translate(-151.78 -37.84)"/><path class="cls-33" d="M307.1,305.4a27.59,27.59,0,0,1-.8,2.7l5.7,1.2a26.81,26.81,0,0,0,.7-2.7,25.91,25.91,0,0,0-18.1-30.2l-1.2,5.7A20,20,0,0,1,307.1,305.4Z" transform="translate(-151.78 -37.84)"/><path class="cls-2" d="M283.4,320.8A20,20,0,0,1,268,297.1a20.69,20.69,0,0,1,4.6-9.1l-2.9-5.4a25.89,25.89,0,1,0,41.1,30.2l-5.9-1.3A20.44,20.44,0,0,1,283.4,320.8Z" transform="translate(-151.78 -37.84)"/><path class="cls-19" d="M303.5,363.8l-56.9-12.2a1,1,0,0,1-.8-1.3l.5-2.4a1,1,0,0,1,1.3-.8l56.9,12.2a1,1,0,0,1,.8,1.3l-.5,2.4A1,1,0,0,1,303.5,363.8Z" transform="translate(-151.78 -37.84)"/><path class="cls-33" d="M271.3,357l-23.9-5.1a2.31,2.31,0,0,1-1.8-2.8h0a2.31,2.31,0,0,1,2.8-1.8l23.9,5.1a2.31,2.31,0,0,1,1.8,2.8h0A2.53,2.53,0,0,1,271.3,357Z" transform="translate(-151.78 -37.84)"/><path class="cls-19" d="M307,347.5l-56.9-12.2a1,1,0,0,1-.8-1.3l.5-2.4a1,1,0,0,1,1.3-.8L308,343a1,1,0,0,1,.8,1.3l-.5,2.5A1.09,1.09,0,0,1,307,347.5Z" transform="translate(-151.78 -37.84)"/><path class="cls-32" d="M266.3,338.8l-15.4-3.3a2.31,2.31,0,0,1-1.8-2.8h0a2.31,2.31,0,0,1,2.8-1.8l15.4,3.3a2.31,2.31,0,0,1,1.8,2.8h0A2.36,2.36,0,0,1,266.3,338.8Z" transform="translate(-151.78 -37.84)"/><path class="cls-2" d="M305.3,355.7l-56.9-12.2a1,1,0,0,1-.8-1.3l.5-2.4a1,1,0,0,1,1.3-.8l56.9,12.2a1,1,0,0,1,.8,1.3l-.5,2.4A1.21,1.21,0,0,1,305.3,355.7Z" transform="translate(-151.78 -37.84)"/><path class="cls-2" d="M279.4,350.2l-30.3-6.5a2.31,2.31,0,0,1-1.8-2.8h0a2.31,2.31,0,0,1,2.8-1.8l30.3,6.5a2.31,2.31,0,0,1,1.8,2.8h0A2.47,2.47,0,0,1,279.4,350.2Z" transform="translate(-151.78 -37.84)"/></svg>