<svg id="Layer_1" data-name="Layer 1" xmlns="http://www.w3.org/2000/svg" xmlns:xlink="http://www.w3.org/1999/xlink" viewBox="0 0 1057 739.48"><defs><style>.cls-1{fill:#ff4e6c;}.cls-2{fill:#e23359;}.cls-3{fill:#c0e5c0;}.cls-4{fill:#b4b4ef;}.cls-5{fill:#e8e8ef;}.cls-6{fill:#fff;}.cls-7{opacity:0.3;}.cls-8{fill:#91b3fa;}.cls-9{fill:url(#linear-gradient);}.cls-10{fill:#1a2e36;}.cls-11{fill:url(#linear-gradient-2);}.cls-12{fill:url(#linear-gradient-3);}.cls-13{fill:url(#linear-gradient-4);}.cls-14{fill:#5252ba;}.cls-15{fill:#6798ca;}.cls-16{fill:#f47067;}.cls-17{fill:url(#linear-gradient-5);}.cls-18{fill:#497ab7;}.cls-19{fill:#78add4;}.cls-20{fill:#00448e;}.cls-21{fill:url(#linear-gradient-6);}.cls-22{fill:#e1e1e1;}.cls-23{fill:#ffa800;opacity:0.35;}.cls-24{fill:#406b91;opacity:0.72;isolation:isolate;}.cls-25{fill:#ffbf9d;}.cls-26{fill:#4d4d4d;}.cls-27{fill:#1a2e35;}.cls-28{fill:#ffaba1;}.cls-29{opacity:0.1;}.cls-30{fill:#6666c9;}.cls-31{fill:#2d2d2d;}.cls-32{fill:#260e08;}.cls-33{fill:#dd9373;}.cls-34{fill:#c17e67;}.cls-35{fill:#89705d;}.cls-36{fill:#d1945d;}.cls-37{fill:#c18859;}.cls-38{fill:#16282d;}.cls-39{fill:#ffb93e;}.cls-40{fill:#8f8fcc;}.cls-41{fill:#412d70;}</style><linearGradient id="linear-gradient" x1="237.53" y1="513.08" x2="237.06" y2="510.93" gradientTransform="matrix(1, 0, 0, -1, 0.05, 741.99)" gradientUnits="userSpaceOnUse"><stop offset="0" stop-color="#ebeff2"/><stop offset="1" stop-color="#fff"/></linearGradient><linearGradient id="linear-gradient-2" x1="856.83" y1="648.67" x2="864.19" y2="648.67" gradientTransform="matrix(1, 0, 0, -1, -23.05, 723.03)" gradientUnits="userSpaceOnUse"><stop offset="0" stop-color="#ff9085"/><stop offset="1" stop-color="#fb6fbb"/></linearGradient><linearGradient id="linear-gradient-3" x1="871.96" y1="648.2" x2="879.27" y2="648.2" xlink:href="#linear-gradient-2"/><linearGradient id="linear-gradient-4" x1="887" y1="647.7" x2="894.28" y2="647.7" xlink:href="#linear-gradient-2"/><linearGradient id="linear-gradient-5" x1="-2833.4" y1="1804.66" x2="-2738.66" y2="1804.66" gradientTransform="translate(-894.26 -2596.64) rotate(-90)" xlink:href="#linear-gradient"/><linearGradient id="linear-gradient-6" x1="-2823.44" y1="1742.46" x2="-2752.9" y2="1845.4" gradientTransform="translate(-2412.5 181.58) rotate(-146.78)" gradientUnits="userSpaceOnUse"><stop offset="0" stop-color="#444b8c"/><stop offset="1" stop-color="#26264f"/></linearGradient></defs><title>shopillusztracio2</title><path class="cls-1" d="M85.58,531.71c-2.1-6.92-1.16-14.44,1.29-21.25,1.31-3.66,3.16-7.38,6.47-9.43s8.37-1.62,10.27,1.77c1.13,2,.9,4.51.45,6.78C103,515,101,521,103.41,526c1.42,2.85,4.25,5.1,4.63,8.26s-2,6.09-4.89,7.16a12.3,12.3,0,0,1-9.09-.76A13.84,13.84,0,0,1,85.58,531.71Z" transform="translate(0.05 -0.01)"/><path class="cls-1" d="M55,541c6.23-2.85,5.78-10.7,3-14.81s-7.35-6.47-11.76-8.66c-10.09-5-20.69-10.16-31.95-9.87a18.44,18.44,0,0,0-9.64,2.55c-2.82,1.83-4.89,5.07-4.63,8.43.3,4,3.58,7,6.8,9.36a79.39,79.39,0,0,0,32,13.82c5.38,1,11.14,1.4,16.14-.82" transform="translate(0.05 -0.01)"/><path class="cls-1" d="M61,553.14C56.74,548,49.62,545.9,43,546.62s-12.66,4-17.89,8A59.81,59.81,0,0,0,10,572.15a21.33,21.33,0,0,0-3.12,8.55c-.26,3,.72,6.34,3.12,8.22,3.56,2.79,8.7,1.69,13,.26a152.74,152.74,0,0,0,22-9.28c5.68-3,11.4-6.47,14.73-12s4.19-11.63.68-15.5" transform="translate(0.05 -0.01)"/><path class="cls-1" d="M138.22,556.61a13.27,13.27,0,0,0-2.45-.81l-6.72-1.92a102.49,102.49,0,0,1-9.77-3.38,78.6,78.6,0,0,1-11.18-5.83,44.23,44.23,0,0,1-9.62-8,23,23,0,0,1-5-8.82,21.56,21.56,0,0,1-.83-6.82,12.91,12.91,0,0,0,.1-2.56,12.08,12.08,0,0,0-.51,2.53,20.11,20.11,0,0,0,.52,7,23.06,23.06,0,0,0,4.94,9.25,43.17,43.17,0,0,0,9.79,8.28A74.57,74.57,0,0,0,119,551.4a88.18,88.18,0,0,0,9.92,3.2c2.87.75,5.21,1.26,6.83,1.6A12.62,12.62,0,0,0,138.22,556.61Z" transform="translate(0.05 -0.01)"/><path class="cls-2" d="M133,559a5.08,5.08,0,0,0-1.15-.28l-3.33-.6c-2.89-.52-7.07-1.29-12.21-2.39-10.28-2.15-21.23-5.08-36.59-9.67-14.43-4.33-31.18-9.66-41.91-14-2.44-1-4.64-1.87-6.55-2.71s-3.57-1.51-4.9-2.13l-3.1-1.36a4.38,4.38,0,0,0-1.11-.42,5.69,5.69,0,0,0,1,.61l3,1.55c1.31.68,2.94,1.43,4.84,2.3s4.07,1.86,6.51,2.86a385.1,385.1,0,0,0,38.75,13.75c15.39,4.6,29.54,8,39.88,10,5.17,1,9.38,1.67,12.3,2.07l3.36.4A4.9,4.9,0,0,0,133,559Z" transform="translate(0.05 -0.01)"/><path class="cls-2" d="M105.47,553.9a21.5,21.5,0,0,0-3.48-.62c-2.26-.28-5.55-.56-9.62-.66a126.43,126.43,0,0,0-14.3.55,112.49,112.49,0,0,0-17.3,2.76c-12.17,2.69-22.59,7.47-29.34,12A47.33,47.33,0,0,0,27,571.22c-.62.52-1.24,1-1.74,1.44L24,574.06a23.62,23.62,0,0,0-2.41,2.59c.2.2,3.53-3.65,10.33-8A92.39,92.39,0,0,1,61,557a130.89,130.89,0,0,1,17.16-2.82c5.32-.58,10.14-.73,14.19-.77s7.32.18,9.59.33A23.93,23.93,0,0,0,105.47,553.9Z" transform="translate(0.05 -0.01)"/><path class="cls-1" d="M143.21,566.16c3.84,1.36,4,6,2.6,8.6s-4,4.22-6.49,5.76c-5.7,3.51-11.69,7.12-18.37,7.55a10.89,10.89,0,0,1-5.84-1,5.71,5.71,0,0,1-3.2-4.74c0-2.36,1.75-4.34,3.53-5.9a46.89,46.89,0,0,1,18.18-9.89c3.13-.89,6.52-1.43,9.59-.39" transform="translate(0.05 -0.01)"/><path class="cls-1" d="M146.1,558.7c-2.22,3.25-6.31,4.89-10.25,4.82a21.52,21.52,0,0,1-11-3.8,35.55,35.55,0,0,1-9.91-9.53,12.51,12.51,0,0,1-2.3-4.89,5.59,5.59,0,0,1,1.4-5c2-1.84,5.06-1.47,7.67-.85a89.84,89.84,0,0,1,13.5,4.31c3.52,1.44,7.1,3.22,9.36,6.28s3.1,6.66,1.23,9.13" transform="translate(0.05 -0.01)"/><path class="cls-2" d="M188.65,557.5a3,3,0,0,1-.66.23l-1.94.53c-1.69.47-4.12,1.15-7.1,2.07-6,1.83-12.29,4.15-21.13,7.69-8.31,3.33-17.93,7.39-24,10.53-1.4.7-2.65,1.36-3.73,2s-2,1.09-2.79,1.53l-1.76,1a3.07,3.07,0,0,1-.63.31,2.58,2.58,0,0,1,.57-.41c.44-.29,1-.65,1.7-1.08s1.66-1,2.74-1.63,2.31-1.31,3.69-2a226.88,226.88,0,0,1,22.19-10.21,235.36,235.36,0,0,1,23.07-8c3-.87,5.45-1.49,7.16-1.88l2-.42A2.81,2.81,0,0,1,188.65,557.5Z" transform="translate(0.05 -0.01)"/><path class="cls-2" d="M170.59,560.9a15.16,15.16,0,0,1-2,.55c-1.32.29-3.25.63-5.65.91a75.2,75.2,0,0,1-8.49.44,66.82,66.82,0,0,1-10.38-.71,52,52,0,0,1-18-5.55,24.79,24.79,0,0,1-2.79-1.71c-.4-.27-.79-.5-1.11-.75l-.87-.72a13,13,0,0,1-1.56-1.4,63.09,63.09,0,0,0,6.54,4.19,54.88,54.88,0,0,0,17.88,5.32,77.09,77.09,0,0,0,10.3.75c3.18.06,6-.11,8.44-.3s4.33-.5,5.66-.71A12.77,12.77,0,0,1,170.59,560.9Z" transform="translate(0.05 -0.01)"/><path class="cls-1" d="M61.77,468.17a8.65,8.65,0,0,0,1.61-.07l4.6-.41c2-.2,4.44-.43,7.28-.61s6.07-.49,9.65-.61c7.15-.41,15.68-.56,25.14-.42s19.87.8,30.73,1.93,21.15,2.85,30.44,4.64,17.59,3.84,24.49,5.75c3.47.88,6.56,1.86,9.3,2.65s5.07,1.52,7,2.14l4.4,1.38a8.41,8.41,0,0,0,1.57.4,8.12,8.12,0,0,0-1.49-.63l-4.34-1.58c-1.88-.7-4.2-1.51-6.93-2.35s-5.8-1.89-9.26-2.82c-6.89-2-15.2-4.07-24.5-6S151.81,468,141,466.8s-21.34-1.68-30.84-1.84-18,.16-25.21.67c-3.59.17-6.82.54-9.66.79S70,467,68,467.24l-4.58.63A6.43,6.43,0,0,0,61.77,468.17Z" transform="translate(0.05 -0.01)"/><path class="cls-1" d="M112.84,467a26.78,26.78,0,0,0-16.18,8.08c-1.45,1.52-2.8,3.55-2.29,5.59.68,2.71,4.11,3.64,6.9,3.46a19.77,19.77,0,0,0,12.58-5.72c3.32-3.33,5.25-6.67,5.54-11.37" transform="translate(0.05 -0.01)"/><path class="cls-1" d="M147.72,473c-7.28.38-18.25,3.83-23.71,8.65a8.48,8.48,0,0,0-2.21,2.63,3.55,3.55,0,0,0,0,3.32c.87,1.4,2.78,1.68,4.43,1.67A28.43,28.43,0,0,0,151.31,473" transform="translate(0.05 -0.01)"/><path class="cls-1" d="M179.17,474.57a41.29,41.29,0,0,0-19.31,9.7c-1.27,1.14-2.55,2.54-2.6,4.25-.07,2.59,2.74,4.36,5.32,4.67,5.3.64,10.3-2.46,14.39-5.89,4.41-3.69,8.81-10.86,8.81-10.86" transform="translate(0.05 -0.01)"/><path class="cls-3" d="M189.27,475.1a127.32,127.32,0,0,1-13-19.43c-.58-1.07-1.15-2.39-.54-3.45a2.44,2.44,0,0,1,2.46-1,6.09,6.09,0,0,1,2.54,1.17c7.73,5.27,12.63,14.9,13,24.25" transform="translate(0.05 -0.01)"/><path class="cls-1" d="M161.63,469.84Q155.29,462,149,454a15.7,15.7,0,0,1-3-4.89,5.27,5.27,0,0,1,1.06-5.38,5.17,5.17,0,0,1,5.43-.66,13.39,13.39,0,0,1,4.51,3.53,38.12,38.12,0,0,1,7.82,11.2c1.77,4.23,2.72,7.93,1.13,12.23" transform="translate(0.05 -0.01)"/><path class="cls-1" d="M130.27,465.1A44.84,44.84,0,0,1,114,448.46a7.51,7.51,0,0,1-1.23-3.7c0-2.62,2.65-4.62,5.26-4.92a10.58,10.58,0,0,1,8.08,2.89,22.29,22.29,0,0,1,5,7.22,51.83,51.83,0,0,1,4.62,15.58" transform="translate(0.05 -0.01)"/><path class="cls-1" d="M102.2,464.89c-8.64-3.08-15.07-9.25-21.14-16.12-1.28-1.45-2.56-3.37-1.88-5.18a3.71,3.71,0,0,1,2.8-2.15,8.55,8.55,0,0,1,3.66.25,28,28,0,0,1,20.8,23" transform="translate(0.05 -0.01)"/><path class="cls-1" d="M88,466a74.32,74.32,0,0,0-13.65-3.34,25.09,25.09,0,0,0-13.76,1.88,10.65,10.65,0,0,0-4.6,3.8,5.9,5.9,0,0,0-.43,5.76,6.22,6.22,0,0,0,4.53,3,15.53,15.53,0,0,0,5.56-.31c8.77-1.66,18.87-5.38,22.35-10.74" transform="translate(0.05 -0.01)"/><path class="cls-2" d="M124.23,362.63a7.75,7.75,0,0,0,1.14,1.15l3.42,3.1c1.5,1.33,3.32,3,5.38,4.93s4.48,4.13,7,6.68c5.15,5,11,11.15,17.36,18.2s12.88,15.14,19.41,23.9,12.24,17.48,17.22,25.53,9.1,15.52,12.38,21.89c1.71,3.15,3.08,6.09,4.35,8.64s2.32,4.76,3.16,6.58,1.47,3.11,2,4.17a8.56,8.56,0,0,0,.77,1.43,9.2,9.2,0,0,0-.55-1.52L215.5,483c-.77-1.85-1.75-4.11-3-6.68s-2.54-5.55-4.21-8.73c-3.18-6.43-7.3-13.93-12.18-22.08s-10.7-16.84-17.21-25.66S165.67,403.06,159.35,396s-12.4-13.16-17.6-18.07c-2.56-2.51-5-4.64-7.13-6.56s-4-3.51-5.53-4.79l-3.57-2.94A8.12,8.12,0,0,0,124.23,362.63Z" transform="translate(0.05 -0.01)"/><path class="cls-1" d="M159.71,395.51a26.78,26.78,0,0,0-16.91-6.41c-2.11,0-4.51.35-5.66,2.1-1.54,2.34.1,5.49,2.13,7.42A19.73,19.73,0,0,0,152,404c4.7.18,8.47-.66,12.11-3.63" transform="translate(0.05 -0.01)"/><path class="cls-1" d="M181.81,422.58c-5.22-5.1-15.18-10.82-22.44-11.57a8.62,8.62,0,0,0-3.43.17,3.52,3.52,0,0,0-2.42,2.26c-.44,1.6.65,3.19,1.78,4.39a28.41,28.41,0,0,0,29,7.41" transform="translate(0.05 -0.01)"/><path class="cls-3" d="M199.1,449.41a41.07,41.07,0,0,0-20.22-7.62c-1.7-.16-3.59-.16-4.88,1-2,1.7-1.35,5,.17,7.07,3.12,4.33,8.8,5.91,14.09,6.6,5.7.74,14-.89,14-.89" transform="translate(0.05 -0.01)"/><path class="cls-3" d="M190.69,433.31l3-20a15.76,15.76,0,0,1,1.55-5.54,5.28,5.28,0,0,1,4.68-2.87,5.22,5.22,0,0,1,4.16,3.54,13.78,13.78,0,0,1,.49,5.71,38.34,38.34,0,0,1-2.94,13.35c-1.91,4.16-4,7.37-8.22,9.12" transform="translate(0.05 -0.01)"/><path class="cls-3" d="M173,407a44.68,44.68,0,0,1,1.15-23.31A7.4,7.4,0,0,1,176,380.3c2-1.74,5.2-1.17,7.19.54a10.58,10.58,0,0,1,3.35,7.9,22.52,22.52,0,0,1-1.91,8.59,51.41,51.41,0,0,1-8.32,14" transform="translate(0.05 -0.01)"/><path class="cls-1" d="M154,386.26c-3.59-8.43-3.41-17.35-2.47-26.47.19-1.92.73-4.16,2.52-4.89a3.74,3.74,0,0,1,3.49.6,8.86,8.86,0,0,1,2.3,2.86,28.08,28.08,0,0,1-2.78,30.86" transform="translate(0.05 -0.01)"/><path class="cls-1" d="M143.56,376.56a73.69,73.69,0,0,0-6.8-12.3,25,25,0,0,0-10.71-8.84,10.7,10.7,0,0,0-5.91-.8,5.89,5.89,0,0,0-4.53,3.58,6.23,6.23,0,0,0,.9,5.34,15.82,15.82,0,0,0,4,3.87c7.16,5.32,16.74,10.22,23,9.15" transform="translate(0.05 -0.01)"/><path class="cls-2" d="M1000.22,357.42a8.45,8.45,0,0,0-.82,1.39l-2.13,4.09c-.91,1.79-2,4-3.41,6.46s-2.86,5.37-4.69,8.45c-3.52,6.24-8,13.51-13.22,21.4S964.56,415.5,957.74,424,944,440.3,937.41,447.16s-12.72,12.74-18,17.52c-2.62,2.45-5.11,4.52-7.25,6.4s-4,3.45-5.57,4.72l-3.54,3a7.69,7.69,0,0,0-1.18,1.1,8,8,0,0,0,1.33-.91l3.68-2.79c1.6-1.22,3.53-2.73,5.71-4.57s4.72-3.87,7.38-6.28c5.42-4.72,11.63-10.6,18.28-17.39s13.57-14.61,20.47-23.14,12.93-17.06,18.19-25,9.6-15.28,13-21.59c1.79-3.11,3.23-6,4.54-8.55s2.4-4.74,3.24-6.56l1.94-4.2A8.25,8.25,0,0,0,1000.22,357.42Z" transform="translate(0.05 -0.01)"/><path class="cls-1" d="M973.65,401a26.84,26.84,0,0,0,1.93-18c-.5-2-1.48-4.27-3.48-4.94-2.65-.9-5.28,1.49-6.63,3.94a19.76,19.76,0,0,0-2,13.67c1,4.6,2.78,8,6.58,10.8" transform="translate(0.05 -0.01)"/><path class="cls-1" d="M953.06,429.28c3.61-6.34,6.62-17.43,5.51-24.64a8.53,8.53,0,0,0-1-3.27,3.5,3.5,0,0,0-2.8-1.77c-1.65,0-2.92,1.43-3.8,2.83a28.43,28.43,0,0,0,.17,29.89" transform="translate(0.05 -0.01)"/><path class="cls-1" d="M931.48,452.8a41.45,41.45,0,0,0,2.26-21.49c-.28-1.69-.77-3.52-2.18-4.48-2.14-1.46-5.15-.05-6.8,1.95-3.4,4.12-3.49,10-2.81,15.31.73,5.7,4.39,13.27,4.39,13.27" transform="translate(0.05 -0.01)"/><path class="cls-1" d="M915.85,467.74c1.42-5.65,2.11-11.6,1-17.31a8.24,8.24,0,0,0-1.37-3.5,3.49,3.49,0,0,0-3.31-1.45c-2,.4-2.81,2.79-3.07,4.81a32.59,32.59,0,0,0,3.25,20" transform="translate(0.05 -0.01)"/><path class="cls-1" d="M925.59,461a127.38,127.38,0,0,1,23.35-.43c1.21.09,2.63.33,3.19,1.41a2.41,2.41,0,0,1-.47,2.62,6.21,6.21,0,0,1-2.36,1.51c-8.61,3.66-19.36,2.59-27.45-2.12" transform="translate(0.05 -0.01)"/><path class="cls-1" d="M945,440.59l20.16-2.18a15.6,15.6,0,0,1,5.74.1,5.27,5.27,0,0,1,4,3.8,5.18,5.18,0,0,1-2.37,4.92,13.52,13.52,0,0,1-5.4,1.92,38,38,0,0,1-13.65.53c-4.51-.79-8.14-2-10.91-5.64" transform="translate(0.05 -0.01)"/><path class="cls-1" d="M965.84,416.74A44.94,44.94,0,0,1,988.67,412a7.58,7.58,0,0,1,3.78,1c2.19,1.45,2.46,4.73,1.31,7.09a10.66,10.66,0,0,1-6.8,5.25,22.63,22.63,0,0,1-8.79.32A52,52,0,0,1,962.56,421" transform="translate(0.05 -0.01)"/><path class="cls-1" d="M981.16,393.22c7.25-5.61,15.93-7.69,25-9.09,1.9-.3,4.21-.34,5.37,1.2a3.73,3.73,0,0,1,.3,3.53,8.65,8.65,0,0,1-2.18,2.94,28.1,28.1,0,0,1-30.56,5.13" transform="translate(0.05 -0.01)"/><path class="cls-1" d="M988,380.63a75.84,75.84,0,0,0,10.18-9.69,25.18,25.18,0,0,0,5.82-12.61,10.82,10.82,0,0,0-.72-5.92,5.9,5.9,0,0,0-4.62-3.47,6.23,6.23,0,0,0-4.93,2.22A15.81,15.81,0,0,0,991,356c-3.33,8.27-5.65,18.78-3,24.61" transform="translate(0.05 -0.01)"/><path class="cls-1" d="M983.49,517.22c6.31,3.53,10.85,9.61,13.8,16.21,1.59,3.55,2.84,7.52,1.88,11.28s-4.92,7-8.64,5.85c-2.21-.68-3.77-2.63-5-4.57-3-4.7-5.63-10.41-10.9-12.28-3-1.06-6.6-.72-9.07-2.74s-2.8-5.75-1.43-8.55a12.3,12.3,0,0,1,7.08-5.75A13.89,13.89,0,0,1,983.49,517.22Z" transform="translate(0.05 -0.01)"/><path class="cls-1" d="M999.07,489.25c-2.51,6.38,3.25,11.72,8.07,12.79s9.78-.43,14.48-1.91c10.75-3.38,21.95-7,29.86-15a18.34,18.34,0,0,0,5.19-8.51c.76-3.28,0-7.05-2.51-9.29-3-2.66-7.44-2.57-11.39-2a79.19,79.19,0,0,0-32.64,12.22c-4.57,3-9,6.7-11.06,11.77" transform="translate(0.05 -0.01)"/><path class="cls-1" d="M986.39,484.69c6.58.77,13.19-2.64,17.44-7.72s6.38-11.65,7.32-18.2a59.84,59.84,0,0,0-1.19-23.12,21.07,21.07,0,0,0-3.68-8.32c-1.92-2.38-4.91-4.08-7.95-3.77-4.49.46-7.43,4.82-9.53,8.82a151.61,151.61,0,0,0-9.41,21.93c-2,6.06-3.73,12.57-2.34,18.82s5,11.29,10.26,11.64" transform="translate(0.05 -0.01)"/><path class="cls-1" d="M928.29,535.77a12.36,12.36,0,0,0,2.32-1.11l6.19-3.28a98.22,98.22,0,0,1,9.38-4.33,78.43,78.43,0,0,1,12.1-3.56,44.41,44.41,0,0,1,12.49-.88,22.68,22.68,0,0,1,9.69,2.92,21.82,21.82,0,0,1,5.32,4.34,12.9,12.9,0,0,0,1.71,1.91,12.83,12.83,0,0,0-1.4-2.18,19.68,19.68,0,0,0-5.25-4.71,22.8,22.8,0,0,0-10-3.25,43.67,43.67,0,0,0-12.8.82,72.89,72.89,0,0,0-12.25,3.69,83.73,83.73,0,0,0-9.38,4.57c-2.59,1.45-4.63,2.7-6,3.58A11.46,11.46,0,0,0,928.29,535.77Z" transform="translate(0.05 -0.01)"/><path class="cls-2" d="M933,537.08a4.82,4.82,0,0,0,1-.6l2.82-1.87c2.44-1.63,6-4,10.45-6.74,8.9-5.58,18.83-11.06,33.08-18.4,13.4-6.88,29.17-14.65,39.91-19,2.43-1,4.64-1.86,6.6-2.58s3.63-1.39,5-1.86l3.18-1.16a6.18,6.18,0,0,0,1.09-.47,4.56,4.56,0,0,0-1.16.27l-3.24,1c-1.42.41-3.12,1-5.09,1.69s-4.22,1.49-6.67,2.45a386.49,386.49,0,0,0-37.46,16.95c-14.28,7.36-26.84,14.72-35.66,20.47-4.42,2.85-7.91,5.3-10.29,7-1.1.83-2,1.51-2.71,2A5.26,5.26,0,0,0,933,537.08Z" transform="translate(0.05 -0.01)"/><path class="cls-2" d="M956.44,521.67a22.71,22.71,0,0,0,2.94-2q3.86-2.91,7.39-6.19a125.29,125.29,0,0,0,9.92-10.3,113.06,113.06,0,0,0,10.56-14c6.9-10.38,11.1-21.05,12.8-29a45.21,45.21,0,0,0,.9-5.43c.09-.8.23-1.55.26-2.24s0-1.31,0-1.9a23.11,23.11,0,0,0,0-3.53c-.29,0,0,5.06-1.88,12.94a92.61,92.61,0,0,1-13,28.61A129.23,129.23,0,0,1,976,502.57c-3.44,4.11-6.81,7.56-9.7,10.39s-5.4,5-7.13,6.41A21.69,21.69,0,0,0,956.44,521.67Z" transform="translate(0.05 -0.01)"/><path class="cls-1" d="M918.07,532.35c-3.71,1.68-7.06-1.57-7.84-4.4s0-5.81.69-8.65c1.67-6.48,3.5-13.23,8-18.17a10.9,10.9,0,0,1,4.89-3.34,5.74,5.74,0,0,1,5.59,1.2c1.66,1.68,1.75,4.34,1.55,6.7a46.88,46.88,0,0,1-6.25,19.73c-1.64,2.81-3.7,5.55-6.64,6.93" transform="translate(0.05 -0.01)"/><path class="cls-1" d="M921.16,539.73c-.66-3.88,1.16-7.91,4-10.58a21.44,21.44,0,0,1,10.57-4.91,35.79,35.79,0,0,1,13.76,0,12.69,12.69,0,0,1,5,1.93,5.59,5.59,0,0,1,2.48,4.6c-.13,2.68-2.63,4.56-4.94,5.93A88.72,88.72,0,0,1,939.31,543c-3.54,1.41-7.34,2.6-11.1,2s-6.85-2.65-7.22-5.73" transform="translate(0.05 -0.01)"/><path class="cls-2" d="M894,576.75a2.87,2.87,0,0,1,.32-.63l1-1.73c.89-1.5,2.17-3.67,3.67-6.41,3-5.45,6-11.5,9.9-20.18,3.68-8.17,7.81-17.76,10-24.27.52-1.47,1-2.81,1.33-4s.72-2.19,1-3,.43-1.42.58-1.93a3.74,3.74,0,0,1,.25-.66,2.78,2.78,0,0,1-.12.7q-.2.76-.48,2c-.2.85-.5,1.88-.85,3.07s-.75,2.55-1.25,4a226.22,226.22,0,0,1-8.91,22.75c-3.92,8.7-7.91,16.37-11,21.78-1.56,2.71-2.9,4.86-3.86,6.32l-1.12,1.67A5,5,0,0,1,894,576.75Z" transform="translate(0.05 -0.01)"/><path class="cls-2" d="M904.69,561.8a12.62,12.62,0,0,1,1.08-1.8c.75-1.13,1.91-2.71,3.45-4.58a74.09,74.09,0,0,1,5.81-6.2,67.35,67.35,0,0,1,8-6.69,52.23,52.23,0,0,1,16.83-8.48,23.27,23.27,0,0,1,3.19-.7c.48-.08.92-.19,1.33-.23l1.12-.08a13.41,13.41,0,0,1,2.1-.08,63.76,63.76,0,0,0-7.62,1.51A55.06,55.06,0,0,0,923.4,543a76,76,0,0,0-7.95,6.6c-2.33,2.16-4.27,4.27-5.87,6.07s-2.77,3.35-3.58,4.43A13.09,13.09,0,0,1,904.69,561.8Z" transform="translate(0.05 -0.01)"/><ellipse class="cls-4" cx="667.81" cy="699.11" rx="180.86" ry="40.37"/><path class="cls-4" d="M202,23.47,858.51,48.23A31.68,31.68,0,0,1,889,79.88V595.13a32.73,32.73,0,0,1-31.84,32.72l-655.5,18A32.74,32.74,0,0,1,168,614c0-.3,0-.61,0-.91V56.18a32.74,32.74,0,0,1,32.75-32.73Z" transform="translate(0.05 -0.01)"/><path class="cls-5" d="M226.71,0,883.23,24.78a31.69,31.69,0,0,1,30.49,31.66V571.69a32.74,32.74,0,0,1-31.84,32.72l-655.51,18a32.74,32.74,0,0,1-33.62-31.84c0-.29,0-.59,0-.88v-557A32.74,32.74,0,0,1,225.5,0C225.9,0,226.31,0,226.71,0Z" transform="translate(0.05 -0.01)"/><rect class="cls-6" x="659.98" y="347.27" width="104.64" height="83.22"/><g class="cls-7"><polygon class="cls-8" points="663.14 430.19 703.72 372.34 747.76 430.19 663.14 430.19"/><polyline class="cls-8" points="767.62 430.19 720.11 430.19 742.89 397.71"/><circle class="cls-8" cx="733.63" cy="368.74" r="9.04"/></g><rect class="cls-6" x="516.61" y="439.27" width="104.94" height="6.32" transform="translate(-3.56 4.68) rotate(-0.47)"/><rect class="cls-6" x="516.51" y="451.81" width="104.94" height="6.32" transform="translate(-3.66 4.68) rotate(-0.47)"/><rect class="cls-6" x="227.61" y="443.7" width="104.94" height="6.32" transform="translate(-3.6 2.31) rotate(-0.47)"/><rect class="cls-6" x="227.5" y="456.23" width="104.94" height="6.32" transform="translate(-3.71 2.31) rotate(-0.47)"/><rect class="cls-6" x="372.52" y="440.3" width="104.94" height="6.32" transform="translate(-3.57 3.49) rotate(-0.47)"/><rect class="cls-6" x="372.41" y="452.84" width="104.94" height="6.32" transform="translate(-3.67 3.49) rotate(-0.47)"/><rect class="cls-6" x="659.76" y="441.27" width="104.94" height="6.32" transform="translate(-3.57 5.85) rotate(-0.47)"/><rect class="cls-6" x="659.65" y="453.81" width="104.94" height="6.32" transform="translate(-3.67 5.85) rotate(-0.47)"/><circle class="cls-9" cx="237.28" cy="230.27" r="1.65"/><polygon class="cls-10" points="892.87 90.76 211.13 70.81 211.33 37.76 893.05 61.5 892.87 90.76"/><path class="cls-11" d="M841.14,74.48a3.63,3.63,0,0,1-3.59,3.67h-.11a3.86,3.86,0,0,1-3.66-3.91,3.61,3.61,0,0,1,3.56-3.66h.14A3.85,3.85,0,0,1,841.14,74.48Z" transform="translate(0.05 -0.01)"/><path class="cls-12" d="M856.22,75a3.59,3.59,0,0,1-3.52,3.66h-.15a3.83,3.83,0,0,1-3.6-3.89,3.6,3.6,0,0,1,3.5-3.7h.14A3.83,3.83,0,0,1,856.22,75Z" transform="translate(0.05 -0.01)"/><path class="cls-13" d="M871.23,75.44a3.59,3.59,0,0,1-3.53,3.65h-.13A3.82,3.82,0,0,1,864,75.21a3.59,3.59,0,0,1,3.53-3.65h.13A3.85,3.85,0,0,1,871.23,75.44Z" transform="translate(0.05 -0.01)"/><polygon class="cls-14" points="802.7 226.63 815.34 226.83 818.34 124.03 805.71 123.53 802.7 226.63"/><polygon class="cls-14" points="780.04 226.26 792.81 226.47 794.32 174.8 781.55 174.44 780.04 226.26"/><polygon class="cls-14" points="757.15 225.89 770.05 226.1 773.37 112.38 760.47 111.84 757.15 225.89"/><polygon class="cls-14" points="734.01 225.51 747.05 225.73 749.9 128.37 736.86 127.87 734.01 225.51"/><polygon class="cls-14" points="710.63 225.13 723.81 225.35 724.58 199.11 711.4 198.81 710.63 225.13"/><polygon class="cls-14" points="687 224.75 700.33 224.97 702.14 162.96 688.82 162.56 687 224.75"/><polygon class="cls-14" points="663.12 224.36 676.59 224.58 679.21 134.74 665.75 134.25 663.12 224.36"/><polygon class="cls-14" points="638.98 223.97 652.59 224.19 654.52 158.32 640.91 157.9 638.98 223.97"/><polygon class="cls-14" points="614.59 223.57 628.34 223.8 631.34 121.07 617.59 120.53 614.59 223.57"/><polygon class="cls-14" points="589.92 223.17 603.83 223.4 607.18 108.6 593.28 108.02 589.92 223.17"/><polygon class="cls-14" points="589.41 240.82 814.85 243.61 815.17 232.64 589.74 229.28 589.41 240.82"/><polygon class="cls-14" points="588.94 256.76 746.11 258.16 746.25 253.25 589.09 251.68 588.94 256.76"/><polygon class="cls-14" points="228.96 225.6 462.6 227.69 462.68 214.5 229.04 212.14 228.96 225.6"/><polygon class="cls-14" points="228.8 252.52 462.44 254.06 462.52 240.87 228.88 239.06 228.8 252.52"/><polygon class="cls-14" points="439.58 198.53 462.78 198.8 462.9 178.76 439.7 178.45 439.58 198.53"/><polygon class="cls-14" points="398.11 198.05 421.48 198.32 421.76 151.05 398.4 150.68 398.11 198.05"/><polygon class="cls-14" points="356.34 197.57 379.87 197.84 380.29 129.46 356.75 129.05 356.34 197.57"/><polygon class="cls-14" points="314.25 197.09 337.96 197.36 338.27 147.31 314.55 146.93 314.25 197.09"/><polygon class="cls-14" points="271.85 196.6 295.74 196.88 296.21 118.95 272.33 118.51 271.85 196.6"/><polygon class="cls-14" points="229.14 196.11 253.21 196.39 253.73 109.44 229.67 108.98 229.14 196.11"/><circle class="cls-1" cx="238.93" cy="55.59" r="11.54"/><path class="cls-15" d="M907.08,271.49s32.37,30.26,12.27,85.54a7.09,7.09,0,0,1-12.14,2.06l-22.16-27a19.85,19.85,0,0,1-4.3-15.48L885,288.2Z" transform="translate(0.05 -0.01)"/><path class="cls-15" d="M836.75,225.63S796,208.21,753.52,248.92a7.08,7.08,0,0,0,3,11.93l33.62,9.4a19.92,19.92,0,0,0,15.91-2.31l24.33-15.3Z" transform="translate(0.05 -0.01)"/><path class="cls-16" d="M909.64,267.56S942,297.82,921.9,353.11a7.07,7.07,0,0,1-12.13,2.06l-22.16-27a19.85,19.85,0,0,1-4.3-15.49l4.17-28.43Z" transform="translate(0.05 -0.01)"/><path class="cls-16" d="M839.31,221.7S798.56,204.29,756.07,245a7.09,7.09,0,0,0,3,11.93l33.62,9.4A19.85,19.85,0,0,0,808.62,264L833,248.72Z" transform="translate(0.05 -0.01)"/><path class="cls-1" d="M862.28,135.88c37.33-45.37,107.47-36.61,107-36.58.09,0,36.13,60.16,9.67,112.62-24,47.58-83.58,86-95,93.13-1.23.76-3.25,1.84-4.13.69-17.15-22.42-38.57-35.6-63.36-41.29-1.37-.31-1.16-2.56-1-4C817.23,247.32,828.36,177.11,862.28,135.88Z" transform="translate(0.05 -0.01)"/><path class="cls-2" d="M894.61,196.29c20.91-25.2,43.39-17.73,63.78-39.89,7.45-8.09,15.24-20.81,18.34-41.82,8.91,21.22,20.44,61.11,2.17,97.34-24,47.58-83.58,86-95,93.13-1.23.76-3.25,1.84-4.13.69a113.39,113.39,0,0,0-29.15-27.13,75.12,75.12,0,0,0,18-18.19C885,236.53,875.57,219.25,894.61,196.29Z" transform="translate(0.05 -0.01)"/><ellipse class="cls-17" cx="910.4" cy="189.38" rx="42.66" ry="47.37" transform="matrix(0.55, -0.84, 0.84, 0.55, 254.63, 848.61)"/><ellipse class="cls-15" cx="847.82" cy="285.08" rx="11.64" ry="39.4" transform="translate(146.06 839.62) rotate(-56.9)"/><path class="cls-18" d="M844,275.84,858.2,285a22.12,22.12,0,0,1,9.62,22.74l-1.63,8.38a4.44,4.44,0,0,1-5.2,3.5,4.49,4.49,0,0,1-1.57-.64l-47-30.63a4.41,4.41,0,0,1-1.3-6.11,4.36,4.36,0,0,1,1.19-1.23l7-4.87A22.06,22.06,0,0,1,844,275.84Z" transform="translate(0.05 -0.01)"/><ellipse class="cls-19" cx="837.2" cy="301.91" rx="10.98" ry="32.52" transform="translate(127.04 838.24) rotate(-56.89)"/><path class="cls-20" d="M816.45,288.35c-2.51,3.87,4.71,13,16.14,20.49s22.75,10.37,25.26,6.51-4.7-13-16.14-20.49S819,284.49,816.45,288.35Z" transform="translate(0.05 -0.01)"/><g class="cls-7"><path class="cls-21" d="M894.61,196.29c14.51-17.49,29.78-19.25,44.58-26.09,9.21,11.86,10.88,27.74,3,39.9-10.28,15.76-32.8,19.28-50.3,7.87a42,42,0,0,1-6.91-5.63A59.12,59.12,0,0,1,894.61,196.29Z" transform="translate(0.05 -0.01)"/></g><ellipse class="cls-22" cx="910.52" cy="189.14" rx="39.72" ry="44.11" transform="translate(254.78 848.49) rotate(-56.89)"/><ellipse class="cls-15" cx="910.52" cy="189.49" rx="34.07" ry="37.83" transform="translate(254.48 848.65) rotate(-56.89)"/><path class="cls-23" d="M894.61,196.29C911.67,175.73,929.78,176.91,947,166c11.08,14.79,13,34.31,3.19,49.31-12.87,19.74-41.07,24.15-63,9.87a51.75,51.75,0,0,1-5.08-3.77A59.32,59.32,0,0,1,894.61,196.29Z" transform="translate(0.05 -0.01)"/><path class="cls-24" d="M881.13,118.76S967.45,138.52,986.31,191c0,0,11.45-43.11-17.39-91.72C969,99.27,919.48,92.67,881.13,118.76Z" transform="translate(0.05 -0.01)"/><rect class="cls-6" x="238.98" y="333.26" width="83.22" height="104.64" transform="translate(-106.3 664.27) rotate(-89.72)"/><rect class="cls-6" x="372.41" y="343.98" width="104.64" height="82.4"/><path class="cls-25" d="M570.3,710.51c2.32.76,68.5.18,71-1.44,1-.61,1.43-10.25,1.68-21.92,0-2.52.09-5.12.12-7.76.19-17.17,0-35.38,0-35.38l-44.27.26,1.23,35.37.27,7.76S575.08,699,572.51,701,568,709.76,570.3,710.51Z" transform="translate(0.05 -0.01)"/><path class="cls-6" d="M570.3,710.51c2.32.76,68.5.18,71-1.44,1.16-.74,1.63-14.82,1.8-29.68l-43.06.25.27,7.76S575.08,699,572.51,701,568,709.76,570.3,710.51Z" transform="translate(0.05 -0.01)"/><path class="cls-26" d="M567.07,710.37c2.44.85,72.48,1.66,75.17,0,1-.63,1.74-10.82,2.25-23.16l-45.15-.66s-27,11.68-29.71,13.82S564.64,709.52,567.07,710.37Z" transform="translate(0.05 -0.01)"/><path class="cls-27" d="M574.43,697.3a9.43,9.43,0,0,1,7,3,9.11,9.11,0,0,1,2.55,6.29c0,.07-.13.08-.14,0a10.93,10.93,0,0,0-9.4-9.1.1.1,0,0,1,0-.19Z" transform="translate(0.05 -0.01)"/><path class="cls-27" d="M595,687c4.7,0,10.13,1.72,13,5.59.11.15-.1.31-.24.24A65.46,65.46,0,0,0,595,687.64.31.31,0,0,1,595,687Z" transform="translate(0.05 -0.01)"/><path class="cls-27" d="M591.39,688.44c4.7,0,10.13,1.71,13,5.58.11.15-.11.31-.24.24A65.41,65.41,0,0,0,591.31,689a.3.3,0,0,1-.26-.34.31.31,0,0,1,.34-.25Z" transform="translate(0.05 -0.01)"/><path class="cls-27" d="M587.75,689.81c4.7,0,10.13,1.71,13,5.59.11.15-.1.3-.24.23a65.32,65.32,0,0,0-12.85-5.25.29.29,0,0,1-.21-.35A.29.29,0,0,1,587.75,689.81Z" transform="translate(0.05 -0.01)"/><path class="cls-27" d="M584.11,691.18c4.7,0,10.12,1.71,13,5.59.11.15-.1.3-.24.23A64.68,64.68,0,0,0,584,691.76a.3.3,0,0,1-.17-.39A.29.29,0,0,1,584.11,691.18Z" transform="translate(0.05 -0.01)"/><path class="cls-27" d="M642.12,710.42s2.29-3.94,1.73-11.35c0,0-50,7.37-77.64,6.47,0,0-.67,3.06.22,4.48S625.67,711.66,642.12,710.42Z" transform="translate(0.05 -0.01)"/><path class="cls-27" d="M574.47,697.6s7.57,1.66,7.34,8.38l1.89-.14S582.62,697,574.47,697.6Z" transform="translate(0.05 -0.01)"/><path class="cls-25" d="M689.16,710.31c2.43-.24,62.8-27.38,64.45-29.87.63-.94-2.81-10-7.28-20.74-1-2.33-2-4.73-3-7.16-6.73-15.79-14.23-32.39-14.23-32.39l-40.44,18L704,670l3.36,7s-18.47,20.72-20,23.65S686.74,710.55,689.16,710.31Z" transform="translate(0.05 -0.01)"/><path class="cls-6" d="M689.16,710.31c2.43-.24,62.8-27.38,64.45-29.87.76-1.15-4.48-14.23-10.29-27.9L704,670l3.36,7s-18.47,20.72-20,23.65S686.74,710.55,689.16,710.31Z" transform="translate(0.05 -0.01)"/><path class="cls-26" d="M686.15,711.47c2.57-.2,67-27.61,68.83-30.21.69-1-2.76-10.6-7.25-22.11L706.12,676.7s-20,21.53-21.65,24.59S683.58,711.67,686.15,711.47Z" transform="translate(0.05 -0.01)"/><path class="cls-27" d="M687.63,696.55a9.42,9.42,0,0,1,7.59-.11,9.11,9.11,0,0,1,4.87,4.74c0,.06-.1.12-.14.05a10.9,10.9,0,0,0-12.26-4.55.08.08,0,0,1-.1,0A.08.08,0,0,1,687.63,696.55Z" transform="translate(0.05 -0.01)"/><path class="cls-27" d="M702.39,678.89c4.3-1.9,10-2.5,14.15-.11.16.09,0,.32-.13.31a65.65,65.65,0,0,0-13.87.36.29.29,0,0,1-.15-.56Z" transform="translate(0.05 -0.01)"/><path class="cls-27" d="M699.6,681.61c4.3-1.9,10-2.5,14.16-.11.16.09,0,.32-.13.31a65,65,0,0,0-13.87.37.3.3,0,0,1-.33-.27A.28.28,0,0,1,699.6,681.61Z" transform="translate(0.05 -0.01)"/><path class="cls-27" d="M696.82,684.33c4.3-1.9,10-2.5,14.15-.11.16.1,0,.33-.13.31a65,65,0,0,0-13.87.37.3.3,0,0,1-.15-.57Z" transform="translate(0.05 -0.01)"/><path class="cls-27" d="M694,687c4.3-1.9,10-2.5,14.16-.11.16.1,0,.33-.13.31a65.07,65.07,0,0,0-13.88.37A.3.3,0,0,1,694,687Z" transform="translate(0.05 -0.01)"/><path class="cls-27" d="M754.89,681.35s.51-4.53-3-11.09c0,0-42.82,26.85-68.49,37.14,0,0,.61,3.07,2,4S740.32,689.1,754.89,681.35Z" transform="translate(0.05 -0.01)"/><path class="cls-27" d="M687.79,696.8s7.6-1.52,10.09,4.73l1.68-.89S695,693,687.79,696.8Z" transform="translate(0.05 -0.01)"/><path class="cls-28" d="M638.11,406.73c-7.28,3.47-32.74,10-43.33,3-9.49-6.33-10.29-51.8-6.33-66.37,1.39-5.12,21.59,4.68,23.73,9,1.84,3.7-1.16,38,.31,38.77,2.47,1.27,10.48,2.22,23.25,4C647.76,396.76,643.23,404.29,638.11,406.73Z" transform="translate(0.05 -0.01)"/><path class="cls-27" d="M612.7,367.34l-27-12.78s-4.65,46.28,8.54,56c3,2.25,23.29,6,42.37-2.18,5.9-2.53,15.07-11.25-2.47-14s-20.74-3.76-21.06-4.19S612.7,367.34,612.7,367.34Z" transform="translate(0.05 -0.01)"/><g class="cls-29"><path class="cls-27" d="M599.69,377.4a2.34,2.34,0,0,0,3.21-.28c1.54-1.75.79-4.73,0-6.71s-2.22-4.13-4.53-4.49a1.84,1.84,0,0,0-2,2.38c.32,1.52,1.12,2.93,1.52,4.45S598.2,376.3,599.69,377.4Z" transform="translate(0.05 -0.01)"/><path class="cls-27" d="M602.36,386.71c1.35-.73,1.59-2.7,1.58-4.07a3.8,3.8,0,0,0-.62-2.1,1.94,1.94,0,0,0-2.65-.71h0a2.52,2.52,0,0,0-1,1.65,5.58,5.58,0,0,0-.12,1v.19a6.34,6.34,0,0,0-.16,3.06,2,2,0,0,0,2.57,1.18A2.63,2.63,0,0,0,602.36,386.71Z" transform="translate(0.05 -0.01)"/><path class="cls-27" d="M609.66,383.56a12.42,12.42,0,0,0,.6-7.59c-.39-2-1.16-5.31-3.48-5.84a1.22,1.22,0,0,0-1.27.65c-.93,1.52,0,4.14.17,5.79.18,2.09,0,4.2.19,6.29a2,2,0,0,0,3.79.7Z" transform="translate(0.05 -0.01)"/><path class="cls-27" d="M596.83,394a2.73,2.73,0,0,0,1.06.5,2.37,2.37,0,0,0,1.72-.37,3.75,3.75,0,0,0,1.19-1.43,3.66,3.66,0,0,0,.34-1.72,3.45,3.45,0,0,0-.11-.54l-.26-.51a2.08,2.08,0,0,0-1.11-.8,2.12,2.12,0,0,0-2.26.64,9.44,9.44,0,0,0-1.17,1.5l-.18.56a1.64,1.64,0,0,0,0,.88A2.23,2.23,0,0,0,596.83,394Z" transform="translate(0.05 -0.01)"/><path class="cls-27" d="M604,393.31a1.94,1.94,0,0,0,2.23-.49,4.69,4.69,0,0,0,1-2.25,4,4,0,0,0-.07-2.28,1.5,1.5,0,0,0-1.92-.88,1.61,1.61,0,0,0-.59.41,7.77,7.77,0,0,0-.86,1.64,6.8,6.8,0,0,1-.38.7,5.6,5.6,0,0,0-.42,1.12A1.86,1.86,0,0,0,604,393.31Z" transform="translate(0.05 -0.01)"/></g><path class="cls-27" d="M586.43,361.49c2.24.71,4.4,1.74,6.56,2.67s4.26,1.84,6.37,2.79c4.28,1.9,8.63,3.72,12.77,5.9.1,0,0,.2-.06.16-4.48-1.49-8.82-3.45-13.14-5.34-2.17-.95-4.33-1.93-6.46-2.94a58.59,58.59,0,0,1-6.13-3.09C586.25,361.59,586.34,361.46,586.43,361.49Z" transform="translate(0.05 -0.01)"/><path class="cls-30" d="M636.59,408.42c-19.07,8.16-39.34,4.43-42.37,2.18-6.11-4.53-8.39-16.91-9.08-28.9L613,388a14,14,0,0,0,.15,2.24c.32.44,3.51,1.42,21,4.19S642.49,405.89,636.59,408.42Z" transform="translate(0.05 -0.01)"/><path class="cls-31" d="M658,471S646.5,584.76,646.23,586.2c0,.19-.13,2.38-.24,6-.62,19.59-2.15,80.67-2.15,80.67H597s3.06-72.34,4.83-89.22C604,562,618.09,471,618.09,471Z" transform="translate(0.05 -0.01)"/><path class="cls-32" d="M658,471S646.5,584.76,646.23,586.2c0,.19-.13,2.38-.24,6L623.87,471Z" transform="translate(0.05 -0.01)"/><path class="cls-31" d="M618.09,471s3.1,16.44,14.56,24.8c0,0,25.29,84.61,28.57,94.31,5.67,16.72,36.1,73.36,36.1,73.36l47-20.16s-35.83-63.1-39.7-68c-2.57-3.23-21.59-71.81-21.62-73.59-.4-20.15-7.16-30.86-7.16-30.86Z" transform="translate(0.05 -0.01)"/><path class="cls-32" d="M656.09,476.93a15.67,15.67,0,0,0,5.75,8.24,19.39,19.39,0,0,0,10.43,3.58.5.5,0,0,1,0,1c-7.65,0-15.39-4.85-16.51-12.78a.17.17,0,0,1,.15-.19A.17.17,0,0,1,656.09,476.93Z" transform="translate(0.05 -0.01)"/><path class="cls-27" d="M625.31,490.56a42.2,42.2,0,0,1,7.91,4.2c2.62,1.62,5,3.53,7.59,5.28.09.07,0,.23-.1.17-2.65-1.53-5.43-2.86-8.06-4.44a51.93,51.93,0,0,1-7.46-5C625.11,490.69,625.19,490.52,625.31,490.56Z" transform="translate(0.05 -0.01)"/><path class="cls-32" d="M624.23,474.6c.41,1.76.92,3.49,1.38,5.23s.78,3.3,1.29,4.91a8.34,8.34,0,0,0,2.5,4.05c.67.58,1.41,1.08,2.12,1.59.39.28.8.55,1.2.83-.06-.23-.11-.46-.16-.7-.15-.67-.29-1.33-.44-2-.32-1.48-.62-3-.92-4.44-.58-2.91-1.13-5.86-1.87-8.73a.09.09,0,0,1,.18-.06h0c.86,2.85,1.8,5.66,2.56,8.53.38,1.41,1.82,8.39,1.89,8.88s.14,1,.18,1.54a6,6,0,0,1,.07,1.58.12.12,0,0,1-.15.08.11.11,0,0,1-.08-.08h0a6.28,6.28,0,0,1-.52-1.51c-.15-.49-.29-1-.4-1.5a2.77,2.77,0,0,0-.11-.56,21.22,21.22,0,0,1-2-1.36c-.62-.44-1.45-.93-2.14-1.45a8,8,0,0,1-2.7-3.83,29.46,29.46,0,0,1-1.06-5c-.31-2-.57-4-.94-6C624,474.54,624.2,474.48,624.23,474.6Z" transform="translate(0.05 -0.01)"/><path class="cls-32" d="M672.77,472.9a39,39,0,0,1,6.5,21,34.51,34.51,0,0,1-.4,5.56c-.08.45-.14.92-.24,1.37l-.15.68a2.33,2.33,0,0,0-.08.59c.11.85.34,1.77.54,2.66.85,3.58,1.79,7.14,2.74,10.71,3.82,14.24,7.7,28.48,11.77,42.65l3.07,10.62c.52,1.77,1,3.54,1.61,5.28.28.87.57,1.76.89,2.57a21.21,21.21,0,0,0,1.23,2.42c3.47,6.48,7.23,12.85,10.86,19.26,0,0,18.51,31.1,22.32,38.27.18.33.09.55-.25.1-3.31-4.31-15.37-25.19-22.88-37.89-3.77-6.35-7.48-12.72-11-19.22-.45-.8-.86-1.66-1.28-2.5a19.08,19.08,0,0,1-.94-2.66c-.58-1.76-1.12-3.52-1.65-5.29q-1.59-5.31-3.11-10.63c-4-14.21-7.89-28.44-11.48-42.76-.9-3.58-1.79-7.16-2.58-10.77-.19-.92-.4-1.79-.51-2.77a2.57,2.57,0,0,1,.1-.78l.15-.67c.11-.45.17-.9.26-1.35a37.05,37.05,0,0,0,.49-5.46A39,39,0,0,0,672.77,472.9Z" transform="translate(0.05 -0.01)"/><path class="cls-30" d="M679.63,477.4l-65.34.44c0,1.28,3.3-51.2,20.06-82.17,1.14-2.11,11.39-4.44,16-.3C670.26,413.53,679.63,478.23,679.63,477.4Z" transform="translate(0.05 -0.01)"/><path class="cls-25" d="M640.13,404.93c2.57-.33,7-6,8.42-10.41.09-.3-.89-3.07-1.93-6.49-.63-2.09-1.27-4.42-1.71-6.59l-12.94,6a35.32,35.32,0,0,1,3,8.07,4.6,4.6,0,0,1,.08.91.38.38,0,0,1,0,.15C635.11,398.35,636.1,405.45,640.13,404.93Z" transform="translate(0.05 -0.01)"/><path class="cls-33" d="M635,396.45v.16a11.3,11.3,0,0,0,1.42-.21c7.85-1.76,7.87-11.85,7.72-14.61L632,387.48a35.71,35.71,0,0,1,3,8.06A7,7,0,0,1,635,396.45Z" transform="translate(0.05 -0.01)"/><path class="cls-25" d="M646.06,366.84c1.64,4.88-.58,19.16-4,22.42-5,4.73-13.24,5.4-17.31-.59-3.94-5.81-.73-24.37,3.1-27.36C633.5,356.91,643.64,359.63,646.06,366.84Z" transform="translate(0.05 -0.01)"/><path class="cls-27" d="M633.27,375.78s.07.06.06.1c-.22.95-.3,2.07.5,2.56h0C632.78,378.14,633,376.65,633.27,375.78Z" transform="translate(0.05 -0.01)"/><path class="cls-27" d="M634.32,375c1.56.18,1.08,3.29-.36,3.12S633,374.8,634.32,375Z" transform="translate(0.05 -0.01)"/><path class="cls-27" d="M628,374.77s-.09,0-.09.07c-.12,1-.42,2.06-1.34,2.24v.06C627.56,377.15,628,375.7,628,374.77Z" transform="translate(0.05 -0.01)"/><path class="cls-27" d="M627.19,373.63c-1.53-.35-2.13,2.73-.71,3.06S628.47,373.93,627.19,373.63Z" transform="translate(0.05 -0.01)"/><path class="cls-27" d="M632.77,385.29c-.25.18-.52.44-.85.42a2.55,2.55,0,0,1-1-.39h0A1.25,1.25,0,0,0,632,386a1,1,0,0,0,.84-.7S632.8,385.26,632.77,385.29Z" transform="translate(0.05 -0.01)"/><path class="cls-25" d="M643.34,378.5s3.18-4.62,5.27-3.49-.27,7.81-2.71,8.74a2.49,2.49,0,0,1-3.31-1.21l0-.1Z" transform="translate(0.05 -0.01)"/><path class="cls-34" d="M647.89,376.29v.06a6.34,6.34,0,0,0-3.23,4,1.38,1.38,0,0,1,1.88-.52l.18.12a.06.06,0,0,1,0,.08s0,0,0,0a1.53,1.53,0,0,0-1.68.54,8.17,8.17,0,0,0-.8,1.37c-.08.16-.35.08-.3-.1h0C643.86,379.6,645.54,376.53,647.89,376.29Z" transform="translate(0.05 -0.01)"/><path class="cls-35" d="M638,371.9a3.8,3.8,0,0,0-2.63-.88,3.78,3.78,0,0,1-2.62-.87s0,1.75.87,1.75S636.24,371,638,371.9Z" transform="translate(0.05 -0.01)"/><path class="cls-36" d="M643.59,380.35s-.1-.49-2.21,1.94c-1,1.1-2.11,2.85-3.5,2.42-1.57-.48-3.62-2-6-1.36-4.08,1-8.08-2.88-8.87-.51-.63,1.87,1.87,7.08,3.38,9.37a3.54,3.54,0,0,0,3.1,1.6c2.22-.08,5.75-.31,7.53-1,2.72-1,6.11-2.11,7.47-5.26S643.59,384.56,643.59,380.35Z" transform="translate(0.05 -0.01)"/><path class="cls-25" d="M626,387.21a1.24,1.24,0,0,1,1.14-1.34h2.73c1.89,0,5.4.52,5.48.91.2,1,.2,4.77-7.38,2.87A2.77,2.77,0,0,1,626,387.21Z" transform="translate(0.05 -0.01)"/><path class="cls-27" d="M627.64,385.6a7.47,7.47,0,0,0,6,.37S630.36,389.22,627.64,385.6Z" transform="translate(0.05 -0.01)"/><path class="cls-34" d="M629.06,377.69s-2.25,3.38-1.5,4.13,4.87,0,4.87,0,1.12-.75-1.88-.38S628,381,628,381A8.79,8.79,0,0,1,629.06,377.69Z" transform="translate(0.05 -0.01)"/><path class="cls-37" d="M643.59,380.35s-.71-.67-3.78,3.71-1.83,5-3.69,7.5c-1.35,1.79-.62,1.28-5.29,2.19A20.29,20.29,0,0,0,643,389.69s2.57-2.55,1.87-4.39S643.59,382.84,643.59,380.35Z" transform="translate(0.05 -0.01)"/><path class="cls-35" d="M632.79,370.76s0,1.36,1,1.12a21.16,21.16,0,0,1,2.23-.37S633.82,371.75,632.79,370.76Z" transform="translate(0.05 -0.01)"/><path class="cls-35" d="M624.24,371.89a3.86,3.86,0,0,1,2.63-.88,3.92,3.92,0,0,0,2.63-.87s0,1.75-.88,1.75S626,371,624.24,371.89Z" transform="translate(0.05 -0.01)"/><path class="cls-35" d="M629.44,370.75s0,1.37-1,1.12c-.73-.16-1.47-.28-2.22-.37C626.22,371.5,628.41,371.74,629.44,370.75Z" transform="translate(0.05 -0.01)"/><path class="cls-14" d="M617.21,454.38A147.56,147.56,0,0,0,648,419.66s-.43,14.56-31.79,41.75Z" transform="translate(0.05 -0.01)"/><path class="cls-14" d="M608,408.39v5.12s16.27-1,19.38-2.05c0,0,3.11-6.14,6.22-8.19,0,0-16.27,4.1-25.6,1Z" transform="translate(0.05 -0.01)"/><path class="cls-38" d="M627.44,412.64s10.23-7.32,18.42-7.32c0,0-8.3,1.75-23.09,10.6Z" transform="translate(0.05 -0.01)"/><path class="cls-38" d="M604.6,427.56s9.51,2.34,9.51,8.48a13.32,13.32,0,0,0-4-11.25S607.38,427.27,604.6,427.56Z" transform="translate(0.05 -0.01)"/><polyline class="cls-32" points="642.83 570.17 637.82 672.81 643.85 672.56 646.48 584.4"/><path class="cls-25" d="M648.12,411.85c-4.07,8.73-22.78,42-35.44,43.29-15.34,1.61-34.85-1.82-43.36-6-4.77-2.32,7.62-25.65,12.16-24.1,7.17,2.44,21.13,3.65,23.9,3.86s22.15-14.5,32.94-22.56C648,399.13,650.52,406.7,648.12,411.85Z" transform="translate(0.05 -0.01)"/><path class="cls-30" d="M587.31,425.18l-10.44,28.9s27.25,5.73,38.18,1.63,25.34-25.6,32.21-38.13,3.24-23.1-14.35-9.11-26.09,19.37-27.32,19.62S587.31,425.18,587.31,425.18Z" transform="translate(0.05 -0.01)"/><path class="cls-14" d="M583.06,454.1a68.94,68.94,0,0,1,2.18-6.75q1.13-3.28,2.3-6.56c1.59-4.41,3.07-8.88,4.94-13.17a.07.07,0,0,1,.1-.05.08.08,0,0,1,.06.1c-1.15,4.58-2.78,9.05-4.34,13.5q-1.18,3.34-2.45,6.66a62.67,62.67,0,0,1-2.63,6.34C583.17,454.27,583,454.19,583.06,454.1Z" transform="translate(0.05 -0.01)"/><path class="cls-14" d="M587.23,424.89c2.71.28,13.48,2.39,16.19,2.66a5.6,5.6,0,0,0,3.49-.72c1.17-.66,20.66-14.2,22.82-15.83.08-.06.2.07.11.14-2.26,1.61-17.39,13.08-19.72,14.7a26.3,26.3,0,0,1-3.24,2.09,5.15,5.15,0,0,1-3.41.38c-2.56-.5-12.55-2.4-16.06-3-.06,0-.57,1.28-.64,1.26h-.14A5.53,5.53,0,0,1,587.23,424.89Z" transform="translate(0.05 -0.01)"/><path class="cls-14" d="M627.44,412.64s10.23-6.3,18.42-7.32c0,0-15.36,5.87-24.58,11.64Z" transform="translate(0.05 -0.01)"/><path class="cls-39" d="M828.68,329.23c-2.16,2.33-4.57,5.11-6.8,7.78s-4.5,5.43-6.67,8.22c-4.36,5.57-8.59,11.27-12.54,17.12A229.4,229.4,0,0,0,782,398.89c-10.92,25.32-15.7,54.09-8.74,80.87a98.42,98.42,0,0,0,18.86,36.79c8.77,11,19.94,20.15,32,27.92a207.76,207.76,0,0,0,39,19,329.56,329.56,0,0,0,42,12.31,330.65,330.65,0,0,1-43-9.42A212.11,212.11,0,0,1,821,549.77c-13-7.17-25.49-15.94-35.81-27.18a108.86,108.86,0,0,1-23.63-39.25,122.54,122.54,0,0,1-5.85-45.86,162.56,162.56,0,0,1,3-22.94A187.21,187.21,0,0,1,765,392.23,248.07,248.07,0,0,1,784.6,351c3.8-6.56,7.88-12.92,12.11-19.19,2.11-3.14,4.29-6.23,6.53-9.3s4.43-6,7-9.26Z" transform="translate(0.05 -0.01)"/><path class="cls-39" d="M791.74,399.84c-2.47,8.6-4.67,17.12-6.51,25.69-.85,4.29-1.73,8.56-2.33,12.87s-1.17,8.58-1.43,12.9A100.19,100.19,0,0,0,782.65,477a71.87,71.87,0,0,0,3.57,12.36A74,74,0,0,0,792.3,501a46.53,46.53,0,0,1-8.75-10.33A55,55,0,0,1,778,478.13a76,76,0,0,1-2.65-27.21,114.17,114.17,0,0,1,5.26-26.57A107.16,107.16,0,0,1,791.74,399.84Z" transform="translate(0.05 -0.01)"/><path class="cls-39" d="M792.2,328c-5.42,8.23-10.34,16.6-14.87,25.15a248.51,248.51,0,0,0-12.08,26.28c-1.94,4.41-3.33,9-5,13.54-1.37,4.61-2.92,9.18-4,13.88-2.63,9.32-4.08,18.88-5.86,28.61a113.77,113.77,0,0,1,1.21-29.6l.57-3.69c.19-1.23.56-2.42.83-3.63l1.76-7.25c1.53-4.73,2.93-9.52,4.84-14.11s4-9.13,6.15-13.58l3.59-6.52c1.25-2.15,2.59-4.24,3.92-6.33A114.43,114.43,0,0,1,792.2,328Z" transform="translate(0.05 -0.01)"/><path class="cls-14" d="M802,461.86l1,1.45a10.37,10.37,0,0,0,4.5,3.68l1.62.69-1.45,1a10.37,10.37,0,0,0-3.68,4.5l-.69,1.62-1-1.46a10.31,10.31,0,0,0-4.5-3.68l-1.62-.69,1.46-1a10.37,10.37,0,0,0,3.68-4.5Z" transform="translate(0.05 -0.01)"/><path class="cls-14" d="M819,381.17l1.83,2.66a18.88,18.88,0,0,0,8.23,6.74l3,1.26-2.66,1.82a19,19,0,0,0-6.74,8.24l-1.26,3-1.82-2.66a18.85,18.85,0,0,0-8.24-6.74l-3-1.26,2.67-1.82a19.1,19.1,0,0,0,6.74-8.24Z" transform="translate(0.05 -0.01)"/><path class="cls-14" d="M843.35,418l2.46,3.59a25.59,25.59,0,0,0,11.1,9.09l4,1.69-3.59,2.46a25.59,25.59,0,0,0-9.09,11.1l-1.7,4-2.45-3.59a25.59,25.59,0,0,0-11.1-9.09l-4-1.7,3.59-2.45a25.59,25.59,0,0,0,9.09-11.1Z" transform="translate(0.05 -0.01)"/><rect class="cls-6" x="229.79" y="482.26" width="104.64" height="83.22" transform="translate(-2.41 1.33) rotate(-0.27)"/><rect class="cls-6" x="373.85" y="480.89" width="104.64" height="82.4" transform="translate(-4.94 4.11) rotate(-0.55)"/><rect class="cls-6" x="229.6" y="579.18" width="104.94" height="6.32" transform="translate(-12.08 6.03) rotate(-1.2)"/><rect class="cls-6" x="229.65" y="591.71" width="104.94" height="6.32" transform="translate(-12.34 6.03) rotate(-1.2)"/><rect class="cls-6" x="374.52" y="576.32" width="104.94" height="6.32" transform="matrix(1, -0.02, 0.02, 1, -10.79, 8.14)"/><rect class="cls-6" x="374.56" y="588.85" width="104.94" height="6.32" transform="matrix(1, -0.02, 0.02, 1, -11.03, 8.15)"/><g class="cls-7"><polygon class="cls-8" points="227.89 427.65 268.47 369.8 312.51 427.65 227.89 427.65"/><polyline class="cls-8" points="332.37 427.65 284.86 427.65 307.65 395.17"/><circle class="cls-8" cx="298.38" cy="366.2" r="9.04"/></g><g class="cls-7"><polygon class="cls-8" points="373.07 426.72 413.65 368.87 457.69 426.72 373.07 426.72"/><polyline class="cls-8" points="477.55 426.72 430.04 426.72 452.82 394.24"/><circle class="cls-8" cx="443.56" cy="365.27" r="9.04"/></g><g class="cls-7"><polygon class="cls-8" points="230.09 566.35 270.03 508.06 314.7 565.42 230.09 566.35"/><polyline class="cls-8" points="334.56 565.21 287.05 565.73 309.48 533"/><circle class="cls-8" cx="299.9" cy="504.13" r="9.04"/></g><g class="cls-7"><polygon class="cls-8" points="373.89 563.5 414.47 505.64 458.51 563.5 373.89 563.5"/><polyline class="cls-8" points="478.37 563.5 430.86 563.5 453.65 531.02"/><circle class="cls-8" cx="444.38" cy="502.04" r="9.04"/></g><rect class="cls-6" x="508.47" y="344.41" width="104.64" height="82.4"/><g class="cls-7"><polygon class="cls-8" points="509.12 427.16 549.7 369.3 593.74 427.16 509.12 427.16"/><polyline class="cls-8" points="613.01 427.29 565.5 427.29 588.29 394.81"/><circle class="cls-8" cx="579.61" cy="365.7" r="9.04"/></g><path class="cls-25" d="M566.26,424.65c1.69-.06,1.67-.95-.77-2.72S552,415.25,554,411.51s17.66,3.42,21.49,6.67,8.89,9.85,8.89,9.85C581,427.24,572.79,426.11,566.26,424.65Z" transform="translate(0.05 -0.01)"/><path class="cls-25" d="M576.37,451.66c-9.53-2.38-21.41-5.14-29-12.92a5.42,5.42,0,0,1-1.57-3.15c-3.44-3.43-2.86-6.09-2.86-6.09-2.23-4.17-1.26-6.81-1.26-6.81s-4-4.07-1.94-6.9c2.3-3.17,7.47,3.16,12.44,4.91,11.4,4,28.72,6.5,32.12,7.33Z" transform="translate(0.05 -0.01)"/><path class="cls-25" d="M561.22,433.29a54.55,54.55,0,0,1-19.37-10.61c-.09-.08-.2.05-.12.14a41,41,0,0,0,19.44,10.62C561.33,433.48,561.39,433.35,561.22,433.29Z" transform="translate(0.05 -0.01)"/><path class="cls-25" d="M559.81,440.52c-3.18-1.39-8.74-3.87-16.75-11.1h0a36.83,36.83,0,0,0,16.73,11.21C560,440.74,560,440.61,559.81,440.52Z" transform="translate(0.05 -0.01)"/><path class="cls-25" d="M559,444.39c-5.3-2.57-8.33-4.86-13.09-8.8h0c5,5,7.32,6.32,13.08,9C559.11,444.68,559.18,444.49,559,444.39Z" transform="translate(0.05 -0.01)"/><path class="cls-33" d="M540.85,421.65s7.73,7.22,18,7.22c0,0-8,1.38-17.3-4.94" transform="translate(0.05 -0.01)"/><path class="cls-33" d="M542.72,429s5.86,6,14.06,4c0,0-5.09,4.1-13.81-2.56" transform="translate(0.05 -0.01)"/><path class="cls-33" d="M545.33,435s3.25,5.08,11.45,3C556.78,438.09,549.25,442.25,545.33,435Z" transform="translate(0.05 -0.01)"/><path class="cls-25" d="M614.32,364.2c.78-4.42,4.12-10.57,3.62-13.87a3.84,3.84,0,0,0-3.12-3.34s2.75-2.47,1.8-5.39c-.48-1.5-3.31-2.05-3.31-2.05s2.12-2.07,1.12-4.62c-.8-2-3.51-2.27-3.51-2.27s1.1-2.94-.37-4.74c-3-3.67-21,1.3-22,8.71-.45,3.46,3.89,2,3.89,2s-5.74,3.6-4.81,7.35,6.46,1.51,6.46,1.51-5.53,3.54-4.18,7.32c1.41,4,6.56.77,6.56.77s-3.27,3.83-1.57,6.49c2.81,4.39,8.75-3.74,13-3.89l4,5.93Z" transform="translate(0.05 -0.01)"/><path class="cls-25" d="M616.37,357.52c-.37,4.25,5.72,7.7,5.94,11.82.31,5.57-7,2.05-10.44-5.23L610.21,358Z" transform="translate(0.05 -0.01)"/><path class="cls-25" d="M610.51,332.45c.07,0,.06-.1,0-.1a32.45,32.45,0,0,0-18.28,6.22c-.17.13,0,.45.17.35A66.3,66.3,0,0,1,610.51,332.45Z" transform="translate(0.05 -0.01)"/><path class="cls-25" d="M613.39,339.49c.07,0,0-.13,0-.13-6.53.23-14.23,2.86-19.52,8-.18.18-.17.52.06.33C597.67,344.55,607.44,340.59,613.39,339.49Z" transform="translate(0.05 -0.01)"/><path class="cls-25" d="M596.21,356.08c5.26-4.76,11.53-7.35,18.34-9.09.09,0,0-.15,0-.15-3.57-.06-7.8,1.5-11,3a18.83,18.83,0,0,0-7.5,6.05C596,356,596.1,356.18,596.21,356.08Z" transform="translate(0.05 -0.01)"/><path class="cls-33" d="M612,332.9s-8.13.75-12.23,3.82c0,0,2.3-3.83,11.39-5" transform="translate(0.05 -0.01)"/><path class="cls-33" d="M614.45,339.88s-8.53,2-11.6,5a22.35,22.35,0,0,1,11-6" transform="translate(0.05 -0.01)"/><path class="cls-33" d="M615.87,347.35s-5.85.63-10,3.7c0,0,2.86-3.6,9.62-4.87" transform="translate(0.05 -0.01)"/><path class="cls-33" d="M617,355.64s-6,3.6-9,2.58l.51.85s4.82,1.37,7.79-.76Z" transform="translate(0.05 -0.01)"/><circle class="cls-40" cx="602.96" cy="448.69" r="2.3"/><circle class="cls-40" cx="637.99" cy="417.32" r="2.47"/><circle class="cls-40" cx="614.34" cy="437.9" r="4.84"/><circle class="cls-40" cx="632.11" cy="464" r="3.26"/><circle class="cls-40" cx="661.4" cy="447.04" r="4.02"/><circle class="cls-40" cx="627.29" cy="427.58" r="2.94"/><path class="cls-40" d="M664.3,418.83a4.69,4.69,0,0,1-3.73-8.48C661.9,413,663.14,415.85,664.3,418.83Z" transform="translate(0.05 -0.01)"/><path class="cls-40" d="M662.52,429.46a4.1,4.1,0,0,1,3.42-6c.84,2.47,1.67,5,2.48,7.55a2.71,2.71,0,0,1-.37.21A4.1,4.1,0,0,1,662.52,429.46Z" transform="translate(0.05 -0.01)"/><circle class="cls-40" cx="654.83" cy="434.27" r="2.94"/><circle class="cls-40" cx="643.99" cy="449.88" r="3.6"/><circle class="cls-40" cx="662.11" cy="467.26" r="2.99"/><path class="cls-41" d="M-28.23-314.44" transform="translate(0.05 -0.01)"/></svg>