<svg id="Layer_1" data-name="Layer 1" xmlns="http://www.w3.org/2000/svg" viewBox="0 0 950.82 875.99"><defs><style>.cls-1{fill:#c7c7e2;opacity:0.28;}.cls-2{fill:#b4b4ef;}.cls-3,.cls-5{fill:#8f8fcc;}.cls-32,.cls-39,.cls-4,.cls-51,.cls-53{isolation:isolate;}.cls-4{font-size:78.71px;font-family:CambriaMath, Cambria Math;}.cls-11,.cls-4,.cls-53{fill:#fff;}.cls-5{fill-rule:evenodd;}.cls-6{fill:#ffaba1;}.cls-7{fill:#ffbf9d;}.cls-8{fill:#c17e67;}.cls-9{fill:#385b64;}.cls-10{fill:#2b444e;}.cls-12{fill:#333;}.cls-13{fill:#1a2e35;}.cls-14{fill:#d1945d;}.cls-15{fill:#c18859;}.cls-16{fill:#ffc800;}.cls-17{fill:#4d4d4d;}.cls-18{fill:#2d2d2d;}.cls-19{fill:#6666c9;}.cls-20{fill:#dd9373;}.cls-21{fill:#89705d;}.cls-22{fill:#412d70;}.cls-23{fill:#b7845e;}.cls-24{fill:#5252ba;}.cls-25{fill:#260e08;}.cls-26{fill:#ff4e6c;}.cls-27{fill:#ea476a;}.cls-28{fill:#16282d;}.cls-29{fill:#203391;}.cls-30{fill:#385962;}.cls-31,.cls-32{fill:#152428;}.cls-32{opacity:0.74;}.cls-33{fill:#c6c1df;}.cls-34{fill:#9a97bf;}.cls-35,.cls-40,.cls-51{fill:#fafafa;}.cls-36,.cls-37,.cls-38,.cls-41,.cls-42,.cls-48,.cls-49{fill:none;}.cls-36{stroke:#fafafa;}.cls-36,.cls-37,.cls-38,.cls-40,.cls-41,.cls-42,.cls-48,.cls-49{stroke-miterlimit:10;}.cls-37{stroke:#c8c8c8;}.cls-38,.cls-48{stroke:#ccc;}.cls-39{opacity:0.1;}.cls-40{stroke:#fff;}.cls-41,.cls-42{stroke:#1a2e35;stroke-width:0.75px;}.cls-42{stroke-dasharray:4.1 5.12;}.cls-43{fill:#72b4fc;}.cls-44{fill:#f5f5f5;}.cls-45{fill:#dd194c;}.cls-46{fill:#9ec8fe;}.cls-47{fill:#ccc;}.cls-48,.cls-49{stroke-width:2px;}.cls-49{stroke:#f4f4f4;}.cls-50{fill:#263238;}.cls-51{opacity:0.67;}.cls-52{fill:#1a2e36;}.cls-53{opacity:0.6;}.cls-54{fill:#e23359;}.cls-55{fill:#ff8772;}</style></defs><title>webdesignillusztracio2</title><path class="cls-1" d="M794.74,755.21c17.53-12.78,49.41-36.69,53.78-73,4.3-35.84-22.56-47-25.43-87.05-3.85-54,42.54-67.25,54.76-130.07C890.2,401.62,856.44,345.18,845.58,327c-34-56.93-68.14-55.94-139.82-116.06-92.38-77.48-9.13-130.06-77.23-174.67s-239.82-50-314.87-4.47c-46.24,28.08-27,52.05-110.49,159.09-60.67,77.83-88.65,88-103.65,143.07-3.87,14.22-23,84.41,11.74,138.08,30.58,47.25,74.29,37.48,90,79,16.35,43.39-24.36,72.36-16.63,122.07,8.59,55.17,69.43,88,111.47,110C490.91,885.2,709.08,817.69,794.74,755.21Z" transform="translate(-0.03 -0.14)"/><ellipse class="cls-2" cx="496.48" cy="822.99" rx="305" ry="53"/><rect class="cls-3" x="137.01" y="245.99" width="89" height="89" rx="7.93"/><text class="cls-4" transform="translate(158.97 320.05)">T</text><polygon class="cls-5" points="500.85 477.65 503.07 426.11 435.59 426.11 438.37 477.5 500.85 477.65"/><path class="cls-6" d="M259.71,462.32c6.11,8.9,32.14,37.29,42.39,36.36,16.06-1.44,32.92-9.43,42.26-13.55,3-1.3-10.53-29.69-15.95-26.53-7,4.09-21.43,10-25.63,10.69-2.87.45-21.89-10.37-35.16-17.8C256.55,445.3,252,451,259.71,462.32Z" transform="translate(-0.03 -0.14)"/><path class="cls-7" d="M323.62,461.73l4.8-3.17a18.79,18.79,0,0,0,4-3.76c4.8-5.24,19.82-15.24,38.65-8.24,7.22,2.69,8.48,8.92.49,7.46-5.63-1-9.44-2.23-11.37-2,0,0,5.76,6.6,4.57,11.54a93.61,93.61,0,0,1-4,12.67,20.44,20.44,0,0,1-2.44-.54,10.67,10.67,0,0,1-8.81,7.19l-7.61,3.36Z" transform="translate(-0.03 -0.14)"/><path class="cls-7" d="M337.81,450.48c3.72-.46,11.62-1.31,18.32.25,7.45,1.73,21.33,7.07,20,12.55-1,4-6.45,2.45-6.45,2.45s5.27,3.42,3.59,6.85c-1.53,3.14-5.69,1.67-5.69,1.67s2.84,2.62.78,5.35c-2.47,3.29-8-2.74-13.4-1.57C353.75,478.29,337.81,450.48,337.81,450.48Z" transform="translate(-0.03 -0.14)"/><path class="cls-7" d="M353,458.29a30.38,30.38,0,0,1,16.63,7.27c.12.1.1.25,0,.17A76,76,0,0,0,353,458.34Z" transform="translate(-0.03 -0.14)"/><path class="cls-7" d="M351.47,465.86c3.06.44,11.23,3.28,16.16,8.26.11.11.08.26,0,.18a80.54,80.54,0,0,0-16.21-8.37S351.42,465.85,351.47,465.86Z" transform="translate(-0.03 -0.14)"/><path class="cls-8" d="M370.42,466.25a25.08,25.08,0,0,0-16.34-2.13S364.71,460.37,370.42,466.25Z" transform="translate(-0.03 -0.14)"/><path class="cls-8" d="M368.17,474.94A17.11,17.11,0,0,0,355,471.12S364.29,468.76,368.17,474.94Z" transform="translate(-0.03 -0.14)"/><path class="cls-8" d="M361.87,452.4s-6.83-1.28-12.83.72A12.22,12.22,0,0,1,361.87,452.4Z" transform="translate(-0.03 -0.14)"/><polygon class="cls-9" points="251.3 648.43 248.01 668.99 216.28 837.99 207.01 837.99 232.01 669.99 234.66 648.43 251.3 648.43"/><path class="cls-9" d="M339,838.12h-9.28L298,672.56c-.44-2.31-.7-5.11-1-7.44l-2.29-16.56h16.68l2.66,20.55Z" transform="translate(-0.03 -0.14)"/><rect class="cls-10" x="229.01" y="701.18" width="86" height="6.33"/><polygon class="cls-10" points="231.01 676.99 246.01 678.99 251.44 648.43 235.01 647.99 231.01 676.99"/><polygon class="cls-10" points="315.01 676.99 299.01 676.99 294.61 648.43 311.01 647.99 315.01 676.99"/><rect class="cls-9" x="224.1" y="627.51" width="101.84" height="21.1"/><path class="cls-7" d="M494.84,791.73c-3.19,1.38-97.13,9.56-100.92,7.61-1.43-.73-3.42-14.35-5.36-30.86-.42-3.57-.83-7.25-1.22-11-2.6-24.31-4.79-50.17-4.79-50.17l62.87-5.65,3,50.32.68,11s37.37,13,41.29,15.54S498,790.34,494.84,791.73Z" transform="translate(-0.03 -0.14)"/><path class="cls-11" d="M494.84,791.73c-3.19,1.38-97.13,9.56-100.92,7.61-1.74-.9-4.32-20.81-6.58-41.86l61.09-5.5.68,11s37.37,13,41.29,15.54S498,790.34,494.84,791.73Z" transform="translate(-0.03 -0.14)"/><path class="cls-12" d="M494.84,791.73c-3.19,1.38-98,8.34-101.8,6.39-1.44-.73-2.54-13.13-4.48-29.64L449.11,763s37.37,13,41.29,15.54S498,790.34,494.84,791.73Z" transform="translate(-0.03 -0.14)"/><path class="cls-13" d="M493.16,788.09c-15.78,1-79.34,6.44-94.87,8.61-.12,0-.11.11,0,.1,15.67-.63,79.18-6.61,94.88-8.45C493.52,788.31,493.49,788.07,493.16,788.09Z" transform="translate(-0.03 -0.14)"/><path class="cls-11" d="M484.06,775.72a12.65,12.65,0,0,0-9.08,4.66,12.27,12.27,0,0,0-2.79,8.72c0,.09.18.08.19,0a14.66,14.66,0,0,1,11.7-13.16.11.11,0,0,0,0-.22Z" transform="translate(-0.03 -0.14)"/><path class="cls-11" d="M455.36,764.06c-6.31.46-13.43,3.33-16.89,8.82-.14.21.17.4.35.29a87.86,87.86,0,0,1,16.72-8.34.4.4,0,0,0-.18-.77Z" transform="translate(-0.03 -0.14)"/><path class="cls-11" d="M460.42,765.56c-6.31.46-13.42,3.32-16.89,8.82-.14.21.17.4.35.28a87.86,87.86,0,0,1,16.72-8.34.41.41,0,0,0,.19-.53A.41.41,0,0,0,460.42,765.56Z" transform="translate(-0.03 -0.14)"/><path class="cls-11" d="M465.42,767c-6.31.46-13.42,3.32-16.89,8.82-.14.21.17.4.35.29a87,87,0,0,1,16.72-8.34.4.4,0,0,0-.18-.77Z" transform="translate(-0.03 -0.14)"/><path class="cls-11" d="M470.42,768.48c-6.31.46-13.42,3.33-16.89,8.82-.13.21.17.4.35.29a87.86,87.86,0,0,1,16.72-8.34.4.4,0,0,0-.18-.77Z" transform="translate(-0.03 -0.14)"/><path class="cls-7" d="M379.78,835.19c-3.47.21-94.54-24.27-97.42-27.4-1.1-1.18,1.69-14.65,5.53-30.84.83-3.49,1.7-7.09,2.61-10.75,5.89-23.73,12.68-48.78,12.68-48.78l61,16.2L349.79,782l-3.14,10.6s30.67,25,33.47,28.74S383.25,835,379.78,835.19Z" transform="translate(-0.03 -0.14)"/><path class="cls-11" d="M379.78,835.19c-3.47.21-94.54-24.27-97.42-27.4-1.33-1.45,3.07-21,8.14-41.59L349.79,782l-3.14,10.6s30.67,25,33.47,28.74S383.25,835,379.78,835.19Z" transform="translate(-0.03 -0.14)"/><path class="cls-14" d="M243,360.26s-20-3.81-24.75,15.22-26.64,57.08-26.64,57.08l23.83-19" transform="translate(-0.03 -0.14)"/><path class="cls-14" d="M240.12,361.21s12.37-3.81,19,1.9,12.7,19.45,9.22,43.05" transform="translate(-0.03 -0.14)"/><path class="cls-14" d="M261.94,375.09S266.77,405.94,282,424s8.68,35.8,8.68,35.8l-1.14-1.16S295.32,442.1,281,425s-18.32-44.29-18.32-44.29" transform="translate(-0.03 -0.14)"/><path class="cls-15" d="M259.16,469.7s9.51,4.75,24.74-9.52-35.07-13-35.07-13Z" transform="translate(-0.03 -0.14)"/><polygon class="cls-14" points="222.97 381.06 209.64 424.83 269.6 437.2 270.55 414.36 267.69 395.33 262.93 371.54 252.47 365.83 245.81 362.98 223.92 375.35 222.97 381.06"/><rect class="cls-16" x="629.75" y="568.27" width="101.84" height="21.1"/><polygon class="cls-9" points="657.09 589.19 654.23 616.14 619.03 837.99 608.95 837.99 636.74 616.14 639 589.19 657.09 589.19"/><polygon class="cls-9" points="752.41 837.99 742.32 837.99 707.12 616.14 704.26 589.19 722.35 589.19 724.61 616.14 752.41 837.99"/><rect class="cls-10" x="623.07" y="767.93" width="112.34" height="6.33"/><polygon class="cls-10" points="636.74 615.19 654.23 615.19 657.09 589.19 639 589.19 636.74 615.19"/><polygon class="cls-10" points="724.61 615.19 707.12 615.19 704.26 589.19 722.35 589.19 724.61 615.19"/><path class="cls-7" d="M522.05,604.32c1.11-3.36,60.77-82.19,64.85-83.71.46-.2,27.13,18.78,27.13,18.78,1.1,1.47,51.79-9.24,51.79-9.24l.51,61.15-92.34-2s-12.48,7.33-23.89,13.3h0c-7,3.7-13.23,6.81-15,7.28C530.42,611.11,520.91,607.68,522.05,604.32Z" transform="translate(-0.03 -0.14)"/><path class="cls-11" d="M535.05,609.93c1.78-.46,8-3.58,15-7.29h0c11.41-6,23.88-13.31,23.88-13.31l20.55.44,32.18-51.91c-7.07,1.25-12.33,2-12.68,1.53,0,0-26.66-19-27.13-18.78-4.08,1.52-63.73,80.34-64.85,83.71S530.42,611.12,535.05,609.93Z" transform="translate(-0.03 -0.14)"/><path class="cls-17" d="M521.5,604.43c1.18-3.45,61.1-82.23,65.29-83.79,1.58-.6,14.63,7.45,27.24,18.75l-38.7,50.74s-35.7,18.92-40.47,20.14S520.33,607.88,521.5,604.43Z" transform="translate(-0.03 -0.14)"/><path class="cls-13" d="M525.51,605.7c10.37-13,51-66.21,60.24-79.81.08-.11,0-.17-.08-.06-10.56,12.62-50.73,66.19-60.37,79.7C525.09,605.82,525.3,606,525.51,605.7Z" transform="translate(-0.03 -0.14)"/><path class="cls-13" d="M541.55,607.35A13.27,13.27,0,0,0,544.33,597a12.9,12.9,0,0,0-4.8-8.31c-.08-.06-.2.08-.12.16a15.41,15.41,0,0,1,2,18.38.1.1,0,0,0,.06.13Z" transform="translate(-0.03 -0.14)"/><path class="cls-13" d="M570.86,593.27c4.09-5.23,6.89-12.78,5.06-19.35-.07-.26-.43-.15-.47.07a91.86,91.86,0,0,1-5.31,18.88.42.42,0,0,0,.72.4Z" transform="translate(-0.03 -0.14)"/><path class="cls-13" d="M566.16,596.14c4.1-5.23,6.89-12.78,5.07-19.35-.07-.25-.43-.15-.47.07a91.58,91.58,0,0,1-5.34,18.88.42.42,0,0,0,.74.4Z" transform="translate(-0.03 -0.14)"/><path class="cls-13" d="M561.47,599c4.09-5.23,6.89-12.78,5.06-19.35-.07-.25-.43-.15-.47.07a91.86,91.86,0,0,1-5.31,18.88.42.42,0,0,0,.72.4Z" transform="translate(-0.03 -0.14)"/><path class="cls-13" d="M556.77,601.88c4.1-5.23,6.89-12.78,5.07-19.35-.07-.25-.43-.15-.47.07a90.92,90.92,0,0,1-5.32,18.88.42.42,0,0,0,.72.4Z" transform="translate(-0.03 -0.14)"/><path class="cls-13" d="M595.74,538.8c4.49-6-4.74-12.94-9.24-7S591.24,544.75,595.74,538.8Z" transform="translate(-0.03 -0.14)"/><path class="cls-13" d="M580.62,609.71c4.25-1,4.65-6,3.6-9.41a34.75,34.75,0,0,0-9.87-15.08c-.1-.1-.21,0-.27,0a.82.82,0,0,0-1.08.38,1.09,1.09,0,0,0-.07.24c-.26,5.75-1.25,11.85.26,17.51C574.07,606.7,576.59,610.65,580.62,609.71Zm-6.3-15c0-2.83.25-5.63.21-8.46a101.52,101.52,0,0,1,5.56,8.93,36,36,0,0,1,2.1,4.65c.87,2.47,1.34,11-4.81,7.17-3.39-2.15-3.13-9-3.06-12.32Z" transform="translate(-0.03 -0.14)"/><path class="cls-13" d="M582.42,570.56c-4.21,4.07-6.51,9.81-9.25,14.87a.81.81,0,0,0,.42,1.07.94.94,0,0,0,.24.06.16.16,0,0,0,.15.18H574a34.84,34.84,0,0,0,16.23-7.84c2.65-2.37,4.9-6.88,1.76-9.92C589,566.14,584.84,568.22,582.42,570.56Zm5.43-.9c7.26-.13,2.45,7,.42,8.63a37.64,37.64,0,0,1-4.19,2.9A102,102,0,0,1,574.7,586c1.5-2.4,2.78-4.9,4.19-7.36,1.64-2.89,4.93-8.85,8.93-8.92Z" transform="translate(-0.03 -0.14)"/><path class="cls-18" d="M668.61,511.4h41.45s43.36-20.84,78.28-12.45c40,9.63,45.15,59.91,15.22,77.69-37.91,22.53-206.62,18.17-206.62,18.17L633.42,533s56.11-11.81,107-10.1l-71.78,9.79Z" transform="translate(-0.03 -0.14)"/><path class="cls-7" d="M600.63,805.48c3.64-.37,94-41,96.49-44.72.94-1.41-4.21-14.91-10.89-31.06-1.45-3.49-3-7.08-4.51-10.72-10.08-23.64-21.3-48.48-21.3-48.48l-60.54,27,23,47.74,5,10.48s-27.65,31-29.92,35.41S597,805.84,600.63,805.48Z" transform="translate(-0.03 -0.14)"/><path class="cls-11" d="M600.63,805.48c3.64-.37,94-41,96.49-44.72,1.14-1.72-6.7-21.3-15.4-41.78l-58.88,26.26,5,10.48s-27.65,31-29.92,35.41S597,805.84,600.63,805.48Z" transform="translate(-0.03 -0.14)"/><path class="cls-18" d="M680.34,713.43l-68.09,30.79s-81-155.55-83.16-203.16c-1.8-40.52,26.41-56.16,117.6-30l22.34.29v15.41c-9.81,1.29-36,5.4-36,5.4-19,7.18-25.16,10.15-24.85,10.77C655.67,638.83,680.34,713.43,680.34,713.43Z" transform="translate(-0.03 -0.14)"/><path class="cls-6" d="M640.51,403.86c-30.45,23.5-58.16,50.41-61.43,66.22-2,10,5.57,25.93,11.15,35.37,2.71,4.6,45.71-22.94,41.12-26.33-11.37-8.37-13.62-12.15-13-14.38.41-1.42,31.42-39.95,39.14-56.2C668.29,385.91,653.83,393.56,640.51,403.86Z" transform="translate(-0.03 -0.14)"/><path class="cls-19" d="M726,510.12c-.21.28-96.18,3.18-97.16,2.25-.68-.65,1.17-23.3,4.91-48.81.66-4.48,1.38-9.06,2.15-13.63,3.74-22,8.76-43.63,14.67-53.14,3.53-5.67,20.13-9.88,27.56-2.18C706.9,424.38,726.77,509.13,726,510.12Z" transform="translate(-0.03 -0.14)"/><path class="cls-6" d="M657.1,521.56c-3.94,3.25-11.14-7.15-11.14-7.15a9.42,9.42,0,0,1-1.54,6.15c-2.32,3.12-8.22.85-8.22.85a11.59,11.59,0,0,1-2.69,6.3c-2.52,2.77-8.8,1.33-8.8,1.33a10.18,10.18,0,0,1-5.85,4.05c-6.41,1.37-13.36-5.83-17.82-10.36s-12.88-21.56-14.82-24.64L615,469.19s25.8,14.62,30.29,20.69C649.1,495,663.13,516.56,657.1,521.56Z" transform="translate(-0.03 -0.14)"/><path class="cls-13" d="M646,514.2c-2.72-6.4-7-12.14-11.12-17.63a.12.12,0,1,0-.19.14c4.2,5.42,7,12.09,11,17.66a.18.18,0,0,0,.31-.17Z" transform="translate(-0.03 -0.14)"/><path class="cls-13" d="M636.47,521a18.42,18.42,0,0,0-2.79-3.83q-1.62-1.93-3.3-3.81-3.37-3.77-6.92-7.35c-.11-.1-.3,0-.19.15,2.23,2.5,4.43,5,6.55,7.63,1.07,1.3,2.12,2.6,3.17,3.92a21.19,21.19,0,0,0,3.12,3.57.25.25,0,0,0,.33-.06A.22.22,0,0,0,636.47,521Z" transform="translate(-0.03 -0.14)"/><path class="cls-13" d="M624.61,529a12.9,12.9,0,0,0-2.7-3.32q-1.57-1.68-3.12-3.37c-2.07-2.27-4.14-4.53-6.12-6.87a.12.12,0,1,0-.19.15c2,2.38,4,4.79,6,7.15,1,1.17,2,2.32,3,3.47a11.81,11.81,0,0,0,3,2.9A.09.09,0,0,0,624.61,529Z" transform="translate(-0.03 -0.14)"/><path class="cls-6" d="M684.16,397.06c47,23.65,90.55,60.36,89.58,74.64-1,15.11-31.16,30.8-55.83,38.65-5,1.61-23.49-27.79-18.49-30.52,3.88-2.1,21.7-10.82,23.48-13.8,1.24-2.07-35.29-37.81-48.62-57.51C660.34,387.92,671.58,390.73,684.16,397.06Z" transform="translate(-0.03 -0.14)"/><path class="cls-7" d="M709.89,476.76s-15.47,4.43-25.47,7.8c-5.59,1.88-14.87,6-18.33,9.22C660.9,498.66,642.32,522.36,648,527c5.12,4.19,10.08-4.79,10.08-4.79s-6.35,9.3,0,11.9,11.74-9.71,11.74-9.71-7.43,9.41-.39,11.54c6.12,1.84,13.79-11.69,13.79-11.69s-8.87,9-2.8,11.53c4.62,1.9,12.71-6.42,17.32-11.8a35.72,35.72,0,0,1,8.86-7.43c10.75-6.39,19.07-12.21,24.88-18C732.73,497.22,709.89,476.76,709.89,476.76Z" transform="translate(-0.03 -0.14)"/><path class="cls-7" d="M658.48,411.61c4.13-.53,11.33-9.68,13.53-16.72.15-.48-1.44-4.94-3.11-10.44-1-3.34-2-7.09-2.73-10.57l-20.75,9.68a56.86,56.86,0,0,1,4.79,13,7.94,7.94,0,0,1,.14,1.46v.24C650.42,401,652,412.44,658.48,411.61Z" transform="translate(-0.03 -0.14)"/><path class="cls-20" d="M650.3,398a1,1,0,0,1,0,.25,14.59,14.59,0,0,0,2.28-.34c12.61-2.82,12.64-19,12.41-23.46l-19.63,9.12a56.8,56.8,0,0,1,4.8,12.95A10.44,10.44,0,0,1,650.3,398Z" transform="translate(-0.03 -0.14)"/><path class="cls-7" d="M668,350.41c2.63,7.84-.92,30.78-6.41,36-7.94,7.6-21.27,8.67-27.8-1-6.34-9.33-1.18-39.15,5-43.94C647.83,334.47,664.13,338.83,668,350.41Z" transform="translate(-0.03 -0.14)"/><path class="cls-13" d="M647.47,364.78c0-.06.11.1.09.16-.35,1.52-.49,3.33.8,4.11v.08C646.68,368.56,646.9,366.17,647.47,364.78Z" transform="translate(-0.03 -0.14)"/><path class="cls-13" d="M649.15,363.44c2.51.3,1.74,5.29-.58,5S647.05,363.2,649.15,363.44Z" transform="translate(-0.03 -0.14)"/><path class="cls-13" d="M638.83,363.16c0-.07-.13,0-.14.11-.19,1.56-.67,3.3-2.15,3.6V367C638.29,367,638.9,364.66,638.83,363.16Z" transform="translate(-0.03 -0.14)"/><path class="cls-13" d="M637.7,361.33c-2.46-.57-3.42,4.38-1.15,4.91S639.76,361.81,637.7,361.33Z" transform="translate(-0.03 -0.14)"/><path class="cls-13" d="M646.67,379.45c-.43.3-.87.74-1.44.7a4.21,4.21,0,0,1-1.6-.64s-.1,0-.08.07a2.14,2.14,0,0,0,1.83,1.14,1.69,1.69,0,0,0,1.43-1.18C646.85,379.45,646.73,379.4,646.67,379.45Z" transform="translate(-0.03 -0.14)"/><path class="cls-7" d="M663.64,369.15s5.11-7.42,8.47-5.6-.44,12.55-4.36,14a4,4,0,0,1-5.31-1.95l-.07-.16Z" transform="translate(-0.03 -0.14)"/><path class="cls-8" d="M671,365.56c.06,0,.07.08,0,.1-2.75,1.14-4.19,3.71-5.18,6.37.81-1,1.92-1.6,3.3-.63.07.05,0,.16-.08.15a2.46,2.46,0,0,0-2.7.87,12.38,12.38,0,0,0-1.28,2.2c-.13.25-.58.12-.48-.16v-.07C664.47,370.92,667.17,366,671,365.56Z" transform="translate(-0.03 -0.14)"/><path class="cls-19" d="M672,391.12s-3-1.13-3,9c0,14.53,50.56,61.25,50.56,61.25s7.6,6.26-25.33,18.58c0,0,5.88,23.39,22.36,30.27,12.79,5.34,42.29-16,54.71-25.66a18.06,18.06,0,0,0,3.7-24.77c-.43-.59-.89-1.17-1.4-1.76C763.51,446.17,689.5,393.74,672,391.12Z" transform="translate(-0.03 -0.14)"/><path class="cls-19" d="M650.35,397.21c-6.86,17.36-11.79,43.66-11.79,43.66l-20.81,25.89-38.33.8c2.46-7.28,8.22-15.38,15.45-23.42,3.5-3.89,7.35-7.78,11.34-11.54,3.25-3.07,6.58-6.06,9.9-8.92s6.37-5.4,9.42-7.85C638.88,405,650,397.48,650.35,397.21Z" transform="translate(-0.03 -0.14)"/><path class="cls-21" d="M655.05,358.56a6.17,6.17,0,0,0-4.22-1.41,6.25,6.25,0,0,1-4.23-1.4s0,2.81,1.41,2.81S652.23,357.13,655.05,358.56Z" transform="translate(-0.03 -0.14)"/><path class="cls-14" d="M664,372.12s-.16-.79-3.55,3.12c-1.53,1.77-3.38,4.57-5.62,3.89-2.52-.78-5.81-3.17-9.58-2.2-6.54,1.69-13-4.62-14.25-.81-1,3,3,11.37,5.43,15.06a5.7,5.7,0,0,0,5,2.57c3.57-.13,9.24-.51,12.1-1.62,4.36-1.69,9.82-3.37,12-8.44S664,378.88,664,372.12Z" transform="translate(-0.03 -0.14)"/><path class="cls-22" d="M850,53.12" transform="translate(-0.03 -0.14)"/><path class="cls-7" d="M635.14,382.69a2.1,2.1,0,0,1,1.94-2.26h4.6c3.21,0,9.13.88,9.27,1.55.34,1.65.34,8.06-12.47,4.86A4.73,4.73,0,0,1,635.14,382.69Z" transform="translate(-0.03 -0.14)"/><path class="cls-13" d="M638.42,380.56a11.91,11.91,0,0,0,9.62.59S642.78,386.38,638.42,380.56Z" transform="translate(-0.03 -0.14)"/><path class="cls-8" d="M640.69,367.85s-3.61,5.42-2.41,6.63,7.83,0,7.83,0,1.81-1.21-3-.61-4.21-.6-4.21-.6S638.89,371.46,640.69,367.85Z" transform="translate(-0.03 -0.14)"/><path class="cls-15" d="M664,372.12s-1.13-1.08-6.07,6-2.93,8-5.93,12c-2.17,2.89-1,2.07-8.5,3.54a32.59,32.59,0,0,0,19.62-6.54s4.12-4.1,3-7.05S664,376.12,664,372.12Z" transform="translate(-0.03 -0.14)"/><path class="cls-23" d="M635.51,389.56s8.72,4.87,17.12-.27c0,0,.7,4.93-10.45,4.39C642.18,393.66,638,395,635.51,389.56Z" transform="translate(-0.03 -0.14)"/><path class="cls-21" d="M646.7,356.71s0,2.2,1.68,1.8a33.39,33.39,0,0,1,3.58-.59S648.35,358.3,646.7,356.71Z" transform="translate(-0.03 -0.14)"/><path class="cls-21" d="M633,358.56a6.2,6.2,0,0,1,4.23-1.41,6.17,6.17,0,0,0,4.22-1.41s0,2.82-1.41,2.82S635.78,357.12,633,358.56Z" transform="translate(-0.03 -0.14)"/><path class="cls-21" d="M641.32,356.7s0,2.19-1.69,1.8a33.39,33.39,0,0,0-3.58-.59S639.66,358.29,641.32,356.7Z" transform="translate(-0.03 -0.14)"/><path class="cls-24" d="M715.8,457.84S727,464.12,734,462.12a14,14,0,0,1-15.64,5S722.57,462.56,715.8,457.84Z" transform="translate(-0.03 -0.14)"/><path class="cls-24" d="M709.59,451.89S691,435.12,685,421.12Z" transform="translate(-0.03 -0.14)"/><path class="cls-24" d="M671,390.12s-5.9,9.36,3,22.18,10.37,13,9.16,11.9-12.6-19.3-8.21-32.08l-4-2" transform="translate(-0.03 -0.14)"/><path class="cls-24" d="M688,426.8s20,32.32,6,53.32c0,0,17.6-7.47,21.8-10.73L710,452.12Z" transform="translate(-0.03 -0.14)"/><path class="cls-24" d="M755.91,442.9S782,466.12,767,487.83c0,0,19-10.71,9.91-25C777,462.81,774.78,456.68,755.91,442.9Z" transform="translate(-0.03 -0.14)"/><path class="cls-24" d="M770.32,481.44S762,494.12,734,481.12c0,0,13.22,11.7,30.11,8.85l7.89-6.85Z" transform="translate(-0.03 -0.14)"/><path class="cls-24" d="M621.94,461.56s-11.54,7.66-25.77-1.61l7.76,7.12,13.58.09Z" transform="translate(-0.03 -0.14)"/><path class="cls-24" d="M650.3,398c-7.74,12.87-12.78,43.13-12.78,43.13s-14.58,19.44-15.58,20.44-8.76,3.56-8.76,3.56c5.42-9.93,26.28-33.75,26.28-33.75" transform="translate(-0.03 -0.14)"/><path class="cls-25" d="M715,537.12s31-10,53-10" transform="translate(-0.03 -0.14)"/><path class="cls-25" d="M715,532.12s35-1,51-17c0,0-20.9,14-56.45,17" transform="translate(-0.03 -0.14)"/><path class="cls-25" d="M608,542.12l27.38,58.62S607,565.12,608,542.12Z" transform="translate(-0.03 -0.14)"/><path class="cls-25" d="M608,542.12l12-4.85h-9.67A6.72,6.72,0,0,0,608,542.12Z" transform="translate(-0.03 -0.14)"/><path class="cls-25" d="M610.73,571.43S662,674.12,655,715.12C655,715.12,675.42,683.74,610.73,571.43Z" transform="translate(-0.03 -0.14)"/><path class="cls-25" d="M567,537.12s37.35,8.14,48.67,32.57L608.23,547s-1.19-8.88,2.81-9.88Z" transform="translate(-0.03 -0.14)"/><path class="cls-18" d="M192.82,545.72c-10.8,23.42-6.19,51.19,12.51,69l1.68,1.57c34.26,31.36,110.41,21.85,110.41,21.85s-2.81,20.93-4.72,37.11S283.2,758,283.2,758l75.18,13.33s39-79.94,22.82-121.81-102.78-65.67-102.78-65.67,3.81-20.93-4.76-37.11c0,0-29.5,9.51-78-9.52A35.56,35.56,0,0,1,192.82,545.72Z" transform="translate(-0.03 -0.14)"/><path class="cls-18" d="M273.66,546.78l104.28,25a44.35,44.35,0,0,1,21,11.5,31.66,31.66,0,0,1,8.9,14.94c3.8,16.18,53.29,148.45,53.29,148.45L385,753.28s-23.79-77.08-20.94-119l-85.64-50.39S262.25,562,273.66,546.78Z" transform="translate(-0.03 -0.14)"/><path class="cls-25" d="M385,753.28s-29.5-98-23.79-124.66c0,0-106.63,32.36-151.35-9.52,0,0,48.53,39,155.15,1.91,0,0-5.79,35.12,31.37,131.28Z" transform="translate(-0.03 -0.14)"/><path class="cls-13" d="M394.52,779" transform="translate(-0.03 -0.14)"/><path class="cls-25" d="M396.42,738.06s20.93,4.76,51.39-1.9c0,0-20,10.46-48.54,7.61Z" transform="translate(-0.03 -0.14)"/><path class="cls-13" d="M415.42,774.22" transform="translate(-0.03 -0.14)"/><path class="cls-25" d="M317.42,638.14s-18.08,79-34.26,119.9l10.55,1.87S322.07,687.22,323.08,637Z" transform="translate(-0.03 -0.14)"/><path class="cls-25" d="M356.58,629.92s4.6,86.25-29.66,133.83l-1,1.87,32.39,5.75s15.74-35.85,18.34-47.9c0,0-18.34-62.49-15.48-94.85Z" transform="translate(-0.03 -0.14)"/><path class="cls-25" d="M294.66,740.19s18.24,11.33,49.2,15c0,0-22.3,3.38-48.36-8.63Z" transform="translate(-0.03 -0.14)"/><path class="cls-13" d="M566.42,533.81s-1.84-22.24-21.1-29.46c0,0,8.93-5.36,16.84-5.3Z" transform="translate(-0.03 -0.14)"/><path class="cls-6" d="M255.42,427.42c29,22.37,55.35,48,58.45,63,1.95,9.47-5.3,24.68-10.6,33.66-2.59,4.38-43.51-21.83-39.14-25,10.82-8,13-11.57,12.34-13.69-.4-1.35-29.91-38-37.25-53.48C228.94,410.34,242.7,417.63,255.42,427.42Z" transform="translate(-0.03 -0.14)"/><path class="cls-26" d="M189.69,518.23c5.7-1.9,75.82,13.34,76.76,12.45,1.31-1.24-7.27-88.42-20.69-110-3.36-5.39-19.15-9.4-26.22-2.07C192.19,447,188.57,518.56,189.69,518.23Z" transform="translate(-0.03 -0.14)"/><path class="cls-6" d="M239.59,539.4c3.75,3.09,10.6-6.81,10.6-6.81a9,9,0,0,0,1.47,5.93c2.21,3,7.83.81,7.83.81a11.12,11.12,0,0,0,2.56,6c2.37,2.62,8.37,1.23,8.37,1.23a9.77,9.77,0,0,0,5.57,3.86c6.1,1.29,12.71-5.56,17-9.87s12.26-20.51,14.1-23.44l-27.43-27.5s-24.55,13.9-28.82,19.68C247.2,514.19,233.85,534.67,239.59,539.4Z" transform="translate(-0.03 -0.14)"/><path class="cls-13" d="M250.14,532.43c2.59-6.09,6.63-11.56,10.59-16.78.08-.12.27,0,.18.14-4,5.15-6.71,11.49-10.5,16.8C250.31,532.73,250.07,532.56,250.14,532.43Z" transform="translate(-0.03 -0.14)"/><path class="cls-13" d="M259.22,538.88a17.28,17.28,0,0,1,2.65-3.65q1.54-1.83,3.15-3.62,3.19-3.58,6.58-7c.1-.1.28,0,.18.14-2.12,2.38-4.21,4.79-6.23,7.26l-3,3.72a21.13,21.13,0,0,1-3,3.41.23.23,0,0,1-.33-.26Z" transform="translate(-0.03 -0.14)"/><path class="cls-13" d="M270.51,546.48a12,12,0,0,1,2.57-3.15l3-3.22c2-2.15,3.93-4.31,5.82-6.53.1-.11.28,0,.18.14-1.91,2.27-3.79,4.56-5.72,6.81l-2.86,3.3a11.2,11.2,0,0,1-2.86,2.76C270.55,546.62,270.49,546.56,270.51,546.48Z" transform="translate(-0.03 -0.14)"/><path class="cls-6" d="M213.83,421c-44.71,22.51-86.17,57.45-85.24,71,1,14.37,29.65,29.31,53.13,36.77,4.81,1.53,22.32-26.47,17.58-29-3.7-2-20.65-10.3-22.35-13.13-1.18-2,33.58-36,46.27-54.73C236.5,412.25,225.8,414.93,213.83,421Z" transform="translate(-0.03 -0.14)"/><path class="cls-7" d="M189.35,496.8s14.75,4.22,24.27,7.43c5.31,1.79,14.15,5.68,17.44,8.78,4.94,4.64,22.62,27.19,17.24,31.6-4.86,4-9.59-4.56-9.59-4.56s6,8.85,0,11.32-11.17-9.24-11.17-9.24,7.07,9,.37,11c-5.82,1.76-13.12-11.12-13.12-11.12s8.44,8.59,2.66,11c-4.4,1.81-12.1-6.1-16.48-11.22a34.11,34.11,0,0,0-8.43-7.08c-10.23-6.15-18.12-11.66-23.68-17.15C167.62,516.27,189.35,496.8,189.35,496.8Z" transform="translate(-0.03 -0.14)"/><path class="cls-26" d="M204.27,499.83s-5.6,22.26-21.28,28.81c-2.29,1-5.17,1-8.42.33-4.77-1-10.34-3.39-16-6.47-11.06-6-22.44-14.53-28.8-19.5-7.26-5.67-7.82-15-2.38-22.38.41-.56.85-1.12,1.33-1.68,9.59-11.25,80-61.14,96.69-63.64,0,0,2.86-1.08,2.86,8.57,0,13.82-48.12,58.29-48.12,58.29S172.92,488.11,204.27,499.83Z" transform="translate(-0.03 -0.14)"/><path class="cls-26" d="M312.42,486.11l-35.89-.74L257,461.44s-4.62-24.27-11-40.35c.39.26,11.77,7.93,25.08,18.68,4.63,3.74,9.49,7.85,14.21,12.16C297.54,463.1,308.8,475.55,312.42,486.11Z" transform="translate(-0.03 -0.14)"/><path class="cls-27" d="M183.72,478.79s-10.69,6-17.35,4.08a13.31,13.31,0,0,0,14.88,4.75S177.28,483.28,183.72,478.79Z" transform="translate(-0.03 -0.14)"/><path class="cls-27" d="M189.64,473.13s17.69-10.68,23.4-24Z" transform="translate(-0.03 -0.14)"/><path class="cls-27" d="M226.32,414.35s5.62,8.91-2.9,21.11-9.87,12.34-8.72,11.32,12-18.37,7.82-30.53l3.8-1.9" transform="translate(-0.03 -0.14)"/><path class="cls-27" d="M213,449.12S191.11,480,204.44,500c0,0-8.86-2.46-12.85-5.56l-2.38-21.09Z" transform="translate(-0.03 -0.14)"/><path class="cls-27" d="M133,504.17c3.2,2.3,12.7,6.4,33.42-3.22,0,0-9.14,13.33-25.22,10.62L127.83,501.1l.78.39A31.65,31.65,0,0,1,133,504.17Z" transform="translate(-0.03 -0.14)"/><path class="cls-27" d="M276.28,478.26s7.14,9.37,20.47.8l-7.27,6.58-12.72.08Z" transform="translate(-0.03 -0.14)"/><path class="cls-27" d="M246.06,421.84c7.37,12.24,12.16,41,12.16,41S272,480,273,480.93s6.27,2,6.27,2c-5.16-9.45-22.8-29.37-22.8-29.37" transform="translate(-0.03 -0.14)"/><path class="cls-28" d="M255.53,443.85" transform="translate(-0.03 -0.14)"/><path class="cls-27" d="M206.81,464s9.52,11.42,22.84,2.85c0,0-6.56,13.06-26.64-.95l-1.9-.95,4.67-7.09S204.91,462.08,206.81,464Z" transform="translate(-0.03 -0.14)"/><path class="cls-27" d="M201.76,469s18.38,12.11,27.89-2.17c0,0-9.61,12.28-26.64-1.9Z" transform="translate(-0.03 -0.14)"/><path class="cls-7" d="M238.08,432.14c-3.94-.5-10.78-9.21-12.88-15.91-.14-.46,1.37-4.7,3-9.93,1-3.18,1.93-6.75,2.6-10.07l19.79,9.22A54.78,54.78,0,0,0,246,417.79a7.19,7.19,0,0,0-.13,1.39v.23C245.75,422.08,244.24,432.93,238.08,432.14Z" transform="translate(-0.03 -0.14)"/><path class="cls-20" d="M245.86,419.18a1,1,0,0,0,0,.24,15.77,15.77,0,0,1-2.17-.32c-12-2.69-12-18.12-11.81-22.33l18.69,8.68A54.26,54.26,0,0,0,246,417.78,9.35,9.35,0,0,0,245.86,419.18Z" transform="translate(-0.03 -0.14)"/><path class="cls-7" d="M229,373.9c-2.5,7.46.88,29.29,6.09,34.28,7.57,7.24,20.25,8.25,26.47-.9,6-8.88,1.12-37.26-4.74-41.83C248.21,358.73,232.7,362.88,229,373.9Z" transform="translate(-0.03 -0.14)"/><path class="cls-13" d="M248.55,387.56c0-.05-.1.1-.08.16.33,1.45.46,3.17-.76,3.91v.08C249.3,391.18,249.1,388.9,248.55,387.56Z" transform="translate(-0.03 -0.14)"/><path class="cls-13" d="M247,386.3c-2.38.28-1.65,5,.56,4.77S249,386.07,247,386.3Z" transform="translate(-0.03 -0.14)"/><path class="cls-13" d="M256.78,386c0-.06.12,0,.13.11.18,1.48.64,3.14,2,3.42,0,0,0,.09,0,.09C257.29,389.67,256.71,387.46,256.78,386Z" transform="translate(-0.03 -0.14)"/><path class="cls-13" d="M257.85,384.29c2.34-.54,3.26,4.17,1.09,4.68S255.89,384.75,257.85,384.29Z" transform="translate(-0.03 -0.14)"/><path class="cls-7" d="M233.17,391.73c.14-.05-4.41-7.22-8.07-5.33-3.23,1.67.42,11.94,4.16,13.37a3.81,3.81,0,0,0,5.05-1.85l.06-.15Z" transform="translate(-0.03 -0.14)"/><path class="cls-20" d="M226.21,388.35a0,0,0,1,0,0,.1h0c2.62,1.08,4,3.53,4.93,6.06a2.1,2.1,0,0,0-2.86-.79l-.28.19a.08.08,0,0,0,0,.11.07.07,0,0,0,.08,0,2.36,2.36,0,0,1,2.58.84,11.19,11.19,0,0,1,1.22,2.09c.12.24.54.11.45-.16v-.06C232.42,393.42,229.8,388.71,226.21,388.35Z" transform="translate(-0.03 -0.14)"/><path class="cls-7" d="M260.28,404.62a2,2,0,0,0-1.83-2.15h-4.38c-3,0-8.69.84-8.82,1.47-.32,1.58-.32,7.67,11.87,4.62A4.46,4.46,0,0,0,260.28,404.62Z" transform="translate(-0.03 -0.14)"/><path class="cls-13" d="M256,402.56a8.87,8.87,0,0,1-8,.56S252.42,408.13,256,402.56Z" transform="translate(-0.03 -0.14)"/><path class="cls-14" d="M229,387.12l4.38,4.54s-2.57-19.1,10.5-23.31a9.71,9.71,0,0,0,3.82-2.38h0a22.37,22.37,0,0,0,6.51,4.6,17.35,17.35,0,0,1,9.36,11.28c3,12,6.83,33.73.71,52.57l16.26,13.69,7,5.93s-2.73-21.48-11.3-34.78c-4.32-6.73-9.06-30.2-10.07-40.38A21.83,21.83,0,0,0,259.55,365,18.66,18.66,0,0,0,243,360.26s-23.79,0-23.79,23.79-27.9,48.71-27.9,48.71,19.64-12.45,30-16.31c0,0,3.3-.63,4.43-2.24s4-14,4-14a14.65,14.65,0,0,1-5.78-11.54s.19-3.39,3.17-2.57A4.81,4.81,0,0,1,229,387.12Z" transform="translate(-0.03 -0.14)"/><path class="cls-29" d="M299.86,386.87" transform="translate(-0.03 -0.14)"/><path class="cls-29" d="M261.06,372.63" transform="translate(-0.03 -0.14)"/><path class="cls-15" d="M247,413.88a29.76,29.76,0,0,0-1.27,6.81s20.17,14.93,24.39,18.64c0,0-11.19-18.16-6.81-36.25C263.34,403.08,261.55,414.21,247,413.88Z" transform="translate(-0.03 -0.14)"/><path class="cls-21" d="M248.42,382.26a2,2,0,0,1,1,2.64,1,1,0,0,1-.07.15s-5.57-1.86-8.35.92l-1.86.93a10.48,10.48,0,0,1,4.64-3.71A16.35,16.35,0,0,1,248.42,382.26Z" transform="translate(-0.03 -0.14)"/><path class="cls-21" d="M254.92,381.36a1.61,1.61,0,0,0,0,2.29s0,0,0,.05,3.64-2.95,6.51-1.65l1.65.17a8.3,8.3,0,0,0-4.52-1.47A13.12,13.12,0,0,0,254.92,381.36Z" transform="translate(-0.03 -0.14)"/><path class="cls-21" d="M253.42,389.76s2.85,3.8,2.85,6.66-4.76,1.9-4.76,1.9,4.76,0,3.81-2.85Z" transform="translate(-0.03 -0.14)"/><path class="cls-14" d="M247.74,366a57,57,0,0,1-10.47,9.51c-5.71,3.81-3.87,15.6-3.87,15.6l-1.58-20Z" transform="translate(-0.03 -0.14)"/><path class="cls-15" d="M223.87,389.76s1.66,20.58-15.59,33c0,0,10.91-4.81,16.76-6.61L229.91,400S225,398.12,223.87,389.76Z" transform="translate(-0.03 -0.14)"/><path class="cls-8" d="M219.35,548.43S215,537.12,209,532.12c0,0,8.63,13.81,10.31,17.41Z" transform="translate(-0.03 -0.14)"/><path class="cls-8" d="M231,547.68s-4.32-11.3-10.32-16.3c0,0,8.63,13.81,10.32,17.4Z" transform="translate(-0.03 -0.14)"/><path class="cls-8" d="M238,539.68s-4.32-11.3-10.32-16.3c0,0,8.63,13.81,10.32,17.4Z" transform="translate(-0.03 -0.14)"/><rect class="cls-30" x="194.59" y="550.87" width="107.98" height="4.84"/><polygon class="cls-30" points="237.53 555.71 342.76 555.71 351.52 484.24 246.29 484.24 237.53 555.71"/><path class="cls-31" d="M246.69,515.86c-2.37,18.91-5.32,40.11-5.32,40.11l-6.64-.15,6.5-41.19a2.61,2.61,0,0,0,.55.63A5,5,0,0,0,246.69,515.86Z" transform="translate(-0.03 -0.14)"/><path class="cls-31" d="M248.93,496.69c-.39-.25-.84-.53-1.37-.83-1.24-.72-2.24-1.3-3.1-1.74l1.58-10a3.68,3.68,0,0,1,3.5,2.85C249.76,487.63,249.49,491.32,248.93,496.69Z" transform="translate(-0.03 -0.14)"/><path class="cls-27" d="M204.22,499.83s-4.5-24.37,12.16-26c0,0-6.34-.67-14.34-5.67C202,468.12,195.42,485.56,204.22,499.83Z" transform="translate(-0.03 -0.14)"/><path class="cls-8" d="M677.75,531.8S685,522.15,692.2,519c0,0-12.13,10.87-14.75,13.85Z" transform="translate(-0.03 -0.14)"/><path class="cls-8" d="M667.74,526.83s7.29-9.65,14.44-12.78c0,0-12.13,10.86-14.75,13.84Z" transform="translate(-0.03 -0.14)"/><path class="cls-31" d="M663,465.12s-2,0-3,3,8.17,69,8.17,69l6.64-.15" transform="translate(-0.03 -0.14)"/><rect class="cls-31" x="606.96" y="532.03" width="107.98" height="4.84"/><polygon class="cls-30" points="671.99 536.87 566.76 536.87 558 465.4 663.23 465.4 671.99 536.87"/><path class="cls-26" d="M346,484.12l-38.09.26-8.34-18c.37.6,2.62,3.71,9.43,1.23a27,27,0,0,0,3-1.33l17.29-8.33.15-.07.28.45,1.7,2.7Z" transform="translate(-0.03 -0.14)"/><path class="cls-27" d="M300.49,467.33s6.55,3.79,6.55,9.79c0,0,3.07-3.45,1-9.22C308.08,467.9,303,469.56,300.49,467.33Z" transform="translate(-0.03 -0.14)"/><polygon class="cls-27" points="275.77 484.24 271.9 479.64 275.01 479.99 278.53 482.66 279.53 484.24 275.77 484.24"/><path class="cls-13" d="M245.92,386.72c-.34.23-.68.62-1.09.67s-.84-.35-1.16-.75c0,0-.07,0-.07.05,0,.75.3,1.52,1.11,1.62s1.26-.57,1.43-1.33C246.18,386.84,246.05,386.63,245.92,386.72Z" transform="translate(-0.03 -0.14)"/><path class="cls-13" d="M258.84,384.72c.34.23.67.62,1.08.67s.85-.35,1.16-.75c0,0,.07,0,.07.05,0,.75-.3,1.52-1.1,1.62s-1.26-.57-1.44-1.33C258.57,384.84,258.7,384.63,258.84,384.72Z" transform="translate(-0.03 -0.14)"/><polygon class="cls-32" points="343.01 555.99 351.36 485.59 314.13 555.71 343.01 555.99"/><polygon class="cls-32" points="566.76 537.26 558.39 466.86 595.71 536.99 566.76 537.26"/><polygon class="cls-31" points="343.01 550.99 343.01 555.71 229.17 555.71 234.91 550.87 343.01 550.99"/><polygon class="cls-31" points="566.39 532.03 566.39 536.86 680.35 536.86 674.61 532.03 566.39 532.03"/><polyline class="cls-33" points="308.55 384.06 299.54 400.8 316.58 397.5"/><circle class="cls-34" cx="347.39" cy="370.72" r="44.05"/><path class="cls-29" d="M342,362.77" transform="translate(-0.03 -0.14)"/><circle class="cls-11" cx="347.79" cy="367.03" r="44.05"/><polyline class="cls-35" points="309.58 382.51 300.58 399.25 317.61 395.95"/><polygon class="cls-19" points="347.8 354.41 360.67 374.93 354.58 384.68 341.17 384.68 335.08 374.93 347.8 354.41"/><rect class="cls-24" x="341.17" y="384.68" width="13.41" height="3.66"/><rect class="cls-24" x="346.05" y="372.5" width="3.66" height="3.66"/><line class="cls-36" x1="347.79" y1="372.49" x2="347.79" y2="345.74"/><path class="cls-37" d="M321.11,374.79a26.75,26.75,0,0,1,53.46,1.55" transform="translate(-0.03 -0.14)"/><rect class="cls-24" x="319.33" y="372.53" width="3.66" height="3.66"/><rect class="cls-24" x="372.58" y="373.76" width="3.66" height="3.66"/><line class="cls-38" x1="322.28" y1="349.45" x2="372.56" y2="349.45"/><rect class="cls-24" x="371.35" y="348.46" width="2.46" height="2.46"/><rect class="cls-24" x="320.92" y="348.11" width="2.46" height="2.46"/><polyline class="cls-33" points="590.28 383.43 598.01 397.79 583.39 394.96"/><circle class="cls-34" cx="556.96" cy="371.99" r="37.8"/><path class="cls-29" d="M561.66,365.17" transform="translate(-0.03 -0.14)"/><circle class="cls-35" cx="556.61" cy="368.83" r="37.8"/><polyline class="cls-35" points="589.39 382.09 597.12 396.45 582.51 393.62"/><path class="cls-19" d="M573.86,362.68a17.22,17.22,0,1,0-24.55,15.58v4.3h15.11s.09-2.44.12-4.61A17.21,17.21,0,0,0,573.86,362.68Z" transform="translate(-0.03 -0.14)"/><path class="cls-19" d="M563.24,386.39h-13a1,1,0,0,1-1-1h0a1,1,0,0,1,1-1h13a1,1,0,0,1,1,1h0A1,1,0,0,1,563.24,386.39Z" transform="translate(-0.03 -0.14)"/><path class="cls-19" d="M563.24,388.24h-13a1,1,0,0,0-.75,1.2,1,1,0,0,0,.75.75h1.42l1.89,3.59a1.24,1.24,0,0,0,1.1.67h4.63a1.26,1.26,0,0,0,1.12-.68l1.83-3.58h1A1,1,0,0,0,564,389a1,1,0,0,0-.75-.75Z" transform="translate(-0.03 -0.14)"/><path class="cls-35" d="M545.58,351.71a12.65,12.65,0,0,1,3.45-2.29,9.07,9.07,0,0,1,2.65-.77c.66-.07,1,0,1.06.13.07.31-1.23.77-3,2a14.15,14.15,0,0,0-6.45,13.9c.23,2.1.72,3.4.43,3.54-.12.07-.41-.17-.78-.71a9,9,0,0,1-1.12-2.53,13,13,0,0,1-.48-4.11,13.5,13.5,0,0,1,1.21-5" transform="translate(-0.03 -0.14)"/><path class="cls-35" d="M556.88,349.56c-1.09,0-2.06-.31-2.17-.89a1,1,0,0,1,.55-.83,3.19,3.19,0,0,1,1.63-.39,3.15,3.15,0,0,1,1.62.41c.4.24.59.55.54.84" transform="translate(-0.03 -0.14)"/><polygon class="cls-39" points="551.65 390.14 552.28 391.21 561.65 391.21 562.22 390.03 551.65 390.14"/><polygon class="cls-39" points="552.72 392.03 553.21 392.97 560.75 392.97 561.23 392.03 552.72 392.03"/><path class="cls-40" d="M559.17,378.06v-.22a2.21,2.21,0,0,1,.08-.65c.07-.58.17-1.43.33-2.51s.38-2.42.72-3.94a28.13,28.13,0,0,1,1.65-5.05,16.21,16.21,0,0,1,1.49-2.71,3.31,3.31,0,0,1,1.24-1.11,1.84,1.84,0,0,1,1.72.05,1.27,1.27,0,0,1,.5,1.65,2.64,2.64,0,0,1-1.4,1.21,5,5,0,0,1-6.33-3.27,3.85,3.85,0,0,1-.11-2.1,1.63,1.63,0,0,1,1.65-1.26,1.15,1.15,0,0,1,.92.64,1.67,1.67,0,0,1,.15,1.12,3.52,3.52,0,0,1-1.28,1.8,5.39,5.39,0,0,1-4.22,1.23,4.71,4.71,0,0,1-3.51-2.61,2.72,2.72,0,0,1-.12-2.2,1.32,1.32,0,0,1,1.91-.7,1.92,1.92,0,0,1,.77.8,2.91,2.91,0,0,1,.27,1,5.4,5.4,0,0,1-2.83,5.11,5.49,5.49,0,0,1-3.75.52,3,3,0,0,1-1.63-.87,1.39,1.39,0,0,1-.1-1.74,1.11,1.11,0,0,1,.81-.4,1.74,1.74,0,0,1,.87.17,2.57,2.57,0,0,1,1.11,1.24c.45,1,.82,1.94,1.19,2.85,1.45,3.65,2.48,6.66,3.17,8.75.34,1,.59,1.86.76,2.41.09.27.15.48.19.63l.06.22-.08-.21-.21-.63c-.19-.55-.46-1.36-.81-2.39-.71-2.08-1.76-5.08-3.23-8.72-.37-.91-.75-1.87-1.2-2.83a2.41,2.41,0,0,0-1-1.16,1.08,1.08,0,0,0-1.35,1.69,2.66,2.66,0,0,0,1.52.8,5.32,5.32,0,0,0,3.61-.51,5.23,5.23,0,0,0,2.46-2.93,5,5,0,0,0,.26-2,2,2,0,0,0-.93-1.67,1.1,1.1,0,0,0-1.51.38,1.47,1.47,0,0,0-.1.22,2.53,2.53,0,0,0,.12,2,4.49,4.49,0,0,0,3.34,2.49,5.21,5.21,0,0,0,4.08-1.09,3.3,3.3,0,0,0,1.2-1.67,1.44,1.44,0,0,0-.12-1,1,1,0,0,0-.75-.53,1.27,1.27,0,0,0-.9.29,1.56,1.56,0,0,0-.52.81,3.58,3.58,0,0,0,.1,2,4.85,4.85,0,0,0,2.45,2.91,4.72,4.72,0,0,0,3.54.19,2.33,2.33,0,0,0,1.29-1.1,1.06,1.06,0,0,0-.42-1.41,1.7,1.7,0,0,0-1.55,0,3.41,3.41,0,0,0-1.17,1,16.33,16.33,0,0,0-1.49,2.68,28.23,28.23,0,0,0-1.67,5c-.35,1.52-.58,2.85-.75,3.93s-.29,1.92-.38,2.5l-.09.65C559.18,378,559.17,378.06,559.17,378.06Z" transform="translate(-0.03 -0.14)"/><rect class="cls-24" x="346.06" y="347.84" width="3.66" height="3.66"/><polygon class="cls-5" points="807.77 391.14 809.99 339.61 742.52 339.61 745.29 390.99 807.77 391.14"/><path class="cls-11" d="M784,350.11s7.39-.28,8.7.32-.34,12.66-.34,12.66l3,2.7-2.76,2.68s.15,12.22-1.59,13.23-7.69,0-7.69,0v-3.05s4.86.31,5.66-.34.72-11.33.72-11.33l1.31-1.43L789.68,364s.24-7.61.1-9.7c-.1-1.39-5.75-1.46-5.75-1.46Z" transform="translate(-0.03 -0.14)"/><path class="cls-11" d="M767.08,350.11s-7.4-.28-8.7.32.33,12.66.33,12.66l-2.94,2.7,2.75,2.68s-.14,12.22,1.6,13.23,7.68,0,7.68,0v-3.05s-4.85.31-5.65-.34-.73-11.33-.73-11.33l-1.3-1.42,1.3-1.54s-.24-7.61-.09-9.7c.09-1.39,5.75-1.46,5.75-1.46Z" transform="translate(-0.03 -0.14)"/><polygon class="cls-11" points="458.76 439.39 446.72 453.34 458.98 463.74 458.98 458.37 451.89 452.24 458.47 444.79 458.76 439.39"/><polygon class="cls-11" points="479.91 440.02 491.94 453.97 479.68 464.37 479.68 459 486.77 452.86 478.88 444.51 479.91 440.02"/><polygon class="cls-11" points="461.38 463.74 471.86 440.65 476.79 440.65 464.91 463.74 461.38 463.74"/><path class="cls-41" d="M393.8,429.56c.65-.16,1.29-.33,1.93-.51" transform="translate(-0.03 -0.14)"/><path class="cls-42" d="M400.58,427.39c43.84-17.16,56.84-87.27,118.53-108.39" transform="translate(-0.03 -0.14)"/><path class="cls-41" d="M521.55,318.2l1.92-.58" transform="translate(-0.03 -0.14)"/><path class="cls-26" d="M712.21,315.49l8.57-13.81-4.23-2.6a3.87,3.87,0,0,1-1.79-3.63c.06-.81.09-1.62.07-2.43a3.86,3.86,0,0,1,2-3.51l4.38-2.35-7.68-14.33-4.38,2.35a3.84,3.84,0,0,1-4-.26c-.67-.46-1.36-.89-2.07-1.28a3.85,3.85,0,0,1-2-3.5l.16-5-16.31-.5-.15,5a3.88,3.88,0,0,1-2.26,3.37c-.36.16-.72.34-1.07.53a10.58,10.58,0,0,0-1,.6,3.88,3.88,0,0,1-4,0l-4.26-2.64-8.57,13.81,4.24,2.63a3.89,3.89,0,0,1,1.79,3.63,21.66,21.66,0,0,0-.08,2.42,3.85,3.85,0,0,1-2,3.5l-4.38,2.36,7.68,14.32,4.38-2.35a3.84,3.84,0,0,1,4,.26,22.76,22.76,0,0,0,2.06,1.27,3.87,3.87,0,0,1,2,3.5l-.16,5,16.24.5.16-5a3.84,3.84,0,0,1,2.26-3.35c.36-.17.72-.36,1.07-.55a10.54,10.54,0,0,0,1-.59,3.86,3.86,0,0,1,4.06,0Zm-13.75-10.26a13.31,13.31,0,1,1,5.44-18v0A13.31,13.31,0,0,1,698.46,305.23Z" transform="translate(-0.03 -0.14)"/><path class="cls-26" d="M238.92,184.94,246,173.57l-3.48-2.16a3.19,3.19,0,0,1-1.48-3,16.71,16.71,0,0,0,.07-2,3.2,3.2,0,0,1,1.66-2.89l3.61-1.93L240,149.79l-3.61,1.94a3.18,3.18,0,0,1-3.32-.22,18.48,18.48,0,0,0-1.7-1,3.19,3.19,0,0,1-1.68-2.89l.13-4.09-13.37-.42-.12,4.11a3.19,3.19,0,0,1-1.87,2.77l-.88.44c-.29.16-.58.32-.86.49a3.15,3.15,0,0,1-3.32,0l-3.5-2.17-7.06,11.37,3.49,2.17a3.12,3.12,0,0,1,1.47,3c0,.66-.07,1.33-.06,2a3.19,3.19,0,0,1-1.66,2.89l-3.61,1.93,6.32,11.8,3.61-1.94a3.2,3.2,0,0,1,3.33.22,17,17,0,0,0,1.69,1,3.16,3.16,0,0,1,1.68,2.89l-.13,4.1,13.38.42.12-4.11a3.22,3.22,0,0,1,1.86-2.76l.89-.44c.29-.16.58-.32.86-.49a3.19,3.19,0,0,1,3.34,0Zm-11.32-8.45A11,11,0,1,1,232,161.58l0,.08a11,11,0,0,1-4.43,14.84l-.05,0Z" transform="translate(-0.03 -0.14)"/><polygon class="cls-26" points="523.89 735.04 521.86 762.8 486.21 762.8 484.19 735.04 523.89 735.04"/><rect class="cls-26" x="479.93" y="724.11" width="47.4" height="10.94"/><polygon class="cls-43" points="527.33 761.73 527.33 764.77 525.11 764.77 480.72 764.77 480.72 761.73 527.33 761.73"/><polygon class="cls-26" points="522.92 770.1 525.11 764.77 482.41 764.77 484.96 770.1 522.92 770.1"/><path class="cls-44" d="M483.72,735c0,.12,8.93.22,19.95.22s20-.1,20-.22-8.93-.22-20-.22S483.72,734.88,483.72,735Z" transform="translate(-0.03 -0.14)"/><path class="cls-44" d="M481.92,765.2c0,.12,9.71.22,21.68.22s21.68-.1,21.68-.22-9.7-.22-21.68-.22S481.92,765.08,481.92,765.2Z" transform="translate(-0.03 -0.14)"/><polygon class="cls-26" points="517.59 297.38 529.86 304.22 530.76 314.5 538.58 308.03 549.08 312.9 579.54 284.24 517.59 297.38"/><polygon class="cls-27" points="529.86 304.22 578.61 284.43 535.66 306.68 530.76 314.5 530.76 314.5 529.86 304.22"/><polygon class="cls-45" points="535.66 306.68 538.58 308.03 530.76 314.5 535.66 306.68"/><rect class="cls-46" x="281.01" y="20.99" width="375" height="236" rx="19.45"/><rect class="cls-2" x="277.01" y="16.99" width="375" height="236" rx="19.45"/><rect class="cls-35" x="316.21" y="73.04" width="63.29" height="63.29"/><polygon class="cls-47" points="321.06 131.48 341.81 101.91 364.32 131.48 321.06 131.48"/><polyline class="cls-47" points="374.47 131.48 350.19 131.48 361.84 114.88"/><rect class="cls-48" x="320.83" y="77.66" width="54.05" height="54.05"/><circle class="cls-47" cx="357.1" cy="100.06" r="4.62"/><rect class="cls-49" x="311.05" y="67.76" width="73.62" height="73.85"/><rect class="cls-50" x="345.43" y="64.95" width="4.85" height="4.85"/><rect class="cls-50" x="308.47" y="65.44" width="4.85" height="4.85"/><rect class="cls-50" x="381.93" y="65.3" width="4.85" height="4.85"/><rect class="cls-50" x="345.2" y="138.65" width="4.85" height="4.85"/><rect class="cls-50" x="308.24" y="139.14" width="4.85" height="4.85"/><rect class="cls-50" x="381.7" y="139" width="4.85" height="4.85"/><rect class="cls-50" x="308.7" y="102.14" width="4.85" height="4.85"/><rect class="cls-50" x="382.16" y="102" width="4.85" height="4.85"/><rect class="cls-35" x="546.81" y="168.66" width="63.29" height="63.29"/><polygon class="cls-47" points="551.66 227.1 572.41 197.53 594.92 227.1 551.66 227.1"/><polyline class="cls-47" points="605.07 227.1 580.78 227.1 592.43 210.5"/><rect class="cls-48" x="551.43" y="173.28" width="54.05" height="54.05"/><circle class="cls-47" cx="587.69" cy="195.69" r="4.62"/><rect class="cls-49" x="541.64" y="163.38" width="73.62" height="73.85"/><rect class="cls-50" x="576.03" y="160.58" width="4.85" height="4.85"/><rect class="cls-50" x="539.07" y="161.06" width="4.85" height="4.85"/><rect class="cls-50" x="612.53" y="160.92" width="4.85" height="4.85"/><rect class="cls-50" x="575.8" y="234.27" width="4.85" height="4.85"/><rect class="cls-50" x="538.84" y="234.76" width="4.85" height="4.85"/><rect class="cls-50" x="612.29" y="234.62" width="4.85" height="4.85"/><rect class="cls-50" x="539.3" y="197.76" width="4.85" height="4.85"/><rect class="cls-50" x="612.76" y="197.63" width="4.85" height="4.85"/><rect class="cls-51" x="405.16" y="65.31" width="204.85" height="7.68"/><rect class="cls-51" x="405.16" y="84.66" width="204.85" height="4.75"/><rect class="cls-51" x="405.46" y="92.29" width="216.56" height="4.75"/><rect class="cls-51" x="405.46" y="99.92" width="216.56" height="4.75"/><rect class="cls-51" x="405.46" y="107.55" width="207.84" height="4.75"/><rect class="cls-51" x="405.52" y="121.47" width="216.56" height="4.75"/><rect class="cls-51" x="405.52" y="129.1" width="216.56" height="4.75"/><rect class="cls-51" x="405.52" y="136.73" width="207.84" height="4.75"/><rect class="cls-51" x="308.75" y="167.93" width="204.85" height="7.68"/><rect class="cls-51" x="308.75" y="187.28" width="204.85" height="4.75"/><rect class="cls-51" x="309.05" y="194.91" width="216.56" height="4.75"/><rect class="cls-51" x="309.05" y="202.54" width="216.56" height="4.75"/><rect class="cls-51" x="309.05" y="210.17" width="207.84" height="4.75"/><rect class="cls-51" x="308.12" y="218.72" width="216.56" height="4.75"/><rect class="cls-52" x="305.89" y="32.9" width="315.12" height="20.93" rx="3.85"/><path class="cls-53" d="M589.06,43.5a4,4,0,1,1-4-4.08A4.05,4.05,0,0,1,589.06,43.5Z" transform="translate(-0.03 -0.14)"/><path class="cls-53" d="M601.69,43.5a4,4,0,1,1-4-4.08A4.05,4.05,0,0,1,601.69,43.5Z" transform="translate(-0.03 -0.14)"/><path class="cls-53" d="M614.32,43.5a4,4,0,1,1-4-4.08A4.05,4.05,0,0,1,614.32,43.5Z" transform="translate(-0.03 -0.14)"/><circle class="cls-26" cx="319.01" cy="42.99" r="7"/><path class="cls-11" d="M393,799.12s-3-4-3-14c0,0,69,5,106,1,0,0,1.06,3,0,5S415.25,799.12,393,799.12Z" transform="translate(-0.03 -0.14)"/><path class="cls-11" d="M484,776.12s-10,3-9,12h-2.56S473,776.12,484,776.12Z" transform="translate(-0.03 -0.14)"/><path class="cls-12" d="M379.89,835.19c-3.47.2-94.48-24.49-97.36-27.62-1.09-1.18,1.73-14.65,5.6-30.82l58.73,15.75s30.61,25,33.4,28.81S383.36,835,379.89,835.19Z" transform="translate(-0.03 -0.14)"/><path class="cls-11" d="M375.29,816.45a12.7,12.7,0,0,0-10.14,1.25,12.34,12.34,0,0,0-5.62,7.22c0,.09.15.14.19,0a14.68,14.68,0,0,1,15.52-8.33.09.09,0,0,0,.05-.13Z" transform="translate(-0.03 -0.14)"/><path class="cls-11" d="M352.36,795.62c-6.08-1.74-13.75-1.51-18.9,2.46-.2.15,0,.43.23.39a87.2,87.2,0,0,1,18.57-2.07.4.4,0,0,0,.38-.42A.4.4,0,0,0,352.36,795.62Z" transform="translate(-0.03 -0.14)"/><path class="cls-11" d="M356.58,798.74c-6.09-1.75-13.75-1.51-18.9,2.45-.2.16,0,.44.23.39a87.87,87.87,0,0,1,18.57-2,.41.41,0,0,0,.1-.82Z" transform="translate(-0.03 -0.14)"/><path class="cls-11" d="M360.79,801.85c-6.08-1.74-13.75-1.5-18.89,2.46-.2.15,0,.44.22.39a87.85,87.85,0,0,1,18.57-2.07.4.4,0,0,0,.38-.42A.4.4,0,0,0,360.79,801.85Z" transform="translate(-0.03 -0.14)"/><path class="cls-11" d="M365,805c-6.09-1.74-13.75-1.51-18.9,2.46-.2.15,0,.43.23.39a87.2,87.2,0,0,1,18.57-2.07.4.4,0,0,0,.38-.42A.4.4,0,0,0,365,805Z" transform="translate(-0.03 -0.14)"/><path class="cls-11" d="M282,808.12s-.76-5.5,2.68-14.89c0,0,62.19,27.89,98.32,36.89,0,0-.32,3.49-2,5S302.89,815.78,282,808.12Z" transform="translate(-0.03 -0.14)"/><path class="cls-11" d="M375.13,816.82s-10.42-.63-12.59,8.17l-2.4-.89S364.8,813,375.13,816.82Z" transform="translate(-0.03 -0.14)"/><path class="cls-17" d="M596.13,807.21c3.85-.3,100.35-41.33,103-45.22,1-1.47-4.13-15.88-10.86-33.1L626,755.16S596.11,787.4,593.61,792,592.28,807.56,596.13,807.21Z" transform="translate(-0.03 -0.14)"/><path class="cls-13" d="M598.34,784.87a14.13,14.13,0,0,1,11.36-.16c2.94,1.34,6,3.69,7.29,7.1,0,.09-.14.17-.2.08-3.61-5.94-11.73-9-18.36-6.82a.11.11,0,0,1-.14-.07A.1.1,0,0,1,598.34,784.87Z" transform="translate(-0.03 -0.14)"/><path class="cls-13" d="M620.42,758.44c6.44-2.85,14.91-3.75,21.19-.17.24.14,0,.49-.19.47a97.47,97.47,0,0,0-20.77.54.44.44,0,0,1-.23-.84Z" transform="translate(-0.03 -0.14)"/><path class="cls-13" d="M616.27,762.56c6.43-2.84,14.91-3.75,21.19-.16.24.14,0,.48-.19.46a96.82,96.82,0,0,0-20.77.55.45.45,0,0,1-.23-.85Z" transform="translate(-0.03 -0.14)"/><path class="cls-13" d="M612.1,766.56c6.43-2.85,14.91-3.75,21.19-.17.24.14,0,.48-.19.47a97.47,97.47,0,0,0-20.77.54.44.44,0,0,1-.23-.84Z" transform="translate(-0.03 -0.14)"/><path class="cls-13" d="M607.93,770.66c6.43-2.84,14.91-3.75,21.19-.17.24.14,0,.49-.19.47a97.47,97.47,0,0,0-20.77.54.44.44,0,0,1-.23-.84Z" transform="translate(-0.03 -0.14)"/><path class="cls-13" d="M699,762.12s.77-6.78-4.45-16.6c0,0-64.12,40.2-102.55,55.6,0,0,.91,4.59,3,6S677.23,773.72,699,762.12Z" transform="translate(-0.03 -0.14)"/><path class="cls-13" d="M598.58,785.25s11.38-2.27,15.1,7.09L616.2,791S609.42,779.56,598.58,785.25Z" transform="translate(-0.03 -0.14)"/><path class="cls-13" d="M538.63,580.7l-16.44,22.54s-2.93,3.07,2,5l16.4-22Z" transform="translate(-0.03 -0.14)"/><path class="cls-26" d="M69.08,752.44A32.58,32.58,0,0,0,47.42,756c-2.23,1.24-4.52,3.1-4.66,5.65-.2,3.39,3.43,5.7,6.74,6.5A23.93,23.93,0,0,0,66.13,766c5.06-2.66,8.5-5.83,10.53-11.17" transform="translate(-0.03 -0.14)"/><path class="cls-26" d="M108.74,767.47c-8.58-2.19-22.53-2.15-30.6,1.46a10.42,10.42,0,0,0-3.51,2.26A4.22,4.22,0,0,0,73.42,775c.5,2,2.61,3,4.53,3.54a34.54,34.54,0,0,0,34.94-9.79" transform="translate(-0.03 -0.14)"/><path class="cls-26" d="M143.19,785.18a49.92,49.92,0,0,0-25.87,4.26c-1.89.86-3.88,2-4.55,4-1,3,1.6,6,4.47,7.34,5.91,2.65,12.83.86,18.81-1.63,6.44-2.68,14.13-9.4,14.13-9.4" transform="translate(-0.03 -0.14)"/><path class="cls-26" d="M165.7,798.68c-7.07.16-14.25,1.26-20.58,4.42a10.26,10.26,0,0,0-3.66,2.73,4.27,4.27,0,0,0-.63,4.33c1.11,2.21,4.17,2.4,6.62,2.06,8.47-1.18,16.14-4.35,22.35-10.23" transform="translate(-0.03 -0.14)"/><path class="cls-26" d="M154.7,789.44a154.28,154.28,0,0,1-8-27.2c-.29-1.45-.47-3.18.62-4.18a3,3,0,0,1,3.22-.29,7.62,7.62,0,0,1,2.52,2.27c7,8.9,9.25,21.84,6.33,32.81" transform="translate(-0.03 -0.14)"/><path class="cls-26" d="M124.58,773.37l-9-22.89a19.12,19.12,0,0,1-1.73-6.76c0-2.34,1.07-4.84,3.18-5.85s4.72-.29,6.52,1.19a16.74,16.74,0,0,1,4,5.7c2.44,5,4.48,10.28,5,15.81s.29,10.17-3.1,14.58" transform="translate(-0.03 -0.14)"/><path class="cls-26" d="M90,756.56A54.4,54.4,0,0,1,77,731.37a9.14,9.14,0,0,1-.09-4.73c1-3,4.74-4.39,7.87-3.81a12.91,12.91,0,0,1,8.33,6.28,27.48,27.48,0,0,1,3.2,10.18A63,63,0,0,1,96.07,759" transform="translate(-0.03 -0.14)"/><path class="cls-26" d="M57.51,746.15c-8.89-6.68-14.09-16.17-18.66-26.32-1-2.14-1.75-4.82-.31-6.67a4.51,4.51,0,0,1,4-1.48,10.53,10.53,0,0,1,4.15,1.6,34.06,34.06,0,0,1,15.8,34.13" transform="translate(-0.03 -0.14)"/><path class="cls-26" d="M40.61,742.31c-4.68-3.24-9.4-6.5-14.61-8.8s-11-3.63-16.62-2.8a13.08,13.08,0,0,0-6.7,2.75A7.17,7.17,0,0,0,.09,740,7.61,7.61,0,0,0,4.28,745a19.31,19.31,0,0,0,6.56,1.64c10.76,1.25,23.8.58,29.77-4.37" transform="translate(-0.03 -0.14)"/><path class="cls-26" d="M149.21,686.56A32.58,32.58,0,0,0,131.94,673c-2.43-.79-5.34-1.22-7.32.4-2.63,2.15-1.86,6.4-.21,9.36a24,24,0,0,0,12.81,10.79c5.38,1.91,10,2.29,15.35.16" transform="translate(-0.03 -0.14)"/><path class="cls-26" d="M165,725.89c-4.2-7.78-13.68-18-21.81-21.51a10.26,10.26,0,0,0-4-1,4.27,4.27,0,0,0-3.62,1.75c-1.09,1.68-.4,3.92.47,5.72a34.47,34.47,0,0,0,30.88,19" transform="translate(-0.03 -0.14)"/><path class="cls-26" d="M175.42,763.23a50.08,50.08,0,0,0-20.67-16.14c-1.91-.8-4.11-1.48-6-.64-2.88,1.27-3.36,5.28-2.36,8.26,2.06,6.14,8.06,10,13.94,12.73,6.34,2.92,16.5,4,16.5,4" transform="translate(-0.03 -0.14)"/><path class="cls-26" d="M180.71,788.92c-4.9-5.09-10.58-9.62-17.19-12.12A10,10,0,0,0,159,776a4.23,4.23,0,0,0-3.61,2.47c-.88,2.31,1.06,4.69,3,6.26,6.61,5.42,14.14,8.92,22.67,9.49" transform="translate(-0.03 -0.14)"/><path class="cls-26" d="M180.05,774.56a155.05,155.05,0,0,1,14.58-24.32c.87-1.19,2-2.49,3.49-2.38a3,3,0,0,1,2.4,2.17,7.51,7.51,0,0,1,0,3.4c-1.77,11.22-9.78,21.6-19.83,26.9" transform="translate(-0.03 -0.14)"/><path class="cls-26" d="M171.42,741.56l10.72-22.14a18.73,18.73,0,0,1,3.8-5.85c1.72-1.59,4.27-2.5,6.45-1.64s3.42,3.28,3.54,5.61a16.58,16.58,0,0,1-1.49,6.79c-2,5.18-4.51,10.26-8.23,14.4s-7.28,7.1-12.82,7.59" transform="translate(-0.03 -0.14)"/><path class="cls-26" d="M160.35,704.69a54.46,54.46,0,0,1,9.75-26.59,9.28,9.28,0,0,1,3.42-3.28c2.9-1.32,6.44.52,8.14,3.21a12.91,12.91,0,0,1,1,10.38,27.14,27.14,0,0,1-5.24,9.25,62.66,62.66,0,0,1-14.68,13.17" transform="translate(-0.03 -0.14)"/><path class="cls-26" d="M146,673.79c-1.11-11.08,2.32-21.34,6.7-31.57.92-2.15,2.36-4.55,4.69-4.75a4.5,4.5,0,0,1,3.82,2,10.41,10.41,0,0,1,1.64,4.14,34.07,34.07,0,0,1-14.42,34.71" transform="translate(-0.03 -0.14)"/><path class="cls-26" d="M137.36,658.75c-.8-5.63-1.6-11.31-3.43-16.7s-4.79-10.54-9.22-14.12a13.22,13.22,0,0,0-6.56-3.06,7.15,7.15,0,0,0-6.55,2.52,7.59,7.59,0,0,0-.88,6.5,19.2,19.2,0,0,0,3.24,5.94c6.38,8.75,15.71,17.9,23.4,18.92" transform="translate(-0.03 -0.14)"/><path class="cls-26" d="M494,683c-4.63-2.39-10.09-2.7-15.24-1.85-2.76.46-5.64,1.29-7.53,3.36s-2.23,5.73-.07,7.52a7.18,7.18,0,0,0,4.74,1.2c4,0,8.5-.75,11.72,1.67,1.84,1.38,3.06,3.68,5.25,4.36a5.18,5.18,0,0,0,5.72-2.54,8.89,8.89,0,0,0,.64-6.54A10,10,0,0,0,494,683Z" transform="translate(-0.03 -0.14)"/><path class="cls-26" d="M504.58,662.56c-2.83,4-8.34,2.71-10.9.24s-3.63-6-4.61-9.47c-2.25-7.8-4.51-16-2.84-23.93a13.27,13.27,0,0,1,3.06-6.51,6.94,6.94,0,0,1,6.58-2.19c2.78.73,4.5,3.45,5.75,6a57.06,57.06,0,0,1,5.64,24.49c0,3.94-.45,8.08-2.68,11.33" transform="translate(-0.03 -0.14)"/><path class="cls-26" d="M512.42,668.34c-3.08-3.65-3.67-9-2.3-13.55s4.47-8.47,8-11.65a43,43,0,0,1,14.38-8.48,15.39,15.39,0,0,1,6.47-1.1,6.78,6.78,0,0,1,5.42,3.28c1.51,2.89.06,6.39-1.51,9.24a108.73,108.73,0,0,1-9.46,14.38c-2.83,3.65-6.07,7.25-10.38,8.9s-8.8,1.46-11.08-1.54" transform="translate(-0.03 -0.14)"/><path class="cls-26" d="M861.14,713c8.65,1.57,16.28,6.67,22.28,13.06,3.24,3.43,6.26,7.48,6.66,12.18s-2.84,10-7.56,10.14c-2.8.11-5.37-1.5-7.58-3.22-5.35-4.17-10.61-9.68-17.4-9.71-3.87,0-7.85,1.81-11.48.48s-5.51-5.47-5.06-9.22,2.87-7,5.81-9.43A16.82,16.82,0,0,1,861.14,713Z" transform="translate(-0.03 -0.14)"/><path class="cls-26" d="M889.82,655.71c-.33,8.31,8.41,12.13,14.35,11.43s11-4.41,15.84-8c11-8.16,22.34-16.82,28.2-29.16,1.76-3.69,3-7.77,2.54-11.84s-2.8-8.08-6.58-9.64c-4.47-1.85-9.56,0-13.86,2.23a96,96,0,0,0-32.52,27c-4,5.27-7.63,11.28-8,17.91" transform="translate(-0.03 -0.14)"/><path class="cls-26" d="M873.47,655.56c7.85-1.75,14.06-8.29,16.89-15.82S893,623.85,891.48,616a72.94,72.94,0,0,0-10.61-26,25.29,25.29,0,0,0-7.54-8.06c-3.15-1.95-7.25-2.71-10.61-1.14-5,2.33-6.6,8.49-7.41,13.92a184.88,184.88,0,0,0-2,28.88c.07,7.78.75,15.9,4.84,22.51s10.3,10.91,16.41,9.24" transform="translate(-0.03 -0.14)"/><path class="cls-26" d="M777.79,774.5c-4.08-3.26-9.37-4.63-14.58-4.81-2.8-.09-5.79.15-8,1.82s-3.32,5.18-1.55,7.36a7.22,7.22,0,0,0,4.42,2.11c4,.74,8.48.92,11.16,3.93,1.53,1.72,2.27,4.21,4.29,5.31a5.21,5.21,0,0,0,6.1-1.37,8.91,8.91,0,0,0,1.92-6.3A10,10,0,0,0,777.79,774.5Z" transform="translate(-0.03 -0.14)"/><path class="cls-26" d="M792.22,756.48c-3.57,3.41-8.71,1-10.73-1.91s-2.38-6.65-2.67-10.19c-.67-8.09-1.29-16.56,1.91-24A13.25,13.25,0,0,1,785,714.6a7,7,0,0,1,6.89-.85c2.58,1.26,3.74,4.27,4.45,7a56.92,56.92,0,0,1,.73,25.11c-.76,3.87-2,7.84-4.85,10.6" transform="translate(-0.03 -0.14)"/><path class="cls-26" d="M798.72,763.7c-2.31-4.19-1.83-9.53.41-13.74a26,26,0,0,1,10.15-9.85,43.4,43.4,0,0,1,15.76-5.5,15.45,15.45,0,0,1,6.56.19,6.8,6.8,0,0,1,4.68,4.29c.91,3.12-1.19,6.27-3.29,8.76a110,110,0,0,1-12.08,12.25c-3.49,3-7.38,5.92-11.93,6.69s-8.91-.3-10.57-3.68" transform="translate(-0.03 -0.14)"/><path class="cls-54" d="M9.49,735.34a11.22,11.22,0,0,0,1.89.51L16.86,737c2.38.48,5.3,1.09,8.65,1.91s7.21,1.62,11.4,2.78c8.43,2.12,18.37,5,29.29,8.6s22.72,8.1,34.9,13.34,23.47,10.94,33.59,16.38,19,10.8,26.3,15.51c3.71,2.27,6.93,4.52,9.81,6.43s5.33,3.59,7.31,5l4.61,3.19a10.4,10.4,0,0,0,1.67,1,10.46,10.46,0,0,0-1.49-1.26l-4.48-3.36c-1.93-1.48-4.33-3.26-7.18-5.22s-6-4.29-9.72-6.62c-7.25-4.83-16.13-10.21-26.21-15.82s-21.46-11.2-33.66-16.53-24.11-9.66-35.06-13.28-21-6.33-29.45-8.33c-4.22-1.09-8.09-1.84-11.48-2.57s-6.31-1.28-8.71-1.68l-5.53-1A9.59,9.59,0,0,0,9.49,735.34Z" transform="translate(-0.03 -0.14)"/><path class="cls-54" d="M121.42,631.15a10.24,10.24,0,0,0,.9,1.74c.73,1.23,1.67,2.83,2.84,4.83s2.79,4.64,4.46,7.66,3.69,6.4,5.69,10.26c4.15,7.64,8.76,16.91,13.52,27.36s9.46,22.2,13.86,34.71,7.87,24.67,10.73,35.79,4.94,21.28,6.43,29.85c.84,4.26,1.37,8.16,1.93,11.57s1,6.35,1.27,8.77.58,4.13.78,5.55a10.5,10.5,0,0,0,.37,1.92,10.27,10.27,0,0,0-.08-2l-.51-5.59c-.22-2.43-.54-5.39-1-8.82s-.94-7.34-1.72-11.63c-1.36-8.6-3.43-18.78-6.14-30s-6.31-23.37-10.66-36-9.25-24.28-14-34.77-9.56-19.72-13.84-27.31c-2.06-3.84-4.13-7.19-5.89-10.18s-3.33-5.51-4.67-7.54l-3.07-4.7A10.68,10.68,0,0,0,121.42,631.15Z" transform="translate(-0.03 -0.14)"/><path class="cls-54" d="M504.77,723.56a9.47,9.47,0,0,1-.25-1.84c-.13-1.34-.3-3-.49-5a70.31,70.31,0,0,0-1.13-7.36,56.31,56.31,0,0,0-2.68-8.69,32.11,32.11,0,0,0-4.43-7.87,16.57,16.57,0,0,0-5.62-4.66,15.34,15.34,0,0,0-4.72-1.47,9.4,9.4,0,0,1-1.83-.27,9.63,9.63,0,0,1,1.86,0,14.28,14.28,0,0,1,4.93,1.29,16.63,16.63,0,0,1,5.92,4.7,31.39,31.39,0,0,1,4.6,8,53.54,53.54,0,0,1,2.66,8.84,62.29,62.29,0,0,1,1,7.45c.16,2.13.22,3.86.25,5A7.88,7.88,0,0,1,504.77,723.56Z" transform="translate(-0.03 -0.14)"/><path class="cls-54" d="M504.42,719.74a4.12,4.12,0,0,1,0-.86v-2.44c0-2.11,0-5.18-.11-9-.19-7.57-.84-15.71-2.1-27.2-1.19-10.8-2.79-23.37-4.48-31.55-.36-1.85-.73-3.53-1.07-5s-.61-2.74-.88-3.76l-.57-2.37a4,4,0,0,1-.15-.84,2.86,2.86,0,0,1,.3.8c.18.61.42,1.38.71,2.33s.63,2.28,1,3.74.79,3.13,1.18,5A278.63,278.63,0,0,1,503,677.86c1.26,11.51,1.83,22,1.88,29.58.05,3.8,0,6.87-.13,9-.06,1-.11,1.8-.15,2.44A4.17,4.17,0,0,1,504.42,719.74Z" transform="translate(-0.03 -0.14)"/><path class="cls-54" d="M504.42,699.56a15.51,15.51,0,0,1,0-2.55,66.5,66.5,0,0,1,.78-6.9A92,92,0,0,1,507.42,680a83.79,83.79,0,0,1,4.21-11.91A63.42,63.42,0,0,1,524,648.85a31.11,31.11,0,0,1,2.91-2.71c.45-.37.84-.75,1.24-1l1.13-.78a16.64,16.64,0,0,1,2.15-1.37c.12.16-3,2-7,6.28a66.86,66.86,0,0,0-12,19.17,94.71,94.71,0,0,0-4.23,11.8,98.22,98.22,0,0,0-2.39,10c-.53,2.87-.84,5.21-1,6.84A17.87,17.87,0,0,1,504.42,699.56Z" transform="translate(-0.03 -0.14)"/><path class="cls-54" d="M805.31,756.31a14.83,14.83,0,0,0,2.21-2.2l5.78-6.23a121.29,121.29,0,0,1,9-8.71,94.85,94.85,0,0,1,12.44-8.91,53.38,53.38,0,0,1,14-6,28.09,28.09,0,0,1,12.27-.53,26.23,26.23,0,0,1,7.81,2.83,15.15,15.15,0,0,0,2.73,1.51,15,15,0,0,0-2.47-1.94,24.49,24.49,0,0,0-7.91-3.31,28,28,0,0,0-12.72.27,52.69,52.69,0,0,0-14.34,6.06,89.29,89.29,0,0,0-12.57,9.12,106.58,106.58,0,0,0-8.91,9c-2.39,2.69-4.23,4.94-5.48,6.51A13.87,13.87,0,0,0,805.31,756.31Z" transform="translate(-0.03 -0.14)"/><path class="cls-54" d="M831.71,732.49a7.52,7.52,0,0,0,.93-1.1c.66-.86,1.48-1.94,2.48-3.27,2.15-2.85,5.28-7,9.29-11.9,8-10,17.15-20.2,30.55-34.31,12.61-13.25,27.57-28.45,38.16-37.68,2.38-2.12,4.57-4,6.53-5.6s3.6-3,5-4.14l3.18-2.59a6.28,6.28,0,0,0,1.06-1,6.36,6.36,0,0,0-1.21.77l-3.33,2.41c-1.46,1-3.17,2.39-5.16,4s-4.24,3.39-6.66,5.47A463.61,463.61,0,0,0,876.42,678c-13.43,14.13-24.87,27.59-32.68,37.7-3.93,5-7,9.24-9,12.18l-2.32,3.42A5.46,5.46,0,0,0,831.71,732.49Z" transform="translate(-0.03 -0.14)"/><path class="cls-54" d="M852.42,705.46A26.06,26.06,0,0,0,855,702c1.54-2.29,3.66-5.69,6-10a154.89,154.89,0,0,0,7.25-15.77,139.48,139.48,0,0,0,6.5-20.24c3.77-14.66,4.32-28.56,3.07-38.38a56.37,56.37,0,0,0-1.14-6.59c-.22-1-.36-1.86-.6-2.67s-.49-1.52-.71-2.19a27,27,0,0,0-1.48-4c-.33.1,2,5.81,3,15.58s.32,23.44-3.41,38a157.65,157.65,0,0,1-6.36,20.12,172,172,0,0,1-7,15.78c-2.22,4.39-4.2,7.84-5.61,10.2A27.41,27.41,0,0,0,852.42,705.46Z" transform="translate(-0.03 -0.14)"/><path class="cls-54" d="M780.42,816.4a8.27,8.27,0,0,1,.1-1.86c.14-1.34.31-3,.51-5a71.11,71.11,0,0,0,.34-7.44,57.81,57.81,0,0,0-.92-9,32.34,32.34,0,0,0-2.81-8.58,16.62,16.62,0,0,0-4.59-5.67,15.33,15.33,0,0,0-4.35-2.37,9.74,9.74,0,0,1-1.74-.62,8.81,8.81,0,0,1,1.83.34,14.21,14.21,0,0,1,4.58,2.22,16.51,16.51,0,0,1,4.89,5.77,31.57,31.57,0,0,1,2.93,8.77,52.49,52.49,0,0,1,.88,9.19,62.71,62.71,0,0,1-.51,7.5c-.26,2.12-.54,3.83-.74,5A9.64,9.64,0,0,1,780.42,816.4Z" transform="translate(-0.03 -0.14)"/><path class="cls-54" d="M780.85,812.56a4.05,4.05,0,0,1,.12-.85l.49-2.39c.42-2.08,1-5.08,1.65-8.82,1.3-7.46,2.26-15.57,3.28-27.08,1-10.83,1.84-23.47,1.79-31.82,0-1.89,0-3.6-.07-5.1s-.06-2.8-.12-3.86-.07-1.8-.1-2.44a3,3,0,0,1,0-.85,3.42,3.42,0,0,1,.13.84c.07.64.14,1.44.24,2.43s.18,2.35.25,3.86.16,3.22.19,5.12a278.92,278.92,0,0,1-1.12,29.62,282.55,282.55,0,0,1-4,29.38c-.7,3.73-1.38,6.73-1.89,8.79-.26,1-.46,1.74-.63,2.36A2.85,2.85,0,0,1,780.85,812.56Z" transform="translate(-0.03 -0.14)"/><path class="cls-54" d="M787.12,791.14a16.32,16.32,0,0,1,.52-2.5c.41-1.59,1.1-3.86,2.12-6.62a90.1,90.1,0,0,1,4.18-9.43,81.39,81.39,0,0,1,6.48-10.85,63.26,63.26,0,0,1,15.89-16.45,31.58,31.58,0,0,1,3.38-2.08c.51-.28,1-.57,1.43-.79l1.26-.54a15.49,15.49,0,0,1,2.37-.92c.09.18-3.38,1.39-8.13,4.77A67.07,67.07,0,0,0,801,762.17a94.92,94.92,0,0,0-6.46,10.74,99.08,99.08,0,0,0-4.3,9.3c-1.08,2.72-1.84,5-2.34,6.51A15.66,15.66,0,0,1,787.12,791.14Z" transform="translate(-0.03 -0.14)"/><path class="cls-25" d="M632.56,594.46s104.62,3.92,159-12.74c0,0-93.91,15.22-161.77,7.78Z" transform="translate(-0.03 -0.14)"/><path class="cls-55" d="M145.53,472.11c0-.23.59-4.2,3.32-5.37,3.4-1.45,5.66,3.36,12.51,3.83,3.79.27,5.58-1,7.92.52,1.67,1.1,3.14,3.34,2.55,4.85-.85,2.17-5.09.55-7.66,3.32-2.33,2.5-.3,5.39-2.81,8.17-1.61,1.78-4.48,2.82-6.64,2-1.7-.62-1.93-2-4.34-6.64C146.74,475.81,145.17,474.91,145.53,472.11Z" transform="translate(-0.03 -0.14)"/><path class="cls-55" d="M175.91,464c-4.25-.31-6.06-1.85-6.63-2.38s-2.41-2.26-2.22-4.26,1.9-2.12,4.77-5.44c2.34-2.73,1.86-3.33,3.4-4.43,2.56-1.82,6.8-2.23,8.68-.34,1.45,1.44.24,3,1.54,6.64,1.39,4,3.56,4.38,3.23,6.13C188.11,463,180.89,464.39,175.91,464Z" transform="translate(-0.03 -0.14)"/><path class="cls-55" d="M230,444.18a5.88,5.88,0,0,1,4.08-3.23c1.7-.32,3.34.63,6.64,2.55,3.46,2,3.55,2.74,5.79,3.4,1.46.43,2.28.37,3.23,1.19s2,2.56,1.53,3.92c-.6,1.72-2.94,1.05-5.44,3.4a23.47,23.47,0,0,0-2.73,3.92c-1.79,2.85-1.81,3.37-2.72,3.91a5,5,0,0,1-5.45-.34c-1.42-1.2-.58-2.48-2-4.25s-2.5-1-4.94-2.9c-.55-.41-3.73-2.82-3.23-4.59.45-1.58,3.36-1,4.6-3.24C230.09,446.55,229.25,445.85,230,444.18Z" transform="translate(-0.03 -0.14)"/><circle class="cls-3" cx="676.32" cy="439.72" r="3.99"/><circle class="cls-3" cx="655.17" cy="444.02" r="4.29"/><circle class="cls-3" cx="679.38" cy="468.22" r="8.4"/><circle class="cls-3" cx="705.98" cy="420.45" r="5.66"/><circle class="cls-3" cx="735.32" cy="439.37" r="6.99"/><circle class="cls-3" cx="618.26" cy="441.48" r="5.11"/><path class="cls-3" d="M628.74,421.44a6.51,6.51,0,0,1-12.63,2.24c3.19-2.76,6.37-5.4,9.42-7.85A6.5,6.5,0,0,1,628.74,421.44Z" transform="translate(-0.03 -0.14)"/><path class="cls-3" d="M608,437.71a8.14,8.14,0,0,1-13.14,6.43c3.5-3.89,7.35-7.78,11.34-11.54A8.07,8.07,0,0,1,608,437.71Z" transform="translate(-0.03 -0.14)"/><path class="cls-3" d="M643.82,457a7.14,7.14,0,0,1-10,6.53c.66-4.48,1.38-9.06,2.15-13.63a6,6,0,0,1,.74,0A7.14,7.14,0,0,1,643.82,457Z" transform="translate(-0.03 -0.14)"/><circle class="cls-3" cx="747.63" cy="466.99" r="5.1"/><circle class="cls-3" cx="720.68" cy="483.23" r="6.24"/><circle class="cls-3" cx="739.2" cy="492.88" r="5.19"/><circle class="cls-3" cx="654" cy="420.45" r="5.66"/><path class="cls-55" d="M285.3,451.93c-1.69,2.42-7.92,3.48-12.36,3.15-4.25-.31-6.07-1.85-6.64-2.38s-2.4-2.25-2.21-4.26,1.9-2.12,4.77-5.44a17.83,17.83,0,0,0,2.23-3.23C275.72,443.51,280.58,447.62,285.3,451.93Z" transform="translate(-0.03 -0.14)"/><path class="cls-31" d="M248.93,496.69c-.53,5.22-1.35,12-2.24,19.17a5,5,0,0,1-4.91-.6,2.61,2.61,0,0,1-.55-.63l3.23-20.51c.86.44,1.86,1,3.1,1.74C248.09,496.16,248.54,496.44,248.93,496.69Z" transform="translate(-0.03 -0.14)"/><path class="cls-55" d="M244.46,494.12l-3.23,20.51c-.65-1-.29-2.15-1.5-3.62-1.35-1.65-2.5-1.05-4.93-2.9-.55-.41-3.74-2.82-3.24-4.59.45-1.58,3.36-1,4.6-3.24.76-1.37-.08-2.07.68-3.74a5.87,5.87,0,0,1,4.09-3.23A5.54,5.54,0,0,1,244.46,494.12Z" transform="translate(-0.03 -0.14)"/><path class="cls-55" d="M331.42,462.43c-.85,2.17-5.09.55-7.66,3.32-2.33,2.51-.3,5.4-2.81,8.17-1.62,1.78-4.48,2.82-6.64,2-1.7-.61-1.93-2-4.34-6.63l-.93-1.75a27,27,0,0,0,3-1.33l17.29-8.33a5.08,5.08,0,0,1,.43.38,5.82,5.82,0,0,1,1.7,2.7A2.24,2.24,0,0,1,331.42,462.43Z" transform="translate(-0.03 -0.14)"/><path class="cls-55" d="M183.6,520.23c-.6,1.72-2.94,1-5.45,3.41a24.54,24.54,0,0,0-2.72,3.91c-.35.56-.63,1-.86,1.42-4.77-1-10.34-3.39-16-6.47-.93-.93-1.81-2.12-1.53-3.12.44-1.58,3.36-1,4.59-3.23.76-1.38-.08-2.08.68-3.75a5.92,5.92,0,0,1,4.09-3.23c1.69-.32,3.34.64,6.64,2.55,3.46,2,3.54,2.75,5.78,3.41,1.47.43,2.29.36,3.24,1.19S184.07,518.87,183.6,520.23Z" transform="translate(-0.03 -0.14)"/></svg>